<?xml version="1.0" standalone="no"?>
<!DOCTYPE svg PUBLIC "-//W3C//DTD SVG 1.1//EN" "http://www.w3.org/Graphics/SVG/1.1/DTD/svg11.dtd" >
<svg xmlns="http://www.w3.org/2000/svg" xmlns:xlink="http://www.w3.org/1999/xlink" version="1.1">
<metadata>
Created by FontForge 20201107 at Wed Mar 27 09:39:29 2024
 By 
(c) 2014 - 2018 Adobe Systems Incorporated (http://www.adobe.com/), with Reserved Font Name `Source'.
</metadata>
<defs>
<font id="SourceSerifPro-Regular" horiz-adv-x="0" >
  <font-face 
    font-family="Source Serif Pro"
    font-weight="400"
    font-stretch="normal"
    units-per-em="2048"
    panose-1="2 4 6 3 5 4 5 2 2 4"
    ascent="1495"
    descent="-553"
    x-height="973"
    cap-height="1370"
    bbox="-492 -686 4577 2052"
    underline-thickness="102"
    underline-position="-153"
    unicode-range="U+0021-1F16B"
  />
<missing-glyph horiz-adv-x="1310" 
d="M164 0v1370h983v-1370h-983zM356 104h598l-299 480zM289 1169v-968l303 485zM719 686l303 -485v968zM356 1266l299 -480l299 480h-598z" />
    <glyph glyph-name="f_f" unicode="ff" horiz-adv-x="1347" 
d="M74 0v74l162 28q4 218 4 328v434h-170v90l172 23q15 167 47.5 264.5t97.5 167.5q117 125 287 125q166 0 198 -111q-3 -40 -36 -66t-88 -26q-70 0 -148 62l-55 45q-47 -32 -74 -82q-69 -124 -61 -383h421l33 4q15 166 48 264t98 168q117 125 288 125q169 0 197 -111
q-3 -41 -36 -66.5t-89 -25.5q-73 0 -147 62l-58 45q-42 -31 -69 -78q-72 -130 -64 -387h283v-109h-279v-434q0 -108 4 -326l185 -30v-74h-529v74l162 28q4 218 4 328v434h-448v-434q0 -108 4 -326l182 -30v-74h-526z" />
    <glyph glyph-name="f_i" unicode="fi" horiz-adv-x="1263" 
d="M74 0v74l162 28q4 218 4 328v434h-170v90l172 23q15 169 51.5 268.5t114.5 171.5q130 117 331 117q136 0 227 -56.5t91 -148.5q-8 -35 -35.5 -57.5t-67.5 -22.5q-69 0 -131 84l-90 125q-141 -9 -227 -98q-55 -56 -77.5 -147t-18.5 -240h467l151 26l33 -20l-6 -268v-281
q0 -124 4 -328l139 -28v-74h-475v74l154 28q4 204 4 328v105q0 147 -7 329h-460v-434q0 -108 4 -326l182 -30v-74h-526z" />
    <glyph glyph-name="f_l" unicode="fl" horiz-adv-x="1253" 
d="M74 0v74l162 28q4 218 4 328v434h-170v90l172 23q16 174 52.5 274t119.5 172q134 111 311 111q143 0 215 -57l74 36l28 -16l-8 -291v-776q0 -106 4 -328l164 -28v-74h-506v74l162 28q4 222 4 328v899q-98 6 -217 101l-16 14q-78 -32 -121 -80q-59 -66 -81 -157.5
t-17 -233.5h282v-109h-278v-434q0 -108 4 -326l182 -30v-74h-526z" />
    <glyph glyph-name="f_f_i" unicode="ffi" horiz-adv-x="1884" 
d="M74 0v74l162 28q4 218 4 328v434h-170v90l172 23q15 167 47.5 264.5t97.5 167.5q117 125 287 125q166 0 198 -111q-3 -40 -36 -66t-88 -26q-70 0 -148 62l-55 45q-47 -32 -74 -82q-69 -124 -61 -383h421l33 4q15 169 51.5 268.5t114.5 171.5q130 117 332 117
q136 0 226.5 -56.5t90.5 -148.5q-8 -35 -35 -57.5t-67 -22.5q-69 0 -131 84l-90 125q-142 -9 -228 -98q-55 -56 -77.5 -147t-18.5 -240h467l152 26l32 -20l-6 -268v-281q0 -124 4 -328l140 -28v-74h-475v74l153 28q4 204 4 328v105q0 173 -6 329h-461v-434q0 -108 4 -326
l183 -30v-74h-527v74l162 28q4 218 4 328v434h-448v-434q0 -108 4 -326l182 -30v-74h-526z" />
    <glyph glyph-name="f_f_l" unicode="ffl" horiz-adv-x="1873" 
d="M74 0v74l162 28q4 218 4 328v434h-170v90l172 23q15 167 47.5 264.5t97.5 167.5q117 125 287 125q166 0 198 -111q-3 -40 -36 -66t-88 -26q-70 0 -148 62l-55 45q-47 -32 -74 -82q-69 -124 -61 -383h421l33 4q16 174 52.5 274t119.5 172q134 111 312 111q143 0 215 -57
l73 36l29 -16l-8 -291v-776q0 -106 4 -328l164 -28v-74h-506v74l162 28q4 222 4 328v899q-98 6 -217 101l-17 14q-78 -32 -121 -80q-59 -66 -81 -157.5t-17 -233.5h283v-109h-279v-434q0 -108 4 -326l183 -30v-74h-527v74l162 28q4 218 4 328v434h-448v-434q0 -108 4 -326
l182 -30v-74h-526z" />
    <glyph glyph-name="f_t" unicode="ft" horiz-adv-x="1318" 
d="M240 430v434h-170v90l172 23q15 167 47.5 264.5t97.5 167.5q117 125 289 125q168 0 196 -111q-3 -41 -36 -66.5t-88 -25.5q-74 0 -148 62l-57 45q-43 -32 -70 -78q-71 -128 -63 -387h444l55 278h121l-10 -278h274v-109h-278v-635q0 -149 112 -149q61 0 140 55l47 -53
q-38 -52 -101 -80.5t-141 -28.5q-110 0 -171.5 58.5t-61.5 175.5q0 22 1 76t1 98v483h-428v-434q0 -108 4 -326l184 -30v-74h-528v74l162 28q4 218 4 328z" />
    <glyph glyph-name=".notdef" horiz-adv-x="1310" 
d="M164 0v1370h983v-1370h-983zM356 104h598l-299 480zM289 1169v-968l303 485zM719 686l303 -485v968zM356 1266l299 -480l299 480h-598z" />
    <glyph glyph-name=".null" 
 />
    <glyph glyph-name="nonmarkingreturn" horiz-adv-x="682" 
 />
    <glyph glyph-name="space" unicode="&#xa0;" horiz-adv-x="477" 
 />
    <glyph glyph-name="space" unicode=" " horiz-adv-x="477" 
 />
    <glyph glyph-name="exclam" unicode="!" horiz-adv-x="591" 
d="M297 -27q-55 0 -94 39.5t-39 93.5t39 94t94 40t93 -39.5t38 -94.5t-38 -94t-93 -39zM297 1401q117 0 117 -129q0 -22 -2.5 -57t-8 -90t-10.5 -106.5t-14.5 -140.5t-16.5 -157l-28 -281h-76l-27 281q-53 487 -53 551q0 129 119 129z" />
    <glyph glyph-name="quotedbl" unicode="&#x22;" horiz-adv-x="729" 
d="M188 1509q105 0 105 -129q0 -28 -6 -82.5t-12 -97t-16 -106.5t-11 -70l-23 -145h-75l-23 145q-1 6 -11 70t-16 106.5t-12 97t-6 82.5q0 129 106 129zM541 1509q104 0 104 -129q0 -28 -6 -82.5t-12 -97t-16 -106.5t-11 -70l-22 -145h-76l-23 145q-1 6 -11 70t-16 106.5
t-12 97t-6 82.5q0 129 107 129z" />
    <glyph glyph-name="numbersign" unicode="#" horiz-adv-x="1077" 
d="M358 535h324l41 266h-324zM180 0l58 369h-187v166h211l41 266h-186v168h213l55 362h96l-55 -362h324l55 362h96l-55 -362h182v-168h-209l-41 -266h185v-166h-209l-58 -369h-96l57 369h-323l-58 -369h-96z" />
    <glyph glyph-name="dollar" unicode="$" horiz-adv-x="1024" 
d="M487 -236v209q-163 3 -270 86t-113 213q28 66 95 66q42 0 72 -30.5t48 -106.5l25 -113q60 -12 143 -16v503l-24 9q-171 60 -257.5 152.5t-86.5 240.5q0 150 105 255.5t268 115.5v186h83v-186q139 -12 233 -93.5t103 -201.5q-10 -32 -34.5 -49t-55.5 -17q-92 0 -123 137
l-24 111q-46 11 -99 14v-497l13 -4q198 -69 280 -166.5t82 -231.5q0 -152 -101 -253t-276 -120v-213h-86zM784 307q0 87 -49 140.5t-162 95.5v-467q99 15 155 75t56 156zM283 1022q0 -89 52.5 -147t156.5 -95v465q-95 -13 -152 -70t-57 -153z" />
    <glyph glyph-name="percent" unicode="%" horiz-adv-x="1763" 
d="M451 -51l-64 51l952 1370l64 -51zM291 924q0 -105 11 -178.5t31.5 -110.5t44 -52.5t52.5 -15.5q23 0 42 9t36.5 33t29.5 62.5t19.5 103t7.5 149.5q0 106 -10.5 178.5t-30.5 110t-42.5 52.5t-51.5 15q-23 0 -42 -8.5t-37.5 -32t-31.5 -62.5t-20.5 -103t-7.5 -150z
M430 1350q119 0 202 -108t83 -318q0 -209 -83 -316.5t-202 -107.5q-57 0 -107.5 25t-92 75t-65.5 133.5t-24 190.5q0 210 84 318t205 108zM1198 406q0 -105 11 -178.5t31.5 -110.5t44 -52.5t52.5 -15.5t52 15.5t43 52.5t30.5 110t10.5 179t-10.5 178.5t-30.5 110t-43 52.5
t-52 15q-23 0 -42 -8.5t-37.5 -32t-31.5 -62.5t-20.5 -103t-7.5 -150zM1337 831q119 0 202 -107.5t83 -317.5q0 -209 -83 -316.5t-202 -107.5q-121 0 -204.5 107.5t-83.5 316.5q0 210 83.5 317.5t204.5 107.5z" />
    <glyph glyph-name="ampersand" unicode="&#x26;" horiz-adv-x="1474" 
d="M455 907q21 -29 55 -67q106 73 161.5 143.5t55.5 153.5q0 87 -50.5 139.5t-127.5 52.5q-79 0 -133 -54.5t-54 -135.5q0 -60 19.5 -112.5t73.5 -119.5zM1372 -6q-92 -21 -155 -21q-82 0 -135.5 21t-104.5 74q-12 14 -36 39.5t-36 39.5q-160 -174 -418 -174
q-189 0 -310.5 107.5t-121.5 265.5q0 270 310 424q-1 2 -4.5 5t-4.5 5q-141 162 -141 330q0 133 94.5 212t241.5 79q149 0 230 -71.5t81 -190.5q0 -104 -71.5 -186.5t-231.5 -168.5q77 -88 164 -182q61 -67 235 -254q119 199 170 422l-161 27v82h415v-82l-155 -29
q-65 -257 -213 -479q26 -27 82 -86.5t86 -91.5l198 -27zM637 449q-101 124 -223 264q-97 -59 -139 -141.5t-42 -170.5q0 -120 84 -208.5t226 -88.5q87 0 166 28.5t137 80.5q-149 170 -209 236z" />
    <glyph glyph-name="quotesingle" unicode="'" horiz-adv-x="374" 
d="M188 1509q105 0 105 -129q0 -28 -6 -82.5t-12 -97t-16 -106.5t-11 -70l-23 -145h-75l-23 145q-1 6 -11 70t-16 106.5t-12 97t-6 82.5q0 129 106 129z" />
    <glyph glyph-name="parenleft" unicode="(" horiz-adv-x="694" 
d="M328 569q0 -251 68.5 -455t246.5 -460l-53 -47q-426 398 -426 962q0 565 426 963l53 -47q-178 -256 -246.5 -460t-68.5 -456z" />
    <glyph glyph-name="parenright" unicode=")" horiz-adv-x="694" 
d="M367 569q0 251 -69 455.5t-247 460.5l53 47q426 -398 426 -963q0 -564 -426 -962l-53 47q178 256 247 460t69 455z" />
    <glyph glyph-name="asterisk" unicode="*" horiz-adv-x="899" 
d="M451 1530q33 0 53 -18.5t20 -55.5q0 -16 -30 -213l-15 -96l88 43q16 8 56.5 28t57 27.5t43 19t43 15.5t28.5 4q28 0 46.5 -20.5t18.5 -51.5q0 -13 -3.5 -23.5t-12 -18.5t-17 -14.5t-25 -12t-30 -9t-37.5 -7.5t-41 -6.5t-47.5 -7t-50.5 -7.5l-98 -16l69 -72q19 -20 52 -52
t48 -47.5t33.5 -37.5t25.5 -38.5t7 -33.5q0 -28 -20 -47t-47 -19q-14 0 -26.5 5t-24.5 17t-21.5 24.5t-22.5 35t-22 40t-25.5 49.5t-27.5 53l-45 86l-48 -86l-21 -42t-20.5 -40t-18 -34.5t-17.5 -32t-17 -25.5t-18 -21.5t-17.5 -15t-19.5 -10.5t-21 -3q-26 0 -46.5 19
t-20.5 47q0 16 7.5 33t25.5 38.5t34 38t47 47.5l52 52l69 72l-96 16q-157 24 -183 31q-72 19 -80 62q-1 6 -1 13q0 31 19 51.5t49 20.5q17 0 42.5 -9t46 -18.5t65 -32t69.5 -34.5l88 -43l-14 96q-27 177 -27 213q0 74 72 74z" />
    <glyph glyph-name="plus" unicode="+" horiz-adv-x="1087" 
d="M481 158v458h-422v117h422v449h125v-449h422v-117h-422v-458h-125z" />
    <glyph glyph-name="comma" unicode="," horiz-adv-x="614" 
d="M436 59q0 -90 -33.5 -174.5t-90 -150t-126 -115.5t-145.5 -78l-29 70q238 120 301 319l-75 60q-78 61 -78 147q0 56 33 92.5t94 36.5q63 0 127 -59q22 -70 22 -148z" />
    <glyph glyph-name="hyphen" unicode="&#x2010;" horiz-adv-x="638" 
d="M82 446v136h475v-136h-475z" />
    <glyph glyph-name="hyphen" unicode="&#xad;" horiz-adv-x="638" 
d="M82 446v136h475v-136h-475z" />
    <glyph glyph-name="hyphen" unicode="-" horiz-adv-x="638" 
d="M82 446v136h475v-136h-475z" />
    <glyph glyph-name="period" unicode="." horiz-adv-x="614" 
d="M307 -27q-61 0 -103 43t-42 103q0 62 42 104.5t103 42.5t103.5 -42.5t42.5 -104.5q0 -60 -42.5 -103t-103.5 -43z" />
    <glyph glyph-name="slash" unicode="/" horiz-adv-x="675" 
d="M4 -328l547 1782h121l-547 -1782h-121z" />
    <glyph glyph-name="zero" unicode="0" horiz-adv-x="1024" 
d="M272 659q0 -593 242 -593q238 0 238 593q0 598 -238 598q-242 0 -242 -598zM514 1350q67 0 127.5 -22.5t116 -75t96 -130.5t64.5 -196.5t24 -266.5q0 -147 -24 -265t-64.5 -195.5t-96 -129.5t-116 -74t-127.5 -22q-68 0 -129 22.5t-117 74t-96 129t-64 195.5t-24 265
q0 148 24 266.5t64 196.5t96 130.5t117 75t129 22.5z" />
    <glyph glyph-name="one" unicode="1" horiz-adv-x="1024" 
d="M174 1231l422 108l29 -20l-9 -293v-594q0 -54 5 -309l290 -49v-74h-759v74l288 49q4 204 4 309v737l-270 -22v84z" />
    <glyph glyph-name="two" unicode="2" horiz-adv-x="1024" 
d="M100 0v133q105 102 301 307q154 161 225.5 292t71.5 251q0 126 -66 200t-179 74q-52 0 -101 -10l-39 -141q-20 -75 -47.5 -107t-70.5 -32q-69 0 -105 65q11 105 71.5 178t148 106.5t194.5 33.5q191 0 285 -94t94 -255q0 -135 -85 -265t-321 -357q-81 -81 -221 -211h686
v-168h-842z" />
    <glyph glyph-name="three" unicode="3" horiz-adv-x="1024" 
d="M348 748h82q138 0 215.5 72t77.5 202q0 113 -65 174t-185 61q-45 0 -94 -8l-27 -102q-18 -68 -43.5 -97.5t-75.5 -29.5q-76 0 -98 72q26 125 126.5 191.5t246.5 66.5q179 0 286 -89t107 -233q0 -111 -70.5 -198.5t-197.5 -131.5q155 -30 232 -116t77 -217
q0 -168 -127.5 -280t-331.5 -112q-158 0 -262 71.5t-131 219.5q36 68 105 68q49 0 72.5 -32t47.5 -116l27 -106q54 -12 115 -12q149 0 226 77t77 217q0 136 -80 210.5t-234 74.5h-98v103z" />
    <glyph glyph-name="four" unicode="4" horiz-adv-x="1024" 
d="M991 395h-215v-395h-170v395h-557v109l608 835h119v-815h215v-129zM174 524h432v602z" />
    <glyph glyph-name="five" unicode="5" horiz-adv-x="1024" 
d="M938 412q0 -197 -131 -318t-346 -121q-319 0 -383 289q27 70 104 70q46 0 72 -29t47 -110l29 -111q55 -16 116 -16q148 0 228 87t80 238q0 152 -85 234t-235 82q-84 0 -188 -23l-58 16l43 623h670v-168h-579l-25 -348q92 24 192 24q204 0 326.5 -109.5t122.5 -309.5z" />
    <glyph glyph-name="six" unicode="6" horiz-adv-x="1024" 
d="M520 66q105 0 169.5 90t64.5 247q0 139 -63.5 212t-172.5 73q-140 0 -246 -90q-4 -54 -4 -86q0 -226 66.5 -336t185.5 -110zM936 408q0 -125 -59.5 -226.5t-153.5 -155t-199 -53.5q-206 0 -324 151t-118 413q0 207 90 379.5t269.5 289t424.5 144.5l13 -66
q-520 -135 -596 -598q130 127 297 127q164 0 260 -114t96 -291z" />
    <glyph glyph-name="seven" unicode="7" horiz-adv-x="1024" 
d="M272 20l541 1135h-709v168h846v-104l-487 -1219h-170z" />
    <glyph glyph-name="eight" unicode="8" horiz-adv-x="1024" 
d="M297 1053q0 -87 55.5 -160t198.5 -145q92 70 129 133.5t37 148.5q0 96 -55 161.5t-148 65.5q-91 0 -154 -56.5t-63 -147.5zM90 305q0 107 71.5 189t217.5 155q-244 136 -244 359q0 157 109 249.5t274 92.5q159 0 255.5 -88t96.5 -228q0 -182 -241 -323
q158 -78 230.5 -167t72.5 -220q0 -154 -119.5 -252.5t-298.5 -98.5q-192 0 -308 86t-116 246zM260 317q0 -110 72.5 -182t185.5 -72q107 0 174.5 70.5t67.5 175.5q0 89 -67 155.5t-238 145.5q-102 -63 -148.5 -129.5t-46.5 -163.5z" />
    <glyph glyph-name="nine" unicode="9" horiz-adv-x="1024" 
d="M242 944q0 -149 74.5 -223t195.5 -74q129 0 223 82q2 18 2 53q0 241 -66.5 358t-183.5 117q-105 0 -175 -82t-70 -231zM922 817q0 -120 -26 -228t-83.5 -207.5t-143.5 -180t-211.5 -143.5t-281.5 -99l-20 78q274 91 407.5 232t163.5 358q-106 -103 -270 -103
q-169 0 -283.5 109.5t-114.5 292.5q0 190 121.5 307t315.5 117q200 0 313 -143.5t113 -389.5z" />
    <glyph glyph-name="colon" unicode=":" horiz-adv-x="614" 
d="M307 717q-61 0 -103 42.5t-42 102.5q0 62 42 105t103 43t103.5 -43t42.5 -105q0 -60 -42.5 -102.5t-103.5 -42.5zM307 -27q-61 0 -103 43t-42 103q0 62 42 104.5t103 42.5t103.5 -42.5t42.5 -104.5q0 -60 -42.5 -103t-103.5 -43z" />
    <glyph glyph-name="semicolon" unicode=";" horiz-adv-x="614" 
d="M307 717q-61 0 -103 42.5t-42 102.5q0 62 42 105t103 43t103.5 -43t42.5 -105q0 -60 -42.5 -102.5t-103.5 -42.5zM436 59q0 -90 -33.5 -174.5t-90 -150t-126 -115.5t-145.5 -78l-29 70q238 120 301 319l-75 60q-78 61 -78 147q0 56 33 92.5t94 36.5q63 0 127 -59
q22 -70 22 -148z" />
    <glyph glyph-name="less" unicode="&#x3c;" horiz-adv-x="1087" 
d="M117 627v96l792 461l62 -111l-711 -397l711 -400l-62 -110z" />
    <glyph glyph-name="equal" unicode="=" horiz-adv-x="1087" 
d="M1028 412h-969v116h969v-116zM1028 821h-969v117h969v-117z" />
    <glyph glyph-name="greater" unicode="&#x3e;" horiz-adv-x="1087" 
d="M971 723v-96l-793 -461l-61 110l710 400l-710 397l61 111z" />
    <glyph glyph-name="question" unicode="?" horiz-adv-x="851" 
d="M305 -27q-55 0 -93 39t-38 94t38 94.5t93 39.5t94 -40t39 -94t-39 -93.5t-94 -39.5zM717 944q0 -192 -205 -258l-70 -24q-63 -20 -79.5 -40.5t-16.5 -72.5v-113h-80l-24 86q-33 106 -33 144q0 46 37 76.5t127 58.5l116 37q115 39 115 141q0 72 -53 151l-268 48
q-86 16 -117 42t-31 68q0 46 28 72.5t85 40.5q68 -6 147 -42t152 -93t121.5 -142.5t48.5 -179.5z" />
    <glyph glyph-name="at" unicode="@" horiz-adv-x="1710" 
d="M616 414q0 -197 142 -197q46 0 94.5 23.5t116.5 83.5l92 485q-57 68 -125 68q-51 0 -106.5 -33t-103.5 -90t-79 -147t-31 -193zM1196 96q-92 0 -149.5 46.5t-69.5 121.5q-144 -168 -283 -168q-93 0 -157 67t-64 199q0 147 71.5 290.5t183.5 232t224 88.5q78 0 140 -51
l96 49l39 -33l-117 -586q-15 -76 14 -117.5t97 -41.5q43 0 84.5 17t80 55.5t68 94t47 138.5t17.5 184q0 136 -42.5 247.5t-117 185t-176.5 113.5t-221 40q-165 0 -308.5 -68.5t-242 -183t-155 -266t-56.5 -314.5q0 -132 35 -242.5t95.5 -188.5t144 -132t180 -80t202.5 -26
q183 0 315 63l27 -61q-168 -86 -385 -86q-156 0 -289.5 47.5t-234 137.5t-158 231.5t-57.5 318.5q0 258 118.5 472.5t325 338t455.5 123.5q154 0 280 -51t210 -142t129.5 -217.5t45.5 -277.5q0 -114 -29 -210.5t-75.5 -161t-105.5 -110t-118 -66t-114 -20.5z" />
    <glyph glyph-name="A" unicode="A" horiz-adv-x="1359" 
d="M633 1151l-207 -610h412zM10 0v84l172 27l436 1269h130l436 -1278l153 -18v-84h-557v84l201 25l-113 335h-475l-114 -333l200 -27v-84h-469z" />
    <glyph glyph-name="B" unicode="B" horiz-adv-x="1288" 
d="M283 635v100q0 353 -4 529l-189 22v84h594q209 0 327.5 -92t118.5 -242q0 -116 -77.5 -202.5t-239.5 -120.5q196 -28 291.5 -117.5t95.5 -220.5q0 -73 -31 -137.5t-94 -119t-171.5 -86.5t-250.5 -32h-563v84l189 22q4 172 4 529zM590 662h-113q0 -392 4 -566h125
q194 0 291.5 71.5t97.5 207.5q0 145 -98 216t-307 71zM623 1276h-142q-4 -176 -4 -520h107q186 0 270 63t84 203q0 136 -77 195t-238 59z" />
    <glyph glyph-name="C" unicode="C" horiz-adv-x="1292" 
d="M801 72q130 0 243 55l41 238h127l-8 -297q-180 -99 -413 -99q-204 0 -362.5 91t-245.5 254t-87 372q0 153 52.5 286t144 227t220 148t275.5 54q228 0 396 -98l8 -297h-127l-41 237q-99 55 -209 55q-104 0 -193.5 -40t-157 -115.5t-106.5 -193t-39 -263.5
q0 -293 132.5 -453.5t349.5 -160.5z" />
    <glyph glyph-name="D" unicode="D" horiz-adv-x="1454" 
d="M283 659v76q0 353 -4 529l-189 22v84h604q198 0 346.5 -78t233 -234t84.5 -374q0 -162 -53.5 -292.5t-148.5 -215.5t-223 -130.5t-278 -45.5h-565v84l189 22q4 174 4 553zM477 659q0 -383 4 -563h162q236 0 364 154t128 434q0 286 -124 439t-349 153h-181
q-4 -176 -4 -541v-76z" />
    <glyph glyph-name="E" unicode="E" horiz-adv-x="1234" 
d="M283 635v100q0 353 -4 529l-189 22v84h1020l14 -362h-116l-45 260h-482q-4 -174 -4 -520h301l29 194h94v-483h-94l-27 192h-303q0 -379 4 -549h523l45 263h116l-14 -365h-1061v84l189 22q4 172 4 529z" />
    <glyph glyph-name="F" unicode="F" horiz-adv-x="1185" 
d="M283 635v100q0 353 -4 529l-189 22v84h1020l14 -362h-116l-45 260h-482q-4 -174 -4 -520h318l28 194h95v-504h-95l-28 213h-318q0 -377 4 -545l191 -22v-84h-582v84l189 22q4 172 4 529z" />
    <glyph glyph-name="G" unicode="G" horiz-adv-x="1396" 
d="M1237 180v-90q-231 -121 -451 -121q-203 0 -360.5 92.5t-243.5 255.5t-86 369q0 205 87 367.5t247 255t365 92.5q244 0 411 -96l8 -299h-127l-40 233q-106 59 -234 59q-218 0 -356 -163t-138 -449q0 -291 134.5 -451.5t371.5 -160.5q117 0 219 41v65q0 125 -4 371
l-213 18v82h539v-82l-125 -12q-4 -246 -4 -377z" />
    <glyph glyph-name="H" unicode="H" horiz-adv-x="1615" 
d="M283 635v100q0 353 -4 529l-189 22v84h578v-84l-187 -20q-4 -174 -4 -516h662q0 348 -4 514l-189 22v84h578v-84l-189 -22q-4 -172 -4 -529v-100q0 -353 4 -529l189 -22v-84h-578v84l189 22q4 174 4 547h-662q0 -381 4 -549l187 -20v-84h-578v84l189 22q4 172 4 529z" />
    <glyph glyph-name="I" unicode="I" horiz-adv-x="759" 
d="M283 635v100q0 353 -4 529l-189 22v84h580v-84l-189 -22q-4 -172 -4 -529v-100q0 -353 4 -529l189 -22v-84h-580v84l189 22q4 172 4 529z" />
    <glyph glyph-name="J" unicode="J" horiz-adv-x="765" 
d="M96 1286v84h600v-84l-188 -22q-4 -172 -4 -527v-319q0 -178 -6 -274t-23 -173q-29 -146 -138 -225.5t-247 -79.5q-152 0 -178 101q16 102 127 102q70 0 154 -64l51 -41q44 42 62 100.5t18 149.5q0 39 -3 157.5t-8 405t-8 687.5z" />
    <glyph glyph-name="K" unicode="K" horiz-adv-x="1366" 
d="M283 635v100q0 353 -4 529l-189 22v84h578v-84l-195 -22q-4 -174 -4 -529v-129l532 651l-147 29v84h471v-84l-199 -26l-342 -412l414 -744l158 -20v-84h-527v84l168 20l-325 609l-203 -244q0 -236 4 -363l195 -22v-84h-578v84l189 22q4 172 4 529z" />
    <glyph glyph-name="L" unicode="L" horiz-adv-x="1220" 
d="M283 735q0 357 -4 529l-189 22v84h580v-84l-189 -22q-4 -176 -4 -529v-141q0 -318 4 -492h465l60 283h124l-20 -385h-1020v84l189 22q4 176 4 527v102z" />
    <glyph glyph-name="M" unicode="M" horiz-adv-x="1847" 
d="M80 0v84l184 27v1153l-184 22v84h379l459 -1126l434 1126h403v-84l-188 -22q-4 -172 -4 -529v-100q0 -353 4 -529l188 -22v-84h-557v84l172 22q4 172 4 527v510l-444 -1143h-103l-469 1143l13 -387v-645l168 -27v-84h-459z" />
    <glyph glyph-name="N" unicode="N" horiz-adv-x="1505" 
d="M930 1286v84h493v-84l-174 -26v-1274h-71l-820 1116v-989l217 -29v-84h-495v84l174 25v1136l-18 25l-146 16v84h316l739 -1016v906z" />
    <glyph glyph-name="O" unicode="O" horiz-adv-x="1447" 
d="M319 686q0 -120 24 -227t71.5 -195t127.5 -140t183 -52q83 0 151 34.5t113.5 92.5t77 137.5t45.5 167t14 182.5t-14 182t-45.5 166t-77 137t-113.5 92.5t-151 34.5q-103 0 -183 -52t-127.5 -139.5t-71.5 -194.5t-24 -226zM725 1401q120 0 231 -47t200 -134.5t142.5 -226
t53.5 -307.5q0 -132 -34.5 -247.5t-95 -200.5t-140 -146t-171 -92t-186.5 -31q-97 0 -188 29t-171 89t-140 143.5t-95 201t-35 254.5q0 131 35 246.5t95.5 200t140 146t171.5 92t187 30.5z" />
    <glyph glyph-name="P" unicode="P" horiz-adv-x="1206" 
d="M283 635v100q0 353 -4 529l-189 22v84h551q253 0 386.5 -110.5t133.5 -296.5q0 -71 -19.5 -132t-63 -115t-109.5 -92.5t-164 -60.5t-221 -22h-107q0 -288 4 -435l191 -22v-84h-582v84l189 22q4 172 4 529zM604 1276h-123q-4 -176 -4 -541v-98h135q178 0 262 86.5
t84 239.5q0 313 -354 313z" />
    <glyph glyph-name="Q" unicode="Q" horiz-adv-x="1447" 
d="M319 686q0 -120 24 -227t71.5 -195t127.5 -140t183 -52q83 0 151 34.5t113.5 92.5t77 137.5t45.5 167t14 182.5t-14 182t-45.5 166t-77 137t-113.5 92.5t-151 34.5q-103 0 -183 -52t-127.5 -139.5t-71.5 -194.5t-24 -226zM725 1401q120 0 231 -47t200 -134.5t142.5 -226
t53.5 -307.5q0 -149 -44 -277t-119.5 -217t-172.5 -145t-205 -72q4 -145 79 -224t204 -79q67 0 159 25l23 -74q-101 -65 -252 -65q-95 0 -173 34.5t-128 93.5t-77.5 134.5t-27.5 159.5q-106 18 -199.5 72.5t-166 141.5t-114.5 214t-42 278q0 131 35 246.5t95.5 200t140 146
t171.5 92t187 30.5z" />
    <glyph glyph-name="R" unicode="R" horiz-adv-x="1333" 
d="M657 1276h-176q-4 -180 -4 -549h158q160 0 241.5 77t81.5 206q0 132 -73 199t-228 67zM283 635v100q0 353 -4 529l-189 22v84h574q235 0 366 -94.5t131 -263.5q0 -125 -89 -220.5t-255 -125.5q92 -19 149.5 -79.5t92.5 -180.5l88 -304l158 -18v-84q-68 -20 -154 -20
q-98 0 -145 29t-66 102l-82 327q-28 119 -88.5 158t-191.5 39h-101q0 -365 4 -529l189 -22v-84h-580v84l189 22q4 172 4 529z" />
    <glyph glyph-name="S" unicode="S" horiz-adv-x="1048" 
d="M475 72q147 0 232.5 65t85.5 182q0 94 -57.5 149.5t-194.5 109.5l-80 32q-170 66 -261 164.5t-91 247.5q0 173 129.5 276t330.5 103q193 0 336 -107l-12 -268h-125l-43 231q-75 41 -168 41q-122 0 -199 -60.5t-77 -170.5q0 -92 58 -153.5t173 -106.5l82 -31
q201 -78 287 -174.5t86 -243.5q0 -179 -134.5 -284t-351.5 -105q-111 0 -218 30.5t-181 78.5l12 287h127l41 -242q92 -51 213 -51z" />
    <glyph glyph-name="T" unicode="T" horiz-adv-x="1236" 
d="M522 635v100q0 355 -4 533h-313l-45 -262h-119l16 364h1123l16 -364h-119l-45 262h-313q-4 -174 -4 -533v-100q0 -353 4 -529l209 -22v-84h-619v84l209 22q4 174 4 529z" />
    <glyph glyph-name="U" unicode="U" horiz-adv-x="1488" 
d="M446 575q0 -129 23 -219.5t69 -142.5t106.5 -75t141.5 -23q178 0 264.5 115t86.5 380v650l-209 26v84h491v-84l-178 -22v-703q0 -158 -36.5 -274t-103.5 -184.5t-153.5 -101t-195.5 -32.5q-233 0 -365.5 135t-132.5 412v221q0 353 -4 529l-170 20v84h579v-84l-208 -24
q-5 -215 -5 -525v-162z" />
    <glyph glyph-name="V" unicode="V" horiz-adv-x="1380" 
d="M662 -14l-478 1282l-153 18v84h559v-92l-197 -18l344 -984l332 981l-180 21v92h473v-84l-178 -24l-432 -1276h-90z" />
    <glyph glyph-name="W" unicode="W" horiz-adv-x="1970" 
d="M1346 -14l-355 1063l-334 -1063h-88l-368 1280l-170 20v84h557v-84l-189 -22l252 -942l312 940l-205 24v84h557v-84l-207 -24l305 -949l260 947l-186 26v84h465v-84l-172 -24l-346 -1276h-88z" />
    <glyph glyph-name="X" unicode="X" horiz-adv-x="1327" 
d="M39 1286v84h575v-84l-180 -20l262 -439l273 435l-174 24v84h469v-84l-181 -22l-335 -521l385 -639l176 -20v-84h-580v84l189 22l-287 476l-301 -476l159 -22v-84h-469v84l195 25l367 555l-363 602z" />
    <glyph glyph-name="Y" unicode="Y" horiz-adv-x="1296" 
d="M807 1286v84h469v-84l-180 -26l-348 -721q0 -302 4 -433l209 -22v-84h-619v84l209 22q4 127 4 424l-362 738l-162 18v84h577v-84l-194 -22l284 -621l293 619z" />
    <glyph glyph-name="Z" unicode="Z" horiz-adv-x="1128" 
d="M186 1006h-125l17 364h964v-72l-772 -1196h637l56 263h124l-16 -365h-1030v74l776 1194h-575z" />
    <glyph glyph-name="bracketleft" unicode="[" horiz-adv-x="655" 
d="M211 324v491q0 434 -6 649h391v-84l-231 -26q-5 -220 -5 -539v-491q0 -316 5 -539l231 -27v-84h-391q6 211 6 650z" />
    <glyph glyph-name="backslash" unicode="\" horiz-adv-x="675" 
d="M672 -328h-121l-547 1782h121z" />
    <glyph glyph-name="bracketright" unicode="]" horiz-adv-x="655" 
d="M444 815v-491q0 -399 7 -650h-392v84l232 27q4 176 4 539v491q0 361 -4 539l-232 26v84h392q-7 -246 -7 -649z" />
    <glyph glyph-name="asciicircum" unicode="^" horiz-adv-x="1087" 
d="M180 496l301 489h131l301 -489l-92 -70l-274 436l-275 -436z" />
    <glyph glyph-name="underscore" unicode="_" horiz-adv-x="1048" 
d="M82 -135v135h885v-135h-885z" />
    <glyph glyph-name="grave" unicode="&#x2cb;" horiz-adv-x="819" 
d="M524 1180l-53 -39q-142 125 -248 221q-69 64 -69 113q0 38 22 57.5t55 19.5q59 0 111 -84q57 -85 182 -288z" />
    <glyph glyph-name="grave" unicode="`" horiz-adv-x="819" 
d="M524 1180l-53 -39q-142 125 -248 221q-69 64 -69 113q0 38 22 57.5t55 19.5q59 0 111 -84q57 -85 182 -288z" />
    <glyph glyph-name="a" unicode="a" horiz-adv-x="1042" 
d="M852 -20q-73 0 -122.5 42.5t-61.5 114.5q-93 -92 -154.5 -128t-146.5 -36q-119 0 -197 67t-78 189q0 63 26.5 111t103 99.5t210.5 99.5q110 40 232 67v51q0 99 -21 153t-61 74.5t-111 20.5q-59 0 -111 -12l-38 -133q-28 -98 -107 -98q-87 0 -96 83q29 117 136 185.5
t263 68.5q164 0 241 -83t77 -273v-436q0 -121 73 -121q42 0 80 45l41 -45q-35 -58 -78 -82t-100 -24zM274 260q0 -78 44.5 -114.5t119.5 -36.5q50 0 91 20t135 86v315q-99 -27 -189 -61q-64 -25 -106 -53t-61.5 -56t-26.5 -50.5t-7 -49.5z" />
    <glyph glyph-name="b" unicode="b" horiz-adv-x="1181" 
d="M635 90q116 0 193 100t77 289q0 192 -71 298t-189 106q-110 0 -254 -119v-561q119 -113 244 -113zM61 0v74l154 26q4 204 4 330v899l-168 21v71l314 92l28 -16l-8 -291v-364q141 157 315 157q168 0 279 -136t111 -367q0 -233 -119.5 -378t-302.5 -145q-169 0 -283 144
l-16 -137z" />
    <glyph glyph-name="c" unicode="c" horiz-adv-x="999" 
d="M567 905q-135 0 -218 -105t-83 -296q0 -189 90 -293.5t238 -104.5q88 0 162 40.5t121 115.5l51 -26q-43 -128 -140 -195.5t-241 -67.5q-211 0 -336 137t-125 373q0 95 25.5 178t70.5 144t104.5 105.5t129 66.5t143.5 22q137 0 240 -75.5t123 -190.5q-15 -78 -95 -78
q-88 0 -112 99l-37 135q-52 16 -111 16z" />
    <glyph glyph-name="d" unicode="d" horiz-adv-x="1161" 
d="M276 481q0 -193 78 -292t207 -99q68 0 120.5 27.5t109.5 91.5v567q-123 107 -232 107q-123 0 -203 -102t-80 -300zM1128 0l-317 -20l-14 143q-113 -150 -287 -150q-187 0 -302.5 139.5t-115.5 364.5q0 232 123 377t313 145q155 0 269 -133v463l-174 21v71l319 92l29 -16
l-8 -291v-1108l165 -24v-74z" />
    <glyph glyph-name="e" unicode="e" horiz-adv-x="1044" 
d="M551 905q-98 0 -176 -81t-94 -246h372q68 0 94.5 28t26.5 78q0 89 -64.5 155t-158.5 66zM563 999q165 0 273 -106t108 -287q0 -67 -14 -114h-654q3 -186 92 -286t240 -100q92 0 158 36.5t127 107.5l49 -39q-59 -113 -158.5 -175.5t-234.5 -62.5q-208 0 -332.5 135.5
t-124.5 368.5q0 152 64.5 272.5t171.5 185t235 64.5z" />
    <glyph glyph-name="f" unicode="f" horiz-adv-x="724" 
d="M240 430v434h-170v90l172 23q15 167 47.5 264.5t97.5 167.5q117 125 289 125q168 0 196 -111q-3 -41 -36 -66.5t-88 -25.5q-74 0 -148 62l-57 45q-43 -32 -70 -78q-71 -128 -63 -387h282v-109h-278v-434q0 -108 4 -326l184 -30v-74h-528v74l162 28q4 218 4 328z" />
    <glyph glyph-name="g" unicode="g" horiz-adv-x="1060" 
d="M494 915q-96 0 -151.5 -69.5t-55.5 -183.5q0 -115 52 -183.5t146 -68.5q97 0 153 72t56 188q0 111 -53 178t-147 67zM121 664q0 157 103.5 246t267.5 89q162 0 260 -79l231 79l31 -20v-129h-201q47 -74 47 -186q0 -157 -103.5 -246.5t-267.5 -89.5q-80 0 -151 22
q-51 -66 -51 -131q0 -45 25.5 -67.5t93.5 -22.5h268q166 0 248 -68.5t82 -195.5q0 -68 -32.5 -130.5t-93.5 -113t-159.5 -80.5t-220.5 -30q-214 0 -319 66.5t-105 180.5q0 69 45 125t155 109q-135 37 -135 155q0 99 140 228q-158 85 -158 289zM506 -395q162 0 253 58.5
t91 148.5q0 72 -50 115.5t-155 43.5h-239q-30 0 -84 4q-80 -86 -80 -184q0 -186 264 -186z" />
    <glyph glyph-name="h" unicode="h" horiz-adv-x="1230" 
d="M219 430v899l-168 21v71l314 92l28 -16l-8 -291v-397q76 86 177.5 138t197.5 52q134 0 198 -90t64 -288v-191q0 -124 4 -328l143 -28v-74h-475v74l150 26q4 204 4 330v174q0 139 -38 193.5t-130 54.5q-75 0 -143 -31.5t-146 -101.5v-289q0 -124 4 -328l142 -28v-74h-476
v74l154 28q4 204 4 328z" />
    <glyph glyph-name="i" unicode="i" horiz-adv-x="610" 
d="M313 1225q-59 0 -98 37t-39 94q0 59 38.5 95t98.5 36q58 0 98 -36t40 -95q0 -56 -40 -93.5t-98 -37.5zM547 74v-74h-475v74l153 28q4 204 4 328v96q0 135 -6 258l-164 19v71l316 125l31 -20l-7 -279v-270q0 -124 4 -328z" />
    <glyph glyph-name="j" unicode="j" horiz-adv-x="567" 
d="M311 1225q-58 0 -97.5 37.5t-39.5 93.5q0 59 39.5 95t97.5 36q60 0 100 -36t40 -95q0 -56 -40.5 -93.5t-99.5 -37.5zM227 209v317q0 135 -6 258l-162 19v71l310 125l30 -20l-6 -279v-495q0 -267 -22.5 -391.5t-98.5 -208.5q-55 -58 -114.5 -86.5t-145.5 -28.5
q-85 0 -132.5 36t-49.5 81q27 84 121 84q73 0 153 -62l48 -37q22 26 32 56q24 64 33.5 194t9.5 367z" />
    <glyph glyph-name="k" unicode="k" horiz-adv-x="1120" 
d="M51 1421l320 92l28 -16l-8 -291v-714l350 364l-149 37v80h475v-80l-193 -29l-225 -231l336 -535l135 -24v-74h-278l-316 508l-135 -139q0 -91 4 -267l164 -28v-74h-508v74l164 28q4 218 4 328v899l-168 21v71z" />
    <glyph glyph-name="l" unicode="l" horiz-adv-x="610" 
d="M51 1421l320 92l28 -16l-8 -291v-776q0 -110 4 -328l164 -28v-74h-508v74l164 28q4 222 4 328v899l-168 21v71z" />
    <glyph glyph-name="m" unicode="m" horiz-adv-x="1845" 
d="M1376 999q262 0 262 -358v-211q0 -124 4 -328l144 -28v-74h-475v74l151 28q4 200 4 328v178q0 138 -40 191t-132 53q-131 0 -274 -129q4 -62 4 -102v-191q0 -124 4 -328l143 -28v-74h-475v74l152 28q4 200 4 328v174q0 138 -38 193t-130 55q-70 0 -133 -29t-139 -94v-299
q0 -124 4 -328l141 -28v-74h-475v74l151 28q5 255 5 328v98q0 112 -7 256l-161 19v71l286 125l31 -20l16 -164q75 84 171 134t188 50q98 0 158 -46t84 -146q78 95 174.5 143.5t197.5 48.5z" />
    <glyph glyph-name="n" unicode="n" horiz-adv-x="1241" 
d="M770 999q134 0 198 -90t64 -288v-191q0 -124 4 -328l144 -28v-74h-475v74l151 28q4 200 4 328v174q0 139 -39 193.5t-131 54.5q-70 0 -134.5 -29t-143.5 -94v-299q0 -124 4 -328l141 -28v-74h-475v74l151 28q5 255 5 328v98q0 112 -7 256l-161 19v71l286 125l31 -20
l16 -166q76 85 174.5 135.5t192.5 50.5z" />
    <glyph glyph-name="o" unicode="o" horiz-adv-x="1124" 
d="M561 -27q-92 0 -175 32.5t-149 94t-105.5 160.5t-39.5 221q0 123 39.5 223.5t106 163.5t149.5 97t174 34q90 0 173.5 -34t150.5 -97t107 -163.5t40 -223.5q0 -122 -40 -221t-106.5 -160.5t-150 -94t-174.5 -32.5zM561 66q133 0 205 105.5t72 309.5q0 206 -72 315
t-205 109q-134 0 -204 -108.5t-70 -315.5q0 -205 70 -310t204 -105z" />
    <glyph glyph-name="p" unicode="p" horiz-adv-x="1193" 
d="M918 473q0 193 -70.5 301.5t-185.5 108.5q-111 0 -248 -113v-575q108 -105 225 -105q123 0 201 97t78 286zM240 -57v585q0 112 -7 256l-161 19v71l286 125l31 -20l12 -131q139 151 310 151q169 0 280 -139t111 -371t-119.5 -374t-302.5 -142q-157 0 -272 136v-164
q0 -106 4 -332l186 -31v-71h-526v71l164 29q4 226 4 332z" />
    <glyph glyph-name="q" unicode="q" horiz-adv-x="1140" 
d="M276 479q0 -193 78 -291t207 -98q67 0 122.5 30t115.5 99v551q-129 113 -240 113q-122 0 -202.5 -102.5t-80.5 -301.5zM971 -55q0 -108 4 -334l164 -29v-71h-527v71l189 31q4 222 4 332v190q-115 -162 -295 -162q-187 0 -302.5 139t-115.5 363q0 232 122.5 378t307.5 146
q163 0 283 -141l139 141l33 -20l-6 -277v-757z" />
    <glyph glyph-name="r" unicode="r" horiz-adv-x="866" 
d="M86 0v74l147 26q5 255 5 330v98q0 112 -7 256l-161 19v71l286 125l31 -20l23 -242q50 122 130.5 192t164.5 70q46 0 87 -21t60 -54q0 -150 -121 -150q-65 0 -125 51l-24 23q-117 -87 -170 -264v-154q0 -122 4 -326l168 -30v-74h-498z" />
    <glyph glyph-name="s" unicode="s" horiz-adv-x="888" 
d="M410 -27q-153 0 -306 78l-8 225h113l39 -178q68 -32 166 -32q113 0 171 41.5t58 113.5q0 64 -44.5 103.5t-145.5 74.5l-95 35q-119 44 -183 110.5t-64 166.5q0 119 96 203.5t260 84.5q148 0 287 -84l-9 -208h-106l-33 163q-68 35 -141 35q-92 0 -141.5 -37.5
t-49.5 -101.5q0 -65 40 -100.5t149 -75.5l63 -23q150 -56 216.5 -129t66.5 -172q0 -124 -105 -208.5t-294 -84.5z" />
    <glyph glyph-name="t" unicode="t" horiz-adv-x="665" 
d="M362 229q0 -149 113 -149q61 0 137 55l50 -53q-83 -109 -242 -109q-110 0 -172 58.5t-62 175.5q0 22 1 76t1 98v483h-170v90l183 23l53 274h123l-10 -278h274v-109h-279v-635z" />
    <glyph glyph-name="u" unicode="u" horiz-adv-x="1193" 
d="M1124 0l-284 -16l-21 182q-159 -193 -362 -193q-131 0 -199.5 87t-67.5 282l7 510l-146 31v73l301 29l21 -20l-11 -287v-318q0 -131 39.5 -186t124.5 -55q145 0 287 133l6 602l-145 29v73l297 29l20 -20l-6 -287v-576l139 -28v-74z" />
    <glyph glyph-name="v" unicode="v" horiz-adv-x="1034" 
d="M627 893v80h389v-80l-113 -27l-332 -878h-88l-372 884l-111 21v80h496v-80l-181 -27l250 -657l230 655z" />
    <glyph glyph-name="w" unicode="w" horiz-adv-x="1564" 
d="M1169 893v80h375v-80l-110 -27l-299 -878h-76l-266 725l-271 -725h-76l-329 884l-117 21v80h467v-80l-160 -25l211 -628l230 628l-152 25v80h453v-80l-152 -27l233 -622l191 620z" />
    <glyph glyph-name="x" unicode="x" horiz-adv-x="1077" 
d="M647 893v80h383v-80l-121 -23l-293 -360l285 -408l156 -28v-74h-500v74l145 26l-200 293l-226 -293l154 -26v-74h-410v74l132 24l299 371l-275 401l-141 23v80h457v-80l-125 -23l196 -284l219 280z" />
    <glyph glyph-name="y" unicode="y" horiz-adv-x="1048" 
d="M188 -510q-78 0 -133 38t-55 97q10 43 48.5 66.5t88.5 23.5q78 0 152 -77l10 -11q115 99 184 295l9 25l-371 936l-113 16v74h492v-76l-181 -20l256 -699l252 696l-178 25v74h400v-74l-111 -22l-330 -871q-105 -276 -200.5 -396t-219.5 -120z" />
    <glyph glyph-name="z" unicode="z" horiz-adv-x="933" 
d="M88 973h764v-74l-584 -813h447l61 248h107l-21 -334h-803v72l586 813h-412l-55 -228l-106 9z" />
    <glyph glyph-name="braceleft" unicode="{" horiz-adv-x="704" 
d="M82 528v82q127 17 185.5 64t58.5 125q0 45 -21.5 114.5t-43 150.5t-21.5 153q0 120 81.5 183.5t229.5 63.5h92v-82l-55 -6q-110 -13 -154.5 -47.5t-44.5 -120.5q0 -87 22.5 -221t22.5 -166q0 -211 -190 -252q190 -41 190 -252q0 -32 -22.5 -166t-22.5 -221
q0 -86 44.5 -120.5t154.5 -47.5l55 -6v-82h-92q-148 0 -229.5 64t-81.5 184q0 72 21.5 153t43 150.5t21.5 114.5q0 78 -58.5 124.5t-185.5 63.5z" />
    <glyph glyph-name="bar" unicode="|" horiz-adv-x="514" 
d="M197 -512v2048h120v-2048h-120z" />
    <glyph glyph-name="braceright" unicode="}" horiz-adv-x="704" 
d="M623 610v-82q-127 -17 -185.5 -63.5t-58.5 -124.5q0 -45 21.5 -114.5t43 -150.5t21.5 -153q0 -120 -81.5 -184t-229.5 -64h-93v82l56 6q110 13 154 47.5t44 120.5q0 87 -22.5 221t-22.5 166q0 210 191 252q-191 42 -191 252q0 32 22.5 166t22.5 221q0 86 -44 120.5
t-154 47.5l-56 6v82h93q148 0 229.5 -63.5t81.5 -183.5q0 -72 -21.5 -153t-43 -150.5t-21.5 -114.5q0 -78 58.5 -125t185.5 -64z" />
    <glyph glyph-name="asciitilde" unicode="~" horiz-adv-x="1087" 
d="M584 752q91 -84 170 -84q108 0 131 186l102 -16q-8 -141 -70 -215t-176 -74q-60 0 -116 28t-119 85q-93 83 -172 83q-106 0 -129 -186l-105 16q9 142 71 215.5t175 73.5q62 0 117.5 -27.5t120.5 -84.5z" />
    <glyph glyph-name="exclamdown" unicode="&#xa1;" horiz-adv-x="591" 
d="M295 999q55 0 94 -39.5t39 -93.5t-39 -93.5t-94 -39.5t-93 39t-38 94t38 94t93 39zM295 -428q-117 0 -117 129q0 50 51 551l29 280h76l26 -280q54 -496 54 -551q0 -129 -119 -129z" />
    <glyph glyph-name="cent" unicode="&#xa2;" horiz-adv-x="1024" 
d="M592 -92h-84v221q-191 12 -305.5 150.5t-114.5 363.5q0 215 121 354t299 162v193h84v-189q129 -8 223 -82t113 -184q-15 -78 -97 -78q-50 0 -80.5 36.5t-50.5 119.5l-18 80q-52 13 -90 16v-813q89 3 166.5 45t124.5 115l49 -27q-79 -241 -340 -262v-221zM266 662
q0 -164 65.5 -267.5t176.5 -128.5v799q-110 -24 -176 -129t-66 -274z" />
    <glyph glyph-name="sterling" unicode="&#xa3;" horiz-adv-x="1024" 
d="M72 0v106q107 60 168 171.5t61 234.5q0 40 -6 70h-211v104h180q-6 17 -25 61.5t-28 69.5t-18 68.5t-9 87.5q0 162 107.5 269.5t275.5 107.5q143 0 247.5 -84.5t111.5 -214.5q-23 -66 -95 -66q-45 0 -74 31t-46 106l-29 125q-41 10 -84 10q-102 0 -163.5 -67.5
t-61.5 -208.5q0 -54 4.5 -99.5t16.5 -113t14 -82.5h378v-104h-368q2 -18 2 -56q-3 -236 -156 -358h690v-168h-882z" />
    <glyph glyph-name="currency" unicode="&#xa4;" horiz-adv-x="1028" 
d="M293 674q0 -100 64.5 -165t156.5 -65t156.5 65t64.5 165q0 99 -64 163t-157 64t-157 -64t-64 -163zM176 674q0 126 76 215l-74 45q-67 39 -93 66t-26 55q0 31 21.5 52t52.5 21q29 0 55.5 -25.5t65.5 -92.5l45 -76q93 74 215 74t215 -74l45 76q41 68 67 93t54 25
q31 0 53.5 -21.5t22.5 -51.5q0 -28 -26 -55t-93 -66l-76 -45q76 -89 76 -215t-76 -215l76 -45q68 -41 93.5 -67t25.5 -54q0 -31 -22.5 -53.5t-53.5 -22.5q-28 0 -54 25.5t-67 93.5l-45 76q-94 -72 -215 -72t-215 72l-45 -76q-39 -67 -66 -93t-55 -26q-31 0 -52.5 22
t-21.5 54q0 28 25.5 54t93.5 67l74 45q-76 89 -76 215z" />
    <glyph glyph-name="yen" unicode="&#xa5;" horiz-adv-x="1024" 
d="M102 303v103h328v147h-328v102h283l-268 570l-140 18v80h498v-80l-158 -20l238 -549l248 547l-150 22v80h394v-80l-146 -24l-258 -564h293v-102h-340l-2 -6v-141h342v-103h-342q0 -59 4 -199l215 -22v-82h-598v82l211 22q1 34 2 100t2 99h-328z" />
    <glyph glyph-name="brokenbar" unicode="&#xa6;" horiz-adv-x="514" 
d="M197 -512v922h120v-922h-120zM317 655h-120v881h120v-881z" />
    <glyph glyph-name="section" unicode="&#xa7;" horiz-adv-x="1005" 
d="M539 1401q139 0 234 -66.5t97 -158.5q-28 -74 -96 -74q-45 0 -76 26t-61 86l-45 93q-12 2 -37 2q-104 0 -158.5 -45t-54.5 -111q0 -45 19 -82.5t57 -68t77 -53t97 -48.5q85 -38 139.5 -70t98.5 -72.5t63.5 -89.5t19.5 -112q0 -167 -163 -268q69 -82 69 -183
q0 -127 -96.5 -220t-259.5 -93q-138 0 -233 67.5t-95 159.5q24 72 96 72q44 0 76 -26t60 -84l47 -93q10 -2 32 -2q107 0 162.5 49.5t55.5 124.5q0 33 -12 61t-29.5 49t-53.5 44.5t-68 40t-89 43.5q-64 30 -105 53t-86 55.5t-70.5 65.5t-42 78.5t-16.5 99.5q0 163 166 260
q-74 89 -74 199q0 54 22 105t64 93t112 67.5t157 25.5zM489 459q132 -59 205 -119q35 35 54.5 81t19.5 89q0 24 -7 45.5t-16.5 38t-30.5 34.5t-37.5 29.5t-49.5 28.5t-54 26.5l-63 28.5q-131 59 -201 121q-73 -67 -73 -160q0 -36 15.5 -68t35.5 -54t59.5 -46.5t66 -38
t76.5 -36.5z" />
    <glyph glyph-name="dieresis" unicode="&#xa8;" horiz-adv-x="819" 
d="M625 1221q-52 0 -87.5 33t-35.5 83q0 49 36 83t87 34q50 0 85 -34t35 -83q0 -50 -35 -83t-85 -33zM195 1221q-50 0 -85.5 33t-35.5 83q0 49 35.5 83t85.5 34q51 0 86.5 -34t35.5 -83q0 -50 -35 -83t-87 -33z" />
    <glyph glyph-name="copyright" unicode="&#xa9;" horiz-adv-x="1546" 
d="M166 690q0 -193 80.5 -339.5t218 -223t309.5 -76.5t309.5 77t218 223.5t80.5 338.5q0 144 -46.5 263t-128.5 198.5t-193 123.5t-240 44t-240 -43.5t-193 -123t-128.5 -199t-46.5 -263.5zM61 690q0 216 96 379.5t256.5 247.5t360.5 84q199 0 359 -84t256 -247.5t96 -379.5
q0 -163 -55.5 -300t-151.5 -228.5t-226 -142t-278 -50.5q-149 0 -279 50.5t-226.5 142t-152 228t-55.5 300.5zM823 358q54 0 119 23l23 145h90l-6 -194q-110 -58 -242 -58q-178 0 -289.5 116t-111.5 300q0 181 114 299.5t285 118.5q132 0 233 -57l4 -195h-88l-22 148
q-52 24 -109 24q-117 0 -192.5 -88.5t-75.5 -247.5q0 -161 72.5 -247.5t195.5 -86.5z" />
    <glyph glyph-name="ordfeminine" unicode="&#xaa;" horiz-adv-x="718" 
d="M582 999q0 -63 41 -63q25 0 53 31l31 -27q-41 -84 -127 -84q-56 0 -90.5 28.5t-43.5 78.5q-61 -61 -102.5 -86t-101.5 -25q-81 0 -133 45.5t-52 124.5q0 68 51 118t187 93q36 10 147 41v37q0 92 -27.5 125.5t-99.5 33.5q-25 0 -63 -6l-21 -78q-7 -44 -29.5 -67t-54.5 -23
q-61 0 -71 62q15 79 91 127.5t191 48.5q117 0 170.5 -56.5t53.5 -185.5v-293zM201 1049q0 -51 30 -76t74 -25q26 0 49 11.5t71 44.5q11 8 17 12v205q-70 -19 -114 -35q-72 -27 -99.5 -60.5t-27.5 -76.5z" />
    <glyph glyph-name="guillemotleft" unicode="&#xab;" horiz-adv-x="997" 
d="M481 102l-420 361v108l420 361l49 -55l-307 -359l307 -360zM895 102l-420 361v108l420 361l49 -55l-307 -359l307 -360z" />
    <glyph glyph-name="logicalnot" unicode="&#xac;" horiz-adv-x="1087" 
d="M49 702v117h969v-493h-127v376h-842z" />
    <glyph glyph-name="registered" unicode="&#xae;" horiz-adv-x="940" 
d="M133 1057q0 -153 98 -248.5t238 -95.5q142 0 240 95.5t98 248.5q0 152 -97.5 245t-240.5 93q-141 0 -238.5 -93t-97.5 -245zM61 1057q0 182 119 291.5t289 109.5q82 0 156.5 -27.5t131 -78t89.5 -127t33 -168.5q0 -122 -56.5 -216.5t-149.5 -143t-204 -48.5
q-174 0 -291 112t-117 296zM688 889v-31q-36 -8 -61 -8q-39 0 -56.5 11t-23.5 42l-19 88q-8 49 -71 49h-29v-145l57 -6v-31h-204v31l59 6v336l-59 6v33h194q72 0 114 -29t42 -76q0 -36 -24.5 -64.5t-76.5 -41.5q78 -16 93 -80l16 -84zM455 1235h-27v-160h27q42 0 62 23
t20 59q0 78 -82 78z" />
    <glyph glyph-name="macron" unicode="&#x2c9;" horiz-adv-x="819" 
d="M141 1221v129h537v-129h-537z" />
    <glyph glyph-name="macron" unicode="&#xaf;" horiz-adv-x="819" 
d="M141 1221v129h537v-129h-537z" />
    <glyph glyph-name="degree" unicode="&#xb0;" horiz-adv-x="671" 
d="M336 950q74 0 124 54t50 133q0 80 -50.5 136t-123.5 56t-123.5 -56t-50.5 -136q0 -79 50 -133t124 -54zM336 877q-109 0 -184.5 71.5t-75.5 188.5t75.5 190.5t184.5 73.5t184.5 -73.5t75.5 -190.5t-75.5 -188.5t-184.5 -71.5z" />
    <glyph glyph-name="plusminus" unicode="&#xb1;" horiz-adv-x="1087" 
d="M1028 0h-969v119h969v-119zM481 201v417h-422v119h422v406h125v-406h422v-119h-422v-417h-125z" />
    <glyph glyph-name="two.sups" unicode="&#xb2;" horiz-adv-x="757" 
d="M111 870v103l190 182q93 89 136.5 165t43.5 153t-40 118t-113 41q-18 0 -54 -4l-20 -80q-13 -57 -32 -79.5t-48 -22.5q-51 0 -76 49q7 99 88 153t197 54q125 0 186.5 -61.5t61.5 -151.5q0 -84 -57.5 -162.5t-206.5 -216.5l-105 -96h400v-144h-551z" />
    <glyph glyph-name="three.sups" unicode="&#xb3;" horiz-adv-x="757" 
d="M264 1337h51q168 0 168 148q0 71 -39.5 109t-109.5 38q-13 0 -49 -4l-15 -74q-7 -44 -28.5 -65t-51.5 -21q-48 0 -69 43q11 94 81.5 142.5t172.5 48.5q114 0 184 -55t70 -146q0 -72 -42.5 -127t-111.5 -74q92 -17 141.5 -72t49.5 -141q0 -80 -44 -134.5t-109.5 -77.5
t-145.5 -23q-119 0 -189.5 50.5t-85.5 144.5q18 53 72 53q30 0 50 -22t30 -77l16 -73q31 -8 68 -8q90 0 139 46t49 128q0 161 -190 161h-62v82z" />
    <glyph glyph-name="acute" unicode="&#x2ca;" horiz-adv-x="819" 
d="M287 1180q89 150 182 288q52 84 111 84q32 0 54.5 -20t22.5 -57q0 -49 -69 -113q-106 -96 -248 -221z" />
    <glyph glyph-name="acute" unicode="&#xb4;" horiz-adv-x="819" 
d="M287 1180q89 150 182 288q52 84 111 84q32 0 54.5 -20t22.5 -57q0 -49 -69 -113q-106 -96 -248 -221z" />
    <glyph glyph-name="mu" unicode="&#x3bc;" horiz-adv-x="1165" 
d="M162 -369l43 578l-31 752l174 38l23 -20q-8 -149 -22.5 -371.5t-16.5 -306.5q76 -170 223 -170q84 0 142 46t108 171l-12 613l176 38l20 -20q-8 -103 -21 -254.5t-17 -204.5t-7 -121.5t-2 -119.5q3 -97 22 -130.5t70 -33.5q39 0 84 18l19 -51q-59 -109 -172 -109
q-79 0 -113.5 58t-42.5 178q-97 -236 -274 -236q-63 0 -126.5 41.5t-103.5 116.5l51 -483l-170 -37z" />
    <glyph glyph-name="mu" unicode="&#xb5;" horiz-adv-x="1165" 
d="M162 -369l43 578l-31 752l174 38l23 -20q-8 -149 -22.5 -371.5t-16.5 -306.5q76 -170 223 -170q84 0 142 46t108 171l-12 613l176 38l20 -20q-8 -103 -21 -254.5t-17 -204.5t-7 -121.5t-2 -119.5q3 -97 22 -130.5t70 -33.5q39 0 84 18l19 -51q-59 -109 -172 -109
q-79 0 -113.5 58t-42.5 178q-97 -236 -274 -236q-63 0 -126.5 41.5t-103.5 116.5l51 -483l-170 -37z" />
    <glyph glyph-name="paragraph" unicode="&#xb6;" horiz-adv-x="1224" 
d="M647 1276v-971q-140 1 -253 41t-187.5 111.5t-115 170.5t-40.5 216q0 240 183 383t493 143h408v-84l-189 -22q-4 -172 -4 -529v-364q0 -424 6 -635h-168q6 207 6 635v905h-139z" />
    <glyph glyph-name="periodcentered" unicode="&#xb7;" horiz-adv-x="614" 
d="M307 535q-61 0 -103 42.5t-42 102.5q0 62 42 104.5t103 42.5t103.5 -42.5t42.5 -104.5q0 -60 -42.5 -102.5t-103.5 -42.5z" />
    <glyph glyph-name="cedilla" unicode="&#xb8;" horiz-adv-x="819" 
d="M299 -176l27 182h75l-16 -125q83 -13 135.5 -55.5t52.5 -112.5q0 -73 -60 -118.5t-169 -45.5q-65 0 -129 19l14 63q49 -6 99 -6q118 0 118 92q0 46 -35.5 71t-111.5 36z" />
    <glyph glyph-name="one.sups" unicode="&#xb9;" horiz-adv-x="757" 
d="M162 1630l284 66l19 -13v-720l180 -33v-60h-510v60l184 33v604l-157 -13v76z" />
    <glyph glyph-name="ordmasculine" unicode="&#xba;" horiz-adv-x="772" 
d="M387 1462q-186 0 -186 -270t186 -270q184 0 184 270q0 135 -47.5 202.5t-136.5 67.5zM387 1534q132 0 230 -94t98 -248q0 -156 -97 -249t-231 -93q-135 0 -232.5 93.5t-97.5 248.5t98 248.5t232 93.5z" />
    <glyph glyph-name="guillemotright" unicode="&#xbb;" horiz-adv-x="997" 
d="M102 932l420 -361v-108l-420 -361l-49 56l307 360l-307 359zM516 932l420 -361v-108l-420 -361l-49 56l307 360l-307 359z" />
    <glyph glyph-name="onequarter" unicode="&#xbc;" horiz-adv-x="1763" 
d="M487 -51l-63 51l952 1370l64 -51zM164 1278l285 65l18 -12v-721l180 -32v-60h-510v60l185 32v604l-158 -12v76zM983 207v94l385 524h96v-501h131v-117h-131v-207h-133v207h-348zM1083 324h248v354z" />
    <glyph glyph-name="onehalf" unicode="&#xbd;" horiz-adv-x="1763" 
d="M422 -51l-64 51l953 1370l63 -51zM147 1278l285 65l19 -12v-721l180 -32v-60h-510v60l184 32v604l-158 -12v76zM1061 0v102l190 183q93 90 137 165.5t44 151.5q0 77 -40.5 118.5t-113.5 41.5q-17 0 -53 -4l-21 -80q-13 -58 -32 -80.5t-48 -22.5q-49 0 -75 50
q7 99 87.5 152.5t196.5 53.5q125 0 186.5 -61.5t61.5 -151.5q0 -58 -30 -115.5t-81.5 -113t-152.5 -149.5l-105 -97h400v-143h-551z" />
    <glyph glyph-name="threequarters" unicode="&#xbe;" horiz-adv-x="1763" 
d="M506 -51l-64 51l953 1370l63 -51zM332 985h51q168 0 168 148q0 71 -40 109t-110 38q-13 0 -49 -4l-14 -74q-7 -44 -28.5 -65t-51.5 -21q-49 0 -70 43q11 94 81.5 142.5t172.5 48.5q114 0 184 -55t70 -146q0 -72 -42 -127t-111 -74q92 -17 141 -72t49 -141
q0 -80 -44 -134.5t-109.5 -77.5t-145.5 -23q-119 0 -189 50t-85 144q18 54 71 54q30 0 50 -22t30 -77l17 -74q31 -8 67 -8q90 0 139.5 46t49.5 128q0 162 -191 162h-61v82zM1001 207v94l385 524h97v-501h131v-117h-131v-207h-133v207h-349zM1102 324h248v354z" />
    <glyph glyph-name="questiondown" unicode="&#xbf;" horiz-adv-x="851" 
d="M547 1001q55 0 93 -39t38 -94t-38 -94t-93 -39t-94 39.5t-39 93.5t39 93.5t94 39.5zM135 31q0 192 205 258l70 24q63 20 79.5 40.5t16.5 72.5v113h80l24 -86q33 -106 33 -144q0 -46 -37 -76.5t-127 -58.5l-117 -37q-114 -39 -114 -141q0 -73 53 -152l268 -47
q86 -16 117 -42t31 -68q0 -46 -28 -72.5t-85 -40.5q-68 6 -147 42t-152 93t-121.5 142.5t-48.5 179.5z" />
    <glyph glyph-name="Agrave" unicode="&#xc0;" horiz-adv-x="1359" 
d="M633 1151l-207 -610h412zM10 0v84l172 27l436 1269h130l436 -1278l153 -18v-84h-557v84l201 25l-113 335h-475l-114 -333l200 -27v-84h-469zM813 1526l-37 -51q-50 26 -258 137q-102 56 -102 114q0 30 22.5 50t55.5 20q49 0 127 -78q101 -94 192 -192z" />
    <glyph glyph-name="Aacute" unicode="&#xc1;" horiz-adv-x="1359" 
d="M633 1151l-207 -610h412zM10 0v84l172 27l436 1269h130l436 -1278l153 -18v-84h-557v84l201 25l-113 335h-475l-114 -333l200 -27v-84h-469zM545 1526q94 101 192 192q78 78 127 78q33 0 55.5 -20t22.5 -50q0 -29 -22.5 -55t-79.5 -57q-172 -94 -258 -139z" />
    <glyph glyph-name="Acircumflex" unicode="&#xc2;" horiz-adv-x="1359" 
d="M633 1151l-207 -610h412zM10 0v84l172 27l436 1269h130l436 -1278l153 -18v-84h-557v84l201 25l-113 335h-475l-114 -333l200 -27v-84h-469zM715 1714l268 -235l-39 -52l-264 152l-264 -152l-39 52l268 235h70z" />
    <glyph glyph-name="Atilde" unicode="&#xc3;" horiz-adv-x="1359" 
d="M633 1151l-207 -610h412zM10 0v84l172 27l436 1269h130l436 -1278l153 -18v-84h-557v84l201 25l-113 335h-475l-114 -333l200 -27v-84h-469zM309 1503q41 264 215 264q35 0 66.5 -10.5t51 -23t48.5 -35.5q12 -10 36.5 -32t39 -34t37 -22.5t43.5 -10.5q48 0 81 42t58 122
l62 -20q-45 -262 -213 -262q-51 0 -88.5 17t-79.5 50q-10 9 -36 32.5t-39.5 34.5t-36.5 21.5t-44 10.5q-89 0 -139 -162z" />
    <glyph glyph-name="Adieresis" unicode="&#xc4;" horiz-adv-x="1359" 
d="M633 1151l-207 -610h412zM10 0v84l172 27l436 1269h130l436 -1278l153 -18v-84h-557v84l201 25l-113 335h-475l-114 -333l200 -27v-84h-469zM451 1524q-49 0 -84 32t-35 80t35.5 80.5t83.5 32.5q50 0 83 -32t33 -81t-33 -80.5t-83 -31.5zM907 1524q-50 0 -83 31.5
t-33 80.5t33 81t83 32q48 0 83.5 -32.5t35.5 -80.5t-35 -80t-84 -32z" />
    <glyph glyph-name="Aring" unicode="&#xc5;" horiz-adv-x="1359" 
d="M633 1151l-207 -610h412zM10 0v84l172 27l436 1269h130l436 -1278l153 -18v-84h-557v84l201 25l-113 335h-475l-114 -333l200 -27v-84h-469zM680 1550q48 0 77 35.5t29 81.5q0 47 -28 81t-78 34q-49 0 -78 -34t-29 -81q0 -46 28.5 -81.5t78.5 -35.5zM680 1479
q-80 0 -138.5 51t-58.5 137t59 138.5t138 52.5q80 0 138.5 -51.5t58.5 -139.5q0 -84 -59 -136t-138 -52z" />
    <glyph glyph-name="AE" unicode="&#xc6;" horiz-adv-x="1884" 
d="M567 604h371v651h-20zM10 0v84l170 22l629 1158l-158 22v84h1108l15 -362h-119l-45 260h-486q-4 -174 -4 -520h310l28 194h94v-483h-94l-26 192h-312q0 -379 4 -549h527l45 263h119l-15 -365h-1046v84l180 22q4 254 4 404h-422l-215 -399l178 -27v-84h-469z" />
    <glyph glyph-name="Ccedilla" unicode="&#xc7;" horiz-adv-x="1292" 
d="M801 72q130 0 243 55l41 238h127l-8 -297q-180 -99 -409 -99l-13 -88q84 -13 136.5 -55.5t52.5 -112.5q0 -73 -60.5 -118.5t-169.5 -45.5q-65 0 -129 19l15 63q49 -6 98 -6q59 0 89 24t30 68q0 46 -35.5 71t-112.5 36l23 149q-281 23 -452 219t-171 494q0 153 52.5 286
t144 227t220 148t275.5 54q228 0 396 -98l8 -297h-127l-41 237q-99 55 -209 55q-104 0 -193.5 -40t-157 -115.5t-106.5 -193t-39 -263.5q0 -293 132.5 -453.5t349.5 -160.5z" />
    <glyph glyph-name="Egrave" unicode="&#xc8;" horiz-adv-x="1234" 
d="M283 635v100q0 353 -4 529l-189 22v84h1020l14 -362h-116l-45 260h-482q-4 -174 -4 -520h301l29 194h94v-483h-94l-27 192h-303q0 -379 4 -549h523l45 263h116l-14 -365h-1061v84l189 22q4 172 4 529zM754 1526l-37 -51q-50 26 -258 137q-56 31 -79.5 58t-23.5 56
q0 30 22.5 50t55.5 20q49 0 127 -78q108 -100 193 -192z" />
    <glyph glyph-name="Eacute" unicode="&#xc9;" horiz-adv-x="1234" 
d="M283 635v100q0 353 -4 529l-189 22v84h1020l14 -362h-116l-45 260h-482q-4 -174 -4 -520h301l29 194h94v-483h-94l-27 192h-303q0 -379 4 -549h523l45 263h116l-14 -365h-1061v84l189 22q4 172 4 529zM561 1526q88 95 193 192q78 78 127 78q33 0 55 -20t22 -50
q0 -29 -22.5 -55t-79.5 -57q-172 -94 -258 -139z" />
    <glyph glyph-name="Ecircumflex" unicode="&#xca;" horiz-adv-x="1234" 
d="M283 635v100q0 353 -4 529l-189 22v84h1020l14 -362h-116l-45 260h-482q-4 -174 -4 -520h301l29 194h94v-483h-94l-27 192h-303q0 -379 4 -549h523l45 263h116l-14 -365h-1061v84l189 22q4 172 4 529zM733 1753l268 -235l-38 -52l-265 152l-264 -152l-39 52l269 235h69z
" />
    <glyph glyph-name="Edieresis" unicode="&#xcb;" horiz-adv-x="1234" 
d="M283 635v100q0 353 -4 529l-189 22v84h1020l14 -362h-116l-45 260h-482q-4 -174 -4 -520h301l29 194h94v-483h-94l-27 192h-303q0 -379 4 -549h523l45 263h116l-14 -365h-1061v84l189 22q4 172 4 529zM436 1524q-49 0 -84 32t-35 80t35.5 80.5t83.5 32.5q50 0 83.5 -32
t33.5 -81t-33.5 -80.5t-83.5 -31.5zM893 1524q-50 0 -83.5 31.5t-33.5 80.5t33.5 81t83.5 32q48 0 83.5 -32.5t35.5 -80.5t-35 -80t-84 -32z" />
    <glyph glyph-name="Igrave" unicode="&#xcc;" horiz-adv-x="759" 
d="M283 635v100q0 353 -4 529l-189 22v84h580v-84l-189 -22q-4 -172 -4 -529v-100q0 -353 4 -529l189 -22v-84h-580v84l189 22q4 172 4 529zM516 1526l-37 -51q-50 26 -258 137q-102 56 -102 114q0 30 22.5 50t55.5 20q49 0 127 -78q101 -94 192 -192z" />
    <glyph glyph-name="Iacute" unicode="&#xcd;" horiz-adv-x="759" 
d="M283 635v100q0 353 -4 529l-189 22v84h580v-84l-189 -22q-4 -172 -4 -529v-100q0 -353 4 -529l189 -22v-84h-580v84l189 22q4 172 4 529zM283 1526q94 101 192 192q78 78 127 78q33 0 55.5 -20t22.5 -50q0 -29 -22.5 -55t-79.5 -57q-149 -82 -259 -139z" />
    <glyph glyph-name="Icircumflex" unicode="&#xce;" horiz-adv-x="759" 
d="M283 635v100q0 353 -4 529l-189 22v84h580v-84l-189 -22q-4 -172 -4 -529v-100q0 -353 4 -529l189 -22v-84h-580v84l189 22q4 172 4 529zM414 1753l268 -235l-39 -52l-264 152l-264 -152l-39 52l268 235h70z" />
    <glyph glyph-name="Idieresis" unicode="&#xcf;" horiz-adv-x="759" 
d="M283 635v100q0 353 -4 529l-189 22v84h580v-84l-189 -22q-4 -172 -4 -529v-100q0 -353 4 -529l189 -22v-84h-580v84l189 22q4 172 4 529zM152 1524q-49 0 -84 32t-35 80t35.5 80.5t83.5 32.5q50 0 83 -32t33 -81t-33 -80.5t-83 -31.5zM608 1524q-50 0 -83 31.5t-33 80.5
t33 81t83 32q48 0 83.5 -32.5t35.5 -80.5t-35 -80t-84 -32z" />
    <glyph glyph-name="Eth" unicode="&#xd0;" horiz-adv-x="1454" 
d="M90 1286v84h604q198 0 346.5 -78t233 -234t84.5 -374q0 -162 -53.5 -292.5t-148.5 -215.5t-223 -130.5t-278 -45.5h-565v84l189 22q4 174 4 547h-193v97h193q0 348 -4 514zM791 653h-314q0 -385 4 -557h162q236 0 364 154t128 434q0 286 -124 439t-349 153h-181
q-4 -176 -4 -526h314v-97z" />
    <glyph glyph-name="Ntilde" unicode="&#xd1;" horiz-adv-x="1505" 
d="M930 1286v84h493v-84l-174 -26v-1274h-71l-820 1116v-989l217 -29v-84h-495v84l174 25v1136l-18 25l-146 16v84h316l739 -1016v906zM401 1483q41 264 215 264q35 0 66.5 -11t51 -23.5t48.5 -35.5q12 -10 36.5 -32t39 -33.5t37 -22t43.5 -10.5q48 0 81 42t58 122l62 -21
q-45 -262 -213 -262q-51 0 -88 17.5t-80 50.5q-9 8 -35.5 32t-40 34.5t-36.5 21t-44 10.5q-89 0 -139 -162z" />
    <glyph glyph-name="Ograve" unicode="&#xd2;" horiz-adv-x="1447" 
d="M319 686q0 -120 24 -227t71.5 -195t127.5 -140t183 -52q83 0 151 34.5t113.5 92.5t77 137.5t45.5 167t14 182.5t-14 182t-45.5 166t-77 137t-113.5 92.5t-151 34.5q-103 0 -183 -52t-127.5 -139.5t-71.5 -194.5t-24 -226zM725 1401q120 0 231 -47t200 -134.5t142.5 -226
t53.5 -307.5q0 -132 -34.5 -247.5t-95 -200.5t-140 -146t-171 -92t-186.5 -31q-97 0 -188 29t-171 89t-140 143.5t-95 201t-35 254.5q0 131 35 246.5t95.5 200t140 146t171.5 92t187 30.5zM858 1526l-37 -51q-50 26 -258 137q-102 56 -102 114q0 30 22.5 50t55.5 20
q49 0 127 -78q101 -94 192 -192z" />
    <glyph glyph-name="Oacute" unicode="&#xd3;" horiz-adv-x="1447" 
d="M319 686q0 -120 24 -227t71.5 -195t127.5 -140t183 -52q83 0 151 34.5t113.5 92.5t77 137.5t45.5 167t14 182.5t-14 182t-45.5 166t-77 137t-113.5 92.5t-151 34.5q-103 0 -183 -52t-127.5 -139.5t-71.5 -194.5t-24 -226zM725 1401q120 0 231 -47t200 -134.5t142.5 -226
t53.5 -307.5q0 -132 -34.5 -247.5t-95 -200.5t-140 -146t-171 -92t-186.5 -31q-97 0 -188 29t-171 89t-140 143.5t-95 201t-35 254.5q0 131 35 246.5t95.5 200t140 146t171.5 92t187 30.5zM629 1526q94 101 192 192q78 78 127 78q33 0 55.5 -20t22.5 -50q0 -29 -22.5 -55
t-79.5 -57q-172 -94 -258 -139z" />
    <glyph glyph-name="Ocircumflex" unicode="&#xd4;" horiz-adv-x="1447" 
d="M319 686q0 -120 24 -227t71.5 -195t127.5 -140t183 -52q83 0 151 34.5t113.5 92.5t77 137.5t45.5 167t14 182.5t-14 182t-45.5 166t-77 137t-113.5 92.5t-151 34.5q-103 0 -183 -52t-127.5 -139.5t-71.5 -194.5t-24 -226zM725 1401q120 0 231 -47t200 -134.5t142.5 -226
t53.5 -307.5q0 -132 -34.5 -247.5t-95 -200.5t-140 -146t-171 -92t-186.5 -31q-97 0 -188 29t-171 89t-140 143.5t-95 201t-35 254.5q0 131 35 246.5t95.5 200t140 146t171.5 92t187 30.5zM760 1753l268 -235l-39 -52l-264 152l-264 -152l-39 52l268 235h70z" />
    <glyph glyph-name="Otilde" unicode="&#xd5;" horiz-adv-x="1447" 
d="M319 686q0 -120 24 -227t71.5 -195t127.5 -140t183 -52q83 0 151 34.5t113.5 92.5t77 137.5t45.5 167t14 182.5t-14 182t-45.5 166t-77 137t-113.5 92.5t-151 34.5q-103 0 -183 -52t-127.5 -139.5t-71.5 -194.5t-24 -226zM725 1401q120 0 231 -47t200 -134.5t142.5 -226
t53.5 -307.5q0 -132 -34.5 -247.5t-95 -200.5t-140 -146t-171 -92t-186.5 -31q-97 0 -188 29t-171 89t-140 143.5t-95 201t-35 254.5q0 131 35 246.5t95.5 200t140 146t171.5 92t187 30.5zM356 1503q41 264 215 264q35 0 66.5 -10.5t51 -23t48.5 -35.5q12 -10 36.5 -32
t39 -34t37 -22.5t43.5 -10.5q48 0 81 42t58 122l62 -20q-45 -262 -213 -262q-51 0 -88.5 17t-79.5 50q-10 9 -36 32.5t-39.5 34.5t-36.5 21.5t-44 10.5q-89 0 -139 -162z" />
    <glyph glyph-name="Odieresis" unicode="&#xd6;" horiz-adv-x="1447" 
d="M319 686q0 -120 24 -227t71.5 -195t127.5 -140t183 -52q83 0 151 34.5t113.5 92.5t77 137.5t45.5 167t14 182.5t-14 182t-45.5 166t-77 137t-113.5 92.5t-151 34.5q-103 0 -183 -52t-127.5 -139.5t-71.5 -194.5t-24 -226zM725 1401q120 0 231 -47t200 -134.5t142.5 -226
t53.5 -307.5q0 -132 -34.5 -247.5t-95 -200.5t-140 -146t-171 -92t-186.5 -31q-97 0 -188 29t-171 89t-140 143.5t-95 201t-35 254.5q0 131 35 246.5t95.5 200t140 146t171.5 92t187 30.5zM496 1524q-49 0 -84 32t-35 80t35.5 80.5t83.5 32.5q50 0 83 -32t33 -81t-33 -80.5
t-83 -31.5zM952 1524q-50 0 -83 31.5t-33 80.5t33 81t83 32q48 0 83.5 -32.5t35.5 -80.5t-35 -80t-84 -32z" />
    <glyph glyph-name="multiply" unicode="&#xd7;" horiz-adv-x="1087" 
d="M915 219l-370 373l-373 -373l-84 84l373 373l-373 371l84 83l373 -370l370 370l84 -83l-370 -371l370 -373z" />
    <glyph glyph-name="Oslash" unicode="&#xd8;" horiz-adv-x="1447" 
d="M1323 1343l-133 -161q162 -197 162 -496q0 -132 -34.5 -247.5t-95 -200.5t-140 -146t-171 -92t-186.5 -31q-108 0 -211.5 38.5t-187.5 111.5l-131 -162l-89 70l142 174q-152 197 -152 485q0 131 35 246.5t95.5 200t140 146t171.5 92t187 30.5q221 0 387 -141l125 153z
M299 686q0 -193 61 -348l662 811q-116 149 -297 149q-109 0 -193 -52t-133.5 -140t-74.5 -194.5t-25 -225.5zM1147 686q0 208 -68 358l-659 -811q112 -161 305 -161q108 0 191.5 52t132.5 140t73.5 195t24.5 227z" />
    <glyph glyph-name="Ugrave" unicode="&#xd9;" horiz-adv-x="1488" 
d="M446 575q0 -129 23 -219.5t69 -142.5t106.5 -75t141.5 -23q178 0 264.5 115t86.5 380v650l-209 26v84h491v-84l-178 -22v-703q0 -158 -36.5 -274t-103.5 -184.5t-153.5 -101t-195.5 -32.5q-233 0 -365.5 135t-132.5 412v221q0 353 -4 529l-170 20v84h579v-84l-208 -24
q-5 -215 -5 -525v-162zM883 1505l-37 -51q-50 25 -258 137q-103 57 -103 115q0 30 22.5 50t55.5 20q49 0 127 -78q102 -94 193 -193z" />
    <glyph glyph-name="Uacute" unicode="&#xda;" horiz-adv-x="1488" 
d="M446 575q0 -129 23 -219.5t69 -142.5t106.5 -75t141.5 -23q178 0 264.5 115t86.5 380v650l-209 26v84h491v-84l-178 -22v-703q0 -158 -36.5 -274t-103.5 -184.5t-153.5 -101t-195.5 -32.5q-233 0 -365.5 135t-132.5 412v221q0 353 -4 529l-170 20v84h579v-84l-208 -24
q-5 -215 -5 -525v-162zM670 1505q100 108 192 193q78 78 127 78q33 0 55.5 -20t22.5 -50q0 -29 -23 -55.5t-79 -57.5q-172 -94 -258 -139z" />
    <glyph glyph-name="Ucircumflex" unicode="&#xdb;" horiz-adv-x="1488" 
d="M446 575q0 -129 23 -219.5t69 -142.5t106.5 -75t141.5 -23q178 0 264.5 115t86.5 380v650l-209 26v84h491v-84l-178 -22v-703q0 -158 -36.5 -274t-103.5 -184.5t-153.5 -101t-195.5 -32.5q-233 0 -365.5 135t-132.5 412v221q0 353 -4 529l-170 20v84h579v-84l-208 -24
q-5 -215 -5 -525v-162zM819 1733l268 -236l-38 -51l-265 151l-264 -151l-39 51l269 236h69z" />
    <glyph glyph-name="Udieresis" unicode="&#xdc;" horiz-adv-x="1488" 
d="M446 575q0 -129 23 -219.5t69 -142.5t106.5 -75t141.5 -23q178 0 264.5 115t86.5 380v650l-209 26v84h491v-84l-178 -22v-703q0 -158 -36.5 -274t-103.5 -184.5t-153.5 -101t-195.5 -32.5q-233 0 -365.5 135t-132.5 412v221q0 353 -4 529l-170 20v84h579v-84l-208 -24
q-5 -215 -5 -525v-162zM584 1524q-49 0 -84 32t-35 80t35.5 80.5t83.5 32.5q50 0 83 -32t33 -81t-33 -80.5t-83 -31.5zM1040 1524q-50 0 -83 31.5t-33 80.5t33 81t83 32q48 0 83.5 -32.5t35.5 -80.5t-35 -80t-84 -32z" />
    <glyph glyph-name="Yacute" unicode="&#xdd;" horiz-adv-x="1296" 
d="M807 1286v84h469v-84l-180 -26l-348 -721q0 -302 4 -433l209 -22v-84h-619v84l209 22q4 127 4 424l-362 738l-162 18v84h577v-84l-194 -22l284 -621l293 619zM625 1505q100 108 192 193q78 78 127 78q33 0 55.5 -20t22.5 -50q0 -29 -23 -55.5t-79 -57.5
q-172 -94 -258 -139z" />
    <glyph glyph-name="Thorn" unicode="&#xde;" horiz-adv-x="1251" 
d="M283 635v100q0 353 -4 529l-189 22v84h590v-84l-199 -22q-2 -55 -2 -168h189q261 0 396.5 -104t135.5 -283q0 -63 -15 -116.5t-55.5 -106t-104.5 -89.5t-168.5 -59.5t-240.5 -22.5h-139q1 -35 2 -104.5t2 -104.5l199 -22v-84h-590v84l189 22q4 172 4 529zM477 635v-223
h172q174 0 262 81.5t88 219.5q0 286 -356 286h-166v-260v-104z" />
    <glyph glyph-name="germandbls" unicode="&#xdf;" horiz-adv-x="1212" 
d="M219 430v428q0 275 70 426q52 114 159.5 182t243.5 68q158 0 257.5 -78.5t99.5 -200.5q0 -156 -177 -284q-116 -85 -116 -191q0 -60 32 -94.5t127 -91.5q149 -92 201.5 -159.5t52.5 -166.5q0 -138 -87.5 -216.5t-260.5 -78.5q-130 0 -286 58l-9 243h101l49 -184
q71 -24 135 -24q193 0 193 165q0 58 -35.5 104t-143.5 111q-57 33 -92 58t-66 58.5t-45 74.5t-14 94q0 150 140 264q72 60 101.5 111t29.5 123q0 100 -54 156.5t-163 56.5q-99 0 -157 -44.5t-87 -133.5q-19 -57 -23 -128.5t-4 -250.5v-455q0 -216 6 -430h-346v74l164 28
q4 222 4 328z" />
    <glyph glyph-name="agrave" unicode="&#xe0;" horiz-adv-x="1042" 
d="M852 -20q-73 0 -122.5 42.5t-61.5 114.5q-93 -92 -154.5 -128t-146.5 -36q-119 0 -197 67t-78 189q0 63 26.5 111t103 99.5t210.5 99.5q110 40 232 67v51q0 99 -21 153t-61 74.5t-111 20.5q-59 0 -111 -12l-38 -133q-28 -98 -107 -98q-87 0 -96 83q29 117 136 185.5
t263 68.5q164 0 241 -83t77 -273v-436q0 -121 73 -121q42 0 80 45l41 -45q-35 -58 -78 -82t-100 -24zM637 1180l-53 -39q-142 125 -248 221q-70 65 -70 113q0 38 22.5 57.5t55.5 19.5q59 0 111 -84q57 -85 182 -288zM274 260q0 -78 44.5 -114.5t119.5 -36.5q50 0 91 20
t135 86v315q-99 -27 -189 -61q-64 -25 -106 -53t-61.5 -56t-26.5 -50.5t-7 -49.5z" />
    <glyph glyph-name="aacute" unicode="&#xe1;" horiz-adv-x="1042" 
d="M852 -20q-73 0 -122.5 42.5t-61.5 114.5q-93 -92 -154.5 -128t-146.5 -36q-119 0 -197 67t-78 189q0 63 26.5 111t103 99.5t210.5 99.5q110 40 232 67v51q0 99 -21 153t-61 74.5t-111 20.5q-59 0 -111 -12l-38 -133q-28 -98 -107 -98q-87 0 -96 83q29 117 136 185.5
t263 68.5q164 0 241 -83t77 -273v-436q0 -121 73 -121q42 0 80 45l41 -45q-35 -58 -78 -82t-100 -24zM449 1180q89 150 182 288q52 84 110 84q32 0 55 -20t23 -57q0 -49 -69 -113q-106 -96 -248 -221zM274 260q0 -78 44.5 -114.5t119.5 -36.5q50 0 91 20t135 86v315
q-99 -27 -189 -61q-64 -25 -106 -53t-61.5 -56t-26.5 -50.5t-7 -49.5z" />
    <glyph glyph-name="acircumflex" unicode="&#xe2;" horiz-adv-x="1042" 
d="M852 -20q-73 0 -122.5 42.5t-61.5 114.5q-93 -92 -154.5 -128t-146.5 -36q-119 0 -197 67t-78 189q0 63 26.5 111t103 99.5t210.5 99.5q110 40 232 67v51q0 99 -21 153t-61 74.5t-111 20.5q-59 0 -111 -12l-38 -133q-28 -98 -107 -98q-87 0 -96 83q29 117 136 185.5
t263 68.5q164 0 241 -83t77 -273v-436q0 -121 73 -121q42 0 80 45l41 -45q-35 -58 -78 -82t-100 -24zM774 1118l-258 234l-258 -234l-47 45l270 361h70l270 -361zM274 260q0 -78 44.5 -114.5t119.5 -36.5q50 0 91 20t135 86v315q-99 -27 -189 -61q-64 -25 -106 -53
t-61.5 -56t-26.5 -50.5t-7 -49.5z" />
    <glyph glyph-name="atilde" unicode="&#xe3;" horiz-adv-x="1042" 
d="M852 -20q-73 0 -122.5 42.5t-61.5 114.5q-93 -92 -154.5 -128t-146.5 -36q-119 0 -197 67t-78 189q0 63 26.5 111t103 99.5t210.5 99.5q110 40 232 67v51q0 99 -21 153t-61 74.5t-111 20.5q-59 0 -111 -12l-38 -133q-28 -98 -107 -98q-87 0 -96 83q29 117 136 185.5
t263 68.5q164 0 241 -83t77 -273v-436q0 -121 73 -121q42 0 80 45l41 -45q-35 -58 -78 -82t-100 -24zM164 1200q38 264 194 264q46 0 79 -17.5t71 -51.5q8 -7 40.5 -40t54 -46t46.5 -13q43 0 73.5 42t53.5 122l55 -20q-20 -126 -66 -194t-128 -68q-46 0 -80 17.5t-70 49.5
q-10 9 -33 32t-35.5 34t-33 21.5t-39.5 10.5q-44 0 -74 -41t-53 -120zM274 260q0 -78 44.5 -114.5t119.5 -36.5q50 0 91 20t135 86v315q-99 -27 -189 -61q-64 -25 -106 -53t-61.5 -56t-26.5 -50.5t-7 -49.5z" />
    <glyph glyph-name="adieresis" unicode="&#xe4;" horiz-adv-x="1042" 
d="M852 -20q-73 0 -122.5 42.5t-61.5 114.5q-93 -92 -154.5 -128t-146.5 -36q-119 0 -197 67t-78 189q0 63 26.5 111t103 99.5t210.5 99.5q110 40 232 67v51q0 99 -21 153t-61 74.5t-111 20.5q-59 0 -111 -12l-38 -133q-28 -98 -107 -98q-87 0 -96 83q29 117 136 185.5
t263 68.5q164 0 241 -83t77 -273v-436q0 -121 73 -121q42 0 80 45l41 -45q-35 -58 -78 -82t-100 -24zM297 1221q-50 0 -85.5 33t-35.5 83q0 49 35.5 83t85.5 34q51 0 87 -34t36 -83q0 -50 -35.5 -83t-87.5 -33zM727 1221q-52 0 -87.5 33t-35.5 83q0 49 36 83t87 34
q50 0 85.5 -34t35.5 -83q0 -50 -35.5 -83t-85.5 -33zM274 260q0 -78 44.5 -114.5t119.5 -36.5q50 0 91 20t135 86v315q-99 -27 -189 -61q-64 -25 -106 -53t-61.5 -56t-26.5 -50.5t-7 -49.5z" />
    <glyph glyph-name="aring" unicode="&#xe5;" horiz-adv-x="1042" 
d="M852 -20q-73 0 -122.5 42.5t-61.5 114.5q-93 -92 -154.5 -128t-146.5 -36q-119 0 -197 67t-78 189q0 63 26.5 111t103 99.5t210.5 99.5q110 40 232 67v51q0 99 -21 153t-61 74.5t-111 20.5q-59 0 -111 -12l-38 -133q-28 -98 -107 -98q-87 0 -96 83q29 117 136 185.5
t263 68.5q164 0 241 -83t77 -273v-436q0 -121 73 -121q42 0 80 45l41 -45q-35 -58 -78 -82t-100 -24zM526 1208q53 0 85 38.5t32 88.5q0 51 -31.5 88t-85.5 37q-53 0 -84.5 -37.5t-31.5 -87.5q0 -51 31 -89t85 -38zM526 1126q-88 0 -151.5 56.5t-63.5 152.5q0 92 64 149.5
t151 57.5q88 0 151.5 -56t63.5 -151q0 -94 -63.5 -151.5t-151.5 -57.5zM274 260q0 -78 44.5 -114.5t119.5 -36.5q50 0 91 20t135 86v315q-99 -27 -189 -61q-64 -25 -106 -53t-61.5 -56t-26.5 -50.5t-7 -49.5z" />
    <glyph glyph-name="ae" unicode="&#xe6;" horiz-adv-x="1601" 
d="M1112 905q-45 0 -87.5 -18t-81 -55t-65.5 -102.5t-36 -151.5h372q69 0 96 27.5t27 78.5q0 89 -65 155t-160 66zM1110 -27q-127 0 -224.5 51t-156.5 148q-123 -119 -196.5 -159t-165.5 -40q-118 0 -196.5 68.5t-78.5 191.5q0 94 71.5 162.5t268.5 139.5q102 37 232 69v53
q0 143 -44 195.5t-143 52.5q-61 0 -110 -12l-41 -141q-28 -99 -111 -99q-42 0 -66.5 23.5t-29.5 64.5q29 118 136 188t263 70q211 0 277 -159q143 159 327 159q168 0 276.5 -106t108.5 -289q0 -65 -14 -112h-655q1 -185 90.5 -285.5t242.5 -100.5q91 0 157.5 36.5
t127.5 107.5l47 -39q-57 -113 -156.5 -175.5t-236.5 -62.5zM274 264q0 -76 46.5 -115.5t117.5 -39.5q58 0 107.5 23.5t152.5 100.5q-43 101 -43 244q0 33 2 49q-78 -22 -182 -61q-64 -25 -106 -51.5t-61.5 -53t-26.5 -48.5t-7 -48z" />
    <glyph glyph-name="ccedilla" unicode="&#xe7;" horiz-adv-x="999" 
d="M567 905q-135 0 -218 -105t-83 -296q0 -189 90 -293.5t238 -104.5q88 0 162 40.5t121 115.5l51 -26q-40 -120 -127.5 -187t-216.5 -74l-13 -94q84 -13 136.5 -55.5t52.5 -112.5q0 -73 -60.5 -118.5t-169.5 -45.5q-65 0 -129 19l15 63q50 -6 98 -6q59 0 89 24t30 68
q0 46 -35.5 71t-112.5 36l23 151q-195 12 -308.5 147.5t-113.5 360.5q0 95 25.5 178t70.5 144t104.5 105.5t129 66.5t143.5 22q137 0 240 -75.5t123 -190.5q-15 -78 -95 -78q-88 0 -112 99l-37 135q-52 16 -111 16z" />
    <glyph glyph-name="egrave" unicode="&#xe8;" horiz-adv-x="1044" 
d="M551 905q-98 0 -176 -81t-94 -246h372q68 0 94.5 28t26.5 78q0 89 -64.5 155t-158.5 66zM563 999q165 0 273 -106t108 -287q0 -67 -14 -114h-654q3 -186 92 -286t240 -100q92 0 158 36.5t127 107.5l49 -39q-59 -113 -158.5 -175.5t-234.5 -62.5q-208 0 -332.5 135.5
t-124.5 368.5q0 152 64.5 272.5t171.5 185t235 64.5zM635 1180l-53 -39q-142 125 -248 221q-70 65 -70 113q0 38 22.5 57.5t55.5 19.5q59 0 111 -84q57 -85 182 -288z" />
    <glyph glyph-name="eacute" unicode="&#xe9;" horiz-adv-x="1044" 
d="M551 905q-98 0 -176 -81t-94 -246h372q68 0 94.5 28t26.5 78q0 89 -64.5 155t-158.5 66zM563 999q165 0 273 -106t108 -287q0 -67 -14 -114h-654q3 -186 92 -286t240 -100q92 0 158 36.5t127 107.5l49 -39q-59 -113 -158.5 -175.5t-234.5 -62.5q-208 0 -332.5 135.5
t-124.5 368.5q0 152 64.5 272.5t171.5 185t235 64.5zM461 1180q89 150 182 288q52 84 111 84q32 0 54.5 -20t22.5 -57q0 -49 -69 -113q-106 -96 -248 -221z" />
    <glyph glyph-name="ecircumflex" unicode="&#xea;" horiz-adv-x="1044" 
d="M551 905q-98 0 -176 -81t-94 -246h372q68 0 94.5 28t26.5 78q0 89 -64.5 155t-158.5 66zM563 999q165 0 273 -106t108 -287q0 -67 -14 -114h-654q3 -186 92 -286t240 -100q92 0 158 36.5t127 107.5l49 -39q-59 -113 -158.5 -175.5t-234.5 -62.5q-208 0 -332.5 135.5
t-124.5 368.5q0 152 64.5 272.5t171.5 185t235 64.5zM813 1118l-258 234l-258 -234l-47 45l270 361h70l270 -361z" />
    <glyph glyph-name="edieresis" unicode="&#xeb;" horiz-adv-x="1044" 
d="M551 905q-98 0 -176 -81t-94 -246h372q68 0 94.5 28t26.5 78q0 89 -64.5 155t-158.5 66zM563 999q165 0 273 -106t108 -287q0 -67 -14 -114h-654q3 -186 92 -286t240 -100q92 0 158 36.5t127 107.5l49 -39q-59 -113 -158.5 -175.5t-234.5 -62.5q-208 0 -332.5 135.5
t-124.5 368.5q0 152 64.5 272.5t171.5 185t235 64.5zM340 1221q-50 0 -85.5 33t-35.5 83q0 49 35.5 83t85.5 34q51 0 87 -34t36 -83q0 -50 -35.5 -83t-87.5 -33zM770 1221q-52 0 -87.5 33t-35.5 83q0 49 36 83t87 34q50 0 85.5 -34t35.5 -83q0 -50 -35.5 -83t-85.5 -33z" />
    <glyph glyph-name="igrave" unicode="&#xec;" horiz-adv-x="610" 
d="M72 0v74l151 28q4 204 4 328v96q0 135 -6 258l-162 19v71l318 125l31 -20l-7 -279v-270q0 -73 5 -328l141 -28v-74h-475zM403 1180l-53 -39q-142 125 -248 221q-69 64 -69 113q0 38 22.5 57.5t55.5 19.5q58 0 110 -84q57 -85 182 -288z" />
    <glyph glyph-name="iacute" unicode="&#xed;" horiz-adv-x="610" 
d="M72 0v74l151 28q4 204 4 328v96q0 135 -6 258l-162 19v71l318 125l31 -20l-7 -279v-270q0 -73 5 -328l141 -28v-74h-475zM221 1180q89 150 182 288q52 84 111 84q32 0 55 -20t23 -57q0 -48 -70 -113q-106 -96 -248 -221z" />
    <glyph glyph-name="icircumflex" unicode="&#xee;" horiz-adv-x="610" 
d="M72 0v74l151 28q4 204 4 328v96q0 135 -6 258l-162 19v71l318 125l31 -20l-7 -279v-270q0 -73 5 -328l141 -28v-74h-475zM569 1118l-258 234l-258 -234l-47 45l270 361h70l270 -361z" />
    <glyph glyph-name="idieresis" unicode="&#xef;" horiz-adv-x="610" 
d="M72 0v74l151 28q4 204 4 328v96q0 135 -6 258l-162 19v71l318 125l31 -20l-7 -279v-270q0 -73 5 -328l141 -28v-74h-475zM80 1221q-50 0 -85.5 33t-35.5 83q0 49 35.5 83t85.5 34q51 0 87 -34t36 -83q0 -50 -35.5 -83t-87.5 -33zM510 1221q-52 0 -87.5 33t-35.5 83
q0 49 36 83t87 34q50 0 85.5 -34t35.5 -83q0 -50 -35.5 -83t-85.5 -33z" />
    <glyph glyph-name="eth" unicode="&#xf0;" horiz-adv-x="1118" 
d="M537 -27q-86 0 -165.5 33.5t-142 95t-100 159.5t-37.5 218q0 115 38.5 210.5t102.5 156t144.5 94t167.5 33.5q166 0 258 -103q-63 211 -191 353l-290 -150l-37 76l266 135q-88 84 -242 182l41 68q183 -86 309 -195l312 160l37 -76l-283 -143q289 -286 289 -707
q0 -280 -125.5 -440t-351.5 -160zM555 66q140 0 211.5 112.5t71.5 319.5q0 189 -74 285t-209 96q-131 0 -199.5 -105.5t-68.5 -304.5q0 -195 70 -299t198 -104z" />
    <glyph glyph-name="ntilde" unicode="&#xf1;" horiz-adv-x="1241" 
d="M770 999q134 0 198 -90t64 -288v-191q0 -124 4 -328l144 -28v-74h-475v74l151 28q4 200 4 328v174q0 139 -39 193.5t-131 54.5q-70 0 -134.5 -29t-143.5 -94v-299q0 -124 4 -328l141 -28v-74h-475v74l151 28q5 255 5 328v98q0 112 -7 256l-161 19v71l286 125l31 -20
l16 -166q76 85 174.5 135.5t192.5 50.5zM285 1200q38 264 194 264q46 0 79 -17.5t71 -51.5q8 -7 40.5 -40t54 -46t46.5 -13q43 0 73.5 42t53.5 122l55 -20q-20 -126 -66 -194t-128 -68q-46 0 -80 17.5t-70 49.5q-10 9 -33 32t-35.5 34t-33 21.5t-39.5 10.5q-44 0 -74 -41
t-53 -120z" />
    <glyph glyph-name="ograve" unicode="&#xf2;" horiz-adv-x="1124" 
d="M561 -27q-92 0 -175 32.5t-149 94t-105.5 160.5t-39.5 221q0 123 39.5 223.5t106 163.5t149.5 97t174 34q90 0 173.5 -34t150.5 -97t107 -163.5t40 -223.5q0 -122 -40 -221t-106.5 -160.5t-150 -94t-174.5 -32.5zM561 66q133 0 205 105.5t72 309.5q0 206 -72 315
t-205 109q-134 0 -204 -108.5t-70 -315.5q0 -205 70 -310t204 -105zM653 1180l-53 -39q-142 125 -248 221q-69 64 -69 113q0 38 22 57.5t55 19.5q59 0 111 -84q57 -85 182 -288z" />
    <glyph glyph-name="oacute" unicode="&#xf3;" horiz-adv-x="1124" 
d="M561 -27q-92 0 -175 32.5t-149 94t-105.5 160.5t-39.5 221q0 123 39.5 223.5t106 163.5t149.5 97t174 34q90 0 173.5 -34t150.5 -97t107 -163.5t40 -223.5q0 -122 -40 -221t-106.5 -160.5t-150 -94t-174.5 -32.5zM561 66q133 0 205 105.5t72 309.5q0 206 -72 315
t-205 109q-134 0 -204 -108.5t-70 -315.5q0 -205 70 -310t204 -105zM483 1180q82 137 183 288q52 84 110 84q32 0 55 -20t23 -57q0 -48 -70 -113q-143 -129 -247 -221z" />
    <glyph glyph-name="ocircumflex" unicode="&#xf4;" horiz-adv-x="1124" 
d="M561 66q133 0 205 105.5t72 309.5q0 206 -72 315t-205 109q-134 0 -204 -108.5t-70 -315.5q0 -205 70 -310t204 -105zM561 -27q-92 0 -175 32.5t-149 94t-105.5 160.5t-39.5 221q0 123 39.5 223.5t106 163.5t149.5 97t174 34q90 0 173.5 -34t150.5 -97t107 -163.5
t40 -223.5q0 -122 -40 -221t-106.5 -160.5t-150 -94t-174.5 -32.5zM819 1118l-258 234l-258 -234l-47 45l270 361h70l270 -361z" />
    <glyph glyph-name="otilde" unicode="&#xf5;" horiz-adv-x="1124" 
d="M561 -27q-92 0 -175 32.5t-149 94t-105.5 160.5t-39.5 221q0 123 39.5 223.5t106 163.5t149.5 97t174 34q90 0 173.5 -34t150.5 -97t107 -163.5t40 -223.5q0 -122 -40 -221t-106.5 -160.5t-150 -94t-174.5 -32.5zM561 66q133 0 205 105.5t72 309.5q0 206 -72 315
t-205 109q-134 0 -204 -108.5t-70 -315.5q0 -205 70 -310t204 -105zM227 1200q38 264 195 264q46 0 78.5 -17.5t70.5 -51.5q12 -10 33.5 -32t35 -34t34 -22.5t39.5 -10.5q43 0 73.5 42t53.5 122l55 -20q-41 -262 -195 -262q-46 0 -79.5 17.5t-69.5 49.5q-10 9 -33 32
t-35.5 34t-33 21.5t-39.5 10.5q-44 0 -74 -41t-53 -120z" />
    <glyph glyph-name="odieresis" unicode="&#xf6;" horiz-adv-x="1124" 
d="M561 -27q-92 0 -175 32.5t-149 94t-105.5 160.5t-39.5 221q0 123 39.5 223.5t106 163.5t149.5 97t174 34q90 0 173.5 -34t150.5 -97t107 -163.5t40 -223.5q0 -122 -40 -221t-106.5 -160.5t-150 -94t-174.5 -32.5zM561 66q133 0 205 105.5t72 309.5q0 206 -72 315
t-205 109q-134 0 -204 -108.5t-70 -315.5q0 -205 70 -310t204 -105zM776 1221q-52 0 -87.5 33t-35.5 83q0 49 36 83t87 34q50 0 85.5 -34t35.5 -83q0 -50 -35.5 -83t-85.5 -33zM346 1221q-50 0 -85.5 33t-35.5 83q0 49 35.5 83t85.5 34q51 0 87 -34t36 -83q0 -50 -35.5 -83
t-87.5 -33z" />
    <glyph glyph-name="divide" unicode="&#xf7;" horiz-adv-x="1087" 
d="M543 139q-58 0 -99 38t-41 97q0 60 40.5 98t99.5 38q60 0 100.5 -38t40.5 -98q0 -59 -41 -97t-100 -38zM543 940q-58 0 -99 38t-41 97q0 60 40.5 97.5t99.5 37.5q60 0 100.5 -37.5t40.5 -97.5q0 -59 -41 -97t-100 -38zM1028 616h-969v117h969v-117z" />
    <glyph glyph-name="oslash" unicode="&#xf8;" horiz-adv-x="1124" 
d="M997 973l-96 -121q131 -141 131 -371q0 -122 -40 -221t-106.5 -160.5t-150 -94t-174.5 -32.5q-168 0 -291 99l-92 -115l-67 53l98 121q-117 137 -117 350q0 123 39.5 223.5t106 163.5t149.5 97t174 34q152 0 277 -90l94 117zM276 481q0 -139 33 -227l451 559
q-71 92 -199 92q-138 0 -211.5 -108.5t-73.5 -315.5zM561 66q138 0 212.5 105.5t74.5 309.5q0 156 -43 254l-455 -565q70 -104 211 -104z" />
    <glyph glyph-name="ugrave" unicode="&#xf9;" horiz-adv-x="1193" 
d="M1124 0l-284 -16l-21 182q-159 -193 -362 -193q-131 0 -199.5 87t-67.5 282l7 510l-146 31v73l301 29l21 -20l-11 -287v-318q0 -131 39.5 -186t124.5 -55q145 0 287 133l6 602l-145 29v73l297 29l20 -20l-6 -287v-576l139 -28v-74zM662 1180l-54 -39q-142 125 -248 221
q-69 64 -69 113q0 38 22.5 57.5t55.5 19.5q58 0 110 -84q69 -102 183 -288z" />
    <glyph glyph-name="uacute" unicode="&#xfa;" horiz-adv-x="1193" 
d="M1124 0l-284 -16l-21 182q-159 -193 -362 -193q-131 0 -199.5 87t-67.5 282l7 510l-146 31v73l301 29l21 -20l-11 -287v-318q0 -131 39.5 -186t124.5 -55q145 0 287 133l6 602l-145 29v73l297 29l20 -20l-6 -287v-576l139 -28v-74zM485 1180q82 137 183 288q52 84 110 84
q32 0 55 -20t23 -57q0 -48 -70 -113q-143 -129 -247 -221z" />
    <glyph glyph-name="ucircumflex" unicode="&#xfb;" horiz-adv-x="1193" 
d="M1124 0l-284 -16l-21 182q-159 -193 -362 -193q-131 0 -199.5 87t-67.5 282l7 510l-146 31v73l301 29l21 -20l-11 -287v-318q0 -131 39.5 -186t124.5 -55q145 0 287 133l6 602l-145 29v73l297 29l20 -20l-6 -287v-576l139 -28v-74zM838 1118l-258 234l-258 -234l-48 45
l271 361h69l271 -361z" />
    <glyph glyph-name="udieresis" unicode="&#xfc;" horiz-adv-x="1193" 
d="M1124 0l-284 -16l-21 182q-159 -193 -362 -193q-131 0 -199.5 87t-67.5 282l7 510l-146 31v73l301 29l21 -20l-11 -287v-318q0 -131 39.5 -186t124.5 -55q145 0 287 133l6 602l-145 29v73l297 29l20 -20l-6 -287v-576l139 -28v-74zM383 1221q-50 0 -85.5 33t-35.5 83
q0 49 35.5 83t85.5 34q51 0 87 -34t36 -83q0 -50 -35.5 -83t-87.5 -33zM813 1221q-52 0 -87.5 33t-35.5 83q0 49 36 83t87 34q50 0 85.5 -34t35.5 -83q0 -50 -35.5 -83t-85.5 -33z" />
    <glyph glyph-name="yacute" unicode="&#xfd;" horiz-adv-x="1048" 
d="M188 -510q-78 0 -133 38t-55 97q10 43 48.5 66.5t88.5 23.5q78 0 152 -77l10 -11q115 99 184 295l9 25l-371 936l-113 16v74h492v-76l-181 -20l256 -699l252 696l-178 25v74h400v-74l-111 -22l-330 -871q-105 -276 -200.5 -396t-219.5 -120zM506 1180q89 150 182 288
q52 84 111 84q32 0 55 -20t23 -57q0 -48 -70 -113q-106 -96 -248 -221z" />
    <glyph glyph-name="thorn" unicode="&#xfe;" horiz-adv-x="1134" 
d="M858 479q0 192 -71 298t-189 106q-110 0 -244 -111v-575q116 -107 234 -107q116 0 193 100t77 289zM539 -418v-71h-527v71l164 29q4 226 4 332v1386l-166 21v71l314 92l28 -16l-8 -291v-352q136 145 305 145q168 0 278.5 -136t110.5 -367q0 -233 -119.5 -378t-301.5 -145
q-158 0 -273 136v-166q0 -108 4 -330z" />
    <glyph glyph-name="ydieresis" unicode="&#xff;" horiz-adv-x="1048" 
d="M188 -510q-78 0 -133 38t-55 97q10 43 48.5 66.5t88.5 23.5q78 0 152 -77l10 -11q115 99 184 295l9 25l-371 936l-113 16v74h492v-76l-181 -20l256 -699l252 696l-178 25v74h400v-74l-111 -22l-330 -871q-105 -276 -200.5 -396t-219.5 -120zM367 1221q-50 0 -85.5 33
t-35.5 83q0 49 35.5 83t85.5 34q51 0 86.5 -34t35.5 -83q0 -50 -35 -83t-87 -33zM797 1221q-52 0 -87.5 33t-35.5 83q0 49 36 83t87 34q50 0 85.5 -34t35.5 -83q0 -50 -35.5 -83t-85.5 -33z" />
    <glyph glyph-name="Amacron" unicode="&#x100;" horiz-adv-x="1359" 
d="M371 1552v129h618v-129h-618zM633 1151l-207 -610h412zM10 0v84l172 27l436 1269h130l436 -1278l153 -18v-84h-557v84l201 25l-113 335h-475l-114 -333l200 -27v-84h-469z" />
    <glyph glyph-name="amacron" unicode="&#x101;" horiz-adv-x="1042" 
d="M852 -20q-73 0 -122.5 42.5t-61.5 114.5q-93 -92 -154.5 -128t-146.5 -36q-119 0 -197 67t-78 189q0 63 26.5 111t103 99.5t210.5 99.5q110 40 232 67v51q0 99 -21 153t-61 74.5t-111 20.5q-59 0 -111 -12l-38 -133q-28 -98 -107 -98q-87 0 -96 83q29 117 136 185.5
t263 68.5q164 0 241 -83t77 -273v-436q0 -121 73 -121q42 0 80 45l41 -45q-35 -58 -78 -82t-100 -24zM258 1221v129h537v-129h-537zM274 260q0 -78 44.5 -114.5t119.5 -36.5q50 0 91 20t135 86v315q-99 -27 -189 -61q-64 -25 -106 -53t-61.5 -56t-26.5 -50.5t-7 -49.5z" />
    <glyph glyph-name="Abreve" unicode="&#x102;" horiz-adv-x="1359" 
d="M633 1151l-207 -610h412zM10 0v84l172 27l436 1269h130l436 -1278l153 -18v-84h-557v84l201 25l-113 335h-475l-114 -333l200 -27v-84h-469zM391 1737l64 22q24 -72 83.5 -114.5t147.5 -42.5q172 0 232 157l63 -22q-7 -48 -28.5 -93t-56.5 -83t-89.5 -61t-120.5 -23
t-120.5 23t-89.5 61t-56.5 83t-28.5 93z" />
    <glyph glyph-name="abreve" unicode="&#x103;" horiz-adv-x="1042" 
d="M852 -20q-73 0 -122.5 42.5t-61.5 114.5q-93 -92 -154.5 -128t-146.5 -36q-119 0 -197 67t-78 189q0 63 26.5 111t103 99.5t210.5 99.5q110 40 232 67v51q0 99 -21 153t-61 74.5t-111 20.5q-59 0 -111 -12l-38 -133q-28 -98 -107 -98q-87 0 -96 83q29 117 136 185.5
t263 68.5q164 0 241 -83t77 -273v-436q0 -121 73 -121q42 0 80 45l41 -45q-35 -58 -78 -82t-100 -24zM217 1481l62 22q73 -190 247 -190q175 0 248 190l62 -22q-15 -128 -95.5 -215.5t-214.5 -87.5q-133 0 -213.5 87.5t-95.5 215.5zM274 260q0 -78 44.5 -114.5t119.5 -36.5
q50 0 91 20t135 86v315q-99 -27 -189 -61q-64 -25 -106 -53t-61.5 -56t-26.5 -50.5t-7 -49.5z" />
    <glyph glyph-name="Aogonek" unicode="&#x104;" horiz-adv-x="1359" 
d="M633 1151l-207 -610h412zM10 0v84l172 27l436 1269h130l436 -1278l153 -18v-84h-188q-47 -39 -72.5 -91.5t-25.5 -105.5q0 -64 38.5 -101.5t98.5 -37.5q57 0 108 31l27 -51q-34 -48 -92 -71.5t-119 -23.5q-86 0 -139 48.5t-53 132.5q0 77 45.5 149.5t115.5 120.5h-301v84
l201 25l-113 335h-475l-114 -333l200 -27v-84h-469z" />
    <glyph glyph-name="aogonek" unicode="&#x105;" horiz-adv-x="1042" 
d="M674 -270q0 72 50 137.5t128 109.5q-79 4 -125.5 46.5t-58.5 113.5q-93 -92 -154.5 -128t-146.5 -36q-119 0 -197 67t-78 189q0 63 26.5 111t103 99.5t210.5 99.5q110 40 232 67v51q0 99 -21 153t-61 74.5t-111 20.5q-55 0 -104 -12l-41 -141q-28 -99 -111 -99
q-42 0 -66.5 23.5t-29.5 64.5q29 118 136 188t263 70q164 0 241 -83t77 -273v-432q0 -125 67 -125q41 0 86 45l41 -49q-38 -45 -96 -92q-131 -102 -131 -187q0 -65 39 -102t100 -37q59 0 107 31l24 -47q-69 -99 -213 -99q-84 0 -135 48.5t-51 132.5zM274 260
q0 -78 44.5 -114.5t119.5 -36.5q50 0 91 20t135 86v315q-99 -27 -189 -61q-64 -25 -106 -53t-61.5 -56t-26.5 -50.5t-7 -49.5z" />
    <glyph glyph-name="Cacute" unicode="&#x106;" horiz-adv-x="1292" 
d="M801 72q130 0 243 55l41 238h127l-8 -297q-180 -99 -413 -99q-204 0 -362.5 91t-245.5 254t-87 372q0 153 52.5 286t144 227t220 148t275.5 54q228 0 396 -98l8 -297h-127l-41 237q-99 55 -209 55q-104 0 -193.5 -40t-157 -115.5t-106.5 -193t-39 -263.5
q0 -293 132.5 -453.5t349.5 -160.5zM655 1526q88 95 193 192q78 78 127 78q33 0 55.5 -20t22.5 -50q0 -29 -23 -55t-80 -57q-172 -94 -258 -139z" />
    <glyph glyph-name="cacute" unicode="&#x107;" horiz-adv-x="999" 
d="M567 905q-135 0 -218 -105t-83 -296q0 -189 90 -293.5t238 -104.5q88 0 162 40.5t121 115.5l51 -26q-43 -128 -140 -195.5t-241 -67.5q-211 0 -336 137t-125 373q0 95 25.5 178t70.5 144t104.5 105.5t129 66.5t143.5 22q137 0 240 -75.5t123 -190.5q-15 -78 -95 -78
q-88 0 -112 99l-37 135q-52 16 -111 16zM479 1180q82 137 183 288q52 84 110 84q32 0 55 -20t23 -57q0 -48 -70 -113q-106 -96 -248 -221z" />
    <glyph glyph-name="Ccircumflex" unicode="&#x108;" horiz-adv-x="1292" 
d="M801 72q130 0 243 55l41 238h127l-8 -297q-180 -99 -413 -99q-204 0 -362.5 91t-245.5 254t-87 372q0 153 52.5 286t144 227t220 148t275.5 54q228 0 396 -98l8 -297h-127l-41 237q-99 55 -209 55q-104 0 -193.5 -40t-157 -115.5t-106.5 -193t-39 -263.5
q0 -293 132.5 -453.5t349.5 -160.5zM809 1753l268 -235l-39 -52l-264 152l-264 -152l-39 52l268 235h70z" />
    <glyph glyph-name="ccircumflex" unicode="&#x109;" horiz-adv-x="999" 
d="M567 905q-135 0 -218 -105t-83 -296q0 -189 90 -293.5t238 -104.5q88 0 162 40.5t121 115.5l51 -26q-43 -128 -140 -195.5t-241 -67.5q-211 0 -336 137t-125 373q0 95 25.5 178t70.5 144t104.5 105.5t129 66.5t143.5 22q137 0 240 -75.5t123 -190.5q-15 -78 -95 -78
q-88 0 -112 99l-37 135q-52 16 -111 16zM803 1118l-258 234l-258 -234l-47 45l270 361h70l270 -361z" />
    <glyph glyph-name="Cdotaccent" unicode="&#x10a;" horiz-adv-x="1292" 
d="M801 72q130 0 243 55l41 238h127l-8 -297q-180 -99 -413 -99q-204 0 -362.5 91t-245.5 254t-87 372q0 153 52.5 286t144 227t220 148t275.5 54q228 0 396 -98l8 -297h-127l-41 237q-99 55 -209 55q-104 0 -193.5 -40t-157 -115.5t-106.5 -193t-39 -263.5
q0 -293 132.5 -453.5t349.5 -160.5zM760 1507q-59 0 -98 37t-39 94q0 58 39 94.5t98 36.5t98 -36.5t39 -94.5q0 -57 -39 -94t-98 -37z" />
    <glyph glyph-name="cdotaccent" unicode="&#x10b;" horiz-adv-x="999" 
d="M567 905q-135 0 -218 -105t-83 -296q0 -189 90 -293.5t238 -104.5q88 0 162 40.5t121 115.5l51 -26q-43 -128 -140 -195.5t-241 -67.5q-211 0 -336 137t-125 373q0 95 25.5 178t70.5 144t104.5 105.5t129 66.5t143.5 22q137 0 240 -75.5t123 -190.5q-15 -78 -95 -78
q-88 0 -112 99l-37 135q-52 16 -111 16zM561 1206q-59 0 -98 36.5t-39 94.5q0 57 39 94t98 37t98 -37t39 -94q0 -58 -39 -94.5t-98 -36.5z" />
    <glyph glyph-name="Ccaron" unicode="&#x10c;" horiz-adv-x="1292" 
d="M801 72q130 0 243 55l41 238h127l-8 -297q-180 -99 -413 -99q-204 0 -362.5 91t-245.5 254t-87 372q0 153 52.5 286t144 227t220 148t275.5 54q228 0 396 -98l8 -297h-127l-41 237q-99 55 -209 55q-104 0 -193.5 -40t-157 -115.5t-106.5 -193t-39 -263.5
q0 -293 132.5 -453.5t349.5 -160.5zM555 1778l236 -174l235 174l49 -43l-209 -242h-151l-209 242z" />
    <glyph glyph-name="ccaron" unicode="&#x10d;" horiz-adv-x="999" 
d="M567 905q-135 0 -218 -105t-83 -296q0 -189 90 -293.5t238 -104.5q88 0 162 40.5t121 115.5l51 -26q-43 -128 -140 -195.5t-241 -67.5q-211 0 -336 137t-125 373q0 95 25.5 178t70.5 144t104.5 105.5t129 66.5t143.5 22q137 0 240 -75.5t123 -190.5q-15 -78 -95 -78
q-88 0 -112 99l-37 135q-52 16 -111 16zM326 1513l235 -215l236 215l49 -40l-209 -304h-152l-209 304z" />
    <glyph glyph-name="Dcaron" unicode="&#x10e;" horiz-adv-x="1454" 
d="M283 659v76q0 353 -4 529l-189 22v84h604q198 0 346.5 -78t233 -234t84.5 -374q0 -162 -53.5 -292.5t-148.5 -215.5t-223 -130.5t-278 -45.5h-565v84l189 22q4 174 4 553zM477 659q0 -383 4 -563h162q236 0 364 154t128 434q0 286 -124 439t-349 153h-181
q-4 -176 -4 -541v-76zM475 1778l236 -174l235 174l49 -43l-209 -242h-151l-209 242z" />
    <glyph glyph-name="dcaron" unicode="&#x10f;" horiz-adv-x="1230" 
d="M1245 1534q74 0 74 -74q0 -64 -70 -268l-39 -113h-65l6 430q52 25 94 25zM276 481q0 -193 78 -292t207 -99q68 0 120.5 27.5t109.5 91.5v567q-123 107 -232 107q-123 0 -203 -102t-80 -300zM1128 0l-317 -20l-14 143q-113 -150 -287 -150q-187 0 -302.5 139.5
t-115.5 364.5q0 232 123 377t313 145q155 0 269 -133v463l-174 21v71l319 92l29 -16l-8 -291v-1108l165 -24v-74z" />
    <glyph glyph-name="Dcroat" unicode="&#x110;" horiz-adv-x="1454" 
d="M90 1286v84h604q198 0 346.5 -78t233 -234t84.5 -374q0 -162 -53.5 -292.5t-148.5 -215.5t-223 -130.5t-278 -45.5h-565v84l189 22q4 174 4 547h-193v97h193q0 348 -4 514zM791 653h-314q0 -385 4 -557h162q236 0 364 154t128 434q0 286 -124 439t-349 153h-181
q-4 -176 -4 -526h314v-97z" />
    <glyph glyph-name="dcroat" unicode="&#x111;" horiz-adv-x="1161" 
d="M276 461q0 -183 78 -277t207 -94q66 0 119.5 28t110.5 91v539q-124 108 -228 108q-124 0 -205.5 -102.5t-81.5 -292.5zM418 1112v94h379v133l-174 11v71l319 92l29 -16l-8 -291h167v-94h-167v-1012l165 -26v-74l-317 -20l-14 143q-115 -150 -287 -150q-187 0 -302.5 134
t-115.5 350q0 224 123 370t307 146q84 0 148.5 -30.5t126.5 -102.5v272h-379z" />
    <glyph glyph-name="Emacron" unicode="&#x112;" horiz-adv-x="1234" 
d="M283 635v100q0 353 -4 529l-189 22v84h1020l14 -362h-116l-45 260h-482q-4 -174 -4 -520h301l29 194h94v-483h-94l-27 192h-303q0 -379 4 -549h523l45 263h116l-14 -365h-1061v84l189 22q4 172 4 529zM389 1552v129h619v-129h-619z" />
    <glyph glyph-name="emacron" unicode="&#x113;" horiz-adv-x="1044" 
d="M551 905q-98 0 -176 -81t-94 -246h372q68 0 94.5 28t26.5 78q0 89 -64.5 155t-158.5 66zM563 999q165 0 273 -106t108 -287q0 -67 -14 -114h-654q3 -186 92 -286t240 -100q92 0 158 36.5t127 107.5l49 -39q-59 -113 -158.5 -175.5t-234.5 -62.5q-208 0 -332.5 135.5
t-124.5 368.5q0 152 64.5 272.5t171.5 185t235 64.5zM279 1221v129h536v-129h-536z" />
    <glyph glyph-name="Ebreve" unicode="&#x114;" horiz-adv-x="1234" 
d="M283 635v100q0 353 -4 529l-189 22v84h1020l14 -362h-116l-45 260h-482q-4 -174 -4 -520h301l29 194h94v-483h-94l-27 192h-303q0 -379 4 -549h523l45 263h116l-14 -365h-1061v84l189 22q4 172 4 529zM365 1757l63 23q24 -72 83.5 -115t147.5 -43t146 42.5t86 115.5
l63 -23q-7 -48 -28.5 -93t-56.5 -83t-89.5 -61t-120.5 -23t-120.5 23t-89.5 61.5t-56 83t-28 92.5z" />
    <glyph glyph-name="ebreve" unicode="&#x115;" horiz-adv-x="1044" 
d="M551 905q-98 0 -176 -81t-94 -246h372q68 0 94.5 28t26.5 78q0 89 -64.5 155t-158.5 66zM563 999q165 0 273 -106t108 -287q0 -67 -14 -114h-654q3 -186 92 -286t240 -100q92 0 158 36.5t127 107.5l49 -39q-59 -113 -158.5 -175.5t-234.5 -62.5q-208 0 -332.5 135.5
t-124.5 368.5q0 152 64.5 272.5t171.5 185t235 64.5zM238 1481l61 22q73 -190 248 -190t248 190l61 -22q-15 -128 -95.5 -215.5t-213.5 -87.5t-213.5 87.5t-95.5 215.5z" />
    <glyph glyph-name="Edotaccent" unicode="&#x116;" horiz-adv-x="1234" 
d="M283 635v100q0 353 -4 529l-189 22v84h1020l14 -362h-116l-45 260h-482q-4 -174 -4 -520h301l29 194h94v-483h-94l-27 192h-303q0 -379 4 -549h523l45 263h116l-14 -365h-1061v84l189 22q4 172 4 529zM678 1507q-59 0 -98 37t-39 94q0 58 39 94.5t98 36.5t98 -36.5
t39 -94.5q0 -57 -39 -94t-98 -37z" />
    <glyph glyph-name="edotaccent" unicode="&#x117;" horiz-adv-x="1044" 
d="M551 905q-98 0 -176 -81t-94 -246h372q68 0 94.5 28t26.5 78q0 89 -64.5 155t-158.5 66zM563 999q165 0 273 -106t108 -287q0 -67 -14 -114h-654q3 -186 92 -286t240 -100q92 0 158 36.5t127 107.5l49 -39q-59 -113 -158.5 -175.5t-234.5 -62.5q-208 0 -332.5 135.5
t-124.5 368.5q0 152 64.5 272.5t171.5 185t235 64.5zM559 1206q-59 0 -98 36.5t-39 94.5q0 57 39 94t98 37t98 -37t39 -94q0 -58 -39 -94.5t-98 -36.5z" />
    <glyph glyph-name="Eogonek" unicode="&#x118;" horiz-adv-x="1234" 
d="M283 635v100q0 353 -4 529l-189 22v84h1020l14 -362h-116l-45 260h-482q-4 -174 -4 -520h301l29 194h94v-483h-94l-27 192h-303q0 -379 4 -549h523l45 263h116l-14 -365h-158q-47 -39 -72.5 -91.5t-25.5 -105.5q0 -64 38.5 -101.5t98.5 -37.5q58 0 109 31l26 -51
q-34 -48 -92 -71.5t-119 -23.5q-86 0 -139 48.5t-53 132.5q0 77 45.5 149.5t116.5 120.5h-836v84l189 22q4 172 4 529z" />
    <glyph glyph-name="eogonek" unicode="&#x119;" horiz-adv-x="1044" 
d="M549 905q-45 0 -86.5 -18t-80 -55t-65.5 -102.5t-36 -151.5h372q70 0 95.5 25t25.5 81q0 89 -65 155t-160 66zM518 -270q0 70 36.5 136.5t96.5 115.5q-53 -9 -102 -9q-209 0 -333 135.5t-124 374.5q0 112 37.5 209.5t101.5 164t149.5 104.5t180.5 38q166 0 274.5 -106
t108.5 -289q0 -65 -14 -112h-654q1 -185 91 -285.5t243 -100.5q91 0 156 36t127 108l49 -39q-29 -59 -64 -99.5t-94 -84.5q-137 -110 -137 -224q0 -65 39 -102t102 -37q56 0 107 31l25 -47q-72 -99 -215 -99q-84 0 -135.5 48.5t-51.5 132.5z" />
    <glyph glyph-name="Ecaron" unicode="&#x11a;" horiz-adv-x="1234" 
d="M283 635v100q0 353 -4 529l-189 22v84h1020l14 -362h-116l-45 260h-482q-4 -174 -4 -520h301l29 194h94v-483h-94l-27 192h-303q0 -379 4 -549h523l45 263h116l-14 -365h-1061v84l189 22q4 172 4 529zM461 1778l235 -174l236 174l49 -43l-209 -242h-151l-209 242z" />
    <glyph glyph-name="ecaron" unicode="&#x11b;" horiz-adv-x="1044" 
d="M551 905q-98 0 -176 -81t-94 -246h372q68 0 94.5 28t26.5 78q0 89 -64.5 155t-158.5 66zM563 999q165 0 273 -106t108 -287q0 -67 -14 -114h-654q3 -186 92 -286t240 -100q92 0 158 36.5t127 107.5l49 -39q-59 -113 -158.5 -175.5t-234.5 -62.5q-208 0 -332.5 135.5
t-124.5 368.5q0 152 64.5 272.5t171.5 185t235 64.5zM326 1513l235 -215l236 215l49 -40l-209 -304h-152l-209 304z" />
    <glyph glyph-name="Gcircumflex" unicode="&#x11c;" horiz-adv-x="1396" 
d="M1237 180v-90q-231 -121 -451 -121q-203 0 -360.5 92.5t-243.5 255.5t-86 369q0 205 87 367.5t247 255t365 92.5q244 0 411 -96l8 -299h-127l-40 233q-106 59 -234 59q-218 0 -356 -163t-138 -449q0 -291 134.5 -451.5t371.5 -160.5q117 0 219 41v65q0 125 -4 371
l-213 18v82h539v-82l-125 -12q-4 -246 -4 -377zM825 1753l269 -235l-39 -52l-264 152l-265 -152l-39 52l269 235h69z" />
    <glyph glyph-name="gcircumflex" unicode="&#x11d;" horiz-adv-x="1060" 
d="M494 915q-96 0 -151.5 -69.5t-55.5 -183.5q0 -115 52 -183.5t146 -68.5q97 0 153 72t56 188q0 111 -53 178t-147 67zM121 664q0 157 103.5 246t267.5 89q162 0 260 -79l231 79l31 -20v-129h-201q47 -74 47 -186q0 -157 -103.5 -246.5t-267.5 -89.5q-80 0 -151 22
q-51 -66 -51 -131q0 -45 25.5 -67.5t93.5 -22.5h268q166 0 248 -68.5t82 -195.5q0 -68 -32.5 -130.5t-93.5 -113t-159.5 -80.5t-220.5 -30q-214 0 -319 66.5t-105 180.5q0 69 45 125t155 109q-135 37 -135 155q0 99 140 228q-158 85 -158 289zM506 -395q162 0 253 58.5
t91 148.5q0 72 -50 115.5t-155 43.5h-239q-30 0 -84 4q-80 -86 -80 -184q0 -186 264 -186zM743 1118l-258 234l-258 -234l-47 45l271 361h69l271 -361z" />
    <glyph glyph-name="Gbreve" unicode="&#x11e;" horiz-adv-x="1396" 
d="M1237 180v-90q-231 -121 -451 -121q-203 0 -360.5 92.5t-243.5 255.5t-86 369q0 205 87 367.5t247 255t365 92.5q244 0 411 -96l8 -299h-127l-40 233q-106 59 -234 59q-218 0 -356 -163t-138 -449q0 -291 134.5 -451.5t371.5 -160.5q117 0 219 41v65q0 125 -4 371
l-213 18v82h539v-82l-125 -12q-4 -246 -4 -377zM487 1757l64 23q24 -72 83.5 -115t147.5 -43t146 42.5t86 115.5l63 -23q-7 -48 -28.5 -93t-56.5 -83t-89.5 -61t-120.5 -23t-120.5 23t-89.5 61t-56.5 83t-28.5 93z" />
    <glyph glyph-name="gbreve" unicode="&#x11f;" horiz-adv-x="1060" 
d="M494 915q-96 0 -151.5 -69.5t-55.5 -183.5q0 -115 52 -183.5t146 -68.5q97 0 153 72t56 188q0 111 -53 178t-147 67zM121 664q0 157 103.5 246t267.5 89q162 0 260 -79l231 79l31 -20v-129h-201q47 -74 47 -186q0 -157 -103.5 -246.5t-267.5 -89.5q-80 0 -151 22
q-51 -66 -51 -131q0 -45 25.5 -67.5t93.5 -22.5h268q166 0 248 -68.5t82 -195.5q0 -68 -32.5 -130.5t-93.5 -113t-159.5 -80.5t-220.5 -30q-214 0 -319 66.5t-105 180.5q0 69 45 125t155 109q-135 37 -135 155q0 99 140 228q-158 85 -158 289zM506 -395q162 0 253 58.5
t91 148.5q0 72 -50 115.5t-155 43.5h-239q-30 0 -84 4q-80 -86 -80 -184q0 -186 264 -186zM199 1481l61 22q73 -190 248 -190t248 190l61 -22q-15 -128 -95.5 -215.5t-213.5 -87.5t-213.5 87.5t-95.5 215.5z" />
    <glyph glyph-name="Gdotaccent" unicode="&#x120;" horiz-adv-x="1396" 
d="M1237 180v-90q-231 -121 -451 -121q-203 0 -360.5 92.5t-243.5 255.5t-86 369q0 205 87 367.5t247 255t365 92.5q244 0 411 -96l8 -299h-127l-40 233q-106 59 -234 59q-218 0 -356 -163t-138 -449q0 -291 134.5 -451.5t371.5 -160.5q117 0 219 41v65q0 125 -4 371
l-213 18v82h539v-82l-125 -12q-4 -246 -4 -377zM795 1507q-59 0 -98.5 37t-39.5 94q0 58 39.5 94.5t98.5 36.5t98 -36.5t39 -94.5q0 -57 -39 -94t-98 -37z" />
    <glyph glyph-name="gdotaccent" unicode="&#x121;" horiz-adv-x="1060" 
d="M494 915q-96 0 -151.5 -69.5t-55.5 -183.5q0 -115 52 -183.5t146 -68.5q97 0 153 72t56 188q0 111 -53 178t-147 67zM121 664q0 157 103.5 246t267.5 89q162 0 260 -79l231 79l31 -20v-129h-201q47 -74 47 -186q0 -157 -103.5 -246.5t-267.5 -89.5q-80 0 -151 22
q-51 -66 -51 -131q0 -45 25.5 -67.5t93.5 -22.5h268q166 0 248 -68.5t82 -195.5q0 -68 -32.5 -130.5t-93.5 -113t-159.5 -80.5t-220.5 -30q-214 0 -319 66.5t-105 180.5q0 69 45 125t155 109q-135 37 -135 155q0 99 140 228q-158 85 -158 289zM502 1206q-59 0 -98 36.5
t-39 94.5q0 57 39 94t98 37t98 -37t39 -94q0 -58 -39 -94.5t-98 -36.5zM506 -395q162 0 253 58.5t91 148.5q0 72 -50 115.5t-155 43.5h-239q-30 0 -84 4q-80 -86 -80 -184q0 -186 264 -186z" />
    <glyph glyph-name="uni0122" unicode="&#x122;" horiz-adv-x="1396" 
d="M1237 180v-90q-231 -121 -451 -121q-203 0 -360.5 92.5t-243.5 255.5t-86 369q0 205 87 367.5t247 255t365 92.5q244 0 411 -96l8 -299h-127l-40 233q-106 59 -234 59q-218 0 -356 -163t-138 -449q0 -291 134.5 -451.5t371.5 -160.5q117 0 219 41v65q0 125 -4 371
l-213 18v82h539v-82l-125 -12q-4 -246 -4 -377zM920 -242q0 -51 -22.5 -95t-62 -77t-86.5 -57t-104 -43l-20 59q60 24 101 50.5t71 66.5q-43 23 -70 58t-27 73q0 43 31.5 72t75.5 29q49 0 94 -39q19 -58 19 -97z" />
    <glyph glyph-name="uni0123" unicode="&#x123;" horiz-adv-x="1060" 
d="M399 1305q0 52 22 96t61.5 77.5t86.5 57.5t105 43l20 -59q-116 -45 -172 -117q42 -22 68 -57t26 -74q0 -44 -30.5 -72.5t-73.5 -28.5q-49 0 -94 39q-19 58 -19 95zM494 915q-96 0 -151.5 -69.5t-55.5 -183.5q0 -115 52 -183.5t146 -68.5q97 0 153 72t56 188
q0 111 -53 178t-147 67zM121 664q0 157 103.5 246t267.5 89q162 0 260 -79l231 79l31 -20v-129h-201q47 -74 47 -186q0 -157 -103.5 -246.5t-267.5 -89.5q-80 0 -151 22q-51 -66 -51 -131q0 -45 25.5 -67.5t93.5 -22.5h268q166 0 248 -68.5t82 -195.5q0 -68 -32.5 -130.5
t-93.5 -113t-159.5 -80.5t-220.5 -30q-214 0 -319 66.5t-105 180.5q0 69 45 125t155 109q-135 37 -135 155q0 99 140 228q-158 85 -158 289zM506 -395q162 0 253 58.5t91 148.5q0 72 -50 115.5t-155 43.5h-239q-30 0 -84 4q-80 -86 -80 -184q0 -186 264 -186z" />
    <glyph glyph-name="Hcircumflex" unicode="&#x124;" horiz-adv-x="1615" 
d="M283 635v100q0 353 -4 529l-189 22v84h578v-84l-187 -20q-4 -174 -4 -516h662q0 348 -4 514l-189 22v84h578v-84l-189 -22q-4 -172 -4 -529v-100q0 -353 4 -529l189 -22v-84h-578v84l189 22q4 174 4 547h-662q0 -381 4 -549l187 -20v-84h-578v84l189 22q4 172 4 529z
M842 1753l268 -235l-39 -52l-264 152l-264 -152l-39 52l268 235h70z" />
    <glyph glyph-name="hcircumflex" unicode="&#x125;" horiz-adv-x="1230" 
d="M219 430v899l-168 21v71l314 92l28 -16l-8 -291v-397q76 86 177.5 138t197.5 52q134 0 198 -90t64 -288v-191q0 -124 4 -328l143 -28v-74h-475v74l150 26q4 204 4 330v174q0 139 -38 193.5t-130 54.5q-75 0 -143 -31.5t-146 -101.5v-289q0 -124 4 -328l142 -28v-74h-476
v74l154 28q4 204 4 328zM612 1841l269 -235l-39 -52l-264 152l-265 -152l-39 52l269 235h69z" />
    <glyph glyph-name="Hbar" unicode="&#x126;" horiz-adv-x="1613" 
d="M283 635v100v219h-222v95h222q-1 36 -2 107.5t-2 107.5l-189 22v84h578v-84l-187 -20q-1 -36 -2 -108.5t-2 -108.5h662q-1 36 -2 107.5t-2 107.5l-189 22v84h578v-84l-189 -22q-1 -35 -2 -107t-2 -108h223v-95h-223v-219v-100q0 -353 4 -529l189 -22v-84h-578v84l189 22
q4 156 4 506h-662q0 -348 4 -508l187 -20v-84h-578v84l189 22q4 172 4 529zM477 737v-28h662v28v217h-662v-217z" />
    <glyph glyph-name="hbar" unicode="&#x127;" horiz-adv-x="1230" 
d="M61 0v74l154 28q4 204 4 328v672h-168v94h168v133l-168 21v71l314 92l28 -16l-8 -301h377v-94h-377v-340q77 85 178.5 137.5t196.5 52.5q134 0 198 -90.5t64 -288.5v-143q0 -124 4 -328l143 -28v-74h-475v74l150 26q4 204 4 330v127q0 138 -38 193t-130 55
q-75 0 -143 -31.5t-146 -101.5v-242q0 -124 4 -328l142 -28v-74h-476z" />
    <glyph glyph-name="Itilde" unicode="&#x128;" horiz-adv-x="759" 
d="M283 635v100q0 353 -4 529l-189 22v84h580v-84l-189 -22q-4 -172 -4 -529v-100q0 -353 4 -529l189 -22v-84h-580v84l189 22q4 172 4 529zM10 1503q41 264 215 264q35 0 66.5 -10.5t51 -23t48.5 -35.5q12 -10 36.5 -32t39 -34t37 -22.5t43.5 -10.5q48 0 81 42t58 122
l62 -20q-45 -262 -213 -262q-51 0 -88.5 17t-79.5 50q-10 9 -36 32.5t-39.5 34.5t-36.5 21.5t-44 10.5q-89 0 -139 -162z" />
    <glyph glyph-name="itilde" unicode="&#x129;" horiz-adv-x="610" 
d="M72 0v74l151 28q4 204 4 328v96q0 135 -6 258l-162 19v71l318 125l31 -20l-7 -279v-270q0 -73 5 -328l141 -28v-74h-475zM-29 1200q38 264 195 264q46 0 78.5 -17.5t70.5 -51.5q12 -10 33.5 -32t35 -34t34 -22.5t39.5 -10.5q43 0 73.5 42t53.5 122l55 -20
q-41 -262 -195 -262q-46 0 -79.5 17.5t-69.5 49.5q-10 9 -33 32t-35.5 34t-33 21.5t-39.5 10.5q-44 0 -74 -41t-53 -120z" />
    <glyph glyph-name="Imacron" unicode="&#x12a;" horiz-adv-x="759" 
d="M283 635v100q0 353 -4 529l-189 22v84h580v-84l-189 -22q-4 -172 -4 -529v-100q0 -353 4 -529l189 -22v-84h-580v84l189 22q4 172 4 529zM72 1552v129h618v-129h-618z" />
    <glyph glyph-name="imacron" unicode="&#x12b;" horiz-adv-x="610" 
d="M72 0v74l151 28q4 204 4 328v96q0 135 -6 258l-162 19v71l318 125l31 -20l-7 -279v-270q0 -73 5 -328l141 -28v-74h-475zM23 1221v129h536v-129h-536z" />
    <glyph glyph-name="Iogonek" unicode="&#x12e;" horiz-adv-x="759" 
d="M225 -270q0 77 45.5 149.5t116.5 120.5h-297v84l189 22q4 172 4 529v100q0 353 -4 529l-189 22v84h580v-84l-189 -22q-4 -172 -4 -529v-100q0 -353 4 -529l189 -22v-84h-215q-47 -39 -73 -91.5t-26 -105.5q0 -64 39 -101.5t99 -37.5q57 0 108 31l27 -51
q-34 -48 -92 -71.5t-119 -23.5q-86 0 -139.5 48.5t-53.5 132.5z" />
    <glyph glyph-name="iogonek" unicode="&#x12f;" horiz-adv-x="610" 
d="M313 1225q-59 0 -98 37t-39 94q0 59 38.5 95t98.5 36q58 0 98 -36t40 -95q0 -56 -40 -93.5t-98 -37.5zM150 -270q0 77 45.5 149.5t115.5 120.5h-239v74l153 28q4 204 4 328v96q0 135 -6 258l-164 19v71l316 125l31 -20l-7 -279v-270q0 -124 4 -328l144 -28v-74h-168
q-47 -39 -72.5 -91.5t-25.5 -105.5q0 -64 38.5 -101.5t98.5 -37.5q57 0 108 31l27 -51q-34 -48 -92 -71.5t-119 -23.5q-86 0 -139 48.5t-53 132.5z" />
    <glyph glyph-name="Idotaccent" unicode="&#x130;" horiz-adv-x="759" 
d="M283 635v100q0 353 -4 529l-189 22v84h580v-84l-189 -22q-4 -172 -4 -529v-100q0 -353 4 -529l189 -22v-84h-580v84l189 22q4 172 4 529zM381 1507q-59 0 -98 37t-39 94q0 58 39 94.5t98 36.5t98 -36.5t39 -94.5q0 -57 -39 -94t-98 -37z" />
    <glyph glyph-name="dotlessi" unicode="&#x131;" horiz-adv-x="610" 
d="M72 0v74l151 28q4 204 4 328v96q0 135 -6 258l-162 19v71l318 125l31 -20l-7 -279v-270q0 -73 5 -328l141 -28v-74h-475z" />
    <glyph glyph-name="Jcircumflex" unicode="&#x134;" horiz-adv-x="765" 
d="M96 1286v84h600v-84l-188 -22q-4 -172 -4 -527v-319q0 -178 -6 -274t-23 -173q-29 -146 -138 -225.5t-247 -79.5q-152 0 -178 101q16 102 127 102q70 0 154 -64l51 -41q44 42 62 100.5t18 149.5q0 39 -3 157.5t-8 405t-8 687.5zM442 1753l269 -235l-39 -52l-264 152
l-265 -152l-39 52l269 235h69z" />
    <glyph glyph-name="jcircumflex" unicode="&#x135;" horiz-adv-x="567" 
d="M227 158v368q0 135 -6 258l-162 19v71l312 125l30 -20l-6 -279v-514q0 -265 -23.5 -387t-99.5 -205q-51 -54 -107.5 -79t-131.5 -25q-100 0 -150.5 35.5t-52.5 81.5q27 86 121 86q67 0 153 -64l35 -26q14 17 25 35q45 86 54 166t9 354zM543 1118l-258 234l-258 -234
l-47 45l270 361h69l271 -361z" />
    <glyph glyph-name="uni0136" unicode="&#x136;" horiz-adv-x="1366" 
d="M283 635v100q0 353 -4 529l-189 22v84h578v-84l-195 -22q-4 -174 -4 -529v-129l532 651l-147 29v84h471v-84l-199 -26l-342 -412l414 -744l158 -20v-84h-527v84l168 20l-325 609l-203 -244q0 -236 4 -363l195 -22v-84h-578v84l189 22q4 172 4 529zM850 -242
q0 -51 -22.5 -95t-62 -77t-86.5 -57t-104 -43l-20 59q60 24 101 50.5t71 66.5q-43 23 -69.5 57.5t-26.5 73.5q0 43 31 72t75 29q49 0 94 -39q19 -58 19 -97z" />
    <glyph glyph-name="uni0137" unicode="&#x137;" horiz-adv-x="1120" 
d="M51 1421l320 92l28 -16l-8 -291v-714l350 364l-149 37v80h475v-80l-193 -29l-225 -231l336 -535l135 -24v-74h-278l-316 508l-135 -139q0 -91 4 -267l164 -28v-74h-508v74l164 28q4 218 4 328v899l-168 21v71zM709 -242q0 -51 -22.5 -95t-62 -77t-86.5 -57t-104 -43
l-20 59q60 24 101 50.5t71 66.5q-43 23 -70 58t-27 73q0 43 31.5 72t75.5 29q49 0 94 -39q19 -58 19 -97z" />
    <glyph glyph-name="kgreenlandic" unicode="&#x138;" horiz-adv-x="1140" 
d="M82 0v74l151 28q5 255 5 328v98q0 112 -7 256l-161 19v71l315 125l33 -20l-6 -238v-247l352 364l-152 35v80h475v-80l-192 -29l-227 -231l338 -535l133 -24v-74h-279l-313 508l-135 -137q0 -105 4 -269l141 -28v-74h-475z" />
    <glyph glyph-name="Lacute" unicode="&#x139;" horiz-adv-x="1220" 
d="M283 735q0 357 -4 529l-189 22v84h580v-84l-189 -22q-4 -176 -4 -529v-141q0 -318 4 -492h465l60 283h124l-20 -385h-1020v84l189 22q4 176 4 527v102zM381 1526q94 101 192 192q78 78 127 78q33 0 55.5 -20t22.5 -50q0 -29 -22.5 -55t-79.5 -57q-172 -94 -258 -139z" />
    <glyph glyph-name="lacute" unicode="&#x13a;" horiz-adv-x="610" 
d="M51 1421l320 92l28 -16l-8 -291v-776q0 -110 4 -328l164 -28v-74h-508v74l164 28q4 222 4 328v899l-168 21v71zM190 1610q88 95 193 192q78 78 127 78q33 0 55.5 -20t22.5 -50q0 -29 -23 -55t-80 -57q-172 -94 -258 -139z" />
    <glyph glyph-name="uni013B" unicode="&#x13b;" horiz-adv-x="1220" 
d="M283 735q0 357 -4 529l-189 22v84h580v-84l-189 -22q-4 -176 -4 -529v-141q0 -318 4 -492h465l60 283h124l-20 -385h-1020v84l189 22q4 176 4 527v102zM748 -242q0 -51 -22.5 -95t-62 -77t-86.5 -57t-104 -43l-20 59q60 24 101 50.5t71 66.5q-43 23 -70 58t-27 73
q0 43 31.5 72t75.5 29q49 0 94 -39q19 -58 19 -97z" />
    <glyph glyph-name="uni013C" unicode="&#x13c;" horiz-adv-x="610" 
d="M51 1421l320 92l28 -16l-8 -291v-776q0 -110 4 -328l164 -28v-74h-508v74l164 28q4 222 4 328v899l-168 21v71zM416 -242q0 -51 -22.5 -95t-62 -77t-86.5 -57t-104 -43l-20 59q60 24 101 50.5t71 66.5q-43 23 -69.5 57.5t-26.5 73.5q0 43 31 72t75 29q49 0 94 -39
q19 -58 19 -97z" />
    <glyph glyph-name="Lcaron" unicode="&#x13d;" horiz-adv-x="1220" 
d="M981 1513q74 0 74 -75q0 -77 -70 -269l-39 -110h-65l6 430q49 24 94 24zM283 735q0 357 -4 529l-189 22v84h580v-84l-189 -22q-4 -176 -4 -529v-141q0 -318 4 -492h465l60 283h124l-20 -385h-1020v84l189 22q4 176 4 527v102z" />
    <glyph glyph-name="lcaron" unicode="&#x13e;" horiz-adv-x="659" 
d="M674 1534q74 0 74 -74q0 -64 -70 -268l-39 -113h-66l7 430q52 25 94 25zM51 1421l320 92l28 -16l-8 -291v-776q0 -110 4 -328l164 -28v-74h-508v74l164 28q4 222 4 328v899l-168 21v71z" />
    <glyph glyph-name="Ldot" unicode="&#x13f;" horiz-adv-x="1220" 
d="M283 735q0 357 -4 529l-189 22v84h580v-84l-189 -22q-4 -176 -4 -529v-141q0 -318 4 -492h465l60 283h124l-20 -385h-1020v84l189 22q4 176 4 527v102zM965 635q-61 0 -103.5 42.5t-42.5 102.5q0 62 42.5 105t103.5 43t103 -43t42 -105q0 -60 -42 -102.5t-103 -42.5z" />
    <glyph glyph-name="ldot" unicode="&#x140;" horiz-adv-x="641" 
d="M51 1421l320 92l28 -16l-8 -291v-776q0 -110 4 -328l164 -28v-74h-508v74l164 28q4 222 4 328v899l-168 21v71zM625 612q-61 0 -103.5 43t-42.5 103q0 62 42.5 104.5t103.5 42.5t103 -42.5t42 -104.5q0 -60 -42 -103t-103 -43z" />
    <glyph glyph-name="Lslash" unicode="&#x141;" horiz-adv-x="1220" 
d="M283 735q0 357 -4 529l-189 22v84h580v-84l-189 -22q-4 -176 -4 -512l334 190v-104l-334 -193v-51q0 -318 4 -492h465l60 283h124l-20 -385h-1020v84l189 22q4 145 4 441l-193 -109v105l193 108v84z" />
    <glyph glyph-name="lslash" unicode="&#x142;" horiz-adv-x="610" 
d="M51 1421l320 92l28 -16l-8 -291v-323l168 88v-103l-168 -88v-350q0 -110 4 -328l164 -28v-74h-508v74l164 28q4 222 4 328v272l-168 -88v103l168 88v524l-168 21v71z" />
    <glyph glyph-name="Nacute" unicode="&#x143;" horiz-adv-x="1505" 
d="M930 1286v84h493v-84l-174 -26v-1274h-71l-820 1116v-989l217 -29v-84h-495v84l174 25v1136l-18 25l-146 16v84h316l739 -1016v906zM635 1497q100 108 192 193q77 77 127 77q33 0 55.5 -19.5t22.5 -49.5q0 -29 -23 -55.5t-79 -57.5q-172 -94 -258 -139z" />
    <glyph glyph-name="nacute" unicode="&#x144;" horiz-adv-x="1241" 
d="M770 999q134 0 198 -90t64 -288v-191q0 -124 4 -328l144 -28v-74h-475v74l151 28q4 200 4 328v174q0 139 -39 193.5t-131 54.5q-70 0 -134.5 -29t-143.5 -94v-299q0 -124 4 -328l141 -28v-74h-475v74l151 28q5 255 5 328v98q0 112 -7 256l-161 19v71l286 125l31 -20
l16 -166q76 85 174.5 135.5t192.5 50.5zM582 1180q89 150 182 288q52 84 110 84q32 0 55 -20t23 -57q0 -49 -69 -113q-106 -96 -248 -221z" />
    <glyph glyph-name="uni0145" unicode="&#x145;" horiz-adv-x="1505" 
d="M930 1286v84h493v-84l-174 -26v-1274h-71l-820 1116v-989l217 -29v-84h-495v84l174 25v1136l-18 25l-146 16v84h316l739 -1016v906zM913 -221q0 -98 -76.5 -165.5t-197.5 -107.5l-21 60q120 47 173 117q-43 23 -70 58t-27 73q0 43 31.5 71.5t75.5 28.5q49 0 94 -39
q18 -55 18 -96z" />
    <glyph glyph-name="uni0146" unicode="&#x146;" horiz-adv-x="1241" 
d="M770 999q134 0 198 -90t64 -288v-191q0 -124 4 -328l144 -28v-74h-475v74l151 28q4 200 4 328v174q0 139 -39 193.5t-131 54.5q-70 0 -134.5 -29t-143.5 -94v-299q0 -124 4 -328l141 -28v-74h-475v74l151 28q5 255 5 328v98q0 112 -7 256l-161 19v71l286 125l31 -20
l16 -166q76 85 174.5 135.5t192.5 50.5zM756 -242q0 -51 -22.5 -95t-62 -77t-86.5 -57t-104 -43l-20 59q60 24 101 50.5t71 66.5q-43 23 -69.5 57.5t-26.5 73.5q0 43 31 72t75 29q49 0 94 -39q19 -58 19 -97z" />
    <glyph glyph-name="Ncaron" unicode="&#x147;" horiz-adv-x="1505" 
d="M930 1286v84h493v-84l-174 -26v-1274h-71l-820 1116v-989l217 -29v-84h-495v84l174 25v1136l-18 25l-146 16v84h316l739 -1016v906zM528 1757l236 -174l235 174l50 -43l-209 -241h-152l-209 241z" />
    <glyph glyph-name="ncaron" unicode="&#x148;" horiz-adv-x="1241" 
d="M770 999q134 0 198 -90t64 -288v-191q0 -124 4 -328l144 -28v-74h-475v74l151 28q4 200 4 328v174q0 139 -39 193.5t-131 54.5q-70 0 -134.5 -29t-143.5 -94v-299q0 -124 4 -328l141 -28v-74h-475v74l151 28q5 255 5 328v98q0 112 -7 256l-161 19v71l286 125l31 -20
l16 -166q76 85 174.5 135.5t192.5 50.5zM406 1513l235 -215l236 215l49 -40l-209 -304h-152l-209 304z" />
    <glyph glyph-name="napostrophe" unicode="&#x149;" horiz-adv-x="1581" 
d="M1110 999q134 0 198 -90t64 -288v-191q0 -124 4 -328l144 -28v-74h-476v74l152 28q4 200 4 328v174q0 139 -39 193.5t-131 54.5q-70 0 -134.5 -29t-143.5 -94v-299q0 -124 4 -328l141 -28v-74h-475v74l151 28q5 255 5 328v98q0 112 -7 256l-161 19v71l286 125l31 -20
l16 -166q76 85 174.5 135.5t192.5 50.5zM358 1348q0 -127 -79.5 -245t-202.5 -196l-39 56q82 67 126 118t75 127l-60 54q-80 70 -80 151q0 60 32 90.5t89 30.5q67 0 111 -41q28 -70 28 -145z" />
    <glyph glyph-name="Omacron" unicode="&#x14c;" horiz-adv-x="1447" 
d="M319 686q0 -120 24 -227t71.5 -195t127.5 -140t183 -52q83 0 151 34.5t113.5 92.5t77 137.5t45.5 167t14 182.5t-14 182t-45.5 166t-77 137t-113.5 92.5t-151 34.5q-103 0 -183 -52t-127.5 -139.5t-71.5 -194.5t-24 -226zM725 1401q120 0 231 -47t200 -134.5t142.5 -226
t53.5 -307.5q0 -132 -34.5 -247.5t-95 -200.5t-140 -146t-171 -92t-186.5 -31q-97 0 -188 29t-171 89t-140 143.5t-95 201t-35 254.5q0 131 35 246.5t95.5 200t140 146t171.5 92t187 30.5zM416 1552v129h618v-129h-618z" />
    <glyph glyph-name="omacron" unicode="&#x14d;" horiz-adv-x="1124" 
d="M561 -27q-92 0 -175 32.5t-149 94t-105.5 160.5t-39.5 221q0 123 39.5 223.5t106 163.5t149.5 97t174 34q90 0 173.5 -34t150.5 -97t107 -163.5t40 -223.5q0 -122 -40 -221t-106.5 -160.5t-150 -94t-174.5 -32.5zM561 66q133 0 205 105.5t72 309.5q0 206 -72 315
t-205 109q-134 0 -204 -108.5t-70 -315.5q0 -205 70 -310t204 -105zM293 1221v129h536v-129h-536z" />
    <glyph glyph-name="uni014E" unicode="&#x14e;" horiz-adv-x="1447" 
d="M319 686q0 -120 24 -227t71.5 -195t127.5 -140t183 -52q83 0 151 34.5t113.5 92.5t77 137.5t45.5 167t14 182.5t-14 182t-45.5 166t-77 137t-113.5 92.5t-151 34.5q-103 0 -183 -52t-127.5 -139.5t-71.5 -194.5t-24 -226zM725 1401q120 0 231 -47t200 -134.5t142.5 -226
t53.5 -307.5q0 -132 -34.5 -247.5t-95 -200.5t-140 -146t-171 -92t-186.5 -31q-97 0 -188 29t-171 89t-140 143.5t-95 201t-35 254.5q0 131 35 246.5t95.5 200t140 146t171.5 92t187 30.5zM430 1778l64 22q24 -72 83.5 -115t147.5 -43q171 0 231 158l64 -22
q-7 -48 -28.5 -93t-56.5 -83t-89.5 -61t-120.5 -23t-120.5 23t-89.5 61t-56.5 83t-28.5 93z" />
    <glyph glyph-name="uni014F" unicode="&#x14f;" horiz-adv-x="1124" 
d="M561 -27q-92 0 -175 32.5t-149 94t-105.5 160.5t-39.5 221q0 123 39.5 223.5t106 163.5t149.5 97t174 34q90 0 173.5 -34t150.5 -97t107 -163.5t40 -223.5q0 -122 -40 -221t-106.5 -160.5t-150 -94t-174.5 -32.5zM561 66q133 0 205 105.5t72 309.5q0 206 -72 315
t-205 109q-134 0 -204 -108.5t-70 -315.5q0 -205 70 -310t204 -105zM252 1481l61 22q73 -190 248 -190t248 190l61 -22q-15 -128 -95.5 -215.5t-213.5 -87.5t-213.5 87.5t-95.5 215.5z" />
    <glyph glyph-name="Ohungarumlaut" unicode="&#x150;" horiz-adv-x="1447" 
d="M319 686q0 -120 24 -227t71.5 -195t127.5 -140t183 -52q83 0 151 34.5t113.5 92.5t77 137.5t45.5 167t14 182.5t-14 182t-45.5 166t-77 137t-113.5 92.5t-151 34.5q-103 0 -183 -52t-127.5 -139.5t-71.5 -194.5t-24 -226zM725 1401q120 0 231 -47t200 -134.5t142.5 -226
t53.5 -307.5q0 -132 -34.5 -247.5t-95 -200.5t-140 -146t-171 -92t-186.5 -31q-97 0 -188 29t-171 89t-140 143.5t-95 201t-35 254.5q0 131 35 246.5t95.5 200t140 146t171.5 92t187 30.5zM526 1493l115 240q22 44 50.5 65t56.5 21q30 0 51.5 -20t21.5 -50q0 -42 -45 -90
l-196 -203zM838 1493l114 240q42 86 109 86q30 0 51 -20t21 -50q0 -41 -46 -90l-196 -203z" />
    <glyph glyph-name="ohungarumlaut" unicode="&#x151;" horiz-adv-x="1124" 
d="M561 -27q-92 0 -175 32.5t-149 94t-105.5 160.5t-39.5 221q0 123 39.5 223.5t106 163.5t149.5 97t174 34q90 0 173.5 -34t150.5 -97t107 -163.5t40 -223.5q0 -122 -40 -221t-106.5 -160.5t-150 -94t-174.5 -32.5zM561 66q133 0 205 105.5t72 309.5q0 206 -72 315
t-205 109q-134 0 -204 -108.5t-70 -315.5q0 -205 70 -310t204 -105zM373 1161l112 291q35 96 109 96q30 0 51 -20.5t21 -54.5q0 -48 -45 -105l-191 -240zM664 1161l112 291q35 96 109 96q32 0 52.5 -20.5t20.5 -54.5q0 -46 -47 -105l-190 -240z" />
    <glyph glyph-name="OE" unicode="&#x152;" horiz-adv-x="1921" 
d="M319 686q0 -98 16 -186t53 -167t91 -136.5t135.5 -91t182.5 -33.5q100 0 166 20q4 178 4 543v100q0 363 -4 543q-66 20 -164 20q-101 0 -183 -33.5t-136.5 -90.5t-91.5 -136t-53 -166.5t-16 -185.5zM1733 365h116l-14 -365h-791q-169 -31 -262 -31q-141 0 -265.5 48.5
t-218 138t-148 226.5t-54.5 304q0 166 54.5 303t148 226t218 137.5t265.5 48.5q93 0 262 -31h750l14 -362h-116l-45 260h-482q-4 -174 -4 -520h299l29 194h94v-483h-94l-27 192h-301q0 -379 4 -549h523z" />
    <glyph glyph-name="oe" unicode="&#x153;" horiz-adv-x="1777" 
d="M561 905q-133 0 -203.5 -108t-70.5 -314q0 -204 70.5 -310.5t203.5 -106.5q135 0 206 103.5t71 307.5q0 207 -71.5 317.5t-205.5 110.5zM1288 905q-45 0 -87.5 -18t-81 -55t-65.5 -102.5t-36 -151.5h373q68 0 95 26.5t27 79.5q0 90 -64.5 155.5t-160.5 65.5zM1679 211
q-121 -238 -393 -238q-121 0 -213 50.5t-147 142.5q-63 -91 -162 -142t-203 -51q-91 0 -174 33t-149.5 94.5t-106 161t-39.5 221.5q0 123 40 223.5t106.5 163t149.5 96t173 33.5q106 0 209 -54t164 -148q61 93 159.5 147.5t204.5 54.5q168 0 276.5 -106t108.5 -289
q0 -65 -14 -112h-655q1 -185 91 -285.5t243 -100.5q174 0 284 144z" />
    <glyph glyph-name="Racute" unicode="&#x154;" horiz-adv-x="1333" 
d="M580 1526q94 101 192 192q78 78 127 78q33 0 55.5 -20t22.5 -50q0 -29 -23 -55t-80 -57q-172 -94 -258 -139zM283 635v100q0 353 -4 529l-189 22v84h574q235 0 366 -94.5t131 -263.5q0 -125 -89 -220.5t-255 -125.5q92 -19 149.5 -79.5t92.5 -180.5l88 -304l158 -18v-84
q-68 -20 -154 -20q-98 0 -145 29t-66 102l-82 327q-28 119 -88.5 158t-191.5 39h-101q0 -365 4 -529l189 -22v-84h-580v84l189 22q4 172 4 529zM657 1276h-176q-4 -180 -4 -549h158q160 0 241.5 77t81.5 206q0 132 -73 199t-228 67z" />
    <glyph glyph-name="racute" unicode="&#x155;" horiz-adv-x="866" 
d="M86 0v74l147 26q5 255 5 330v98q0 112 -7 256l-161 19v71l286 125l31 -20l23 -242q50 122 130.5 192t164.5 70q46 0 87 -21t60 -54q0 -150 -121 -150q-65 0 -125 51l-24 23q-117 -87 -170 -264v-154q0 -122 4 -326l168 -30v-74h-498zM436 1180q89 150 182 288
q52 84 111 84q32 0 55 -20t23 -57q0 -48 -70 -113q-106 -96 -248 -221z" />
    <glyph glyph-name="uni0156" unicode="&#x156;" horiz-adv-x="1333" 
d="M283 635v100q0 353 -4 529l-189 22v84h574q235 0 366 -94.5t131 -263.5q0 -125 -89 -220.5t-255 -125.5q92 -19 149.5 -79.5t92.5 -180.5l88 -304l158 -18v-84q-68 -20 -154 -20q-98 0 -145 29t-66 102l-82 327q-28 119 -88.5 158t-191.5 39h-101q0 -365 4 -529l189 -22
v-84h-580v84l189 22q4 172 4 529zM657 1276h-176q-4 -180 -4 -549h158q160 0 241.5 77t81.5 206q0 132 -73 199t-228 67zM846 -221q0 -98 -77 -165.5t-198 -107.5l-20 60q60 24 101 50.5t71 66.5q-43 23 -69.5 57.5t-26.5 73.5q0 43 31 71.5t75 28.5q49 0 94 -39
q19 -58 19 -96z" />
    <glyph glyph-name="uni0157" unicode="&#x157;" horiz-adv-x="866" 
d="M86 0v74l147 26q5 255 5 330v98q0 112 -7 256l-161 19v71l286 125l31 -20l23 -242q50 122 130.5 192t164.5 70q46 0 87 -21t60 -54q0 -150 -121 -150q-65 0 -125 51l-24 23q-117 -87 -170 -264v-154q0 -122 4 -326l168 -30v-74h-498zM438 -242q0 -98 -76.5 -165
t-197.5 -107l-21 59q60 24 101 50.5t71 66.5q-43 23 -69.5 57.5t-26.5 73.5q0 43 31.5 72t75.5 29q49 0 94 -39q18 -55 18 -97z" />
    <glyph glyph-name="Rcaron" unicode="&#x158;" horiz-adv-x="1333" 
d="M283 635v100q0 353 -4 529l-189 22v84h574q235 0 366 -94.5t131 -263.5q0 -125 -89 -220.5t-255 -125.5q92 -19 149.5 -79.5t92.5 -180.5l88 -304l158 -18v-84q-68 -20 -154 -20q-98 0 -145 29t-66 102l-82 327q-28 119 -88.5 158t-191.5 39h-101q0 -365 4 -529l189 -22
v-84h-580v84l189 22q4 172 4 529zM657 1276h-176q-4 -180 -4 -549h158q160 0 241.5 77t81.5 206q0 132 -73 199t-228 67zM422 1778l235 -174l236 174l49 -43l-209 -242h-151l-209 242z" />
    <glyph glyph-name="rcaron" unicode="&#x159;" horiz-adv-x="866" 
d="M86 0v74l147 26q5 255 5 330v98q0 112 -7 256l-161 19v71l286 125l31 -20l23 -242q50 122 130.5 192t164.5 70q46 0 87 -21t60 -54q0 -150 -121 -150q-65 0 -125 51l-24 23q-117 -87 -170 -264v-154q0 -122 4 -326l168 -30v-74h-498zM227 1513l236 -215l235 215l50 -40
l-209 -304h-152l-209 304z" />
    <glyph glyph-name="Sacute" unicode="&#x15a;" horiz-adv-x="1048" 
d="M475 72q147 0 232.5 65t85.5 182q0 94 -57.5 149.5t-194.5 109.5l-80 32q-170 66 -261 164.5t-91 247.5q0 173 129.5 276t330.5 103q193 0 336 -107l-12 -268h-125l-43 231q-75 41 -168 41q-122 0 -199 -60.5t-77 -170.5q0 -92 58 -153.5t173 -106.5l82 -31
q201 -78 287 -174.5t86 -243.5q0 -179 -134.5 -284t-351.5 -105q-111 0 -218 30.5t-181 78.5l12 287h127l41 -242q92 -51 213 -51zM451 1526q94 101 192 192q78 78 127 78q33 0 55.5 -20t22.5 -50q0 -29 -23 -55t-80 -57q-172 -94 -258 -139z" />
    <glyph glyph-name="sacute" unicode="&#x15b;" horiz-adv-x="888" 
d="M410 -27q-153 0 -306 78l-8 225h113l39 -178q68 -32 166 -32q113 0 171 41.5t58 113.5q0 64 -44.5 103.5t-145.5 74.5l-95 35q-119 44 -183 110.5t-64 166.5q0 119 96 203.5t260 84.5q148 0 287 -84l-9 -208h-106l-33 163q-68 35 -141 35q-92 0 -141.5 -37.5
t-49.5 -101.5q0 -65 40 -100.5t149 -75.5l63 -23q150 -56 216.5 -129t66.5 -172q0 -124 -105 -208.5t-294 -84.5zM385 1180q89 150 182 288q52 84 111 84q32 0 55 -20t23 -57q0 -48 -70 -113q-106 -96 -248 -221z" />
    <glyph glyph-name="Scircumflex" unicode="&#x15c;" horiz-adv-x="1048" 
d="M475 72q147 0 232.5 65t85.5 182q0 94 -57.5 149.5t-194.5 109.5l-80 32q-170 66 -261 164.5t-91 247.5q0 173 129.5 276t330.5 103q193 0 336 -107l-12 -268h-125l-43 231q-75 41 -168 41q-122 0 -199 -60.5t-77 -170.5q0 -92 58 -153.5t173 -106.5l82 -31
q201 -78 287 -174.5t86 -243.5q0 -179 -134.5 -284t-351.5 -105q-111 0 -218 30.5t-181 78.5l12 287h127l41 -242q92 -51 213 -51zM584 1753l268 -235l-39 -52l-264 152l-264 -152l-39 52l268 235h70z" />
    <glyph glyph-name="scircumflex" unicode="&#x15d;" horiz-adv-x="888" 
d="M410 -27q-153 0 -306 78l-8 225h113l39 -178q68 -32 166 -32q113 0 171 41.5t58 113.5q0 64 -44.5 103.5t-145.5 74.5l-95 35q-119 44 -183 110.5t-64 166.5q0 119 96 203.5t260 84.5q148 0 287 -84l-9 -208h-106l-33 163q-68 35 -141 35q-92 0 -141.5 -37.5
t-49.5 -101.5q0 -65 40 -100.5t149 -75.5l63 -23q150 -56 216.5 -129t66.5 -172q0 -124 -105 -208.5t-294 -84.5zM725 1118l-258 234l-258 -234l-47 45l270 361h70l270 -361z" />
    <glyph glyph-name="uni015E" unicode="&#x15e;" horiz-adv-x="1048" 
d="M475 72q147 0 232.5 65t85.5 182q0 94 -57.5 149.5t-194.5 109.5l-80 32q-170 66 -261 164.5t-91 247.5q0 173 129.5 276t330.5 103q193 0 336 -107l-12 -268h-125l-43 231q-75 41 -168 41q-122 0 -199 -60.5t-77 -170.5q0 -92 58 -153.5t173 -106.5l82 -31
q201 -78 287 -174.5t86 -243.5q0 -163 -112 -265t-300 -120l-12 -92q83 -13 135.5 -55.5t52.5 -112.5q0 -73 -60 -118.5t-169 -45.5q-65 0 -129 19l14 63q50 -6 98 -6q59 0 89 24t30 68q0 46 -35.5 71t-111.5 36l20 145q-110 0 -215.5 30.5t-179.5 78.5l12 287h127l41 -242
q92 -51 213 -51z" />
    <glyph glyph-name="uni015F" unicode="&#x15f;" horiz-adv-x="888" 
d="M375 -176l22 149q-145 3 -293 78l-8 225h113l39 -178q68 -32 166 -32q113 0 171 41.5t58 113.5q0 64 -44.5 103.5t-145.5 74.5l-95 35q-119 44 -183 110.5t-64 166.5q0 119 96 203.5t260 84.5q148 0 287 -84l-9 -208h-106l-33 163q-68 35 -141 35q-92 0 -141.5 -37.5
t-49.5 -101.5q0 -65 40 -100.5t149 -75.5l63 -23q150 -56 216.5 -129t66.5 -172q0 -113 -87.5 -195t-248.5 -96l-12 -94q83 -13 135.5 -55.5t52.5 -112.5q0 -73 -60 -118.5t-169 -45.5q-65 0 -129 19l14 63q50 -6 98 -6q59 0 89 24t30 68q0 46 -35.5 71t-111.5 36z" />
    <glyph glyph-name="Scaron" unicode="&#x160;" horiz-adv-x="1048" 
d="M475 72q147 0 232.5 65t85.5 182q0 94 -57.5 149.5t-194.5 109.5l-80 32q-170 66 -261 164.5t-91 247.5q0 173 129.5 276t330.5 103q193 0 336 -107l-12 -268h-125l-43 231q-75 41 -168 41q-122 0 -199 -60.5t-77 -170.5q0 -92 58 -153.5t173 -106.5l82 -31
q201 -78 287 -174.5t86 -243.5q0 -179 -134.5 -284t-351.5 -105q-111 0 -218 30.5t-181 78.5l12 287h127l41 -242q92 -51 213 -51zM319 1778l236 -174l236 174l49 -43l-209 -242h-152l-209 242z" />
    <glyph glyph-name="scaron" unicode="&#x161;" horiz-adv-x="888" 
d="M410 -27q-153 0 -306 78l-8 225h113l39 -178q68 -32 166 -32q113 0 171 41.5t58 113.5q0 64 -44.5 103.5t-145.5 74.5l-95 35q-119 44 -183 110.5t-64 166.5q0 119 96 203.5t260 84.5q148 0 287 -84l-9 -208h-106l-33 163q-68 35 -141 35q-92 0 -141.5 -37.5
t-49.5 -101.5q0 -65 40 -100.5t149 -75.5l63 -23q150 -56 216.5 -129t66.5 -172q0 -124 -105 -208.5t-294 -84.5zM229 1513l236 -215l235 215l50 -40l-209 -304h-152l-209 304z" />
    <glyph glyph-name="uni0162" unicode="&#x162;" horiz-adv-x="1236" 
d="M549 -176l26 176h-266v84l209 22q4 174 4 529v100q0 355 -4 533h-313l-45 -262h-119l16 364h1123l16 -364h-119l-45 262h-313q-4 -174 -4 -533v-100q0 -353 4 -529l209 -22v-84h-277l-16 -119q83 -13 135.5 -55.5t52.5 -112.5q0 -73 -60 -118.5t-169 -45.5q-65 0 -129 19
l14 63q49 -6 99 -6q118 0 118 92q0 46 -35.5 71t-111.5 36z" />
    <glyph glyph-name="uni0163" unicode="&#x163;" horiz-adv-x="665" 
d="M362 229q0 -149 113 -149q61 0 137 55l50 -53q-80 -103 -228 -109l-12 -92q83 -13 135.5 -55.5t52.5 -112.5q0 -73 -60 -118.5t-169 -45.5q-65 0 -129 19l14 63q50 -6 99 -6q118 0 118 92q0 46 -35.5 71t-111.5 36l22 156q-82 14 -127 71t-45 156q0 22 1 76t1 98v483
h-170v90l183 23l53 274h123l-10 -278h274v-109h-279v-635z" />
    <glyph glyph-name="Tcaron" unicode="&#x164;" horiz-adv-x="1236" 
d="M522 635v100q0 355 -4 533h-313l-45 -262h-119l16 364h1123l16 -364h-119l-45 262h-313q-4 -174 -4 -533v-100q0 -353 4 -529l209 -22v-84h-619v84l209 22q4 174 4 529zM383 1778l235 -174l236 174l49 -43l-209 -242h-151l-209 242z" />
    <glyph glyph-name="tcaron" unicode="&#x165;" horiz-adv-x="665" 
d="M635 1536q74 0 74 -76q0 -64 -70 -268l-41 -111h-66l7 428q49 27 96 27zM362 229q0 -149 113 -149q61 0 137 55l50 -53q-83 -109 -242 -109q-110 0 -172 58.5t-62 175.5q0 22 1 76t1 98v483h-170v90l183 23l53 274h123l-10 -278h274v-109h-279v-635z" />
    <glyph glyph-name="Utilde" unicode="&#x168;" horiz-adv-x="1488" 
d="M446 575q0 -129 23 -219.5t69 -142.5t106.5 -75t141.5 -23q178 0 264.5 115t86.5 380v650l-209 26v84h491v-84l-178 -22v-703q0 -158 -36.5 -274t-103.5 -184.5t-153.5 -101t-195.5 -32.5q-233 0 -365.5 135t-132.5 412v221q0 353 -4 529l-170 20v84h579v-84l-208 -24
q-5 -215 -5 -525v-162zM406 1503q41 264 215 264q50 0 85.5 -17t79.5 -52q12 -10 36.5 -32t39 -34t37 -22.5t43.5 -10.5q48 0 81 42t58 122l62 -20q-45 -262 -213 -262q-51 0 -88.5 17t-79.5 50q-10 9 -36 32.5t-39.5 34.5t-36.5 21.5t-44 10.5q-89 0 -139 -162z" />
    <glyph glyph-name="utilde" unicode="&#x169;" horiz-adv-x="1193" 
d="M1124 0l-284 -16l-21 182q-159 -193 -362 -193q-131 0 -199.5 87t-67.5 282l7 510l-146 31v73l301 29l21 -20l-11 -287v-318q0 -131 39.5 -186t124.5 -55q145 0 287 133l6 602l-145 29v73l297 29l20 -20l-6 -287v-576l139 -28v-74zM264 1200q38 264 195 264
q46 0 78.5 -17.5t70.5 -51.5q12 -10 33.5 -32t35 -34t34 -22.5t39.5 -10.5q43 0 73.5 42t53.5 122l55 -20q-41 -262 -195 -262q-46 0 -79.5 17.5t-69.5 49.5q-9 9 -33 32.5t-36 34t-33 21t-40 10.5q-44 0 -74 -41t-53 -120z" />
    <glyph glyph-name="Umacron" unicode="&#x16a;" horiz-adv-x="1488" 
d="M446 575q0 -129 23 -219.5t69 -142.5t106.5 -75t141.5 -23q178 0 264.5 115t86.5 380v650l-209 26v84h491v-84l-178 -22v-703q0 -158 -36.5 -274t-103.5 -184.5t-153.5 -101t-195.5 -32.5q-233 0 -365.5 135t-132.5 412v221q0 353 -4 529l-170 20v84h579v-84l-208 -24
q-5 -215 -5 -525v-162zM473 1552v129h619v-129h-619z" />
    <glyph glyph-name="umacron" unicode="&#x16b;" horiz-adv-x="1193" 
d="M1124 0l-284 -16l-21 182q-159 -193 -362 -193q-131 0 -199.5 87t-67.5 282l7 510l-146 31v73l301 29l21 -20l-11 -287v-318q0 -131 39.5 -186t124.5 -55q145 0 287 133l6 602l-145 29v73l297 29l20 -20l-6 -287v-576l139 -28v-74zM324 1221v129h536v-129h-536z" />
    <glyph glyph-name="Ubreve" unicode="&#x16c;" horiz-adv-x="1488" 
d="M446 575q0 -129 23 -219.5t69 -142.5t106.5 -75t141.5 -23q178 0 264.5 115t86.5 380v650l-209 26v84h491v-84l-178 -22v-703q0 -158 -36.5 -274t-103.5 -184.5t-153.5 -101t-195.5 -32.5q-233 0 -365.5 135t-132.5 412v221q0 353 -4 529l-170 20v84h579v-84l-208 -24
q-5 -215 -5 -525v-162zM494 1757l63 23q24 -72 83.5 -115t147.5 -43t146 42.5t86 115.5l63 -23q-7 -48 -28.5 -93t-56.5 -83t-89.5 -61t-120.5 -23t-120.5 23t-89.5 61.5t-56 83t-28 92.5z" />
    <glyph glyph-name="ubreve" unicode="&#x16d;" horiz-adv-x="1193" 
d="M1124 0l-284 -16l-21 182q-159 -193 -362 -193q-131 0 -199.5 87t-67.5 282l7 510l-146 31v73l301 29l21 -20l-11 -287v-318q0 -131 39.5 -186t124.5 -55q145 0 287 133l6 602l-145 29v73l297 29l20 -20l-6 -287v-576l139 -28v-74zM289 1481l61 22q73 -190 248 -190
t248 190l61 -22q-15 -128 -95.5 -215.5t-213.5 -87.5t-213.5 87.5t-95.5 215.5z" />
    <glyph glyph-name="Uring" unicode="&#x16e;" horiz-adv-x="1488" 
d="M446 575q0 -129 23 -219.5t69 -142.5t106.5 -75t141.5 -23q178 0 264.5 115t86.5 380v650l-209 26v84h491v-84l-178 -22v-703q0 -158 -36.5 -274t-103.5 -184.5t-153.5 -101t-195.5 -32.5q-233 0 -365.5 135t-132.5 412v221q0 353 -4 529l-170 20v84h579v-84l-208 -24
q-5 -215 -5 -525v-162zM788 1550q48 0 77.5 35.5t29.5 81.5q0 47 -28.5 81t-78.5 34q-49 0 -77.5 -34t-28.5 -81t28.5 -82t77.5 -35zM788 1479q-80 0 -138 50.5t-58 137.5q0 86 58.5 138.5t137.5 52.5q80 0 138.5 -51.5t58.5 -139.5q0 -84 -59 -136t-138 -52z" />
    <glyph glyph-name="uring" unicode="&#x16f;" horiz-adv-x="1193" 
d="M1124 0l-284 -16l-21 182q-159 -193 -362 -193q-131 0 -199.5 87t-67.5 282l7 510l-146 31v73l301 29l21 -20l-11 -287v-318q0 -131 39.5 -186t124.5 -55q145 0 287 133l6 602l-145 29v73l297 29l20 -20l-6 -287v-576l139 -28v-74zM588 1208q53 0 85 38.5t32 88.5
q0 51 -31.5 88t-85.5 37q-53 0 -85 -37.5t-32 -87.5q0 -51 31.5 -89t85.5 -38zM588 1126q-88 0 -151.5 56.5t-63.5 152.5q0 92 64 149.5t151 57.5q88 0 151.5 -56t63.5 -151q0 -94 -63.5 -151.5t-151.5 -57.5z" />
    <glyph glyph-name="Uhungarumlaut" unicode="&#x170;" horiz-adv-x="1488" 
d="M446 575q0 -129 23 -219.5t69 -142.5t106.5 -75t141.5 -23q178 0 264.5 115t86.5 380v650l-209 26v84h491v-84l-178 -22v-703q0 -158 -36.5 -274t-103.5 -184.5t-153.5 -101t-195.5 -32.5q-233 0 -365.5 135t-132.5 412v221q0 353 -4 529l-170 20v84h579v-84l-208 -24
q-5 -215 -5 -525v-162zM580 1493l114 240q22 44 50.5 65t56.5 21q30 0 51.5 -20t21.5 -50q0 -42 -45 -90l-196 -203zM891 1493l115 240q42 86 108 86q30 0 51 -20t21 -50q0 -42 -45 -90l-197 -203z" />
    <glyph glyph-name="uhungarumlaut" unicode="&#x171;" horiz-adv-x="1193" 
d="M1124 0l-284 -16l-21 182q-159 -193 -362 -193q-131 0 -199.5 87t-67.5 282l7 510l-146 31v73l301 29l21 -20l-11 -287v-318q0 -131 39.5 -186t124.5 -55q145 0 287 133l6 602l-145 29v73l297 29l20 -20l-6 -287v-576l139 -28v-74zM389 1161l113 291q35 96 108 96
q30 0 51 -20.5t21 -54.5q0 -48 -45 -105l-191 -240zM680 1161l113 291q35 96 108 96q32 0 53 -20.5t21 -54.5q0 -46 -47 -105l-191 -240z" />
    <glyph glyph-name="Uogonek" unicode="&#x172;" horiz-adv-x="1488" 
d="M928 1286v84h491v-84l-178 -24v-701q0 -205 -58.5 -329t-166.5 -195q-154 -106 -154 -234q0 -65 39 -102t100 -37q59 0 107 31l25 -47q-69 -99 -203 -99q-91 0 -144 48.5t-53 132.5q0 69 36 133.5t97 113.5q-66 -8 -100 -8q-242 0 -377 134.5t-135 412.5v221
q0 355 -4 529l-170 20v84h579v-84l-208 -24q-5 -215 -5 -525v-162q0 -128 23 -219t68 -143t104 -75t137 -23q184 0 271.5 114.5t87.5 380.5v652z" />
    <glyph glyph-name="uogonek" unicode="&#x173;" horiz-adv-x="1193" 
d="M1124 0l-80 -4q-129 -91 -129 -193q0 -65 39.5 -102t102.5 -37q55 0 106 31l25 -47q-72 -99 -215 -99q-84 0 -135.5 48.5t-51.5 132.5q0 77 53 146.5t134 115.5l-133 -8l-21 182q-159 -193 -362 -193q-131 0 -199.5 87t-67.5 282l7 510l-146 31v73l301 29l21 -20
l-11 -287v-318q0 -131 39.5 -186t124.5 -55q145 0 287 133l6 602l-145 29v73l297 29l20 -20l-6 -287v-576l139 -28v-74z" />
    <glyph glyph-name="Wcircumflex" unicode="&#x174;" horiz-adv-x="1970" 
d="M1346 -14l-355 1063l-334 -1063h-88l-368 1280l-170 20v84h557v-84l-189 -22l252 -942l312 940l-205 24v84h557v-84l-207 -24l305 -949l260 947l-186 26v84h465v-84l-172 -24l-346 -1276h-88zM1069 1753l268 -235l-39 -52l-264 152l-264 -152l-39 52l268 235h70z" />
    <glyph glyph-name="wcircumflex" unicode="&#x175;" horiz-adv-x="1564" 
d="M1169 893v80h375v-80l-110 -27l-299 -878h-76l-266 725l-271 -725h-76l-329 884l-117 21v80h467v-80l-160 -25l211 -628l230 628l-152 25v80h453v-80l-152 -27l233 -622l191 620zM1083 1118l-258 234l-258 -234l-47 45l271 361h69l270 -361z" />
    <glyph glyph-name="Ycircumflex" unicode="&#x176;" horiz-adv-x="1296" 
d="M807 1286v84h469v-84l-180 -26l-348 -721q0 -302 4 -433l209 -22v-84h-619v84l209 22q4 127 4 424l-362 738l-162 18v84h577v-84l-194 -22l284 -621l293 619zM733 1753l268 -235l-38 -52l-265 152l-264 -152l-39 52l269 235h69z" />
    <glyph glyph-name="ycircumflex" unicode="&#x177;" horiz-adv-x="1048" 
d="M188 -510q-78 0 -133 38t-55 97q10 43 48.5 66.5t88.5 23.5q78 0 152 -77l10 -11q115 99 184 295l9 25l-371 936l-113 16v74h492v-76l-181 -20l256 -699l252 696l-178 25v74h400v-74l-111 -22l-330 -871q-105 -276 -200.5 -396t-219.5 -120zM840 1118l-258 234l-258 -234
l-48 45l271 361h69l271 -361z" />
    <glyph glyph-name="Ydieresis" unicode="&#x178;" horiz-adv-x="1296" 
d="M807 1286v84h469v-84l-180 -26l-348 -721q0 -302 4 -433l209 -22v-84h-619v84l209 22q4 127 4 424l-362 738l-162 18v84h577v-84l-194 -22l284 -621l293 619zM481 1524q-49 0 -84 32t-35 80t35.5 80.5t83.5 32.5q50 0 83.5 -32t33.5 -81t-33.5 -80.5t-83.5 -31.5z
M938 1524q-50 0 -83.5 31.5t-33.5 80.5t33.5 81t83.5 32q48 0 83.5 -32.5t35.5 -80.5t-35 -80t-84 -32z" />
    <glyph glyph-name="Zacute" unicode="&#x179;" horiz-adv-x="1128" 
d="M186 1006h-125l17 364h964v-72l-772 -1196h637l56 263h124l-16 -365h-1030v74l776 1194h-575zM492 1526q94 101 192 192q78 78 127 78q33 0 55.5 -20t22.5 -50q0 -29 -23 -55t-80 -57q-172 -94 -258 -139z" />
    <glyph glyph-name="zacute" unicode="&#x17a;" horiz-adv-x="933" 
d="M88 973h764v-74l-584 -813h447l61 248h107l-21 -334h-803v72l586 813h-412l-55 -228l-106 9zM410 1180q89 150 182 288q52 84 110 84q32 0 55 -20t23 -57q0 -49 -69 -113q-106 -96 -248 -221z" />
    <glyph glyph-name="Zdotaccent" unicode="&#x17b;" horiz-adv-x="1128" 
d="M186 1006h-125l17 364h964v-72l-772 -1196h637l56 263h124l-16 -365h-1030v74l776 1194h-575zM586 1507q-59 0 -98 37t-39 94q0 58 39 94.5t98 36.5t98 -36.5t39 -94.5q0 -57 -39 -94t-98 -37z" />
    <glyph glyph-name="zdotaccent" unicode="&#x17c;" horiz-adv-x="933" 
d="M88 973h764v-74l-584 -813h447l61 248h107l-21 -334h-803v72l586 813h-412l-55 -228l-106 9zM483 1206q-59 0 -98 36.5t-39 94.5q0 57 39 94t98 37t98.5 -37t39.5 -94q0 -58 -39.5 -94.5t-98.5 -36.5z" />
    <glyph glyph-name="Zcaron" unicode="&#x17d;" horiz-adv-x="1128" 
d="M186 1006h-125l17 364h964v-72l-772 -1196h637l56 263h124l-16 -365h-1030v74l776 1194h-575zM332 1778l235 -174l236 174l49 -43l-209 -242h-151l-209 242z" />
    <glyph glyph-name="zcaron" unicode="&#x17e;" horiz-adv-x="933" 
d="M88 973h764v-74l-584 -813h447l61 248h107l-21 -334h-803v72l586 813h-412l-55 -228l-106 9zM254 1513l235 -215l236 215l49 -40l-209 -304h-151l-209 304z" />
    <glyph glyph-name="longs" unicode="&#x17f;" horiz-adv-x="704" 
d="M219 430v434q0 207 37 335.5t109 209.5q117 125 288 125q77 0 130 -28t67 -83q-2 -40 -35 -66t-88 -26q-74 0 -147 62l-60 45q-44 -35 -71 -84q-33 -61 -45.5 -168t-12.5 -301v-455q0 -108 4 -326l185 -30v-74h-529v74l164 28q4 222 4 328z" />
    <glyph glyph-name="uni018F" unicode="&#x18f;" horiz-adv-x="1345" 
d="M96 569q0 108 15 181h923q-8 134 -46.5 237.5t-98 165.5t-131.5 93.5t-154 31.5q-226 0 -379 -166l-57 62q169 227 477 227q125 0 234.5 -47.5t192 -135t130 -222.5t47.5 -300q0 -163 -45.5 -301t-124 -230.5t-184.5 -144t-225 -51.5q-262 0 -418 159t-156 441zM672 72
q173 0 267 143t97 438h-721q-12 -77 -12 -161q0 -109 45.5 -204.5t131 -155.5t192.5 -60z" />
    <glyph glyph-name="uni0192" unicode="&#x192;" horiz-adv-x="1024" 
d="M211 707v102h240q17 161 51.5 261t95.5 167q108 113 262 113q82 0 139 -31t72 -80q-6 -42 -36.5 -67t-80.5 -25q-77 0 -141 67l-45 48q-55 -36 -80 -82q-34 -56 -47 -132.5t-25 -238.5h256v-102h-264l-20 -230q-23 -239 -57 -364t-107 -205q-105 -113 -258 -113
q-82 0 -139.5 31t-75.5 80q8 43 37.5 67.5t79.5 24.5q80 0 143 -68l47 -47q53 33 80 82q17 28 28 59t18.5 83t11 84t11 120t11.5 133l22 263h-229z" />
    <glyph glyph-name="Ohorn" unicode="&#x1a0;" horiz-adv-x="1447" 
d="M319 686q0 -120 24 -227t71.5 -195t127.5 -140t183 -52q83 0 151 34.5t113.5 92.5t77 137.5t45.5 167t14 182.5t-14 182t-45.5 166t-77 137t-113.5 92.5t-151 34.5q-103 0 -183 -52t-127.5 -139.5t-71.5 -194.5t-24 -226zM725 1401q225 0 393 -148q103 43 103 146
q0 31 -26 81.5t-26 78.5q0 27 22.5 50t57.5 23q46 0 74 -24q29 -63 29 -113q0 -100 -50.5 -174.5t-136.5 -112.5q187 -200 187 -522q0 -132 -34.5 -247.5t-95 -200.5t-140 -146t-171 -92t-186.5 -31q-97 0 -188 29t-171 89t-140 143.5t-95 201t-35 254.5q0 131 35 246.5
t95.5 200t140 146t171.5 92t187 30.5z" />
    <glyph glyph-name="ohorn" unicode="&#x1a1;" horiz-adv-x="1124" 
d="M561 66q133 0 205 105.5t72 309.5q0 206 -72 315t-205 109q-134 0 -204 -108.5t-70 -315.5q0 -205 70 -310t204 -105zM561 -27q-92 0 -175 32.5t-149 94t-105.5 160.5t-39.5 221q0 123 39.5 223.5t106 163.5t149.5 97t174 34q95 0 183.5 -37t154.5 -108q94 40 94 141
q0 31 -25.5 81.5t-25.5 78.5q0 27 22.5 50.5t57.5 23.5q45 0 74 -25q28 -61 28 -112q0 -100 -50 -174.5t-136 -112.5q94 -135 94 -324q0 -122 -40 -221t-106.5 -160.5t-150 -94t-174.5 -32.5z" />
    <glyph glyph-name="Uhorn" unicode="&#x1af;" horiz-adv-x="1488" 
d="M446 575q0 -129 23 -219.5t69 -142.5t106.5 -75t141.5 -23q178 0 264.5 115t86.5 380v650l-209 26v84h282q97 0 140 15.5t43 48.5q0 22 -26 68.5t-26 76.5q0 27 23 51.5t57 24.5q42 0 74 -27q29 -63 29 -112q0 -217 -283 -250v-705q0 -158 -36.5 -274t-103.5 -184.5
t-153.5 -101t-195.5 -32.5q-233 0 -365.5 135t-132.5 412v221q0 353 -4 529l-170 20v84h579v-84l-208 -24q-5 -215 -5 -525v-162z" />
    <glyph glyph-name="uhorn" unicode="&#x1b0;" horiz-adv-x="1193" 
d="M362 678v-318q0 -131 39.5 -186t124.5 -55q145 0 287 133l6 602l-145 29v73l297 29l20 -20l-2 -131q83 17 122.5 55.5t39.5 105.5q0 31 -25.5 81.5t-25.5 78.5q0 27 22.5 50.5t57.5 23.5q44 0 73 -25q29 -63 29 -112q0 -130 -83 -215.5t-212 -100.5l-2 -98v-576l139 -28
v-74l-284 -16l-21 182q-159 -193 -362 -193q-131 0 -199.5 87t-67.5 282l7 510l-146 31v73l301 29l21 -20z" />
    <glyph glyph-name="uni01CD" unicode="&#x1cd;" horiz-adv-x="1359" 
d="M633 1151l-207 -610h412zM10 0v84l172 27l436 1269h130l436 -1278l153 -18v-84h-557v84l201 25l-113 335h-475l-114 -333l200 -27v-84h-469zM440 1778l236 -174l235 174l50 -43l-209 -242h-152l-209 242z" />
    <glyph glyph-name="uni01CE" unicode="&#x1ce;" horiz-adv-x="1042" 
d="M852 -20q-73 0 -122.5 42.5t-61.5 114.5q-93 -92 -154.5 -128t-146.5 -36q-119 0 -197 67t-78 189q0 63 26.5 111t103 99.5t210.5 99.5q110 40 232 67v51q0 99 -21 153t-61 74.5t-111 20.5q-59 0 -111 -12l-38 -133q-28 -98 -107 -98q-87 0 -96 83q29 117 136 185.5
t263 68.5q164 0 241 -83t77 -273v-436q0 -121 73 -121q42 0 80 45l41 -45q-35 -58 -78 -82t-100 -24zM274 1513l236 -215l235 215l50 -40l-209 -304h-152l-209 304zM274 260q0 -78 44.5 -114.5t119.5 -36.5q50 0 91 20t135 86v315q-99 -27 -189 -61q-64 -25 -106 -53
t-61.5 -56t-26.5 -50.5t-7 -49.5z" />
    <glyph glyph-name="uni01CF" unicode="&#x1cf;" horiz-adv-x="759" 
d="M283 635v100q0 353 -4 529l-189 22v84h580v-84l-189 -22q-4 -172 -4 -529v-100q0 -353 4 -529l189 -22v-84h-580v84l189 22q4 172 4 529zM143 1778l236 -174l235 174l50 -43l-209 -242h-152l-209 242z" />
    <glyph glyph-name="uni01D0" unicode="&#x1d0;" horiz-adv-x="610" 
d="M72 0v74l151 28q4 204 4 328v96q0 135 -6 258l-162 19v71l318 125l31 -20l-7 -279v-270q0 -73 5 -328l141 -28v-74h-475zM70 1513l235 -215l236 215l49 -40l-209 -304h-152l-209 304z" />
    <glyph glyph-name="uni01D1" unicode="&#x1d1;" horiz-adv-x="1447" 
d="M319 686q0 -120 24 -227t71.5 -195t127.5 -140t183 -52q83 0 151 34.5t113.5 92.5t77 137.5t45.5 167t14 182.5t-14 182t-45.5 166t-77 137t-113.5 92.5t-151 34.5q-103 0 -183 -52t-127.5 -139.5t-71.5 -194.5t-24 -226zM725 1401q120 0 231 -47t200 -134.5t142.5 -226
t53.5 -307.5q0 -132 -34.5 -247.5t-95 -200.5t-140 -146t-171 -92t-186.5 -31q-97 0 -188 29t-171 89t-140 143.5t-95 201t-35 254.5q0 131 35 246.5t95.5 200t140 146t171.5 92t187 30.5zM489 1778l236 -174l236 174l49 -43l-209 -242h-152l-209 242z" />
    <glyph glyph-name="uni01D2" unicode="&#x1d2;" horiz-adv-x="1124" 
d="M561 66q133 0 205 105.5t72 309.5q0 206 -72 315t-205 109q-134 0 -204 -108.5t-70 -315.5q0 -205 70 -310t204 -105zM561 -27q-92 0 -175 32.5t-149 94t-105.5 160.5t-39.5 221q0 123 39.5 223.5t106 163.5t149.5 97t174 34q90 0 173.5 -34t150.5 -97t107 -163.5
t40 -223.5q0 -122 -40 -221t-106.5 -160.5t-150 -94t-174.5 -32.5zM326 1513l235 -215l236 215l49 -40l-209 -304h-152l-209 304z" />
    <glyph glyph-name="uni01D3" unicode="&#x1d3;" horiz-adv-x="1488" 
d="M446 575q0 -129 23 -219.5t69 -142.5t106.5 -75t141.5 -23q178 0 264.5 115t86.5 380v650l-209 26v84h491v-84l-178 -22v-703q0 -158 -36.5 -274t-103.5 -184.5t-153.5 -101t-195.5 -32.5q-233 0 -365.5 135t-132.5 412v221q0 353 -4 529l-170 20v84h579v-84l-208 -24
q-5 -215 -5 -525v-162zM565 1778l236 -174l235 174l49 -43l-208 -242h-152l-209 242z" />
    <glyph glyph-name="uni01D4" unicode="&#x1d4;" horiz-adv-x="1193" 
d="M1124 0l-284 -16l-21 182q-159 -193 -362 -193q-131 0 -199.5 87t-67.5 282l7 510l-146 31v73l301 29l21 -20l-11 -287v-318q0 -131 39.5 -186t124.5 -55q145 0 287 133l6 602l-145 29v73l297 29l20 -20l-6 -287v-576l139 -28v-74zM362 1513l236 -215l236 215l49 -40
l-209 -304h-152l-209 304z" />
    <glyph glyph-name="uni01D5" unicode="&#x1d5;" horiz-adv-x="1488" 
d="M446 575q0 -129 23 -219.5t69 -142.5t106.5 -75t141.5 -23q178 0 264.5 115t86.5 380v650l-209 26v84h491v-84l-178 -22v-703q0 -158 -36.5 -274t-103.5 -184.5t-153.5 -101t-195.5 -32.5q-233 0 -365.5 135t-132.5 412v221q0 353 -4 529l-170 20v84h579v-84l-208 -24
q-5 -215 -5 -525v-162zM584 1524q-49 0 -84 32t-35 80t35.5 80.5t83.5 32.5q50 0 83 -32t33 -81t-33 -80.5t-83 -31.5zM1040 1524q-50 0 -83 31.5t-33 80.5t33 81t83 32q48 0 83.5 -32.5t35.5 -80.5t-35 -80t-84 -32zM504 1868v129h618v-129h-618z" />
    <glyph glyph-name="uni01D6" unicode="&#x1d6;" horiz-adv-x="1193" 
d="M1124 0l-284 -16l-21 182q-159 -193 -362 -193q-131 0 -199.5 87t-67.5 282l7 510l-146 31v73l301 29l21 -20l-11 -287v-318q0 -131 39.5 -186t124.5 -55q145 0 287 133l6 602l-145 29v73l297 29l20 -20l-6 -287v-576l139 -28v-74zM383 1180q-50 0 -85.5 33t-35.5 83
q0 49 35.5 83t85.5 34q51 0 87 -34t36 -83q0 -50 -35.5 -83t-87.5 -33zM813 1180q-52 0 -87.5 33t-35.5 83q0 49 36 83t87 34q50 0 85.5 -34t35.5 -83q0 -50 -35.5 -83t-85.5 -33zM330 1509v129h536v-129h-536z" />
    <glyph glyph-name="uni01D7" unicode="&#x1d7;" horiz-adv-x="1488" 
d="M446 575q0 -129 23 -219.5t69 -142.5t106.5 -75t141.5 -23q178 0 264.5 115t86.5 380v650l-209 26v84h491v-84l-178 -22v-703q0 -158 -36.5 -274t-103.5 -184.5t-153.5 -101t-195.5 -32.5q-233 0 -365.5 135t-132.5 412v221q0 353 -4 529l-170 20v84h579v-84l-208 -24
q-5 -215 -5 -525v-162zM465 1636q0 48 35.5 80.5t83.5 32.5q50 0 83 -32t33 -81t-33 -80.5t-83 -31.5q-49 0 -84 32t-35 80zM924 1636q0 49 33 81t83 32q48 0 83.5 -32.5t35.5 -80.5t-35 -80t-84 -32q-50 0 -83 31.5t-33 80.5zM788 1737l-47 49l138 182q53 70 106 70
q32 0 54 -20.5t22 -53.5q0 -57 -76 -106z" />
    <glyph glyph-name="uni01D8" unicode="&#x1d8;" horiz-adv-x="1193" 
d="M1124 0l-284 -16l-21 182q-159 -193 -362 -193q-131 0 -199.5 87t-67.5 282l7 510l-146 31v73l301 29l21 -20l-11 -287v-318q0 -131 39.5 -186t124.5 -55q145 0 287 133l6 602l-145 29v73l297 29l20 -20l-6 -287v-576l139 -28v-74zM274 1272q0 49 34.5 80.5t82.5 31.5
q50 0 84.5 -31.5t34.5 -80.5t-34.5 -81t-84.5 -32q-48 0 -82.5 32t-34.5 81zM686 1272q0 49 34.5 80.5t84.5 31.5q48 0 82.5 -31.5t34.5 -80.5t-34.5 -81t-82.5 -32q-50 0 -84.5 32t-34.5 81zM545 1413l100 199q47 94 111 94q30 0 51.5 -20.5t21.5 -55.5q0 -51 -61 -106
l-170 -150z" />
    <glyph glyph-name="uni01D9" unicode="&#x1d9;" horiz-adv-x="1488" 
d="M446 575q0 -129 23 -219.5t69 -142.5t106.5 -75t141.5 -23q178 0 264.5 115t86.5 380v650l-209 26v84h491v-84l-178 -22v-703q0 -158 -36.5 -274t-103.5 -184.5t-153.5 -101t-195.5 -32.5q-233 0 -365.5 135t-132.5 412v221q0 353 -4 529l-170 20v84h579v-84l-208 -24
q-5 -215 -5 -525v-162zM584 1524q-49 0 -84 32t-35 80t35.5 80.5t83.5 32.5q50 0 83 -32t33 -81t-33 -80.5t-83 -31.5zM1040 1524q-50 0 -83 31.5t-33 80.5t33 81t83 32q48 0 83.5 -32.5t35.5 -80.5t-35 -80t-84 -32zM578 2052l235 -174l236 174l49 -43l-209 -242h-152
l-209 242z" />
    <glyph glyph-name="uni01DA" unicode="&#x1da;" horiz-adv-x="1193" 
d="M1124 0l-284 -16l-21 182q-159 -193 -362 -193q-131 0 -199.5 87t-67.5 282l7 510l-146 31v73l301 29l21 -20l-11 -287v-318q0 -131 39.5 -186t124.5 -55q145 0 287 133l6 602l-145 29v73l297 29l20 -20l-6 -287v-576l139 -28v-74zM383 1180q-50 0 -85.5 33t-35.5 83
q0 49 35.5 83t85.5 34q51 0 87 -34t36 -83q0 -50 -35.5 -83t-87.5 -33zM813 1180q-52 0 -87.5 33t-35.5 83q0 49 36 83t87 34q50 0 85.5 -34t35.5 -83q0 -50 -35.5 -83t-85.5 -33zM362 1720l236 -174l236 174l49 -43l-209 -241h-152l-209 241z" />
    <glyph glyph-name="uni01DB" unicode="&#x1db;" horiz-adv-x="1488" 
d="M446 575q0 -129 23 -219.5t69 -142.5t106.5 -75t141.5 -23q178 0 264.5 115t86.5 380v650l-209 26v84h491v-84l-178 -22v-703q0 -158 -36.5 -274t-103.5 -184.5t-153.5 -101t-195.5 -32.5q-233 0 -365.5 135t-132.5 412v221q0 353 -4 529l-170 20v84h579v-84l-208 -24
q-5 -215 -5 -525v-162zM465 1636q0 48 35.5 80.5t83.5 32.5q50 0 83 -32t33 -81t-33 -80.5t-83 -31.5q-49 0 -84 32t-35 80zM924 1636q0 49 33 81t83 32q48 0 83.5 -32.5t35.5 -80.5t-35 -80t-84 -32q-50 0 -83 31.5t-33 80.5zM645 1858q-76 49 -76 102q0 35 22.5 56.5
t55.5 21.5q54 0 107 -70l137 -182l-45 -47z" />
    <glyph glyph-name="uni01DC" unicode="&#x1dc;" horiz-adv-x="1193" 
d="M1124 0l-284 -16l-21 182q-159 -193 -362 -193q-131 0 -199.5 87t-67.5 282l7 510l-146 31v73l301 29l21 -20l-11 -287v-318q0 -131 39.5 -186t124.5 -55q145 0 287 133l6 602l-145 29v73l297 29l20 -20l-6 -287v-576l139 -28v-74zM274 1272q0 49 34.5 80.5t82.5 31.5
q50 0 84.5 -31.5t34.5 -80.5t-34.5 -81t-84.5 -32q-48 0 -82.5 32t-34.5 81zM686 1272q0 49 34.5 80.5t84.5 31.5q48 0 82.5 -31.5t34.5 -80.5t-34.5 -81t-82.5 -32q-50 0 -84.5 32t-34.5 81zM602 1374l-170 150q-61 55 -61 106q0 35 21.5 55.5t51.5 20.5q64 0 111 -94
l96 -195z" />
    <glyph glyph-name="Gcaron" unicode="&#x1e6;" horiz-adv-x="1396" 
d="M1237 180v-90q-231 -121 -451 -121q-203 0 -360.5 92.5t-243.5 255.5t-86 369q0 205 87 367.5t247 255t365 92.5q244 0 411 -96l8 -299h-127l-40 233q-106 59 -234 59q-218 0 -356 -163t-138 -449q0 -291 134.5 -451.5t371.5 -160.5q117 0 219 41v65q0 125 -4 371
l-213 18v82h539v-82l-125 -12q-4 -246 -4 -377zM557 1778l236 -174l235 174l49 -43l-209 -242h-151l-209 242z" />
    <glyph glyph-name="gcaron" unicode="&#x1e7;" horiz-adv-x="1060" 
d="M494 915q-96 0 -151.5 -69.5t-55.5 -183.5q0 -115 52 -183.5t146 -68.5q97 0 153 72t56 188q0 111 -53 178t-147 67zM121 664q0 157 103.5 246t267.5 89q162 0 260 -79l231 79l31 -20v-129h-201q47 -74 47 -186q0 -157 -103.5 -246.5t-267.5 -89.5q-80 0 -151 22
q-51 -66 -51 -131q0 -45 25.5 -67.5t93.5 -22.5h268q166 0 248 -68.5t82 -195.5q0 -68 -32.5 -130.5t-93.5 -113t-159.5 -80.5t-220.5 -30q-214 0 -319 66.5t-105 180.5q0 69 45 125t155 109q-135 37 -135 155q0 99 140 228q-158 85 -158 289zM506 -395q162 0 253 58.5
t91 148.5q0 72 -50 115.5t-155 43.5h-239q-30 0 -84 4q-80 -86 -80 -184q0 -186 264 -186zM260 1513l236 -215l235 215l49 -40l-209 -304h-151l-209 304z" />
    <glyph glyph-name="uni01F8" unicode="&#x1f8;" horiz-adv-x="1505" 
d="M930 1286v84h493v-84l-174 -26v-1274h-71l-820 1116v-989l217 -29v-84h-495v84l174 25v1136l-18 25l-146 16v84h316l739 -1016v906zM827 1526l-36 -51q-72 37 -259 137q-102 56 -102 114q0 30 22.5 50t55.5 20q49 0 127 -78q101 -94 192 -192z" />
    <glyph glyph-name="uni01F9" unicode="&#x1f9;" horiz-adv-x="1241" 
d="M770 999q134 0 198 -90t64 -288v-191q0 -124 4 -328l144 -28v-74h-475v74l151 28q4 200 4 328v174q0 139 -39 193.5t-131 54.5q-70 0 -134.5 -29t-143.5 -94v-299q0 -124 4 -328l141 -28v-74h-475v74l151 28q5 255 5 328v98q0 112 -7 256l-161 19v71l286 125l31 -20
l16 -166q76 85 174.5 135.5t192.5 50.5zM711 1180l-54 -39q-104 92 -247 221q-70 65 -70 113q0 38 22.5 57.5t55.5 19.5q58 0 110 -84q69 -102 183 -288z" />
    <glyph glyph-name="uni0218" unicode="&#x218;" horiz-adv-x="1048" 
d="M475 72q147 0 232.5 65t85.5 182q0 94 -57.5 149.5t-194.5 109.5l-80 32q-170 66 -261 164.5t-91 247.5q0 173 129.5 276t330.5 103q193 0 336 -107l-12 -268h-125l-43 231q-75 41 -168 41q-122 0 -199 -60.5t-77 -170.5q0 -92 58 -153.5t173 -106.5l82 -31
q201 -78 287 -174.5t86 -243.5q0 -179 -134.5 -284t-351.5 -105q-111 0 -218 30.5t-181 78.5l12 287h127l41 -242q92 -51 213 -51zM649 -242q0 -98 -76.5 -165t-197.5 -107l-21 59q60 24 101 50.5t71 66.5q-43 23 -69.5 57.5t-26.5 73.5q0 43 31.5 72t75.5 29q49 0 94 -39
q18 -55 18 -97z" />
    <glyph glyph-name="uni0219" unicode="&#x219;" horiz-adv-x="888" 
d="M410 -27q-153 0 -306 78l-8 225h113l39 -178q68 -32 166 -32q113 0 171 41.5t58 113.5q0 64 -44.5 103.5t-145.5 74.5l-95 35q-119 44 -183 110.5t-64 166.5q0 119 96 203.5t260 84.5q148 0 287 -84l-9 -208h-106l-33 163q-68 35 -141 35q-92 0 -141.5 -37.5
t-49.5 -101.5q0 -65 40 -100.5t149 -75.5l63 -23q150 -56 216.5 -129t66.5 -172q0 -124 -105 -208.5t-294 -84.5zM557 -242q0 -98 -76.5 -165t-197.5 -107l-21 59q60 24 101 50.5t71 66.5q-43 23 -69.5 57.5t-26.5 73.5q0 43 31 72t75 29q50 0 95 -39q18 -55 18 -97z" />
    <glyph glyph-name="uni021A" unicode="&#x21a;" horiz-adv-x="1236" 
d="M522 635v100q0 355 -4 533h-313l-45 -262h-119l16 364h1123l16 -364h-119l-45 262h-313q-4 -174 -4 -533v-100q0 -353 4 -529l209 -22v-84h-619v84l209 22q4 174 4 529zM733 -242q0 -98 -76.5 -165t-197.5 -107l-21 59q60 24 101 50.5t71 66.5q-43 23 -69.5 57.5
t-26.5 73.5q0 43 31.5 72t75.5 29q49 0 94 -39q18 -55 18 -97z" />
    <glyph glyph-name="uni021B" unicode="&#x21b;" horiz-adv-x="665" 
d="M362 229q0 -149 113 -149q61 0 137 55l50 -53q-83 -109 -242 -109q-110 0 -172 58.5t-62 175.5q0 22 1 76t1 98v483h-170v90l183 23l53 274h123l-10 -278h274v-109h-279v-635zM539 -242q0 -51 -22.5 -95t-62 -77t-86.5 -57t-104 -43l-20 59q60 24 101 50.5t71 66.5
q-43 23 -70 58t-27 73q0 43 31.5 72t75.5 29q49 0 94 -39q19 -58 19 -97z" />
    <glyph glyph-name="uni0237" unicode="&#x237;" horiz-adv-x="567" 
d="M227 158v368q0 135 -6 258l-162 19v71l312 125l30 -20l-6 -279v-514q0 -265 -23.5 -387t-99.5 -205q-51 -54 -107.5 -79t-131.5 -25q-100 0 -150.5 35.5t-52.5 81.5q27 86 121 86q67 0 153 -64l35 -26q14 17 25 35q45 86 54 166t9 354z" />
    <glyph glyph-name="uni0251" unicode="&#x251;" horiz-adv-x="1140" 
d="M276 475q0 -186 79 -285.5t206 -99.5q67 0 122.5 29.5t115.5 97.5v557q-60 62 -111 85.5t-110 23.5q-133 0 -217.5 -102t-84.5 -306zM500 -27q-183 0 -295.5 130.5t-112.5 359.5q0 241 129.5 388.5t337.5 147.5q146 0 250 -137l135 137l33 -20l-6 -277v-495
q0 -121 73 -121q42 0 80 45l41 -45q-36 -58 -78 -82t-100 -24q-138 0 -176 163q-61 -89 -136 -129.5t-175 -40.5z" />
    <glyph glyph-name="uni0259" unicode="&#x259;" horiz-adv-x="1062" 
d="M512 -27q-190 0 -303 117t-113 332q0 64 15 115h669q-19 155 -105 242t-218 87q-162 0 -285 -143l-49 39q59 109 157.5 173t231.5 64q212 0 333.5 -133t121.5 -368q0 -115 -37 -214.5t-99.5 -167t-145.5 -105.5t-173 -38zM508 66q51 0 98 21.5t88 65.5t65.5 121t24.5 177
h-397q-71 0 -96 -25.5t-25 -81.5q0 -114 70 -196t172 -82z" />
    <glyph glyph-name="uni0261" unicode="&#x261;" horiz-adv-x="1146" 
d="M276 475q0 -186 79 -285.5t206 -99.5q67 0 122.5 29.5t115.5 97.5v557q-60 62 -111 85.5t-110 23.5q-133 0 -217.5 -102.5t-84.5 -305.5zM500 -27q-184 0 -296 130t-112 360q0 241 129.5 388.5t337.5 147.5q146 0 250 -137l135 137l33 -20l-6 -277v-489
q0 -240 -23.5 -360t-87.5 -199q-128 -164 -379 -164q-149 0 -249.5 71.5t-125.5 217.5q37 69 105 69q48 0 73 -33.5t48 -115.5l28 -105q56 -12 144 -12q65 0 129.5 32.5t101.5 98.5q34 57 48.5 149t15.5 265q-113 -154 -299 -154z" />
    <glyph glyph-name="h.sups" unicode="&#x2b0;" horiz-adv-x="843" 
d="M522 1534q189 0 189 -236v-348l92 -18v-62h-328v62l96 16v322q0 84 -23.5 118.5t-82.5 34.5q-79 0 -184 -92v-381l94 -18v-62h-332v62l98 18v758l-108 12v58l227 61l21 -10v-422q102 127 241 127z" />
    <glyph glyph-name="j.sups" unicode="&#x2b2;" horiz-adv-x="395" 
d="M213 1657q-42 0 -70 26.5t-28 67.5t28 66.5t70 25.5t71 -26t29 -66q0 -41 -29 -67.5t-71 -26.5zM145 973v413l-108 13v49l225 84l23 -14v-547q0 -152 -17 -224.5t-69 -123.5q-67 -78 -179 -78q-69 0 -105.5 24t-43.5 60q19 73 90 73q59 0 113 -57l20 -20q9 14 10 16
q27 45 34 110t7 222z" />
    <glyph glyph-name="r.sups" unicode="&#x2b3;" horiz-adv-x="600" 
d="M408 932v-62h-349v62l95 16v432l-107 13v57l205 84l22 -12l19 -166q35 82 90 130t113 48q34 0 60.5 -18.5t33.5 -59.5q0 -41 -24.5 -65.5t-63.5 -24.5q-44 0 -88 47l-8 10q-77 -60 -113 -155v-316z" />
    <glyph glyph-name="w.sups" unicode="&#x2b7;" horiz-adv-x="1079" 
d="M809 1446v63h258v-63l-82 -14l-207 -576h-55l-184 459l-179 -459h-55l-223 580l-82 10v63h326v-63l-95 -12l136 -359l143 359l-96 12v63h311v-63l-92 -12l147 -357l125 355z" />
    <glyph glyph-name="y.sups" unicode="&#x2b8;" horiz-adv-x="712" 
d="M432 1446v63h273v-63l-84 -14l-213 -584q-56 -154 -125 -225.5t-158 -71.5q-56 0 -93.5 26.5t-37.5 69.5q7 30 31.5 45t56.5 15q59 0 111 -45l14 -15q75 53 125 178l-252 607l-82 14v63h354v-63l-121 -16l170 -412l144 414z" />
    <glyph glyph-name="quoteleft" unicode="&#x2018;" horiz-adv-x="434" 
d="M76 1094q0 127 79.5 244.5t202.5 195.5l39 -55q-81 -66 -124.5 -117.5t-75.5 -128.5l59 -53q80 -70 80 -152q0 -60 -32 -90.5t-89 -30.5q-67 0 -111 41q-28 70 -28 146z" />
    <glyph glyph-name="quoteleft" unicode="&#x2bb;" horiz-adv-x="434" 
d="M76 1094q0 127 79.5 244.5t202.5 195.5l39 -55q-81 -66 -124.5 -117.5t-75.5 -128.5l59 -53q80 -70 80 -152q0 -60 -32 -90.5t-89 -30.5q-67 0 -111 41q-28 70 -28 146z" />
    <glyph glyph-name="quoteright" unicode="&#x2019;" horiz-adv-x="434" 
d="M358 1348q0 -127 -79.5 -245t-202.5 -196l-39 56q82 67 126 118t75 127l-60 54q-80 70 -80 151q0 60 32 90.5t89 30.5q67 0 111 -41q28 -70 28 -145z" />
    <glyph glyph-name="quoteright" unicode="&#x2bc;" horiz-adv-x="434" 
d="M358 1348q0 -127 -79.5 -245t-202.5 -196l-39 56q82 67 126 118t75 127l-60 54q-80 70 -80 151q0 60 32 90.5t89 30.5q67 0 111 -41q28 -70 28 -145z" />
    <glyph glyph-name="uni02BE" unicode="&#x2be;" horiz-adv-x="342" 
d="M53 1126v82q60 0 94.5 38t34.5 89q0 50 -35 87.5t-94 37.5v82q110 0 173 -55.5t63 -151.5q0 -99 -62.5 -154t-173.5 -55z" />
    <glyph glyph-name="uni02BF" unicode="&#x2bf;" horiz-adv-x="342" 
d="M53 1335q0 96 62 151.5t174 55.5v-82q-59 0 -94 -37.5t-35 -87.5q0 -51 34.5 -89t94.5 -38v-82q-113 0 -174.5 54.5t-61.5 154.5z" />
    <glyph glyph-name="circumflex" unicode="&#x2c6;" horiz-adv-x="819" 
d="M668 1118l-258 234l-258 -234l-48 45l271 361h69l271 -361z" />
    <glyph glyph-name="caron" unicode="&#x2c7;" horiz-adv-x="819" 
d="M174 1513l236 -215l235 215l49 -40l-209 -304h-151l-209 304z" />
    <glyph glyph-name="uni02C8" unicode="&#x2c8;" horiz-adv-x="237" 
d="M57 1130l-12 402h148l-13 -402h-123z" />
    <glyph glyph-name="uni02CC" unicode="&#x2cc;" horiz-adv-x="237" 
d="M45 -545l12 400h123l13 -400h-148z" />
    <glyph glyph-name="breve" unicode="&#x2d8;" horiz-adv-x="819" 
d="M100 1481l62 22q73 -190 248 -190q174 0 247 190l62 -22q-15 -128 -95.5 -215.5t-213.5 -87.5q-134 0 -214.5 87.5t-95.5 215.5z" />
    <glyph glyph-name="dotaccent" unicode="&#x2d9;" horiz-adv-x="819" 
d="M410 1206q-59 0 -98.5 36.5t-39.5 94.5q0 57 39.5 94t98.5 37t98 -37t39 -94q0 -58 -39 -94.5t-98 -36.5z" />
    <glyph glyph-name="ring" unicode="&#x2da;" horiz-adv-x="819" 
d="M410 1208q53 0 84.5 38t31.5 89t-31 88t-85 37q-53 0 -85 -37.5t-32 -87.5q0 -51 31.5 -89t85.5 -38zM410 1126q-88 0 -151.5 56.5t-63.5 152.5q0 92 64 149.5t151 57.5q88 0 151.5 -56t63.5 -151q0 -94 -63.5 -151.5t-151.5 -57.5z" />
    <glyph glyph-name="ogonek" unicode="&#x2db;" horiz-adv-x="819" 
d="M201 -270q0 90 60 172t147 125h59q-64 -41 -99.5 -101t-35.5 -123q0 -64 38.5 -101.5t98.5 -37.5q58 0 109 31l26 -51q-34 -48 -92 -71.5t-119 -23.5q-86 0 -139 48.5t-53 132.5z" />
    <glyph glyph-name="tilde" unicode="&#x2dc;" horiz-adv-x="819" 
d="M80 1200q38 264 194 264q46 0 79 -17.5t71 -51.5q8 -7 40.5 -40t54 -46t46.5 -13q43 0 73.5 42t53.5 122l56 -20q-41 -262 -195 -262q-46 0 -80 17.5t-70 49.5q-10 9 -33 32t-35.5 34t-33 21.5t-39.5 10.5q-44 0 -74 -41t-53 -120z" />
    <glyph glyph-name="hungarumlaut" unicode="&#x2dd;" horiz-adv-x="819" 
d="M141 1161l113 291q35 96 108 96q30 0 51 -20.5t21 -54.5q0 -48 -45 -105l-190 -240zM432 1161l113 291q35 96 108 96q32 0 53 -20.5t21 -54.5q0 -46 -47 -105l-191 -240z" />
    <glyph glyph-name="l.sups" unicode="&#x2e1;" horiz-adv-x="417" 
d="M33 1778l227 61l21 -10v-879l104 -18v-62h-348v62l104 18v758l-108 12v58z" />
    <glyph glyph-name="s.sups" unicode="&#x2e2;" horiz-adv-x="616" 
d="M287 850q-111 0 -215 61l-4 152h82l22 -113q55 -28 123 -28q145 0 145 88q0 39 -30 63.5t-103 50.5l-63 23q-168 64 -168 192q0 85 67.5 140t182.5 55q101 0 198 -51l-8 -144h-76l-20 103q-48 20 -94 20q-129 0 -129 -82q0 -34 28 -57t103 -49l43 -14q101 -36 145.5 -86
t44.5 -119q0 -90 -72.5 -147.5t-201.5 -57.5z" />
    <glyph glyph-name="x.sups" unicode="&#x2e3;" horiz-adv-x="716" 
d="M428 1446v63h248v-63l-84 -14l-172 -220l184 -262l98 -18v-62h-333v62l82 14l-129 182l-129 -180l92 -16v-62h-271v62l99 16l174 232l-178 254l-89 12v63h308v-63l-70 -10l127 -172l125 170z" />
    <glyph glyph-name="uni0300" unicode="&#x300;" 
d="M113 1180l-54 -39q-104 92 -247 221q-70 65 -70 113q0 38 22.5 57.5t55.5 19.5q58 0 110 -84q69 -102 183 -288z" />
    <glyph glyph-name="uni0301" unicode="&#x301;" 
d="M-121 1180q89 150 182 288q52 84 111 84q32 0 55 -20t23 -57q0 -48 -70 -113q-106 -96 -248 -221z" />
    <glyph glyph-name="uni0302" unicode="&#x302;" 
d="M258 1118l-258 234l-258 -234l-47 45l270 361h70l270 -361z" />
    <glyph glyph-name="uni0303" unicode="&#x303;" 
d="M-334 1200q38 264 195 264q46 0 78.5 -17.5t70.5 -51.5q12 -10 33.5 -32t35 -34t34 -22.5t39.5 -10.5q43 0 73.5 42t53.5 122l55 -20q-41 -262 -195 -262q-46 0 -79.5 17.5t-69.5 49.5q-9 9 -33 32.5t-36 34t-33 21t-40 10.5q-44 0 -74 -41t-53 -120z" />
    <glyph glyph-name="uni0304" unicode="&#x304;" 
d="M-268 1221v129h536v-129h-536z" />
    <glyph glyph-name="uni0306" unicode="&#x306;" 
d="M-309 1481l61 22q73 -190 248 -190t248 190l61 -22q-15 -128 -95.5 -215.5t-213.5 -87.5t-213.5 87.5t-95.5 215.5z" />
    <glyph glyph-name="uni0307" unicode="&#x307;" 
d="M0 1206q-59 0 -98 36.5t-39 94.5q0 57 39 94t98 37t98 -37t39 -94q0 -58 -39 -94.5t-98 -36.5z" />
    <glyph glyph-name="uni0308" unicode="&#x308;" 
d="M215 1221q-52 0 -87.5 33t-35.5 83q0 49 36 83t87 34q50 0 85.5 -34t35.5 -83q0 -50 -35.5 -83t-85.5 -33zM-215 1221q-50 0 -85.5 33t-35.5 83q0 49 35.5 83t85.5 34q51 0 87 -34t36 -83q0 -50 -35.5 -83t-87.5 -33z" />
    <glyph glyph-name="uni0309" unicode="&#x309;" 
d="M-39 1133l-18 63q108 22 108 98q0 42 -37.5 63t-132.5 36l21 137q124 -10 187 -62.5t63 -142.5q0 -78 -51 -130t-140 -62z" />
    <glyph glyph-name="uni030A" unicode="&#x30a;" 
d="M0 1208q53 0 85 38.5t32 88.5q0 51 -31.5 88t-85.5 37q-53 0 -85 -37.5t-32 -87.5q0 -51 31.5 -89t85.5 -38zM0 1126q-88 0 -151.5 56.5t-63.5 152.5q0 92 64 149.5t151 57.5q88 0 151.5 -56t63.5 -151q0 -94 -63.5 -151.5t-151.5 -57.5z" />
    <glyph glyph-name="uni030B" unicode="&#x30b;" 
d="M-229 1161l112 291q35 96 109 96q30 0 50.5 -20.5t20.5 -54.5q0 -48 -45 -105l-190 -240zM61 1161l113 291q35 96 109 96q32 0 52.5 -20.5t20.5 -54.5q0 -46 -47 -105l-190 -240z" />
    <glyph glyph-name="uni030C" unicode="&#x30c;" 
d="M-236 1513l236 -215l236 215l49 -40l-209 -304h-152l-209 304z" />
    <glyph glyph-name="uni031B" unicode="&#x31b;" 
d="M-12 774l-8 55q95 15 139.5 55t44.5 111q0 31 -25.5 81.5t-25.5 78.5q0 27 22.5 50.5t57.5 23.5q44 0 73 -25q29 -63 29 -112q0 -133 -86.5 -219.5t-220.5 -98.5z" />
    <glyph glyph-name="uni0323" unicode="&#x323;" 
d="M0 -416q-59 0 -98 36.5t-39 94.5q0 57 39 94t98 37t98 -37t39 -94q0 -58 -39 -94.5t-98 -36.5z" />
    <glyph glyph-name="uni0324" unicode="&#x324;" 
d="M215 -395q-52 0 -87.5 33t-35.5 83q0 49 36 83t87 34q50 0 85.5 -34t35.5 -83q0 -50 -35.5 -83t-85.5 -33zM-215 -395q-50 0 -85.5 33t-35.5 83q0 49 35.5 83t85.5 34q51 0 87 -34t36 -83q0 -50 -35.5 -83t-87.5 -33z" />
    <glyph glyph-name="uni0326" unicode="&#x326;" 
d="M127 -242q0 -98 -76.5 -165t-197.5 -107l-21 59q60 24 101 50.5t71 66.5q-43 23 -69.5 57.5t-26.5 73.5q0 43 31 72t75 29q50 0 95 -39q18 -55 18 -97z" />
    <glyph glyph-name="uni0327" unicode="&#x327;" 
d="M-53 -176l26 182h76l-16 -125q83 -13 135.5 -55.5t52.5 -112.5q0 -73 -60 -118.5t-169 -45.5q-65 0 -129 19l14 63q49 -6 98 -6q59 0 89 24t30 68q0 46 -35.5 71t-111.5 36z" />
    <glyph glyph-name="uni0328" unicode="&#x328;" 
d="M-199 -270q0 90 60 172t147 125h60q-64 -41 -100 -101.5t-36 -122.5q0 -64 39 -101.5t99 -37.5q57 0 108 31l27 -51q-34 -48 -92 -71.5t-119 -23.5q-86 0 -139.5 48.5t-53.5 132.5z" />
    <glyph glyph-name="uni0329" unicode="&#x329;" 
d="M-74 -545l13 400h122l13 -400h-148z" />
    <glyph glyph-name="uni032E" unicode="&#x32e;" 
d="M-309 -162l61 23q74 -191 248 -191t248 191l61 -23q-15 -128 -95.5 -215.5t-213.5 -87.5t-213.5 87.5t-95.5 215.5z" />
    <glyph glyph-name="uni0331" unicode="&#x331;" 
d="M-268 -360v129h536v-129h-536z" />
    <glyph glyph-name="uni0374" unicode="&#x374;" horiz-adv-x="509" 
d="M133 891l33 588q43 30 100 30q45 0 74 -30.5t29 -75.5q0 -47 -23.5 -129t-69.5 -216q-8 -22 -12 -34q-11 -28 -30 -81t-23 -64z" />
    <glyph glyph-name="uni0375" unicode="&#x375;" horiz-adv-x="509" 
d="M379 332l-33 -588q-44 -31 -100 -31q-45 0 -74 31t-29 76q0 47 23.5 129t69.5 216q8 22 12 34q11 28 30 81t23 64z" />
    <glyph glyph-name="uni037E" unicode="&#x37e;" horiz-adv-x="645" 
d="M317 717q-61 0 -103 42.5t-42 102.5q0 62 42 105t103 43t103.5 -43t42.5 -105q0 -60 -42.5 -102.5t-103.5 -42.5zM446 59q0 -90 -33.5 -174.5t-90 -150t-126 -115.5t-145.5 -78l-28 70q238 120 301 319l-76 60q-78 61 -78 147q0 56 33 92.5t94 36.5q63 0 127 -59
q22 -70 22 -148z" />
    <glyph glyph-name="tonos" unicode="&#x384;" horiz-adv-x="819" 
d="M338 1141q18 54 44 135t30 94q37 113 66 149.5t67 36.5q31 0 50 -18t19 -53q0 -28 -14.5 -64t-60.5 -112q-10 -18 -127 -201z" />
    <glyph glyph-name="dieresistonos" unicode="&#x385;" horiz-adv-x="819" 
d="M356 1155l-63 27q14 41 43 132.5t39 119.5q34 96 61.5 129.5t59.5 33.5q28 0 45.5 -16.5t17.5 -46.5q0 -29 -15.5 -64t-64.5 -116q-39 -71 -123 -199zM674 1233q-42 0 -73.5 29t-31.5 71t31.5 70.5t73.5 28.5q44 0 74 -28t30 -71t-30 -71.5t-74 -28.5zM147 1233
q-43 0 -73.5 29t-30.5 71t30.5 70.5t73.5 28.5q42 0 73.5 -28.5t31.5 -70.5t-31.5 -71t-73.5 -29z" />
    <glyph glyph-name="Alphatonos" unicode="&#x386;" horiz-adv-x="1404" 
d="M74 911q15 94 47 260q22 106 49.5 143.5t65.5 37.5q31 0 53 -19t22 -59t-22 -86q-63 -147 -137 -299zM55 0v84l172 27l437 1269h129l436 -1278l153 -18v-84h-557v84l201 25l-113 335h-475l-114 -333l200 -27v-84h-469zM678 1151l-207 -610h412z" />
    <glyph glyph-name="anoteleia" unicode="&#x387;" horiz-adv-x="614" 
d="M307 707q-61 0 -103 42.5t-42 102.5q0 62 42 104.5t103 42.5t103.5 -42.5t42.5 -104.5q0 -60 -42.5 -102.5t-103.5 -42.5z" />
    <glyph glyph-name="Epsilontonos" unicode="&#x388;" horiz-adv-x="1454" 
d="M-18 911q13 97 45 260q23 106 49.5 143.5t64.5 37.5q31 0 53.5 -19t22.5 -59q0 -36 -20 -86q-32 -73 -138 -299zM500 635v100q0 353 -4 529l-189 22v84h1020l14 -362h-116l-45 260h-482q-4 -174 -4 -520h301l29 194h94v-483h-94l-27 192h-303q0 -379 4 -549h523l45 263
h116l-14 -365h-1061v84l189 22q4 172 4 529z" />
    <glyph glyph-name="Etatonos" unicode="&#x389;" horiz-adv-x="1830" 
d="M-18 911q13 97 45 260q23 106 49.5 143.5t64.5 37.5q31 0 53.5 -19t22.5 -59q0 -36 -20 -86q-32 -73 -138 -299zM500 635v100q0 353 -4 529l-189 22v84h578v-84l-187 -20q-4 -174 -4 -516h662q0 348 -4 514l-189 22v84h578v-84l-189 -22q-4 -172 -4 -529v-100
q0 -353 4 -529l189 -22v-84h-578v84l189 22q4 174 4 547h-662q0 -381 4 -549l187 -20v-84h-578v84l189 22q4 172 4 529z" />
    <glyph glyph-name="Iotatonos" unicode="&#x38a;" horiz-adv-x="976" 
d="M-18 911q13 97 45 260q23 106 49.5 143.5t64.5 37.5q31 0 53.5 -19t22.5 -59q0 -36 -20 -86q-32 -73 -138 -299zM500 635v100q0 353 -4 529l-189 22v84h580v-84l-189 -22q-4 -172 -4 -529v-100q0 -353 4 -529l189 -22v-84h-580v84l189 22q4 172 4 529z" />
    <glyph glyph-name="Omicrontonos" unicode="&#x38c;" horiz-adv-x="1587" 
d="M-18 911q13 97 45 260q23 106 49.5 143.5t64.5 37.5q31 0 53.5 -19t22.5 -59q0 -36 -20 -86q-32 -73 -138 -299zM461 686q0 -120 24 -227t71 -195t127 -140t183 -52t182.5 52t126 140t70 195t23.5 227q0 95 -14 182t-45.5 166t-77.5 137t-114 92.5t-151 34.5
q-103 0 -183 -52t-127 -139.5t-71 -194.5t-24 -226zM866 1401q120 0 231 -47t200 -134.5t142.5 -226t53.5 -307.5q0 -132 -34.5 -247.5t-95 -200.5t-140 -146t-171 -92t-186.5 -31q-97 0 -188 29t-171 89t-140 143.5t-94.5 201t-34.5 254.5q0 163 53.5 300.5t142 226.5
t200.5 138.5t232 49.5z" />
    <glyph glyph-name="Upsilontonos" unicode="&#x38e;" horiz-adv-x="1574" 
d="M-18 911q13 97 45 260q23 106 49.5 143.5t64.5 37.5q31 0 53.5 -19t22.5 -59q0 -36 -20 -86q-32 -73 -138 -299zM1085 1286v84h469v-84l-180 -26l-348 -721q0 -302 4 -433l209 -22v-84h-618v84l208 22q5 159 5 424l-363 738l-162 18v84h578v-84l-195 -22l285 -621
l293 619z" />
    <glyph glyph-name="Omegatonos" unicode="&#x38f;" horiz-adv-x="1609" 
d="M-27 911q13 97 45 260q23 106 50 143.5t65 37.5q33 0 54.5 -19t21.5 -59q0 -34 -21 -86q-51 -115 -137 -299zM864 1298q-125 0 -217.5 -70.5t-138 -188t-45.5 -265.5q0 -185 83 -358t220 -279v-137h-549l-18 350h123l47 -203h256v7q-162 115 -261.5 274t-99.5 344
q0 119 31.5 221.5t87.5 176.5t132 126.5t164.5 78.5t184.5 26q122 0 230 -41.5t191.5 -119t132 -198t48.5 -268.5q0 -185 -98.5 -345.5t-261.5 -274.5v-7h256l47 203h123l-19 -350h-548v137q137 106 220 279t83 358q0 148 -46 265.5t-139 188t-219 70.5z" />
    <glyph glyph-name="iotadieresistonos" unicode="&#x390;" horiz-adv-x="587" 
d="M391 -27q-95 0 -138.5 67.5t-45.5 215.5l-6 705l178 36l20 -20q-7 -93 -16.5 -212.5t-13.5 -173t-8.5 -120.5t-6 -109t-0.5 -83q3 -94 26 -129t73 -35q36 0 88 18l16 -51q-26 -48 -69.5 -78.5t-96.5 -30.5zM287 1155l-64 27q14 41 43 132.5t39 119.5q34 96 61.5 129.5
t59.5 33.5q28 0 45.5 -16.5t17.5 -46.5t-15 -65t-64 -115q-39 -71 -123 -199zM604 1233q-42 0 -73 29t-31 71t31 70.5t73 28.5q45 0 75 -28t30 -71t-30.5 -71.5t-74.5 -28.5zM78 1233q-43 0 -74 29t-31 71t31 70.5t74 28.5q42 0 73 -28.5t31 -70.5t-31 -71t-73 -29z" />
    <glyph glyph-name="Alpha" unicode="&#x391;" horiz-adv-x="1359" 
d="M633 1151l-207 -610h412zM10 0v84l172 27l436 1269h130l436 -1278l153 -18v-84h-557v84l201 25l-113 335h-475l-114 -333l200 -27v-84h-469z" />
    <glyph glyph-name="Beta" unicode="&#x392;" horiz-adv-x="1288" 
d="M283 635v100q0 353 -4 529l-189 22v84h594q209 0 327.5 -92t118.5 -242q0 -116 -77.5 -202.5t-239.5 -120.5q196 -28 291.5 -117.5t95.5 -220.5q0 -73 -31 -137.5t-94 -119t-171.5 -86.5t-250.5 -32h-563v84l189 22q4 172 4 529zM590 662h-113q0 -392 4 -566h125
q194 0 291.5 71.5t97.5 207.5q0 145 -98 216t-307 71zM623 1276h-142q-4 -176 -4 -520h107q186 0 270 63t84 203q0 136 -77 195t-238 59z" />
    <glyph glyph-name="Gamma" unicode="&#x393;" horiz-adv-x="1146" 
d="M90 1286v84h981l14 -405h-116l-56 303h-432q-4 -174 -4 -533v-102q0 -351 4 -527l191 -22v-84h-582v84l189 22q4 172 4 527v102q0 353 -4 529z" />
    <glyph glyph-name="Delta" unicode="&#x2206;" horiz-adv-x="1306" 
d="M51 0v86l545 1294h127l522 -1294v-86h-1194zM188 168h820l-400 993z" />
    <glyph glyph-name="Delta" unicode="&#x394;" horiz-adv-x="1306" 
d="M51 0v86l545 1294h127l522 -1294v-86h-1194zM188 168h820l-400 993z" />
    <glyph glyph-name="Epsilon" unicode="&#x395;" horiz-adv-x="1234" 
d="M283 635v100q0 353 -4 529l-189 22v84h1020l14 -362h-116l-45 260h-482q-4 -174 -4 -520h301l29 194h94v-483h-94l-27 192h-303q0 -379 4 -549h523l45 263h116l-14 -365h-1061v84l189 22q4 172 4 529z" />
    <glyph glyph-name="Zeta" unicode="&#x396;" horiz-adv-x="1128" 
d="M186 1006h-125l17 364h964v-72l-772 -1196h637l56 263h124l-16 -365h-1030v74l776 1194h-575z" />
    <glyph glyph-name="Eta" unicode="&#x397;" horiz-adv-x="1615" 
d="M283 635v100q0 353 -4 529l-189 22v84h578v-84l-187 -20q-4 -174 -4 -516h662q0 348 -4 514l-189 22v84h578v-84l-189 -22q-4 -172 -4 -529v-100q0 -353 4 -529l189 -22v-84h-578v84l189 22q4 174 4 547h-662q0 -381 4 -549l187 -20v-84h-578v84l189 22q4 172 4 529z" />
    <glyph glyph-name="Theta" unicode="&#x398;" horiz-adv-x="1447" 
d="M909 518l-22 117h-324l-22 -117h-95v365h95l22 -119h324l22 119h92v-365h-92zM725 72q87 0 157.5 34.5t117 92.5t78 137.5t45.5 166.5t14 183q0 95 -14 181.5t-45.5 166t-78 137.5t-117 92.5t-157.5 34.5q-108 0 -190 -51.5t-129.5 -140t-71 -194.5t-23.5 -226
q0 -121 23.5 -227t71 -195t129.5 -140.5t190 -51.5zM725 -31q-97 0 -188 29t-171 89t-140 143.5t-95 201t-35 254.5q0 131 35 246.5t95.5 200t140 146t171.5 92t187 30.5q120 0 231 -47t200 -134.5t142.5 -226t53.5 -307.5q0 -132 -34.5 -247.5t-95 -200.5t-140 -146
t-171 -92t-186.5 -31z" />
    <glyph glyph-name="Iota" unicode="&#x399;" horiz-adv-x="759" 
d="M283 635v100q0 353 -4 529l-189 22v84h580v-84l-189 -22q-4 -172 -4 -529v-100q0 -353 4 -529l189 -22v-84h-580v84l189 22q4 172 4 529z" />
    <glyph glyph-name="Kappa" unicode="&#x39a;" horiz-adv-x="1366" 
d="M283 635v100q0 353 -4 529l-189 22v84h578v-84l-195 -22q-4 -174 -4 -529v-129l532 651l-147 29v84h471v-84l-199 -26l-342 -412l414 -744l158 -20v-84h-527v84l168 20l-325 609l-203 -244q0 -236 4 -363l195 -22v-84h-578v84l189 22q4 172 4 529z" />
    <glyph glyph-name="Lambda" unicode="&#x39b;" horiz-adv-x="1357" 
d="M618 1380h127l437 -1278l155 -18v-84h-559v84l203 25l-348 1036l-352 -1034l198 -27v-84h-469v84l170 27z" />
    <glyph glyph-name="Mu" unicode="&#x39c;" horiz-adv-x="1847" 
d="M80 0v84l184 27v1153l-184 22v84h379l459 -1126l434 1126h403v-84l-188 -22q-4 -172 -4 -529v-100q0 -353 4 -529l188 -22v-84h-557v84l172 22q4 172 4 527v510l-444 -1143h-103l-469 1143l13 -387v-645l168 -27v-84h-459z" />
    <glyph glyph-name="Nu" unicode="&#x39d;" horiz-adv-x="1505" 
d="M930 1286v84h493v-84l-174 -26v-1274h-71l-820 1116v-989l217 -29v-84h-495v84l174 25v1136l-18 25l-146 16v84h316l739 -1016v906z" />
    <glyph glyph-name="Xi" unicode="&#x39e;" horiz-adv-x="1198" 
d="M848 500l-23 135h-452l-23 -135h-92v395h92l23 -123h452l23 123h92v-395h-92zM117 1370h964l15 -371h-109l-37 213h-702l-37 -213h-109zM1110 0h-1024l-14 371h108l37 -211h764l37 211h106z" />
    <glyph glyph-name="Omicron" unicode="&#x39f;" horiz-adv-x="1447" 
d="M319 686q0 -120 24 -227t71.5 -195t127.5 -140t183 -52q83 0 151 34.5t113.5 92.5t77 137.5t45.5 167t14 182.5t-14 182t-45.5 166t-77 137t-113.5 92.5t-151 34.5q-103 0 -183 -52t-127.5 -139.5t-71.5 -194.5t-24 -226zM725 1401q120 0 231 -47t200 -134.5t142.5 -226
t53.5 -307.5q0 -132 -34.5 -247.5t-95 -200.5t-140 -146t-171 -92t-186.5 -31q-97 0 -188 29t-171 89t-140 143.5t-95 201t-35 254.5q0 131 35 246.5t95.5 200t140 146t171.5 92t187 30.5z" />
    <glyph glyph-name="Pi" unicode="&#x3a0;" horiz-adv-x="1574" 
d="M283 635v100q0 353 -4 531l-187 20v84h1393v-84l-189 -22q-4 -172 -4 -529v-100q0 -353 4 -529l189 -22v-84h-578v84l189 22q4 174 4 568v61q0 355 -4 531h-615q-4 -174 -4 -531v-61q0 -392 4 -570l187 -20v-84h-578v84l189 22q4 172 4 529z" />
    <glyph glyph-name="Rho" unicode="&#x3a1;" horiz-adv-x="1206" 
d="M283 635v100q0 353 -4 529l-189 22v84h551q253 0 386.5 -110.5t133.5 -296.5q0 -71 -19.5 -132t-63 -115t-109.5 -92.5t-164 -60.5t-221 -22h-107q0 -288 4 -435l191 -22v-84h-582v84l189 22q4 172 4 529zM604 1276h-123q-4 -176 -4 -541v-98h135q178 0 262 86.5
t84 239.5q0 313 -354 313z" />
    <glyph glyph-name="Sigma" unicode="&#x3a3;" horiz-adv-x="1107" 
d="M1030 0h-989v117l459 565l-439 614v74h934l17 -366h-125l-56 264h-540l383 -541l-445 -559h637l56 266h125z" />
    <glyph glyph-name="Tau" unicode="&#x3a4;" horiz-adv-x="1236" 
d="M522 635v100q0 355 -4 533h-313l-45 -262h-119l16 364h1123l16 -364h-119l-45 262h-313q-4 -174 -4 -533v-100q0 -353 4 -529l209 -22v-84h-619v84l209 22q4 174 4 529z" />
    <glyph glyph-name="Upsilon" unicode="&#x3a5;" horiz-adv-x="1296" 
d="M807 1286v84h469v-84l-180 -26l-348 -721q0 -302 4 -433l209 -22v-84h-619v84l209 22q4 127 4 424l-362 738l-162 18v84h577v-84l-194 -22l284 -621l293 619z" />
    <glyph glyph-name="Phi" unicode="&#x3a6;" horiz-adv-x="1468" 
d="M446 1311v84h576v-84l-199 -25q0 -80 -2 -121q134 -1 244.5 -39t181.5 -102t109.5 -147.5t38.5 -176.5q0 -98 -33.5 -182.5t-100.5 -152.5t-180 -107t-260 -39q0 -23 1 -68.5t1 -66.5l199 -25v-84h-576v84l197 23q2 45 2 137q-147 1 -259.5 40t-179 107t-99.5 152
t-33 182q0 94 38.5 177.5t109 148t180 102t243.5 37.5q0 82 -2 123zM274 702q0 -173 97.5 -281t275.5 -108v322v100v336q-181 -1 -277 -99.5t-96 -269.5zM819 635q0 -211 2 -322q119 1 204.5 52.5t127 138t41.5 198.5q0 172 -96.5 270.5t-276.5 98.5q-2 -111 -2 -332v-104z
" />
    <glyph glyph-name="Chi" unicode="&#x3a7;" horiz-adv-x="1327" 
d="M39 1286v84h575v-84l-180 -20l262 -439l273 435l-174 24v84h469v-84l-181 -22l-335 -521l385 -639l176 -20v-84h-580v84l189 22l-287 476l-301 -476l159 -22v-84h-469v84l195 25l367 555l-363 602z" />
    <glyph glyph-name="Psi" unicode="&#x3a8;" horiz-adv-x="1576" 
d="M182 1036l-22 144q-8 49 -26.5 71.5t-59.5 28.5l-56 6v84h105q65 0 106 -12.5t67.5 -44t39.5 -74.5t22 -115l11 -86q10 -88 22 -144.5t34 -110t56 -84.5t86 -52.5t125 -28.5v17v100q0 355 -4 531l-168 20v84h535v-84l-166 -20q-4 -174 -4 -531v-100v-17q73 7 125 28.5
t86 52.5t56 84.5t34 110t22 144.5l11 86q8 72 20.5 115.5t39 74.5t68 43.5t107.5 12.5h102v-84l-53 -6q-43 -6 -61.5 -28.5t-26.5 -71.5l-22 -144q-22 -139 -54 -228t-90 -153.5t-145.5 -94.5t-218.5 -38q0 -279 4 -416l188 -22v-84h-577v84l188 22q4 137 4 416
q-131 8 -218.5 38.5t-146.5 94.5t-91 153.5t-54 227.5z" />
    <glyph glyph-name="Omega" unicode="&#x2126;" horiz-adv-x="1488" 
d="M743 1298q-125 0 -217.5 -70.5t-138 -188t-45.5 -265.5q0 -185 83 -358t220 -279v-137h-549l-18 350h123l47 -203h256v7q-162 115 -261.5 274t-99.5 344q0 119 31.5 221.5t87.5 176.5t132 126.5t164.5 78.5t184.5 26q97 0 186.5 -26t165 -78.5t132 -126t88 -175.5
t31.5 -221q0 -185 -99 -345.5t-262 -274.5v-7h256l47 203h123l-18 -350h-549v137q137 106 220 279t83 358q0 148 -46 265.5t-139 188t-219 70.5z" />
    <glyph glyph-name="Omega" unicode="&#x3a9;" horiz-adv-x="1488" 
d="M743 1298q-125 0 -217.5 -70.5t-138 -188t-45.5 -265.5q0 -185 83 -358t220 -279v-137h-549l-18 350h123l47 -203h256v7q-162 115 -261.5 274t-99.5 344q0 119 31.5 221.5t87.5 176.5t132 126.5t164.5 78.5t184.5 26q97 0 186.5 -26t165 -78.5t132 -126t88 -175.5
t31.5 -221q0 -185 -99 -345.5t-262 -274.5v-7h256l47 203h123l-18 -350h-549v137q137 106 220 279t83 358q0 148 -46 265.5t-139 188t-219 70.5z" />
    <glyph glyph-name="Iotadieresis" unicode="&#x3aa;" horiz-adv-x="759" 
d="M283 635v100q0 353 -4 529l-189 22v84h580v-84l-189 -22q-4 -172 -4 -529v-100q0 -353 4 -529l189 -22v-84h-580v84l189 22q4 172 4 529zM152 1524q-49 0 -84 32t-35 80t35.5 80.5t83.5 32.5q50 0 83 -32t33 -81t-33 -80.5t-83 -31.5zM608 1524q-50 0 -83 31.5t-33 80.5
t33 81t83 32q48 0 83.5 -32.5t35.5 -80.5t-35 -80t-84 -32z" />
    <glyph glyph-name="Upsilondieresis" unicode="&#x3ab;" horiz-adv-x="1296" 
d="M807 1286v84h469v-84l-180 -26l-348 -721q0 -302 4 -433l209 -22v-84h-619v84l209 22q4 127 4 424l-362 738l-162 18v84h577v-84l-194 -22l284 -621l293 619zM481 1524q-49 0 -84 32t-35 80t35.5 80.5t83.5 32.5q50 0 83.5 -32t33.5 -81t-33.5 -80.5t-83.5 -31.5z
M938 1524q-50 0 -83.5 31.5t-33.5 80.5t33.5 81t83.5 32q48 0 83.5 -32.5t35.5 -80.5t-35 -80t-84 -32z" />
    <glyph glyph-name="alphatonos" unicode="&#x3ac;" horiz-adv-x="1142" 
d="M260 516q0 -216 70 -329t192 -113q96 0 171 86.5t79 218.5l10 276q-32 119 -101 183.5t-159 64.5q-126 0 -194 -110t-68 -277zM485 -27q-176 0 -290.5 131.5t-114.5 370.5q0 119 39.5 220t103 166.5t142.5 101.5t161 36q184 0 265 -172l10 123l155 39l31 -20
q-67 -471 -67 -709q0 -81 20.5 -113t67.5 -32q36 0 88 18l16 -51q-26 -49 -70 -79t-96 -30q-60 0 -97 40.5t-54 133.5q-99 -174 -310 -174zM520 1141q18 54 44 135t30 94q37 113 66 149.5t67 36.5q31 0 50.5 -18t19.5 -53q0 -27 -15 -63t-61 -113q-10 -18 -127 -201z" />
    <glyph glyph-name="epsilontonos" unicode="&#x3ad;" horiz-adv-x="856" 
d="M82 240q0 101 77 169t216 91q-123 25 -186.5 88.5t-63.5 148.5q0 116 98 189t275 73q221 0 293 -104q0 -40 -27 -70t-70 -30q-33 0 -66 15t-83 52l-82 62q-76 -5 -127 -47t-51 -115q0 -84 68 -135.5t206 -51.5q28 0 78 5v-136q-34 5 -57 5q-318 0 -318 -175
q0 -78 60.5 -126t164.5 -48q89 0 160 25.5t152 83.5l41 -49q-64 -86 -164.5 -136.5t-224.5 -50.5q-159 0 -264 71t-105 196zM414 1141q18 56 43.5 137t29.5 92q37 113 66.5 149.5t67.5 36.5q31 0 50 -18t19 -53q0 -27 -15 -63t-61 -113q-10 -18 -127 -201z" />
    <glyph glyph-name="etatonos" unicode="&#x3ae;" horiz-adv-x="1126" 
d="M797 -369l26 392l21 600q3 117 -47.5 173t-143.5 56q-77 0 -156.5 -59t-125.5 -144l10 -649l-168 -20l-20 20l26 371l6 387q0 49 -16.5 73.5t-58.5 24.5q-26 0 -80 -8l-23 61q35 43 69 64.5t83 21.5q81 0 121.5 -57t48.5 -180q54 109 149.5 175t183.5 66q128 0 196 -82.5
t71 -275.5l16 -993l-168 -37zM528 1141q18 54 44 135t30 94q37 113 66 149.5t67 36.5q31 0 50.5 -18t19.5 -53q0 -27 -15 -63t-61 -113q-10 -18 -127 -201z" />
    <glyph glyph-name="iotatonos" unicode="&#x3af;" horiz-adv-x="587" 
d="M391 -27q-95 0 -138.5 67.5t-45.5 215.5l-6 705l178 36l20 -20q-7 -93 -16.5 -212.5t-13.5 -173t-8.5 -120.5t-6 -109t-0.5 -83q3 -94 26 -129t73 -35q36 0 88 18l16 -51q-26 -48 -69.5 -78.5t-96.5 -30.5zM236 1141q18 56 43.5 137t29.5 92q37 113 66 149.5t67 36.5
q31 0 50.5 -18t19.5 -53q0 -27 -15 -63t-61 -113q-10 -18 -127 -201z" />
    <glyph glyph-name="upsilondieresistonos" unicode="&#x3b0;" horiz-adv-x="1110" 
d="M199 338q0 81 13 205.5t13 177.5q0 76 -14.5 104.5t-65.5 28.5q-25 0 -75 -8l-23 61q66 86 180 86q92 0 127 -56t35 -192q0 -58 -15.5 -180.5t-15.5 -202.5q0 -134 67 -205t181 -71q130 0 214.5 100t84.5 275q0 67 -4 112q-76 160 -97.5 216t-21.5 98q0 52 31 82t78 30
q45 0 76 -28q27 -107 34 -203t7 -250q0 -117 -22.5 -209.5t-62.5 -155t-96 -103.5t-121 -59t-141 -18q-166 0 -266 91.5t-100 273.5zM498 1157l-64 27q14 41 43 132.5t39 119.5q34 96 61.5 129.5t59.5 33.5q28 0 45.5 -16.5t17.5 -46.5t-15 -65t-64 -115q-39 -71 -123 -199z
M289 1235q-43 0 -74 29t-31 71t31 70.5t74 28.5q42 0 73 -28.5t31 -70.5t-31 -71t-73 -29zM815 1235q-42 0 -73 29t-31 71t31 70.5t73 28.5q45 0 75 -28t30 -71t-30.5 -71.5t-74.5 -28.5z" />
    <glyph glyph-name="alpha" unicode="&#x3b1;" horiz-adv-x="1142" 
d="M260 516q0 -216 70 -329t192 -113q96 0 171 86.5t79 218.5l10 276q-32 119 -101 183.5t-159 64.5q-126 0 -194 -110t-68 -277zM485 -27q-176 0 -290.5 131.5t-114.5 370.5q0 119 39.5 220t103 166.5t142.5 101.5t161 36q184 0 265 -172l10 123l155 39l31 -20
q-67 -471 -67 -709q0 -81 20.5 -113t67.5 -32q36 0 88 18l16 -51q-26 -49 -70 -79t-96 -30q-60 0 -97 40.5t-54 133.5q-99 -174 -310 -174z" />
    <glyph glyph-name="beta" unicode="&#x3b2;" horiz-adv-x="1161" 
d="M342 1069v-854q127 -100 272 -100q143 0 219 81t76 218q0 66 -19.5 121t-62.5 100.5t-121.5 69.5t-185.5 20l-22 115q145 27 226 109.5t81 215.5q0 117 -57.5 186.5t-159.5 69.5q-112 0 -179 -93.5t-67 -258.5zM162 -369l12 394l2 991q0 225 122 361t312 136
q159 0 262 -92t103 -250q0 -54 -18 -110t-53.5 -110.5t-99 -98.5t-145.5 -66q420 -36 420 -385q0 -82 -23.5 -152.5t-64 -120.5t-94 -85.5t-114.5 -52.5t-126 -17q-95 0 -181.5 40t-147.5 124l30 -489l-172 -37z" />
    <glyph glyph-name="gamma" unicode="&#x3b3;" horiz-adv-x="1005" 
d="M401 -369l39 385q-18 75 -44.5 164.5t-42.5 139.5t-55 164t-48 141q-45 132 -76.5 178.5t-83.5 46.5q-32 0 -65 -8l-25 61q79 86 168 86q35 0 60 -9t53.5 -36.5t56.5 -84t57 -146.5q79 -242 152 -572q131 249 219 488q-23 180 -23 231q0 68 28.5 103.5t78.5 35.5
q47 0 74 -24q10 -38 10 -90q0 -261 -361 -862l9 -375l-162 -37z" />
    <glyph glyph-name="delta" unicode="&#x3b4;" horiz-adv-x="1062" 
d="M80 463q0 117 43 219t135 176.5t219 97.5q-66 42 -110.5 76t-88.5 77t-66 89.5t-22 95.5q0 105 100.5 162t256.5 57q116 0 219.5 -40.5t163.5 -122.5q0 -50 -29.5 -79.5t-73.5 -29.5q-62 0 -147 74l-131 117q-115 -3 -167 -31t-52 -98q0 -36 17 -68t57.5 -68t82.5 -66.5
t116 -80.5q16 -11 24 -16q211 -145 283.5 -258t72.5 -293q0 -82 -32 -166t-89 -154.5t-147 -115t-195 -44.5q-193 0 -316.5 140.5t-123.5 349.5zM260 479q0 -178 79.5 -294.5t201.5 -116.5q126 0 194 99t68 263q0 173 -51.5 272.5t-200.5 200.5q-157 -44 -224 -147.5
t-67 -276.5z" />
    <glyph glyph-name="epsilon" unicode="&#x3b5;" horiz-adv-x="856" 
d="M82 240q0 101 77 169t216 91q-123 25 -186.5 88.5t-63.5 148.5q0 116 98 189t275 73q221 0 293 -104q0 -40 -27 -70t-70 -30q-33 0 -66 15t-83 52l-82 62q-76 -5 -127 -47t-51 -115q0 -84 68 -135.5t206 -51.5q28 0 78 5v-136q-34 5 -57 5q-318 0 -318 -175
q0 -78 60.5 -126t164.5 -48q89 0 160 25.5t152 83.5l41 -49q-64 -86 -164.5 -136.5t-224.5 -50.5q-159 0 -264 71t-105 196z" />
    <glyph glyph-name="zeta" unicode="&#x3b6;" horiz-adv-x="860" 
d="M403 -391l-8 135q157 15 240.5 48.5t83.5 80.5q0 40 -36.5 65.5t-145.5 51.5l-191 45q-254 60 -254 301q0 158 150 410.5t442 623.5l-559 -18v159l686 -18l8 -111q-122 -165 -194.5 -267t-150 -221.5t-118 -200.5t-66.5 -163.5t-26 -152.5q0 -79 46.5 -130.5t166.5 -80.5
l125 -29q234 -59 234 -235q0 -58 -27 -109.5t-79 -93t-136.5 -66t-190.5 -24.5z" />
    <glyph glyph-name="eta" unicode="&#x3b7;" horiz-adv-x="1126" 
d="M797 -369l26 392l21 600q3 117 -47.5 173t-143.5 56q-77 0 -156.5 -59t-125.5 -144l10 -649l-168 -20l-20 20l26 371l6 387q0 49 -16.5 73.5t-58.5 24.5q-26 0 -80 -8l-23 61q35 43 69 64.5t83 21.5q81 0 121.5 -57t48.5 -180q54 109 149.5 175t183.5 66q128 0 196 -82.5
t71 -275.5l16 -993l-168 -37z" />
    <glyph glyph-name="theta" unicode="&#x3b8;" horiz-adv-x="1046" 
d="M526 -27q-69 0 -129 22t-116 76t-95 137.5t-62.5 213.5t-23.5 297q0 175 23 312.5t61.5 227t94 147.5t117 82.5t132.5 24.5q70 0 131 -26t114.5 -86t91 -150t59.5 -224.5t22 -303.5q0 -750 -420 -750zM518 1421q-82 0 -134 -51.5t-83.5 -189.5t-34.5 -375h514
q-10 307 -84 461.5t-178 154.5zM549 66q58 0 98.5 28t71.5 96t46.5 189.5t16.5 302.5h-514q4 -161 28 -282t63 -192.5t86.5 -106.5t103.5 -35z" />
    <glyph glyph-name="iota" unicode="&#x3b9;" horiz-adv-x="587" 
d="M391 -27q-95 0 -138.5 67.5t-45.5 215.5l-6 705l178 36l20 -20q-7 -93 -16.5 -212.5t-13.5 -173t-8.5 -120.5t-6 -109t-0.5 -83q3 -94 26 -129t73 -35q36 0 88 18l16 -51q-26 -48 -69.5 -78.5t-96.5 -30.5z" />
    <glyph glyph-name="kappa" unicode="&#x3ba;" horiz-adv-x="1085" 
d="M190 0l29 367l6 391q0 49 -16.5 73.5t-58.5 24.5q-26 0 -80 -8l-23 61q34 42 68.5 63t85.5 21q88 0 129 -67.5t41 -216.5v-273q74 141 173.5 266.5t190.5 198.5q63 48 110.5 71t100.5 29q80 -18 80 -92q0 -108 -164 -114l-114 -7q-90 -76 -191 -188q21 -39 51.5 -94
t47 -85.5t40.5 -72.5t38.5 -64t34.5 -50.5t35 -42.5t34 -27.5t37 -19t38 -5.5q65 0 103 15l16 -54q-23 -59 -65.5 -93t-89.5 -34q-36 0 -66.5 18t-74.5 73.5t-102 163.5t-140 282q-125 -203 -127 -207q-3 -50 -11.5 -151.5t-11.5 -151.5l-135 -20z" />
    <glyph glyph-name="lambda" unicode="&#x3bb;" horiz-adv-x="1091" 
d="M729 276l-137 529l-350 -825l-172 12l-15 26l471 981l-57 158q-37 104 -84 141t-129 37q-93 0 -172 -49l-43 88q83 139 225 139q207 0 291 -266l295 -928q34 -103 68.5 -141.5t83.5 -38.5q32 0 88 17l20 -52q-25 -57 -68.5 -94t-89.5 -37q-34 0 -61 11.5t-56 42t-56 93
t-52 156.5z" />
    <glyph glyph-name="nu" unicode="&#x3bd;" horiz-adv-x="1005" 
d="M451 -6q-18 69 -37 136t-45.5 148t-41 123.5t-50.5 144.5t-46 130q-33 95 -64.5 134.5t-78.5 39.5q-29 0 -65 -8l-23 61q37 40 84 63t90 23q71 0 125 -68t100 -223q110 -363 146 -557q126 233 219 482q-21 164 -21 237q0 68 28.5 103.5t78.5 35.5q47 0 74 -24
q10 -38 10 -90q0 -151 -111 -392t-270 -493z" />
    <glyph glyph-name="xi" unicode="&#x3be;" horiz-adv-x="897" 
d="M440 -391l-8 135q155 15 239.5 48.5t84.5 80.5q0 41 -35 67.5t-143 49.5l-179 37q-290 60 -290 340q0 141 107.5 241.5t281.5 130.5q-152 29 -224.5 113.5t-72.5 194.5q0 123 90 208.5t235 124.5l-444 -22v145l776 -10l-8 -117q-239 0 -366.5 -85t-127.5 -216
q0 -45 18 -86.5t55 -78t104 -58.5t155 -21h109v-159q-62 6 -127 6q-107 0 -187.5 -23.5t-125.5 -64.5t-67 -90t-22 -105q0 -95 51.5 -151t192.5 -84l131 -25q118 -24 173.5 -84.5t55.5 -148.5q0 -121 -112.5 -207t-319.5 -86z" />
    <glyph glyph-name="omicron" unicode="&#x3bf;" horiz-adv-x="1064" 
d="M516 -27q-90 0 -168.5 32.5t-138.5 94t-94.5 158.5t-34.5 217t39.5 220.5t106 166t150.5 101.5t175 36q185 0 308.5 -134.5t123.5 -364.5q0 -120 -39.5 -221t-105 -167t-149 -102.5t-173.5 -36.5zM543 68q127 0 194.5 107.5t67.5 275.5q0 214 -80 334t-205 120
q-126 0 -193 -110t-67 -279q0 -214 80 -331t203 -117z" />
    <glyph glyph-name="pi" unicode="&#x3c0;" horiz-adv-x="1214" 
d="M55 788l-16 76q80 62 159 85.5t234 23.5h717l8 -148l-264 9l16 -547q3 -99 32.5 -135.5t92.5 -36.5q38 0 90 18l17 -51q-38 -57 -80.5 -83t-102.5 -26q-106 0 -156 62t-50 190q0 224 22 611h-330q-4 -419 -18 -617q-10 -129 -62 -187.5t-145 -58.5q-56 0 -90.5 28
t-34.5 75q0 59 43 96q88 17 180 25q24 257 35 634z" />
    <glyph glyph-name="rho" unicode="&#x3c1;" horiz-adv-x="1112" 
d="M322 530l-9 -323q67 -61 130 -91t143 -30q133 0 199.5 100t66.5 263q0 98 -18 178t-46.5 130.5t-66.5 85t-76 48.5t-76 14q-238 0 -247 -375zM141 -369l6 394l3 424q1 269 125 409.5t335 140.5q179 0 300.5 -137t121.5 -364q0 -124 -37.5 -225.5t-100 -166t-140 -99
t-160.5 -34.5q-84 0 -159.5 40.5t-131.5 117.5l35 -483l-172 -37z" />
    <glyph glyph-name="uni03C2" unicode="&#x3c2;" horiz-adv-x="935" 
d="M403 -391l-10 135q158 15 242 48.5t84 80.5q0 39 -36.5 64t-147.5 53l-134 35q-150 38 -230.5 142t-80.5 306q0 239 135.5 382.5t360.5 143.5q193 0 278 -133q2 -47 -25 -76.5t-73 -29.5q-32 0 -58 12.5t-61 46.5l-108 103q-132 -19 -205.5 -118.5t-73.5 -281.5
q0 -110 25.5 -183.5t71.5 -113t118 -59.5l131 -33q125 -34 177.5 -87t52.5 -144q0 -121 -113 -207t-320 -86z" />
    <glyph glyph-name="sigma" unicode="&#x3c3;" horiz-adv-x="1218" 
d="M532 -27q-205 0 -328.5 133t-123.5 353q0 125 41 225t112.5 163t165 96t201.5 34l569 2l9 -162l-453 37q121 -60 190.5 -171.5t69.5 -233.5q0 -131 -58 -240t-162.5 -172.5t-232.5 -63.5zM260 498q0 -196 81.5 -313t197.5 -117q126 0 201 101.5t75 293.5q0 83 -27 162
t-89.5 148t-151.5 99q-146 -19 -216.5 -111t-70.5 -263z" />
    <glyph glyph-name="tau" unicode="&#x3c4;" horiz-adv-x="1007" 
d="M55 788l-16 76q80 63 174.5 86t259.5 23h469l8 -148l-391 9l8 -547q1 -98 31 -135t94 -37q38 0 90 18l17 -51q-38 -57 -80.5 -83t-102.5 -26q-105 0 -155.5 62t-50.5 190q0 147 39 604z" />
    <glyph glyph-name="upsilon" unicode="&#x3c5;" horiz-adv-x="1110" 
d="M199 338q0 81 13 205.5t13 177.5q0 76 -14.5 104.5t-65.5 28.5q-25 0 -75 -8l-23 61q66 86 180 86q92 0 127 -56t35 -192q0 -58 -15.5 -180.5t-15.5 -202.5q0 -134 67 -205t181 -71q130 0 214.5 100t84.5 275q0 67 -4 112q-76 160 -97.5 216t-21.5 98q0 52 31 82t78 30
q45 0 76 -28q27 -107 34 -203t7 -250q0 -117 -22.5 -209.5t-62.5 -155t-96 -103.5t-121 -59t-141 -18q-166 0 -266 91.5t-100 273.5z" />
    <glyph glyph-name="phi" unicode="&#x3c6;" horiz-adv-x="1433" 
d="M262 492q0 -202 100.5 -309.5t280.5 -116.5l16 839q-202 -4 -299.5 -113t-97.5 -300zM1171 485q0 200 -102.5 306t-284.5 114l4 -839q186 7 284.5 115.5t98.5 303.5zM614 -395l25 368q-268 10 -413.5 144.5t-145.5 361.5q0 96 35 185t103 164.5t183 122t261 48.5l6 277
h114l2 -277q276 -7 423 -141.5t147 -365.5q0 -94 -33 -182t-98.5 -163t-177 -122.5t-254.5 -51.5l18 -346l-174 -37z" />
    <glyph glyph-name="chi" unicode="&#x3c7;" horiz-adv-x="999" 
d="M33 838l-23 71q72 86 154 86q81 0 137 -61.5t107 -198.5l96 -274l268 526l150 -10l16 -27l-371 -649l131 -315q53 -128 104 -180t118 -52q35 0 94 19l16 -56q-56 -108 -168 -108q-94 0 -149.5 73t-104.5 226l-92 299l-307 -592l-141 18l-15 27l404 711l-129 288
q-42 93 -67 132t-51 52t-75 13t-102 -18z" />
    <glyph glyph-name="psi" unicode="&#x3c8;" horiz-adv-x="1482" 
d="M705 -393l12 366q-236 5 -367 105t-131 289q0 64 3 181t3 173q0 76 -14.5 104.5t-65.5 28.5q-25 0 -75 -8l-23 61q30 39 73 62.5t89 23.5q99 0 139.5 -55t40.5 -193q0 -63 -5 -183t-5 -197q0 -271 340 -285l16 1175h117l18 -1175q119 9 197 57t124 150.5t56 267.5
q-90 243 -101 301q-3 16 -3 27q0 56 35 86t84 30q53 0 86 -41q14 -113 14 -309q0 -321 -120 -485t-372 -187l7 -350l-152 -35z" />
    <glyph glyph-name="omega" unicode="&#x3c9;" horiz-adv-x="1501" 
d="M463 -27q-74 0 -141.5 30t-122 88t-87 152t-32.5 212q0 229 134 374t370 168l8 -84q-332 -60 -332 -464q0 -180 61.5 -270.5t159.5 -90.5q193 0 193 254q0 44 -8 169.5t-11 207.5l170 20l19 -12q-3 -70 -12 -204t-9 -179q0 -126 54.5 -191t150.5 -65q97 0 155 86.5
t58 274.5q0 404 -332 464l9 84q236 -23 369.5 -167t133.5 -367q0 -97 -21 -178.5t-58 -138.5t-86.5 -96.5t-106 -58t-117.5 -18.5q-109 0 -184 61t-105 185q-55 -246 -280 -246z" />
    <glyph glyph-name="iotadieresis" unicode="&#x3ca;" horiz-adv-x="587" 
d="M391 -27q-95 0 -138.5 67.5t-45.5 215.5l-6 705l178 36l20 -20q-7 -93 -16.5 -212.5t-13.5 -173t-8.5 -120.5t-6 -109t-0.5 -83q3 -94 26 -129t73 -35q36 0 88 18l16 -51q-26 -48 -69.5 -78.5t-96.5 -30.5zM508 1221q-52 0 -87.5 33t-35.5 83q0 49 36 83t87 34
q50 0 85.5 -34t35.5 -83q0 -50 -35.5 -83t-85.5 -33zM78 1221q-50 0 -85.5 33t-35.5 83q0 49 35.5 83t85.5 34q51 0 87 -34t36 -83q0 -50 -35.5 -83t-87.5 -33z" />
    <glyph glyph-name="upsilondieresis" unicode="&#x3cb;" horiz-adv-x="1110" 
d="M199 338q0 81 13 205.5t13 177.5q0 76 -14.5 104.5t-65.5 28.5q-25 0 -75 -8l-23 61q66 86 180 86q92 0 127 -56t35 -192q0 -58 -15.5 -180.5t-15.5 -202.5q0 -134 67 -205t181 -71q130 0 214.5 100t84.5 275q0 67 -4 112q-76 160 -97.5 216t-21.5 98q0 52 31 82t78 30
q45 0 76 -28q27 -107 34 -203t7 -250q0 -117 -22.5 -209.5t-62.5 -155t-96 -103.5t-121 -59t-141 -18q-166 0 -266 91.5t-100 273.5zM322 1221q-50 0 -85.5 33t-35.5 83q0 49 35.5 83t85.5 34q51 0 86.5 -34t35.5 -83q0 -50 -35 -83t-87 -33zM752 1221q-52 0 -87.5 33
t-35.5 83q0 49 36 83t87 34q50 0 85 -34t35 -83q0 -50 -35 -83t-85 -33z" />
    <glyph glyph-name="omicrontonos" unicode="&#x3cc;" horiz-adv-x="1064" 
d="M516 -27q-90 0 -168.5 32.5t-138.5 94t-94.5 158.5t-34.5 217t39.5 220.5t106 166t150.5 101.5t175 36q185 0 308.5 -134.5t123.5 -364.5q0 -120 -39.5 -221t-105 -167t-149 -102.5t-173.5 -36.5zM543 68q127 0 194.5 107.5t67.5 275.5q0 214 -80 334t-205 120
q-126 0 -193 -110t-67 -279q0 -214 80 -331t203 -117zM496 1141q18 56 43.5 137t29.5 92q37 113 66 149.5t67 36.5q31 0 50.5 -18t19.5 -53q0 -27 -15 -63t-61 -113q-10 -18 -127 -201z" />
    <glyph glyph-name="upsilontonos" unicode="&#x3cd;" horiz-adv-x="1110" 
d="M199 338q0 81 13 205.5t13 177.5q0 76 -14.5 104.5t-65.5 28.5q-25 0 -75 -8l-23 61q66 86 180 86q92 0 127 -56t35 -192q0 -58 -15.5 -180.5t-15.5 -202.5q0 -134 67 -205t181 -71q130 0 214.5 100t84.5 275q0 67 -4 112q-76 160 -97.5 216t-21.5 98q0 52 31 82t78 30
q45 0 76 -28q27 -107 34 -203t7 -250q0 -117 -22.5 -209.5t-62.5 -155t-96 -103.5t-121 -59t-141 -18q-166 0 -266 91.5t-100 273.5zM489 1141q18 54 44 135t30 94q37 113 66 149.5t67 36.5q31 0 50.5 -18t19.5 -53q0 -27 -15 -63t-61 -113q-10 -18 -127 -201z" />
    <glyph glyph-name="omegatonos" unicode="&#x3ce;" horiz-adv-x="1501" 
d="M463 -27q-74 0 -141.5 30t-122 88t-87 152t-32.5 212q0 229 134 374t370 168l8 -84q-332 -60 -332 -464q0 -180 61.5 -270.5t159.5 -90.5q193 0 193 254q0 44 -8 169.5t-11 207.5l170 20l19 -12q-3 -70 -12 -204t-9 -179q0 -126 54.5 -191t150.5 -65q97 0 155 86.5
t58 274.5q0 404 -332 464l9 84q236 -23 369.5 -167t133.5 -367q0 -97 -21 -178.5t-58 -138.5t-86.5 -96.5t-106 -58t-117.5 -18.5q-109 0 -184 61t-105 185q-55 -246 -280 -246zM713 1141q18 56 43.5 137t29.5 92q37 113 66.5 149.5t67.5 36.5q31 0 50 -18t19 -53
q0 -27 -15 -63t-61 -113q-10 -18 -127 -201z" />
    <glyph glyph-name="uni03D7" unicode="&#x3d7;" horiz-adv-x="1314" 
d="M311 -20l-20 20l31 367l6 391q0 49 -17 73.5t-59 24.5q-26 0 -80 -8l-22 61q32 42 67 63t86 21q88 0 130 -68t42 -216q0 -142 -6 -283q72 143 173.5 271t195.5 204q63 48 110 71t99 29q81 -17 81 -92q0 -108 -163 -114l-111 -4q-87 -78 -197 -197q110 -207 231.5 -341
t219.5 -134q32 0 88 12l16 -49q-58 -129 -123.5 -223t-148.5 -164t-187 -104.5t-231 -34.5q-152 0 -265 64.5t-169.5 173.5t-56.5 247l67 12q61 -338 443 -338q162 0 303.5 65t230.5 193h-8q-58 0 -114 32.5t-102 82.5t-93 126t-82 147t-74 161q-15 -26 -43 -71t-51 -83
t-45 -77q-15 -234 -17 -291z" />
    <glyph glyph-name="uni03D9" unicode="&#x3d9;" horiz-adv-x="1056" 
d="M543 68q127 0 194.5 107.5t67.5 275.5q0 214 -80 334t-205 120q-126 0 -193 -110t-67 -279q0 -214 80 -331t203 -117zM639 -352l-168 -37l-25 20l27 344q-171 14 -282 145.5t-111 354.5q0 120 39.5 220.5t106 166t150.5 101.5t175 36q185 0 308.5 -134.5t123.5 -364.5
q0 -208 -109.5 -347t-271.5 -171z" />
    <glyph glyph-name="uni03DB" unicode="&#x3db;" horiz-adv-x="907" 
d="M389 -391l-8 135q157 15 240.5 48.5t83.5 80.5q0 39 -35.5 63.5t-147.5 53.5l-119 30q-77 20 -131.5 48.5t-100.5 77.5t-69.5 127t-23.5 186q0 111 34 203t92.5 153t133.5 97.5t160 45.5l129 15q66 6 99 36t56 95l29 84l82 -12l-39 -152q-30 -121 -81.5 -164.5
t-160.5 -52.5l-131 -12q-288 -28 -288 -318q0 -121 59.5 -192t204.5 -113l147 -41q115 -35 166 -85.5t51 -137.5q0 -126 -112 -212.5t-320 -86.5z" />
    <glyph glyph-name="uni03DD" unicode="&#x3dd;" horiz-adv-x="845" 
d="M162 -369l43 598l-35 729l668 25v-129l-478 18q-4 -88 -8.5 -172t-9 -163t-6.5 -115l461 10v-129l-465 27q-2 -41 -2 -117l26 -565l-170 -37z" />
    <glyph glyph-name="uni03E1" unicode="&#x3e1;" horiz-adv-x="1185" 
d="M735 -336q142 346 142 694q0 40 -3 78l-602 -248l-47 136l639 206q-23 190 -108 365l-637 -254l-33 137l625 195q-104 175 -262.5 290.5t-342.5 155.5l13 76q166 -13 312.5 -78t256.5 -168.5t189.5 -236t120 -285t40.5 -311.5q0 -414 -215 -787z" />
    <glyph glyph-name="uni0400" unicode="&#x400;" horiz-adv-x="1234" 
d="M283 635v100q0 353 -4 529l-189 22v84h1020l14 -362h-116l-45 260h-482q-4 -174 -4 -520h301l29 194h94v-483h-94l-27 192h-303q0 -379 4 -549h523l45 263h116l-14 -365h-1061v84l189 22q4 172 4 529zM754 1526l-37 -51q-50 26 -258 137q-56 31 -79.5 58t-23.5 56
q0 30 22.5 50t55.5 20q49 0 127 -78q108 -100 193 -192z" />
    <glyph glyph-name="uni0401" unicode="&#x401;" horiz-adv-x="1234" 
d="M283 635v100q0 353 -4 529l-189 22v84h1020l14 -362h-116l-45 260h-482q-4 -174 -4 -520h301l29 194h94v-483h-94l-27 192h-303q0 -379 4 -549h523l45 263h116l-14 -365h-1061v84l189 22q4 172 4 529zM436 1524q-49 0 -84 32t-35 80t35.5 80.5t83.5 32.5q50 0 83.5 -32
t33.5 -81t-33.5 -80.5t-83.5 -31.5zM893 1524q-50 0 -83.5 31.5t-33.5 80.5t33.5 81t83.5 32q48 0 83.5 -32.5t35.5 -80.5t-35 -80t-84 -32z" />
    <glyph glyph-name="uni0402" unicode="&#x402;" horiz-adv-x="1454" 
d="M41 1006l16 364h1123l14 -362h-117l-47 260h-332q-4 -160 -4 -484q128 11 203 11q252 0 384 -124.5t132 -326.5q0 -84 -27.5 -160t-84 -143t-154.5 -110.5t-227 -51.5l-27 80q317 57 317 385q0 172 -83.5 260t-274.5 88q-88 0 -158 -6v-51q0 -424 6 -635h-413v84l209 22
q4 172 4 529v100q0 355 -4 533h-291l-45 -262h-119z" />
    <glyph glyph-name="uni0403" unicode="&#x403;" horiz-adv-x="1146" 
d="M90 1286v84h981l14 -405h-116l-56 303h-432q-4 -174 -4 -533v-102q0 -351 4 -527l191 -22v-84h-582v84l189 22q4 172 4 527v102q0 353 -4 529zM518 1526q88 95 193 192q78 78 127 78q33 0 55 -20t22 -50q0 -29 -22.5 -55t-79.5 -57q-172 -94 -258 -139z" />
    <glyph glyph-name="uni0404" unicode="&#x404;" horiz-adv-x="1259" 
d="M756 -31q-202 0 -352.5 91.5t-229 253t-78.5 372.5q0 206 81.5 368.5t232 254.5t344.5 92q227 0 395 -98l8 -297h-127l-41 241q-99 51 -211 51q-224 0 -345.5 -132t-131.5 -423h383l29 195h92v-483h-92l-27 192h-387q7 -306 122.5 -440.5t344.5 -134.5q128 0 244 55
l41 238h127l-9 -297q-180 -99 -413 -99z" />
    <glyph glyph-name="uni0405" unicode="&#x405;" horiz-adv-x="1048" 
d="M475 72q147 0 232.5 65t85.5 182q0 94 -57.5 149.5t-194.5 109.5l-80 32q-170 66 -261 164.5t-91 247.5q0 173 129.5 276t330.5 103q193 0 336 -107l-12 -268h-125l-43 231q-75 41 -168 41q-122 0 -199 -60.5t-77 -170.5q0 -92 58 -153.5t173 -106.5l82 -31
q201 -78 287 -174.5t86 -243.5q0 -179 -134.5 -284t-351.5 -105q-111 0 -218 30.5t-181 78.5l12 287h127l41 -242q92 -51 213 -51z" />
    <glyph glyph-name="uni0406" unicode="&#x406;" horiz-adv-x="759" 
d="M283 635v100q0 353 -4 529l-189 22v84h580v-84l-189 -22q-4 -172 -4 -529v-100q0 -353 4 -529l189 -22v-84h-580v84l189 22q4 172 4 529z" />
    <glyph glyph-name="uni0407" unicode="&#x407;" horiz-adv-x="759" 
d="M283 635v100q0 353 -4 529l-189 22v84h580v-84l-189 -22q-4 -172 -4 -529v-100q0 -353 4 -529l189 -22v-84h-580v84l189 22q4 172 4 529zM152 1524q-49 0 -84 32t-35 80t35.5 80.5t83.5 32.5q50 0 83 -32t33 -81t-33 -80.5t-83 -31.5zM608 1524q-50 0 -83 31.5t-33 80.5
t33 81t83 32q48 0 83.5 -32.5t35.5 -80.5t-35 -80t-84 -32z" />
    <glyph glyph-name="uni0408" unicode="&#x408;" horiz-adv-x="765" 
d="M96 1286v84h600v-84l-188 -22q-4 -172 -4 -527v-319q0 -178 -6 -274t-23 -173q-29 -146 -138 -225.5t-247 -79.5q-152 0 -178 101q16 102 127 102q70 0 154 -64l51 -41q44 42 62 100.5t18 149.5q0 39 -3 157.5t-8 405t-8 687.5z" />
    <glyph glyph-name="uni0409" unicode="&#x409;" horiz-adv-x="1830" 
d="M317 1286v84h1008v-84l-188 -22q-4 -154 -4 -465q98 8 141 8q253 0 384.5 -109.5t131.5 -291.5q0 -60 -17 -115.5t-58 -109.5t-102.5 -93.5t-159 -63.5t-218.5 -24h-487v84l186 22q4 172 4 529v100q0 355 -4 533h-332q-21 -576 -98 -867q-60 -224 -144.5 -328
t-197.5 -104q-72 0 -108 36t-36 122q34 74 127 74q69 0 131 -47q73 110 117 274q79 313 105 832zM1133 635q0 -359 4 -539h73q198 0 287.5 77.5t89.5 225.5q0 155 -80 229t-278 74q-38 0 -96 -4v-63z" />
    <glyph glyph-name="uni040A" unicode="&#x40a;" horiz-adv-x="1990" 
d="M907 1286v84h596v-84l-207 -24q-4 -152 -4 -463q74 6 144 6q251 0 382.5 -108.5t131.5 -288.5q0 -61 -17 -117t-58 -110t-103 -93.5t-158.5 -63.5t-218.5 -24h-488v84l187 22q4 174 4 568v22h-621v-22q0 -392 4 -570l187 -20v-84h-578v84l189 22q4 172 4 529v100
q0 353 -4 529l-189 22v84h578v-84l-187 -20q-4 -156 -4 -475h621q0 317 -4 473zM1292 635q0 -359 4 -539h72q379 0 379 299q0 161 -80 234t-278 73q-68 0 -97 -2v-65z" />
    <glyph glyph-name="uni040B" unicode="&#x40b;" horiz-adv-x="1587" 
d="M41 1006l16 364h1143l17 -362h-119l-45 260h-334q-4 -158 -4 -475q115 14 284 14q85 0 154.5 -19t125 -59t86 -109.5t30.5 -164.5v-351l151 -20v-84h-342q6 212 6 428q0 133 -67 205t-219 72q-104 0 -209 -9v-61q0 -353 4 -529l209 -22v-84h-619v84l209 22q4 174 4 529
v100q0 355 -4 533h-313l-45 -262h-119z" />
    <glyph glyph-name="uni040C" unicode="&#x40c;" horiz-adv-x="1337" 
d="M635 1526q94 101 192 192q78 78 127 78q33 0 55.5 -20t22.5 -50q0 -29 -22.5 -55t-79.5 -57q-172 -94 -258 -139zM924 111l-109 364q-26 86 -86 123t-166 37h-86q0 -365 4 -531l187 -20v-84h-578v84l189 22q4 172 4 529v100q0 353 -4 529l-189 22v84h578v-84l-187 -20
q-4 -174 -4 -539h64q60 0 96 8.5t71.5 37.5t64.5 82t65 146q61 154 116.5 241.5t104.5 120.5t115 42q50 -3 79 -35.5t29 -75.5q0 -45 -37.5 -79.5t-107.5 -34.5q-37 0 -99 8q-36 -57 -112 -230q-51 -119 -97.5 -180t-107.5 -90q118 -26 189 -87t106 -167l110 -330l209 -20
v-84q-65 -20 -182 -20q-102 0 -155 29t-74 102z" />
    <glyph glyph-name="uni040D" unicode="&#x40d;" horiz-adv-x="1632" 
d="M965 1286v84h577v-84l-188 -22q-4 -172 -4 -529v-100q0 -353 4 -529l188 -22v-84h-577v84l188 22q4 174 4 568v354l-682 -835v-87l193 -22v-84h-578v84l189 22q4 172 4 529v100q0 353 -4 529l-189 22v84h578v-84l-189 -22q-4 -172 -4 -529v-395l682 840v84zM911 1526
l-37 -51q-50 26 -258 137q-102 56 -102 114q0 30 22.5 50t55.5 20q49 0 127 -78q101 -94 192 -192z" />
    <glyph glyph-name="uni040E" unicode="&#x40e;" horiz-adv-x="1294" 
d="M29 1286v84h530v-84l-178 -20l317 -731l295 727l-168 24v84h451v-84l-164 -22l-459 -1049q-51 -120 -116 -183t-166 -63q-154 0 -154 166q42 64 129 64q40 0 74 -17t78 -59q49 59 110 194l-438 951zM713 1477q-156 0 -253.5 83.5t-97.5 211.5q26 57 87 57q42 0 69 -32.5
t27 -100.5q0 -42 -4 -88q67 -47 172 -47t172 47q-4 46 -4 88q0 68 27 100.5t69 32.5q60 0 86 -57q0 -128 -97 -211.5t-253 -83.5z" />
    <glyph glyph-name="uni040F" unicode="&#x40f;" horiz-adv-x="1574" 
d="M907 1286v84h578v-84l-189 -22q-4 -176 -4 -529v-100q0 -357 4 -529l189 -22v-84h-608l-27 -434h-125l-27 434h-608v84l189 22q4 176 4 529v100q0 357 -4 529l-189 22v84h578v-84l-187 -20q-4 -178 -4 -531v-100q0 -357 4 -531h613q4 176 4 531v100q0 357 -4 529z" />
    <glyph glyph-name="uni0410" unicode="&#x410;" horiz-adv-x="1359" 
d="M633 1151l-207 -610h412zM10 0v84l172 27l436 1269h130l436 -1278l153 -18v-84h-557v84l201 25l-113 335h-475l-114 -333l200 -27v-84h-469z" />
    <glyph glyph-name="uni0411" unicode="&#x411;" horiz-adv-x="1265" 
d="M90 1286v84h991l15 -364h-119l-45 262h-453q-4 -160 -4 -484q132 11 205 11q252 0 384 -107t132 -282q0 -63 -16.5 -119.5t-56.5 -110t-102 -92t-159 -61.5t-221 -23h-551v84l189 22q4 172 4 529v100q0 353 -4 529zM475 635q0 -359 4 -539h135q200 0 289.5 74t89.5 231
q0 98 -31.5 160t-111.5 96.5t-215 34.5q-89 0 -160 -6v-51z" />
    <glyph glyph-name="uni0412" unicode="&#x412;" horiz-adv-x="1288" 
d="M283 635v100q0 353 -4 529l-189 22v84h594q209 0 327.5 -92t118.5 -242q0 -116 -77.5 -202.5t-239.5 -120.5q196 -28 291.5 -117.5t95.5 -220.5q0 -73 -31 -137.5t-94 -119t-171.5 -86.5t-250.5 -32h-563v84l189 22q4 172 4 529zM590 662h-113q0 -392 4 -566h125
q194 0 291.5 71.5t97.5 207.5q0 145 -98 216t-307 71zM623 1276h-142q-4 -176 -4 -520h107q186 0 270 63t84 203q0 136 -77 195t-238 59z" />
    <glyph glyph-name="uni0413" unicode="&#x413;" horiz-adv-x="1146" 
d="M90 1286v84h981l14 -405h-116l-56 303h-432q-4 -174 -4 -533v-102q0 -351 4 -527l191 -22v-84h-582v84l189 22q4 172 4 527v102q0 353 -4 529z" />
    <glyph glyph-name="uni0414" unicode="&#x414;" horiz-adv-x="1415" 
d="M336 1286v84h987v-84l-186 -22q-4 -176 -4 -529v-100q0 -357 4 -531h209l-11 -469h-118l-46 365h-976l-56 -365h-116l-13 469h113q168 193 270 474t129 684zM938 735q0 359 -4 533h-285q-28 -407 -127 -697t-248 -467h660q4 176 4 531v100z" />
    <glyph glyph-name="uni0415" unicode="&#x415;" horiz-adv-x="1234" 
d="M283 635v100q0 353 -4 529l-189 22v84h1020l14 -362h-116l-45 260h-482q-4 -174 -4 -520h301l29 194h94v-483h-94l-27 192h-303q0 -379 4 -549h523l45 263h116l-14 -365h-1061v84l189 22q4 172 4 529z" />
    <glyph glyph-name="uni0416" unicode="&#x416;" horiz-adv-x="1880" 
d="M1462 111l-110 362q-27 86 -88 124t-162 38h-72q0 -363 4 -529l189 -22v-84h-566v84l189 22q4 174 4 529h-74q-101 0 -161.5 -38t-86.5 -124l-110 -362q-21 -73 -74.5 -102t-155.5 -29q-119 0 -184 20v84l211 20l113 328q36 104 100.5 166t183.5 88q-61 31 -108 93
t-98 179q-64 149 -111 228q-44 -6 -88 -6q-70 0 -107 34.5t-37 79.5q0 42 30.5 75t82.5 36q60 -10 105.5 -43t99.5 -120.5t115 -240.5q36 -89 68 -143t69.5 -83t74.5 -38.5t93 -9.5h49q0 371 -4 537l-189 22v84h566v-84l-189 -22q-4 -174 -4 -537h47q58 0 96 9.5t75 39
t68 83t66 142.5q62 154 116 241t99.5 120t106.5 43q50 -3 81.5 -36t31.5 -75q0 -45 -37.5 -79.5t-108.5 -34.5q-45 0 -86 6q-38 -61 -110 -228q-51 -117 -98.5 -179t-108.5 -93q119 -26 183.5 -88t100.5 -166l113 -328l209 -20v-84q-65 -20 -182 -20q-102 0 -155.5 29
t-74.5 102z" />
    <glyph glyph-name="uni0417" unicode="&#x417;" horiz-adv-x="1126" 
d="M1036 373q0 -181 -141 -292.5t-381 -111.5q-184 0 -305 75t-148 228q40 70 107 70q52 0 76.5 -33.5t48.5 -120.5l26 -96q79 -20 166 -20q169 0 257.5 81t88.5 236q0 266 -335 266h-80v105h73q161 0 238.5 71.5t77.5 202.5q0 130 -78.5 197t-212.5 67q-105 0 -188 -28
l-43 -234h-127l-13 279q71 39 176 62.5t220 23.5q210 0 334 -95t124 -264q0 -109 -80 -199.5t-221 -127.5q172 -28 256 -118t84 -224z" />
    <glyph glyph-name="uni0418" unicode="&#x418;" horiz-adv-x="1632" 
d="M965 1286v84h577v-84l-188 -22q-4 -172 -4 -529v-100q0 -353 4 -529l188 -22v-84h-577v84l188 22q4 174 4 568v354l-682 -835v-87l193 -22v-84h-578v84l189 22q4 172 4 529v100q0 353 -4 529l-189 22v84h578v-84l-189 -22q-4 -172 -4 -529v-395l682 840v84z" />
    <glyph glyph-name="uni0419" unicode="&#x419;" horiz-adv-x="1632" 
d="M965 1286v84h577v-84l-188 -22q-4 -172 -4 -529v-100q0 -353 4 -529l188 -22v-84h-577v84l188 22q4 174 4 568v354l-682 -835v-87l193 -22v-84h-578v84l189 22q4 172 4 529v100q0 353 -4 529l-189 22v84h578v-84l-189 -22q-4 -172 -4 -529v-395l682 840v84zM817 1477
q-156 0 -253 83.5t-97 211.5q26 57 86 57q42 0 69 -32.5t27 -100.5q0 -42 -4 -88q67 -47 172 -47t172 47q-4 46 -4 88q0 68 27 100.5t69 32.5q60 0 86 -57q0 -128 -97 -211.5t-253 -83.5z" />
    <glyph glyph-name="uni041A" unicode="&#x41a;" horiz-adv-x="1337" 
d="M924 111l-109 364q-26 86 -86 123t-166 37h-86q0 -365 4 -531l187 -20v-84h-578v84l189 22q4 172 4 529v100q0 353 -4 529l-189 22v84h578v-84l-187 -20q-4 -174 -4 -539h64q60 0 96 8.5t71.5 37.5t64.5 82t65 146q61 154 116.5 241.5t104.5 120.5t115 42q50 -3 79 -35.5
t29 -75.5q0 -45 -37.5 -79.5t-107.5 -34.5q-37 0 -99 8q-36 -57 -112 -230q-51 -119 -97.5 -180t-107.5 -90q118 -26 189 -87t106 -167l110 -330l209 -20v-84q-65 -20 -182 -20q-102 0 -155 29t-74 102z" />
    <glyph glyph-name="uni041B" unicode="&#x41b;" horiz-adv-x="1415" 
d="M317 1286v84h1008v-84l-188 -22q-4 -176 -4 -529v-100q0 -357 4 -529l188 -22v-84h-580v84l189 22q4 176 4 529v100q0 359 -4 533h-332q-21 -576 -98 -867q-116 -432 -334 -432q-69 0 -110.5 38.5t-41.5 119.5q34 74 127 74q69 0 131 -47q73 110 117 274q79 313 105 832z
" />
    <glyph glyph-name="uni041C" unicode="&#x41c;" horiz-adv-x="1847" 
d="M80 0v84l184 27v1153l-184 22v84h379l459 -1126l434 1126h403v-84l-188 -22q-4 -172 -4 -529v-100q0 -353 4 -529l188 -22v-84h-557v84l172 22q4 172 4 527v510l-444 -1143h-103l-469 1143l13 -387v-645l168 -27v-84h-459z" />
    <glyph glyph-name="uni041D" unicode="&#x41d;" horiz-adv-x="1615" 
d="M283 635v100q0 353 -4 529l-189 22v84h578v-84l-187 -20q-4 -174 -4 -516h662q0 348 -4 514l-189 22v84h578v-84l-189 -22q-4 -172 -4 -529v-100q0 -353 4 -529l189 -22v-84h-578v84l189 22q4 174 4 547h-662q0 -381 4 -549l187 -20v-84h-578v84l189 22q4 172 4 529z" />
    <glyph glyph-name="uni041E" unicode="&#x41e;" horiz-adv-x="1447" 
d="M319 686q0 -120 24 -227t71.5 -195t127.5 -140t183 -52q83 0 151 34.5t113.5 92.5t77 137.5t45.5 167t14 182.5t-14 182t-45.5 166t-77 137t-113.5 92.5t-151 34.5q-103 0 -183 -52t-127.5 -139.5t-71.5 -194.5t-24 -226zM725 1401q120 0 231 -47t200 -134.5t142.5 -226
t53.5 -307.5q0 -132 -34.5 -247.5t-95 -200.5t-140 -146t-171 -92t-186.5 -31q-97 0 -188 29t-171 89t-140 143.5t-95 201t-35 254.5q0 131 35 246.5t95.5 200t140 146t171.5 92t187 30.5z" />
    <glyph glyph-name="uni041F" unicode="&#x41f;" horiz-adv-x="1587" 
d="M90 0v84l189 22q4 172 4 529v100q0 353 -4 529l-189 22v84h1405v-84l-186 -22q-4 -172 -4 -529v-100q0 -353 4 -529l186 -22v-84h-577v84l188 22q4 172 4 529v100q0 361 -4 541h-625q-4 -176 -4 -541v-100q0 -353 4 -531l187 -20v-84h-578z" />
    <glyph glyph-name="uni0420" unicode="&#x420;" horiz-adv-x="1206" 
d="M283 635v100q0 353 -4 529l-189 22v84h551q253 0 386.5 -110.5t133.5 -296.5q0 -71 -19.5 -132t-63 -115t-109.5 -92.5t-164 -60.5t-221 -22h-107q0 -288 4 -435l191 -22v-84h-582v84l189 22q4 172 4 529zM604 1276h-123q-4 -176 -4 -541v-98h135q178 0 262 86.5
t84 239.5q0 313 -354 313z" />
    <glyph glyph-name="uni0421" unicode="&#x421;" horiz-adv-x="1292" 
d="M801 72q130 0 243 55l41 238h127l-8 -297q-180 -99 -413 -99q-204 0 -362.5 91t-245.5 254t-87 372q0 153 52.5 286t144 227t220 148t275.5 54q228 0 396 -98l8 -297h-127l-41 237q-99 55 -209 55q-104 0 -193.5 -40t-157 -115.5t-106.5 -193t-39 -263.5
q0 -293 132.5 -453.5t349.5 -160.5z" />
    <glyph glyph-name="uni0422" unicode="&#x422;" horiz-adv-x="1236" 
d="M522 635v100q0 355 -4 533h-313l-45 -262h-119l16 364h1123l16 -364h-119l-45 262h-313q-4 -174 -4 -533v-100q0 -353 4 -529l209 -22v-84h-619v84l209 22q4 174 4 529z" />
    <glyph glyph-name="uni0423" unicode="&#x423;" horiz-adv-x="1294" 
d="M29 1286v84h530v-84l-178 -20l317 -731l295 727l-168 24v84h451v-84l-164 -22l-459 -1049q-51 -120 -116 -183t-166 -63q-154 0 -154 166q42 64 129 64q40 0 74 -17t78 -59q49 59 110 194l-438 951z" />
    <glyph glyph-name="uni0424" unicode="&#x424;" horiz-adv-x="1476" 
d="M449 1311v84h577v-84l-199 -23q-2 -43 -2 -133h43q268 0 408.5 -126.5t140.5 -342.5t-143 -343.5t-406 -127.5h-43q0 -86 2 -129l199 -27v-84h-577v84l198 27q2 43 2 129h-41q-264 0 -406.5 126.5t-142.5 344.5t140 343.5t409 125.5h41q0 90 -2 133zM616 303h35v318v110
v336h-35q-102 0 -175.5 -32t-113 -88t-57.5 -120.5t-18 -140.5q0 -60 10 -113t36 -103.5t66.5 -86.5t104.5 -58t147 -22zM823 621v-318h37q102 0 176.5 32.5t114 89t57 121t17.5 140.5q0 60 -10.5 113t-37 103t-66.5 86t-104.5 57.5t-146.5 21.5h-37v-336v-110z" />
    <glyph glyph-name="uni0425" unicode="&#x425;" horiz-adv-x="1327" 
d="M39 1286v84h575v-84l-180 -20l262 -439l273 435l-174 24v84h469v-84l-181 -22l-335 -521l385 -639l176 -20v-84h-580v84l189 22l-287 476l-301 -476l159 -22v-84h-469v84l195 25l367 555l-363 602z" />
    <glyph glyph-name="uni0426" unicode="&#x426;" horiz-adv-x="1576" 
d="M907 1286v84h578v-84l-189 -22q-4 -176 -4 -529v-100q0 -357 4 -531h209l-20 -469h-117l-39 365h-1239v84l189 22q4 176 4 529v100q0 357 -4 529l-189 22v84h578v-84l-187 -20q-4 -178 -4 -531v-100q0 -357 4 -531h613q4 176 4 531v100q0 357 -4 529z" />
    <glyph glyph-name="uni0427" unicode="&#x427;" horiz-adv-x="1435" 
d="M49 1286v84h559v-84l-188 -20q-4 -196 -4 -297q0 -170 63 -234.5t223 -64.5q126 0 256 20v45q0 353 -4 529l-186 22v84h578v-84l-189 -22q-4 -172 -4 -529v-100q0 -353 4 -529l189 -22v-84h-580v84l188 22q4 156 4 484q-164 -37 -311 -37q-80 0 -141.5 10t-116.5 36.5
t-91 70t-56.5 112.5t-20.5 162v322z" />
    <glyph glyph-name="uni0428" unicode="&#x428;" horiz-adv-x="2136" 
d="M1489 1286v84h561v-84l-192 -22q-5 -215 -5 -529v-100q0 -309 5 -529l192 -22v-84h-1964v84l193 22q4 176 4 529v100q0 357 -4 529l-193 22v84h563v-84l-168 -20q-4 -176 -4 -531v-100q0 -357 4 -531h486q4 174 4 531v100q0 355 -4 531l-166 20v84h536v-84l-168 -20
q-4 -174 -4 -531v-100q0 -355 4 -531h488q4 174 4 531v100q0 355 -4 531z" />
    <glyph glyph-name="uni0429" unicode="&#x429;" horiz-adv-x="2138" 
d="M1489 1286v84h561v-84l-192 -22q-5 -220 -5 -529v-100q0 -313 5 -531h210l-20 -469h-119l-39 365h-1804v84l193 22q4 176 4 529v100q0 357 -4 529l-193 22v84h563v-84l-168 -20q-4 -176 -4 -531v-100q0 -357 4 -531h486q4 174 4 531v100q0 355 -4 531l-166 20v84h536v-84
l-168 -20q-4 -174 -4 -531v-100q0 -355 4 -531h488q4 176 4 531v100q0 357 -4 531z" />
    <glyph glyph-name="uni042A" unicode="&#x42a;" horiz-adv-x="1488" 
d="M41 1006l14 364h873v-84l-189 -22q-4 -154 -4 -467q110 10 195 10q240 0 379 -110.5t139 -295.5q0 -84 -32.5 -154.5t-98 -126.5t-175 -88t-253.5 -32h-539v84l189 22q4 172 4 529v100q0 355 -4 533h-334l-45 -262h-119zM735 635q0 -359 4 -539h125q190 0 285.5 72.5
t95.5 230.5q0 156 -90.5 229.5t-290.5 73.5q-68 0 -129 -6v-61z" />
    <glyph glyph-name="uni042B" unicode="&#x42b;" horiz-adv-x="1871" 
d="M90 1286v84h598v-84l-207 -24q-4 -154 -4 -465q110 10 191 10q226 0 357.5 -109t131.5 -288q0 -88 -30 -160.5t-91.5 -129.5t-165 -88.5t-241.5 -31.5h-539v84l189 22q4 172 4 529v100q0 353 -4 529zM1202 1286v84h580v-84l-189 -22q-4 -172 -4 -529v-100q0 -353 4 -529
l189 -22v-84h-580v84l189 22q4 172 4 529v100q0 353 -4 529zM477 635q0 -361 4 -539h121q174 0 263 71t89 222q0 162 -78.5 237.5t-248.5 75.5q-85 0 -150 -6v-61z" />
    <glyph glyph-name="uni042C" unicode="&#x42c;" horiz-adv-x="1247" 
d="M90 1286v84h598v-84l-207 -24q-4 -154 -4 -465q123 10 213 10q253 0 384.5 -109.5t131.5 -291.5q0 -60 -17 -115.5t-58 -109.5t-102.5 -93.5t-159 -63.5t-218.5 -24h-561v84l189 22q4 172 4 529v100q0 353 -4 529zM477 635q0 -359 4 -539h144q198 0 288.5 77.5
t90.5 225.5q0 154 -81 228.5t-278 74.5q-95 0 -168 -6v-61z" />
    <glyph glyph-name="uni042D" unicode="&#x42d;" horiz-adv-x="1253" 
d="M92 68l-8 297h127l41 -238q116 -55 254 -55q432 0 446 575h-413l-27 -192h-94v483h94l29 -195h411q-10 288 -126 421.5t-332 133.5q-128 0 -230 -51l-41 -241h-127l8 297q170 98 400 98q310 0 480.5 -190t170.5 -525q0 -336 -171.5 -526.5t-481.5 -190.5q-228 0 -410 99z
" />
    <glyph glyph-name="uni042E" unicode="&#x42e;" horiz-adv-x="2037" 
d="M1354 72q95 0 169 52t118 140t66 195t22 227q0 119 -22 225.5t-66 194.5t-118 140t-169 52t-168.5 -52t-117.5 -139.5t-66.5 -194.5t-22.5 -226q0 -120 22.5 -227t66.5 -195t117.5 -140t168.5 -52zM1354 -31q-117 0 -221 45.5t-184.5 130t-129.5 216t-53 292.5h-299
q0 -381 4 -547l188 -22v-84h-569v84l189 22q4 172 4 529v100q0 353 -4 529l-189 22v84h569v-84l-188 -22q-4 -172 -4 -514h301q9 153 59.5 278t130 205.5t181 124t215.5 43.5q121 0 226 -45t186.5 -132t128.5 -225.5t47 -312.5q0 -141 -30.5 -259t-84.5 -201.5t-128 -142
t-161 -86.5t-184 -28z" />
    </font>
</defs>
</svg>
