<svg width="24" height="23" viewBox="0 0 24 23" fill="none" xmlns="http://www.w3.org/2000/svg">
<mask id="path-1-outside-1_50_2834" maskUnits="userSpaceOnUse" x="0" y="0" width="24" height="23" fill="black">
<rect fill="white" width="24" height="23"/>
<path fill-rule="evenodd" clip-rule="evenodd" d="M22.3988 1.16022C22.6779 1.31743 22.8803 1.57408 22.9612 1.87372C23.0422 2.17336 22.9952 2.49144 22.8306 2.758L11.2826 21.4273C11.1888 21.5786 11.0605 21.7077 10.9072 21.805C10.7539 21.9022 10.5796 21.9652 10.3972 21.9891C10.2148 22.0131 10.0292 21.9974 9.85404 21.9432C9.67892 21.889 9.51889 21.7977 9.38589 21.6762L1.37708 14.3594C1.14285 14.1453 1.00732 13.8511 1.00029 13.5415C0.993259 13.2319 1.11532 12.9324 1.33961 12.7087C1.5639 12.4851 1.87205 12.3557 2.19627 12.349C2.5205 12.3423 2.83423 12.4588 3.06846 12.673L9.96109 18.9754L20.7237 1.57405C20.8883 1.30751 21.1571 1.11433 21.471 1.03701C21.7848 0.959693 22.118 1.00457 22.3971 1.16177"/>
</mask>
<path fill-rule="evenodd" clip-rule="evenodd" d="M22.3988 1.16022C22.6779 1.31743 22.8803 1.57408 22.9612 1.87372C23.0422 2.17336 22.9952 2.49144 22.8306 2.758L11.2826 21.4273C11.1888 21.5786 11.0605 21.7077 10.9072 21.805C10.7539 21.9022 10.5796 21.9652 10.3972 21.9891C10.2148 22.0131 10.0292 21.9974 9.85404 21.9432C9.67892 21.889 9.51889 21.7977 9.38589 21.6762L1.37708 14.3594C1.14285 14.1453 1.00732 13.8511 1.00029 13.5415C0.993259 13.2319 1.11532 12.9324 1.33961 12.7087C1.5639 12.4851 1.87205 12.3557 2.19627 12.349C2.5205 12.3423 2.83423 12.4588 3.06846 12.673L9.96109 18.9754L20.7237 1.57405C20.8883 1.30751 21.1571 1.11433 21.471 1.03701C21.7848 0.959693 22.118 1.00457 22.3971 1.16177" fill="#00F8FF"/>
<path d="M22.8306 2.758L23.681 3.28405L23.6814 3.28352L22.8306 2.758ZM11.2826 21.4273L12.1326 21.954L12.133 21.9534L11.2826 21.4273ZM9.38589 21.6762L8.71139 22.4145L8.7114 22.4145L9.38589 21.6762ZM1.37708 14.3594L0.702324 15.0975L0.702593 15.0977L1.37708 14.3594ZM3.06846 12.673L3.74327 11.935L3.74323 11.9349L3.06846 12.673ZM9.96109 18.9754L9.28628 19.7134L10.1768 20.5277L10.8116 19.5014L9.96109 18.9754ZM20.7237 1.57405L21.5742 2.10006L21.5744 2.09961L20.7237 1.57405ZM21.9081 2.03155C21.962 2.06192 21.9873 2.10308 21.9959 2.13462L23.9266 1.61283C23.7732 1.04508 23.3939 0.572933 22.8894 0.288878L21.9081 2.03155ZM21.9959 2.13462C22.004 2.16472 22.0008 2.19847 21.9798 2.23248L23.6814 3.28352C23.9896 2.78442 24.0804 2.18201 23.9266 1.61283L21.9959 2.13462ZM21.9801 2.23195L10.4321 20.9013L12.133 21.9534L23.681 3.28405L21.9801 2.23195ZM10.4325 20.9006C10.4199 20.921 10.4001 20.9424 10.3714 20.9606L11.443 22.6493C11.721 22.4729 11.9578 22.2362 12.1326 21.954L10.4325 20.9006ZM10.3714 20.9606C10.3427 20.9789 10.3071 20.9924 10.2671 20.9976L10.5273 22.9806C10.8521 22.938 11.1652 22.8256 11.443 22.6493L10.3714 20.9606ZM10.2671 20.9976C10.227 21.0029 10.1866 20.9993 10.1496 20.9879L9.55847 22.8985C9.8717 22.9954 10.2026 23.0232 10.5273 22.9806L10.2671 20.9976ZM10.1496 20.9879C10.1127 20.9764 10.0827 20.9583 10.0604 20.9379L8.7114 22.4145C8.95513 22.6372 9.24514 22.8016 9.55847 22.8985L10.1496 20.9879ZM10.0604 20.938L2.05158 13.6211L0.702593 15.0977L8.71139 22.4145L10.0604 20.938ZM2.05184 13.6214C2.01333 13.5862 2.00069 13.548 2.00003 13.5188L0.000545204 13.5642C0.0139395 14.1541 0.272375 14.7044 0.702325 15.0975L2.05184 13.6214ZM2.00003 13.5188C1.99937 13.4897 2.01013 13.4523 2.04568 13.4169L0.63353 12.0006C0.220506 12.4124 -0.0128523 12.9741 0.000545204 13.5642L2.00003 13.5188ZM2.04568 13.4169C2.08281 13.3799 2.1434 13.3503 2.21697 13.3488L2.17558 11.3492C1.6007 11.3611 1.04499 11.5903 0.63353 12.0006L2.04568 13.4169ZM2.21697 13.3488C2.29059 13.3472 2.35362 13.3743 2.39371 13.411L3.74323 11.9349C3.31485 11.5433 2.7504 11.3373 2.17558 11.3492L2.21697 13.3488ZM2.39366 13.411L9.28628 19.7134L10.6359 18.2374L3.74327 11.935L2.39366 13.411ZM10.8116 19.5014L21.5742 2.10006L19.8732 1.04804L9.11061 18.4494L10.8116 19.5014ZM21.5744 2.09961C21.5967 2.06363 21.6417 2.02485 21.7102 2.00798L21.2318 0.0660424C20.6726 0.203804 20.18 0.551385 19.8729 1.0485L21.5744 2.09961ZM21.7102 2.00798C21.7793 1.99094 21.8512 2.00201 21.9065 2.03313L22.8878 0.290414C22.3847 0.00712991 21.7903 -0.0715542 21.2318 0.0660424L21.7102 2.00798Z" fill="#00F8FF" mask="url(#path-1-outside-1_50_2834)"/>
</svg>
