<svg width="41" height="33" viewBox="0 0 41 33" fill="none" xmlns="http://www.w3.org/2000/svg">
<path d="M41 12.307C41 11.9674 40.8624 11.6198 40.5952 11.3591C40.0609 10.8378 39.1866 10.8378 38.6523 11.3591L20.3644 29.202L2.34367 11.6198C1.80936 11.0985 0.935041 11.0985 0.400732 11.6198C-0.133573 12.1411 -0.133573 12.9941 0.400732 13.5154L19.3929 32.0534C19.9272 32.5747 20.8016 32.5747 21.3359 32.0534L40.5952 13.2627C40.8705 12.9941 41 12.6545 41 12.307Z" fill="white"/>
<path d="M41 1.89488C41 1.55524 40.8624 1.20766 40.5952 0.947012C40.0609 0.425707 39.1866 0.425707 38.6523 0.947012L20.3644 18.7899L2.34367 1.20767C1.80936 0.686361 0.935041 0.686361 0.400732 1.20767C-0.133573 1.72897 -0.133573 2.58202 0.400732 3.10332L19.3929 21.6412C19.9272 22.1626 20.8016 22.1626 21.3359 21.6412L40.5952 2.85057C40.8705 2.58202 41 2.24241 41 1.89488Z" fill="white"/>
</svg>
