<svg width="339" height="62" viewBox="0 0 339 62" fill="none" xmlns="http://www.w3.org/2000/svg">
<path d="M80.4661 16.8823L81.4113 0.371094L65.6719 5.4528L69.9731 8.77411L58.0927 24.2534L39.7691 0.371094L0 52.2027L6.22639 56.9809L21.4368 37.1571L39.7691 61.0393L58.1014 37.1571L73.3118 56.9809L79.5382 52.2027L63.0443 30.7052L76.1909 13.5783L80.4661 16.8823ZM39.7691 48.1443L26.3884 30.7052L39.7691 13.2661L53.1498 30.7052L39.7691 48.1443Z" fill="url(#paint0_linear_151_332)"/>
<path d="M26.3883 30.7051L21.4453 37.1483L39.7689 61.0392V48.1442L26.3883 30.7051Z" fill="url(#paint1_linear_151_332)"/>
<path d="M53.1482 30.7052L58.0999 24.2534L39.7676 0.371094V13.2661" fill="url(#paint2_linear_151_332)"/>
<path d="M58.1016 37.1483L63.0445 30.7051L79.5384 52.2026L73.312 56.9808L58.1016 37.1483Z" fill="url(#paint3_linear_151_332)"/>
<path d="M69.9716 8.77344L76.1893 13.5776L39.7676 61.0387V48.1436L69.9716 8.77344Z" fill="url(#paint4_linear_151_332)"/>
<path d="M134.544 18.1584H123.115L121.241 22.2515H116.775L126.583 0.398438H131.075L140.874 22.2515H136.382L134.544 18.1584ZM128.829 4.98584L124.771 14.2907H132.888L128.829 4.98584Z" fill="#26798D"/>
<path d="M146.131 0.423828V22.2509H142.35V0.423828H146.131Z" fill="#26798D"/>
<path d="M149.563 29.3013V6.85859H153.119L153.37 8.9832C153.977 8.10734 154.74 7.48297 155.668 7.09273C156.596 6.71117 157.498 6.51172 158.365 6.51172C159.553 6.51172 160.629 6.71984 161.6 7.13609C162.571 7.55234 163.404 8.11601 164.097 8.83577C164.791 9.55554 165.329 10.4054 165.702 11.394C166.075 12.3826 166.265 13.4405 166.265 14.5592C166.265 15.6779 166.092 16.7358 165.754 17.7157C165.407 18.6957 164.904 19.5455 164.236 20.2739C163.568 21.0024 162.753 21.5747 161.782 21.991C160.811 22.4072 159.718 22.6153 158.487 22.6153C158.07 22.6153 157.62 22.5807 157.143 22.5026C156.666 22.4332 156.189 22.3118 155.72 22.1471C155.252 21.9823 154.81 21.7568 154.394 21.4793C153.977 21.2018 153.63 20.8463 153.362 20.43V29.2927H149.555L149.563 29.3013ZM158.088 18.9385C158.729 18.9385 159.328 18.8257 159.866 18.5916C160.403 18.3661 160.871 18.0539 161.253 17.655C161.635 17.2561 161.938 16.7965 162.146 16.2675C162.354 15.7386 162.458 15.1662 162.458 14.5679C162.458 13.9695 162.363 13.3972 162.164 12.8682C161.964 12.3392 161.678 11.8709 161.305 11.4807C160.932 11.0905 160.473 10.7696 159.935 10.5441C159.397 10.3187 158.782 10.1973 158.096 10.1973C157.411 10.1973 156.796 10.31 156.258 10.5441C155.72 10.7696 155.261 11.0818 154.888 11.4807C154.515 11.8796 154.229 12.3392 154.029 12.8682C153.83 13.3972 153.735 13.9695 153.735 14.5679C153.735 15.1662 153.839 15.7386 154.047 16.2675C154.255 16.7965 154.55 17.2648 154.94 17.655C155.321 18.0539 155.79 18.3661 156.327 18.5916C156.865 18.8171 157.463 18.9385 158.105 18.9385H158.088Z" fill="#26798D"/>
<path d="M172.475 0.398438V8.94888C173.16 8.05568 173.914 7.44865 174.738 7.11912C175.562 6.79826 176.412 6.6335 177.279 6.6335C178.363 6.6335 179.3 6.80693 180.106 7.16248C180.904 7.51802 181.563 8.02099 182.075 8.68005C182.586 9.33911 182.968 10.1282 183.211 11.0561C183.462 11.984 183.584 13.0073 183.584 14.1346V22.2515H179.777V14.1867C179.777 12.7732 179.447 11.7586 178.797 11.1342C178.138 10.5098 177.305 10.1976 176.282 10.1976C175.718 10.1976 175.207 10.3104 174.738 10.5272C174.27 10.744 173.871 11.0475 173.533 11.429C173.203 11.8106 172.943 12.2615 172.752 12.7645C172.562 13.2675 172.475 13.8138 172.475 14.3948V22.2428H168.668V0.398438H172.475Z" fill="#26798D"/>
<path d="M198.732 8.98382L198.854 6.85922H202.505V22.2517H198.915L198.724 20.0057C198.498 20.4653 198.186 20.8556 197.805 21.1938C197.423 21.532 196.998 21.8095 196.538 22.035C196.079 22.2604 195.611 22.4339 195.116 22.5466C194.631 22.6593 194.162 22.72 193.729 22.72C192.584 22.72 191.526 22.5466 190.564 22.2084C189.592 21.8615 188.76 21.3499 188.049 20.6648C187.338 19.9797 186.791 19.1212 186.392 18.1066C185.994 17.0833 185.803 15.904 185.803 14.5511C185.803 13.1983 186.011 12.045 186.427 11.039C186.843 10.0331 187.407 9.18327 188.127 8.50687C188.847 7.83046 189.696 7.3275 190.668 6.9893C191.648 6.65977 192.697 6.48633 193.824 6.48633C194.865 6.48633 195.836 6.7118 196.729 7.15406C197.622 7.605 198.29 8.21203 198.724 8.98382H198.732ZM194.171 9.88569C193.547 9.88569 192.957 9.98975 192.393 10.1979C191.83 10.406 191.344 10.7095 190.945 11.0998C190.546 11.49 190.217 11.9843 189.974 12.5653C189.731 13.1463 189.618 13.8054 189.618 14.5338C189.618 15.2622 189.74 15.9213 189.974 16.5023C190.208 17.0833 190.538 17.5776 190.945 17.9852C191.353 18.3928 191.838 18.6963 192.393 18.9044C192.957 19.1125 193.547 19.2166 194.171 19.2166C195.168 19.2166 196.001 18.9911 196.669 18.5315C197.336 18.0719 197.831 17.4996 198.169 16.7972C198.498 16.1034 198.672 15.349 198.672 14.5511C198.672 13.7533 198.507 12.9989 198.169 12.3051C197.831 11.6114 197.336 11.0304 196.669 10.5708C196.001 10.1112 195.168 9.88569 194.171 9.88569Z" fill="#26798D"/>
<path d="M227.419 18.1584H215.99L214.116 22.2515H209.65L219.458 0.398438H223.95L233.749 22.2515H229.257L227.419 18.1584ZM221.704 4.98584L217.646 14.2907H225.763L221.704 4.98584Z" fill="#26798D"/>
<path d="M250.425 0.423828V22.2509H246.869L246.618 20.1263C246.011 21.0628 245.274 21.7045 244.389 22.0601C243.505 22.4156 242.594 22.5891 241.657 22.5891C240.53 22.5891 239.489 22.407 238.518 22.0427C237.547 21.6785 236.714 21.1495 236.003 20.4645C235.292 19.7794 234.737 18.9382 234.33 17.9323C233.922 16.935 233.723 15.799 233.723 14.5329C233.723 13.1975 233.922 12.0354 234.312 11.0382C234.711 10.0409 235.258 9.19974 235.951 8.52333C236.645 7.84693 237.478 7.33529 238.431 6.99709C239.385 6.65021 240.426 6.48545 241.553 6.48545C241.952 6.48545 242.395 6.53748 242.897 6.64154C243.4 6.74561 243.877 6.9017 244.346 7.10982C244.814 7.31795 245.248 7.5781 245.655 7.89029C246.063 8.20248 246.375 8.55802 246.609 8.94825V0.423828H250.416H250.425ZM241.9 10.0409C241.293 10.0409 240.73 10.145 240.201 10.3531C239.672 10.5612 239.203 10.8561 238.813 11.2376C238.414 11.6192 238.102 12.0961 237.876 12.6511C237.651 13.2148 237.53 13.8305 237.53 14.5156C237.53 15.2007 237.642 15.7903 237.876 16.354C238.102 16.9177 238.414 17.3946 238.813 17.7849C239.212 18.1751 239.672 18.4873 240.201 18.7041C240.73 18.9209 241.302 19.0336 241.9 19.0336C242.499 19.0336 243.08 18.9296 243.617 18.7214C244.155 18.5133 244.632 18.2098 245.039 17.8196C245.447 17.4293 245.768 16.9524 246.011 16.3887C246.253 15.825 246.366 15.2093 246.366 14.5243C246.366 13.8392 246.245 13.2582 246.011 12.7032C245.768 12.1568 245.447 11.6799 245.039 11.2897C244.632 10.8907 244.164 10.5872 243.617 10.3704C243.08 10.1536 242.507 10.0409 241.9 10.0409Z" fill="#26798D"/>
<path d="M269.313 6.82422L262.757 22.3121H258.637L252.047 6.82422H256.201L258.325 11.9146L260.701 18.4098L263.043 11.9753L265.167 6.82422H269.321H269.313Z" fill="#26798D"/>
<path d="M270.623 2.52273C270.623 1.79429 270.857 1.23929 271.325 0.866404C271.794 0.493515 272.305 0.302734 272.869 0.302734C273.433 0.302734 273.944 0.493515 274.413 0.866404C274.881 1.23929 275.115 1.79429 275.115 2.52273C275.115 3.25116 274.881 3.83218 274.413 4.19639C273.944 4.56061 273.433 4.74272 272.869 4.74272C272.305 4.74272 271.794 4.56061 271.325 4.19639C270.857 3.83218 270.623 3.27718 270.623 2.52273ZM274.777 6.79795V22.2512H270.97V6.79795H274.777Z" fill="#26798D"/>
<path d="M287.793 10.9514C287.255 10.4311 286.666 10.0755 286.033 9.87608C285.4 9.67663 284.715 9.58124 283.986 9.58124C283.067 9.58124 282.373 9.71999 281.896 9.98882C281.419 10.2576 281.176 10.6305 281.176 11.1162C281.176 12.1134 282.13 12.6771 284.047 12.7985C284.775 12.8419 285.53 12.9286 286.31 13.0673C287.091 13.2061 287.802 13.4489 288.435 13.8044C289.068 14.16 289.597 14.6456 290.013 15.27C290.429 15.8943 290.637 16.7182 290.637 17.7328C290.637 18.4179 290.499 19.0682 290.213 19.6666C289.935 20.2736 289.519 20.8026 288.964 21.2709C288.409 21.7392 287.724 22.1121 286.9 22.3809C286.076 22.6497 285.114 22.7885 284.012 22.7885C283.405 22.7885 282.798 22.7538 282.182 22.6931C281.567 22.6324 280.968 22.5023 280.37 22.3028C279.78 22.1034 279.191 21.8259 278.61 21.4617C278.029 21.0975 277.456 20.6205 276.893 20.0395L278.766 17.3252C279.494 18.0883 280.344 18.626 281.324 18.9382C282.304 19.259 283.214 19.4238 284.073 19.4411C284.801 19.4585 285.443 19.3284 286.007 19.0422C286.57 18.7561 286.848 18.3311 286.848 17.7761C286.848 17.2211 286.614 16.8309 286.145 16.5361C285.677 16.2499 284.888 16.0678 283.787 16.0071C283.058 15.9464 282.321 15.825 281.567 15.6515C280.821 15.4781 280.136 15.2006 279.52 14.8364C278.904 14.4722 278.401 13.9952 278.003 13.4142C277.604 12.8332 277.413 12.1047 277.413 11.2289C277.413 10.353 277.621 9.58124 278.037 8.96554C278.454 8.34984 278.983 7.85554 279.616 7.48265C280.249 7.10976 280.951 6.84094 281.705 6.6675C282.469 6.50273 283.197 6.41602 283.908 6.41602C285.114 6.41602 286.189 6.55476 287.143 6.84094C288.088 7.11844 289.007 7.65609 289.909 8.44523L287.784 10.9427L287.793 10.9514Z" fill="#26798D"/>
<path d="M299.873 6.54688C301.104 6.54688 302.205 6.76367 303.194 7.18859C304.183 7.61351 305.032 8.19453 305.735 8.92296C306.446 9.6514 306.984 10.5012 307.356 11.4638C307.729 12.4351 307.92 13.467 307.92 14.5683C307.92 15.6697 307.738 16.7103 307.374 17.6902C307.01 18.6701 306.481 19.52 305.778 20.2484C305.084 20.9768 304.235 21.5492 303.246 21.9654C302.257 22.3817 301.139 22.5898 299.89 22.5898C298.641 22.5898 297.523 22.3817 296.534 21.9654C295.545 21.5492 294.704 20.9768 294.019 20.2484C293.334 19.52 292.805 18.6701 292.441 17.6902C292.077 16.7103 291.895 15.6697 291.895 14.5683C291.895 13.467 292.085 12.4264 292.458 11.4638C292.831 10.4926 293.36 9.6514 294.054 8.92296C294.739 8.19453 295.571 7.61351 296.551 7.18859C297.531 6.76367 298.633 6.54688 299.864 6.54688H299.873ZM299.907 10.0156C299.222 10.0156 298.615 10.1457 298.095 10.4058C297.575 10.666 297.141 11.0129 296.785 11.4378C296.43 11.8627 296.17 12.3483 295.988 12.886C295.814 13.4237 295.719 13.9873 295.719 14.5683C295.719 15.1493 295.806 15.713 295.988 16.2507C296.161 16.7883 296.421 17.2739 296.768 17.6989C297.115 18.1238 297.549 18.462 298.078 18.7135C298.607 18.965 299.214 19.0864 299.907 19.0864C300.601 19.0864 301.199 18.965 301.737 18.7135C302.275 18.462 302.708 18.1238 303.047 17.6989C303.393 17.2739 303.654 16.7883 303.827 16.2507C304 15.713 304.096 15.1493 304.096 14.5683C304.096 13.9873 304 13.4237 303.801 12.886C303.602 12.3483 303.324 11.8627 302.96 11.4378C302.596 11.0129 302.162 10.666 301.65 10.4058C301.139 10.1457 300.566 10.0156 299.916 10.0156H299.907Z" fill="#26798D"/>
<path d="M313.86 6.85875L314.138 8.63648C314.433 8.15953 314.745 7.77796 315.092 7.50047C315.439 7.22297 315.794 6.9975 316.167 6.8414C316.54 6.68531 316.922 6.58125 317.303 6.52922C317.685 6.47719 318.075 6.45117 318.474 6.45117C319.263 6.45117 320.017 6.58992 320.737 6.87609C321.457 7.15359 322.021 7.50914 322.437 7.92539L320.72 11.238C320.321 10.9085 319.922 10.657 319.514 10.4923C319.107 10.3275 318.595 10.2408 317.971 10.2408C317.468 10.2408 316.991 10.3101 316.531 10.4402C316.072 10.579 315.664 10.7958 315.3 11.108C314.936 11.4201 314.65 11.8277 314.441 12.322C314.233 12.825 314.129 13.4233 314.129 14.1344V22.2513H310.322V6.85875H313.852H313.86Z" fill="#26798D"/>
<path d="M338.992 6.85828L329.314 29.301H325.134L328.291 21.9993L322.143 6.85828H326.574L328.915 13.5096L330.381 17.8455L331.976 13.5963L334.786 6.84961H339.001L338.992 6.85828Z" fill="#26798D"/>
<path d="M121.467 45.4835H134.05V47.1051H121.467V56.9737H119.785V35.0859H134.493V36.7683H121.476V45.4748L121.467 45.4835Z" fill="black"/>
<path d="M137.449 36.4914C137.449 36.0752 137.579 35.7716 137.839 35.5722C138.1 35.3727 138.377 35.2773 138.663 35.2773C138.975 35.2773 139.262 35.3727 139.522 35.5722C139.782 35.7716 139.912 36.0752 139.912 36.4914C139.912 36.9076 139.782 37.2112 139.522 37.4106C139.262 37.6101 138.975 37.7055 138.663 37.7055C138.368 37.7055 138.1 37.6101 137.839 37.4106C137.579 37.2112 137.449 36.9076 137.449 36.4914ZM139.418 41.4517V56.9396H137.891V41.4517H139.418Z" fill="black"/>
<path d="M145.133 41.5109L145.194 44.2598C145.445 43.7395 145.757 43.2973 146.13 42.933C146.503 42.5688 146.92 42.2653 147.379 42.0312C147.839 41.7884 148.316 41.6236 148.819 41.5195C149.322 41.4155 149.816 41.3634 150.319 41.3634C151.481 41.3201 152.591 41.6236 153.632 42.2653L152.946 43.5141C152.53 43.2626 152.105 43.0805 151.663 42.9677C151.229 42.855 150.778 42.7943 150.319 42.7943C149.59 42.7943 148.923 42.933 148.307 43.2192C147.691 43.4967 147.154 43.8783 146.703 44.3466C146.243 44.8148 145.888 45.3612 145.627 45.9682C145.367 46.5839 145.237 47.243 145.237 47.954V56.9468H143.711V41.5282H145.15L145.133 41.5109Z" fill="black"/>
<path d="M178.346 56.9395V47.6953C178.346 46.9495 178.224 46.2644 177.99 45.6487C177.747 45.033 177.409 44.5041 176.976 44.0531C176.542 43.6022 176.022 43.2553 175.415 43.0038C174.808 42.7523 174.149 42.6309 173.42 42.6309C172.692 42.6309 172.024 42.761 171.408 43.0212C170.793 43.2813 170.272 43.6369 169.83 44.0965C169.396 44.5561 169.058 45.0937 168.815 45.7181C168.573 46.3425 168.46 47.0276 168.46 47.782V56.9308H166.934V47.7994C166.934 47.0536 166.812 46.3685 166.578 45.7441C166.344 45.1198 165.997 44.5908 165.563 44.1398C165.13 43.6976 164.601 43.342 163.985 43.0819C163.37 42.8217 162.702 42.6916 161.973 42.6916C161.245 42.6916 160.577 42.8217 159.979 43.0819C159.372 43.342 158.851 43.6976 158.418 44.1398C157.984 44.5908 157.646 45.1198 157.403 45.7441C157.16 46.3685 157.048 47.0536 157.048 47.7994V56.9308H155.521V41.5123H156.961L156.996 44.0705C157.533 43.0472 158.262 42.3187 159.164 41.8678C160.066 41.4169 161.019 41.2001 162.017 41.2001C162.598 41.2001 163.179 41.2695 163.768 41.3995C164.349 41.5383 164.896 41.7551 165.407 42.0673C165.919 42.3794 166.379 42.7784 166.778 43.2553C167.185 43.7323 167.497 44.3133 167.731 45.007C167.957 44.3826 168.278 43.8276 168.685 43.3507C169.093 42.8737 169.553 42.4748 170.056 42.1453C170.558 41.8158 171.105 41.5816 171.677 41.4255C172.249 41.2694 172.839 41.1914 173.438 41.1914C174.374 41.1914 175.241 41.3475 176.03 41.6597C176.82 41.9719 177.505 42.4141 178.077 42.9865C178.649 43.5588 179.1 44.2439 179.421 45.0504C179.742 45.8482 179.907 46.7327 179.907 47.6866V56.9308H178.38L178.346 56.9395Z" fill="black"/>
<path d="M99 0L99 61" stroke="#D1D3D4" stroke-width="0.5" stroke-miterlimit="10"/>
<defs>
<linearGradient id="paint0_linear_151_332" x1="40.7057" y1="-10.434" x2="40.7057" y2="60.0421" gradientUnits="userSpaceOnUse">
<stop stop-color="#38A5B5"/>
<stop offset="1" stop-color="#26798D"/>
</linearGradient>
<linearGradient id="paint1_linear_151_332" x1="23.1797" y1="33.2112" x2="36.8118" y2="50.6417" gradientUnits="userSpaceOnUse">
<stop stop-color="#26798D"/>
<stop offset="1" stop-color="#38A5B5"/>
</linearGradient>
<linearGradient id="paint2_linear_151_332" x1="40.5914" y1="11.9654" x2="59.0278" y2="23.1867" gradientUnits="userSpaceOnUse">
<stop stop-color="#38A5B5"/>
<stop offset="1" stop-color="#26798D"/>
</linearGradient>
<linearGradient id="paint3_linear_151_332" x1="65.1691" y1="39.9753" x2="76.4859" y2="54.5006" gradientUnits="userSpaceOnUse">
<stop stop-color="#26798D"/>
<stop offset="1" stop-color="#38A5B5"/>
</linearGradient>
<linearGradient id="paint4_linear_151_332" x1="73.0241" y1="11.3403" x2="36.2815" y2="59.0441" gradientUnits="userSpaceOnUse">
<stop stop-color="#26798D"/>
<stop offset="0.5" stop-color="#38A5B5"/>
<stop offset="1" stop-color="#26798D"/>
</linearGradient>
</defs>
</svg>
