<svg width="38" height="44" viewBox="0 0 38 44" fill="none" xmlns="http://www.w3.org/2000/svg">
<mask id="path-1-outside-1_50_1971" maskUnits="userSpaceOnUse" x="0" y="0" width="38" height="44" fill="black">
<rect fill="white" width="38" height="44"/>
<path d="M18.5054 30.612C17.9062 30.6668 17.814 29.763 18.4224 29.7083L25.5481 29.0236C25.7693 28.6949 26.0459 28.1746 25.797 27.8094C25.4191 27.2343 24.0363 27.07 23.1882 27.0335C22.0267 26.9878 20.9113 26.9513 19.842 26.9239C19.8236 26.9239 19.8052 26.9239 19.7867 26.9239C18.6621 26.9057 17.602 26.9057 16.5972 26.9422C16.588 26.9422 16.5696 26.9422 16.5603 26.9422C13.629 27.0335 11.1861 27.3804 9.21343 28.202C6.10689 29.4892 4.17107 31.9996 3.34143 36.628H11.3889C11.9789 36.2628 12.6703 35.9616 13.4077 35.7516C14.1913 35.5234 15.0393 35.3865 15.9059 35.3499C24.9305 35.003 25.5389 34.5557 30.5259 30.895C31.7704 29.973 33.2822 28.8684 35.2088 27.5447C36.0016 26.997 36.444 26.3762 35.6052 25.9745C35.1166 25.7372 34.3884 25.7189 33.78 26.0202L25.9998 29.8726C25.9353 29.9 25.88 29.9182 25.8062 29.9182L18.5054 30.612ZM1 41.9958V37.6048C1 37.0571 1.44247 36.6189 1.99557 36.6189H2.4196C2.91739 33.6976 3.83921 31.5432 5.18507 29.9639C0.299415 25.7554 0.539089 18.1693 5.68285 14.2621C6.14376 13.906 6.49406 13.5226 6.71529 13.0662C6.09767 12.8836 5.66442 12.3176 5.66442 11.6695V10.0536C5.66442 9.40548 6.09767 8.83948 6.70607 8.6569L5.858 7.2054C4.86243 5.49829 6.45718 3.43515 8.39301 3.94637C8.7433 4.03766 9.07516 4.22024 9.3517 4.47585C9.43467 3.14302 10.5593 2.08406 11.9144 2.08406C13.2787 2.08406 14.3941 3.14302 14.477 4.47585C15.1961 3.80943 16.2654 3.6725 17.1411 4.17459C18.2288 4.79536 18.5884 6.21947 17.9523 7.24192L17.1227 8.66603C17.7311 8.84861 18.1643 9.41461 18.1643 10.0628V11.6786C18.1643 12.3267 17.7218 12.9019 17.1042 13.0753C17.3255 13.5318 17.6758 13.9152 18.1459 14.2712C18.7358 14.7185 19.2705 15.2297 19.7499 15.7866C20.137 15.2571 20.7639 14.9194 21.4552 14.9194H21.9807C17.6204 12.5458 16.7447 6.66679 20.2845 3.17041C23.2067 0.276531 27.9541 0.276531 30.8762 3.17041C34.416 6.66679 33.5403 12.5458 29.1801 14.9194H29.7055C31.669 14.9194 32.5632 17.3842 31.0145 18.6166C32.0654 19.4473 32.0654 21.0175 31.0145 21.8574C32.0654 22.6881 32.0654 24.2583 31.0145 25.0981C31.3187 25.3446 31.5584 25.6733 31.6874 26.0475L33.3928 25.2077C34.9415 24.4409 37.0893 25.1438 36.9971 26.5862C36.9603 27.1156 36.6007 27.7181 35.7527 28.2933C33.7892 29.6444 32.3143 30.7307 31.0975 31.6253C25.9076 35.4412 25.2716 35.9068 15.9612 36.2628C15.1684 36.2902 14.3941 36.418 13.6658 36.6371C14.0622 36.6371 14.3664 36.6097 14.689 36.9292C14.8734 37.1118 14.984 37.3492 14.984 37.6231V42.0141C14.984 42.5527 14.5416 43 13.9885 43H1.99557C1.45169 42.9817 1 42.5436 1 41.9958ZM1.93104 37.6139V42.0049C1.93104 42.0415 1.96791 42.078 2.00478 42.078H13.9792C14.0161 42.078 14.053 42.0415 14.053 42.0049V37.6139C14.053 37.5774 14.0161 37.5409 13.9792 37.5409H1.99557C1.95869 37.5409 1.93104 37.5683 1.93104 37.6139ZM5.81191 29.3157C6.4664 28.6858 7.21308 28.1655 8.04272 27.7455C4.42918 25.3355 3.91296 20.2598 7.00106 17.1925C9.71121 14.5086 14.0991 14.5086 16.8092 17.1925C19.206 19.566 19.5194 23.2906 17.5651 26.0202C18.1828 26.011 18.8188 26.011 19.4733 26.0202C19.6024 25.655 19.842 25.3355 20.137 25.0981C19.0861 24.2674 19.0861 22.6881 20.137 21.8574C19.0861 21.0266 19.0861 19.4564 20.137 18.6166C19.1875 17.8589 19.3627 16.7817 19.3627 16.7725C19.1322 16.4622 18.8741 16.17 18.6068 15.887C18.2934 15.5675 17.9523 15.2663 17.5836 14.9924C16.8922 14.472 16.4129 13.8787 16.1363 13.1301H7.69242C7.41588 13.8787 6.92731 14.472 6.23595 14.9924C1.54387 18.5618 1.35029 25.4816 5.81191 29.3157ZM9.05672 27.28C11.0663 26.4857 13.4907 26.1388 16.3668 26.0384C18.5146 23.6923 18.4316 20.0772 16.164 17.8315C13.8133 15.5036 10.0062 15.5036 7.66477 17.8315C4.80712 20.6523 5.52614 25.3903 9.05672 27.28ZM20.4965 26.0293C21.3723 26.0475 22.2849 26.0841 23.2343 26.1206C24.5525 26.1754 26.5713 26.4675 26.811 27.8733H27.9909L30.8578 26.4583C30.738 25.938 30.2678 25.5546 29.7147 25.5546H21.4644C21.0588 25.5455 20.7178 25.7372 20.4965 26.0293ZM26.0367 11.5143V11.9981C26.0367 12.6006 25.1148 12.6006 25.1148 11.9981V11.5143C24.2299 11.3499 23.4648 10.6653 23.4648 9.76151C23.4648 9.159 24.3866 9.159 24.3866 9.76151C24.3866 10.5557 25.7048 10.9665 26.4423 10.364C26.6359 10.2088 26.7557 9.98973 26.7557 9.76151C26.7557 8.26436 23.4648 9.56067 23.4648 7.06847C23.4648 6.1647 24.2207 5.48003 25.1148 5.31571V4.83188C25.1148 4.22936 26.0367 4.22936 26.0367 4.83188V5.31571C26.9216 5.48003 27.6867 6.1647 27.6867 7.06847C27.6867 7.67098 26.7649 7.67098 26.7649 7.06847C26.7649 6.27425 25.4467 5.86345 24.7093 6.46596C24.5157 6.62115 24.3958 6.84024 24.3958 7.06847C24.3958 8.56561 27.6867 7.2693 27.6867 9.76151C27.6867 10.6653 26.9216 11.3408 26.0367 11.5143ZM30.2217 3.80943C27.6591 1.27159 23.4924 1.27159 20.9298 3.80943C18.3671 6.34728 18.3671 10.4736 20.9298 13.0114C23.4924 15.5493 27.6591 15.5493 30.2217 13.0114C32.7844 10.4736 32.7844 6.34728 30.2217 3.80943ZM29.6963 15.8323C26.9493 15.8323 24.193 15.8323 21.446 15.8323C20.4136 15.8323 19.8697 17.0738 20.6164 17.8132C20.8284 18.0232 21.1234 18.151 21.446 18.151H29.6963C30.7287 18.151 31.2726 16.9095 30.5259 16.17C30.3139 15.9601 30.0282 15.8323 29.6963 15.8323ZM29.6963 21.3918C30.7287 21.3918 31.2726 20.1502 30.5259 19.4108C30.3139 19.2008 30.0189 19.073 29.6963 19.073H21.446C20.4136 19.073 19.8697 20.3146 20.6164 21.054C20.8284 21.264 21.1234 21.3918 21.446 21.3918H29.6963ZM29.6963 22.3047H21.446C20.4136 22.3047 19.8697 23.5462 20.6164 24.2857C20.8284 24.4956 21.1234 24.6234 21.446 24.6234H29.6963C30.7287 24.6234 31.2726 23.3819 30.5259 22.6425C30.3139 22.4416 30.0282 22.3047 29.6963 22.3047ZM12.3753 25.162V25.655C12.3753 26.2575 11.4535 26.2575 11.4535 25.655V25.162C10.5593 24.9977 9.79418 24.313 9.79418 23.4002C9.79418 22.7976 10.716 22.7976 10.716 23.4002C10.716 24.2035 12.0434 24.6143 12.7901 24.0027C12.9837 23.8383 13.1035 23.6284 13.1035 23.4002C13.1035 21.8939 9.79418 23.1993 9.79418 20.6889C9.79418 19.776 10.5593 19.0913 11.4535 18.9178V18.434C11.4535 17.8315 12.3753 17.8315 12.3753 18.434V18.9178C13.2694 19.0913 14.0346 19.776 14.0346 20.6889C14.0346 21.2914 13.1127 21.2914 13.1127 20.6889C13.1127 19.8855 11.7853 19.4747 11.0386 20.0863C10.8451 20.2507 10.7252 20.4606 10.7252 20.6889C10.7252 22.1951 14.0346 20.8897 14.0346 23.4002C14.0253 24.3039 13.2602 24.9886 12.3753 25.162ZM7.7293 8.60213H16.0994L17.178 6.75808C17.5375 6.13731 17.3255 5.31571 16.6894 4.95968C16.0626 4.60365 15.2421 4.81362 14.8734 5.44351L14.4402 6.18296C14.2005 6.63028 13.5644 6.4477 13.5644 5.98212V4.63104C13.5644 3.18867 11.7945 2.44922 10.7529 3.48079C10.4579 3.77292 10.2735 4.18372 10.2735 4.63104V5.97299C10.2735 6.43857 9.6559 6.60289 9.41623 6.20122L8.97376 5.43439C8.37457 4.42107 6.84435 4.62191 6.54015 5.7539C6.44796 6.08254 6.48484 6.43857 6.6692 6.74895L7.7293 8.60213ZM16.6894 9.50589H7.13011C6.82591 9.50589 6.57702 9.75238 6.57702 10.0536V11.6695C6.57702 11.9707 6.82591 12.2172 7.13011 12.2172H16.6894C16.9936 12.2172 17.2425 11.9707 17.2425 11.6695V10.0536C17.2425 9.76151 16.9936 9.50589 16.6894 9.50589Z"/>
</mask>
<path d="M18.5054 30.612C17.9062 30.6668 17.814 29.763 18.4224 29.7083L25.5481 29.0236C25.7693 28.6949 26.0459 28.1746 25.797 27.8094C25.4191 27.2343 24.0363 27.07 23.1882 27.0335C22.0267 26.9878 20.9113 26.9513 19.842 26.9239C19.8236 26.9239 19.8052 26.9239 19.7867 26.9239C18.6621 26.9057 17.602 26.9057 16.5972 26.9422C16.588 26.9422 16.5696 26.9422 16.5603 26.9422C13.629 27.0335 11.1861 27.3804 9.21343 28.202C6.10689 29.4892 4.17107 31.9996 3.34143 36.628H11.3889C11.9789 36.2628 12.6703 35.9616 13.4077 35.7516C14.1913 35.5234 15.0393 35.3865 15.9059 35.3499C24.9305 35.003 25.5389 34.5557 30.5259 30.895C31.7704 29.973 33.2822 28.8684 35.2088 27.5447C36.0016 26.997 36.444 26.3762 35.6052 25.9745C35.1166 25.7372 34.3884 25.7189 33.78 26.0202L25.9998 29.8726C25.9353 29.9 25.88 29.9182 25.8062 29.9182L18.5054 30.612ZM1 41.9958V37.6048C1 37.0571 1.44247 36.6189 1.99557 36.6189H2.4196C2.91739 33.6976 3.83921 31.5432 5.18507 29.9639C0.299415 25.7554 0.539089 18.1693 5.68285 14.2621C6.14376 13.906 6.49406 13.5226 6.71529 13.0662C6.09767 12.8836 5.66442 12.3176 5.66442 11.6695V10.0536C5.66442 9.40548 6.09767 8.83948 6.70607 8.6569L5.858 7.2054C4.86243 5.49829 6.45718 3.43515 8.39301 3.94637C8.7433 4.03766 9.07516 4.22024 9.3517 4.47585C9.43467 3.14302 10.5593 2.08406 11.9144 2.08406C13.2787 2.08406 14.3941 3.14302 14.477 4.47585C15.1961 3.80943 16.2654 3.6725 17.1411 4.17459C18.2288 4.79536 18.5884 6.21947 17.9523 7.24192L17.1227 8.66603C17.7311 8.84861 18.1643 9.41461 18.1643 10.0628V11.6786C18.1643 12.3267 17.7218 12.9019 17.1042 13.0753C17.3255 13.5318 17.6758 13.9152 18.1459 14.2712C18.7358 14.7185 19.2705 15.2297 19.7499 15.7866C20.137 15.2571 20.7639 14.9194 21.4552 14.9194H21.9807C17.6204 12.5458 16.7447 6.66679 20.2845 3.17041C23.2067 0.276531 27.9541 0.276531 30.8762 3.17041C34.416 6.66679 33.5403 12.5458 29.1801 14.9194H29.7055C31.669 14.9194 32.5632 17.3842 31.0145 18.6166C32.0654 19.4473 32.0654 21.0175 31.0145 21.8574C32.0654 22.6881 32.0654 24.2583 31.0145 25.0981C31.3187 25.3446 31.5584 25.6733 31.6874 26.0475L33.3928 25.2077C34.9415 24.4409 37.0893 25.1438 36.9971 26.5862C36.9603 27.1156 36.6007 27.7181 35.7527 28.2933C33.7892 29.6444 32.3143 30.7307 31.0975 31.6253C25.9076 35.4412 25.2716 35.9068 15.9612 36.2628C15.1684 36.2902 14.3941 36.418 13.6658 36.6371C14.0622 36.6371 14.3664 36.6097 14.689 36.9292C14.8734 37.1118 14.984 37.3492 14.984 37.6231V42.0141C14.984 42.5527 14.5416 43 13.9885 43H1.99557C1.45169 42.9817 1 42.5436 1 41.9958ZM1.93104 37.6139V42.0049C1.93104 42.0415 1.96791 42.078 2.00478 42.078H13.9792C14.0161 42.078 14.053 42.0415 14.053 42.0049V37.6139C14.053 37.5774 14.0161 37.5409 13.9792 37.5409H1.99557C1.95869 37.5409 1.93104 37.5683 1.93104 37.6139ZM5.81191 29.3157C6.4664 28.6858 7.21308 28.1655 8.04272 27.7455C4.42918 25.3355 3.91296 20.2598 7.00106 17.1925C9.71121 14.5086 14.0991 14.5086 16.8092 17.1925C19.206 19.566 19.5194 23.2906 17.5651 26.0202C18.1828 26.011 18.8188 26.011 19.4733 26.0202C19.6024 25.655 19.842 25.3355 20.137 25.0981C19.0861 24.2674 19.0861 22.6881 20.137 21.8574C19.0861 21.0266 19.0861 19.4564 20.137 18.6166C19.1875 17.8589 19.3627 16.7817 19.3627 16.7725C19.1322 16.4622 18.8741 16.17 18.6068 15.887C18.2934 15.5675 17.9523 15.2663 17.5836 14.9924C16.8922 14.472 16.4129 13.8787 16.1363 13.1301H7.69242C7.41588 13.8787 6.92731 14.472 6.23595 14.9924C1.54387 18.5618 1.35029 25.4816 5.81191 29.3157ZM9.05672 27.28C11.0663 26.4857 13.4907 26.1388 16.3668 26.0384C18.5146 23.6923 18.4316 20.0772 16.164 17.8315C13.8133 15.5036 10.0062 15.5036 7.66477 17.8315C4.80712 20.6523 5.52614 25.3903 9.05672 27.28ZM20.4965 26.0293C21.3723 26.0475 22.2849 26.0841 23.2343 26.1206C24.5525 26.1754 26.5713 26.4675 26.811 27.8733H27.9909L30.8578 26.4583C30.738 25.938 30.2678 25.5546 29.7147 25.5546H21.4644C21.0588 25.5455 20.7178 25.7372 20.4965 26.0293ZM26.0367 11.5143V11.9981C26.0367 12.6006 25.1148 12.6006 25.1148 11.9981V11.5143C24.2299 11.3499 23.4648 10.6653 23.4648 9.76151C23.4648 9.159 24.3866 9.159 24.3866 9.76151C24.3866 10.5557 25.7048 10.9665 26.4423 10.364C26.6359 10.2088 26.7557 9.98973 26.7557 9.76151C26.7557 8.26436 23.4648 9.56067 23.4648 7.06847C23.4648 6.1647 24.2207 5.48003 25.1148 5.31571V4.83188C25.1148 4.22936 26.0367 4.22936 26.0367 4.83188V5.31571C26.9216 5.48003 27.6867 6.1647 27.6867 7.06847C27.6867 7.67098 26.7649 7.67098 26.7649 7.06847C26.7649 6.27425 25.4467 5.86345 24.7093 6.46596C24.5157 6.62115 24.3958 6.84024 24.3958 7.06847C24.3958 8.56561 27.6867 7.2693 27.6867 9.76151C27.6867 10.6653 26.9216 11.3408 26.0367 11.5143ZM30.2217 3.80943C27.6591 1.27159 23.4924 1.27159 20.9298 3.80943C18.3671 6.34728 18.3671 10.4736 20.9298 13.0114C23.4924 15.5493 27.6591 15.5493 30.2217 13.0114C32.7844 10.4736 32.7844 6.34728 30.2217 3.80943ZM29.6963 15.8323C26.9493 15.8323 24.193 15.8323 21.446 15.8323C20.4136 15.8323 19.8697 17.0738 20.6164 17.8132C20.8284 18.0232 21.1234 18.151 21.446 18.151H29.6963C30.7287 18.151 31.2726 16.9095 30.5259 16.17C30.3139 15.9601 30.0282 15.8323 29.6963 15.8323ZM29.6963 21.3918C30.7287 21.3918 31.2726 20.1502 30.5259 19.4108C30.3139 19.2008 30.0189 19.073 29.6963 19.073H21.446C20.4136 19.073 19.8697 20.3146 20.6164 21.054C20.8284 21.264 21.1234 21.3918 21.446 21.3918H29.6963ZM29.6963 22.3047H21.446C20.4136 22.3047 19.8697 23.5462 20.6164 24.2857C20.8284 24.4956 21.1234 24.6234 21.446 24.6234H29.6963C30.7287 24.6234 31.2726 23.3819 30.5259 22.6425C30.3139 22.4416 30.0282 22.3047 29.6963 22.3047ZM12.3753 25.162V25.655C12.3753 26.2575 11.4535 26.2575 11.4535 25.655V25.162C10.5593 24.9977 9.79418 24.313 9.79418 23.4002C9.79418 22.7976 10.716 22.7976 10.716 23.4002C10.716 24.2035 12.0434 24.6143 12.7901 24.0027C12.9837 23.8383 13.1035 23.6284 13.1035 23.4002C13.1035 21.8939 9.79418 23.1993 9.79418 20.6889C9.79418 19.776 10.5593 19.0913 11.4535 18.9178V18.434C11.4535 17.8315 12.3753 17.8315 12.3753 18.434V18.9178C13.2694 19.0913 14.0346 19.776 14.0346 20.6889C14.0346 21.2914 13.1127 21.2914 13.1127 20.6889C13.1127 19.8855 11.7853 19.4747 11.0386 20.0863C10.8451 20.2507 10.7252 20.4606 10.7252 20.6889C10.7252 22.1951 14.0346 20.8897 14.0346 23.4002C14.0253 24.3039 13.2602 24.9886 12.3753 25.162ZM7.7293 8.60213H16.0994L17.178 6.75808C17.5375 6.13731 17.3255 5.31571 16.6894 4.95968C16.0626 4.60365 15.2421 4.81362 14.8734 5.44351L14.4402 6.18296C14.2005 6.63028 13.5644 6.4477 13.5644 5.98212V4.63104C13.5644 3.18867 11.7945 2.44922 10.7529 3.48079C10.4579 3.77292 10.2735 4.18372 10.2735 4.63104V5.97299C10.2735 6.43857 9.6559 6.60289 9.41623 6.20122L8.97376 5.43439C8.37457 4.42107 6.84435 4.62191 6.54015 5.7539C6.44796 6.08254 6.48484 6.43857 6.6692 6.74895L7.7293 8.60213ZM16.6894 9.50589H7.13011C6.82591 9.50589 6.57702 9.75238 6.57702 10.0536V11.6695C6.57702 11.9707 6.82591 12.2172 7.13011 12.2172H16.6894C16.9936 12.2172 17.2425 11.9707 17.2425 11.6695V10.0536C17.2425 9.76151 16.9936 9.50589 16.6894 9.50589Z" fill="white"/>
<path d="M18.5054 30.612C17.9062 30.6668 17.814 29.763 18.4224 29.7083L25.5481 29.0236C25.7693 28.6949 26.0459 28.1746 25.797 27.8094C25.4191 27.2343 24.0363 27.07 23.1882 27.0335C22.0267 26.9878 20.9113 26.9513 19.842 26.9239C19.8236 26.9239 19.8052 26.9239 19.7867 26.9239C18.6621 26.9057 17.602 26.9057 16.5972 26.9422C16.588 26.9422 16.5696 26.9422 16.5603 26.9422C13.629 27.0335 11.1861 27.3804 9.21343 28.202C6.10689 29.4892 4.17107 31.9996 3.34143 36.628H11.3889C11.9789 36.2628 12.6703 35.9616 13.4077 35.7516C14.1913 35.5234 15.0393 35.3865 15.9059 35.3499C24.9305 35.003 25.5389 34.5557 30.5259 30.895C31.7704 29.973 33.2822 28.8684 35.2088 27.5447C36.0016 26.997 36.444 26.3762 35.6052 25.9745C35.1166 25.7372 34.3884 25.7189 33.78 26.0202L25.9998 29.8726C25.9353 29.9 25.88 29.9182 25.8062 29.9182L18.5054 30.612ZM1 41.9958V37.6048C1 37.0571 1.44247 36.6189 1.99557 36.6189H2.4196C2.91739 33.6976 3.83921 31.5432 5.18507 29.9639C0.299415 25.7554 0.539089 18.1693 5.68285 14.2621C6.14376 13.906 6.49406 13.5226 6.71529 13.0662C6.09767 12.8836 5.66442 12.3176 5.66442 11.6695V10.0536C5.66442 9.40548 6.09767 8.83948 6.70607 8.6569L5.858 7.2054C4.86243 5.49829 6.45718 3.43515 8.39301 3.94637C8.7433 4.03766 9.07516 4.22024 9.3517 4.47585C9.43467 3.14302 10.5593 2.08406 11.9144 2.08406C13.2787 2.08406 14.3941 3.14302 14.477 4.47585C15.1961 3.80943 16.2654 3.6725 17.1411 4.17459C18.2288 4.79536 18.5884 6.21947 17.9523 7.24192L17.1227 8.66603C17.7311 8.84861 18.1643 9.41461 18.1643 10.0628V11.6786C18.1643 12.3267 17.7218 12.9019 17.1042 13.0753C17.3255 13.5318 17.6758 13.9152 18.1459 14.2712C18.7358 14.7185 19.2705 15.2297 19.7499 15.7866C20.137 15.2571 20.7639 14.9194 21.4552 14.9194H21.9807C17.6204 12.5458 16.7447 6.66679 20.2845 3.17041C23.2067 0.276531 27.9541 0.276531 30.8762 3.17041C34.416 6.66679 33.5403 12.5458 29.1801 14.9194H29.7055C31.669 14.9194 32.5632 17.3842 31.0145 18.6166C32.0654 19.4473 32.0654 21.0175 31.0145 21.8574C32.0654 22.6881 32.0654 24.2583 31.0145 25.0981C31.3187 25.3446 31.5584 25.6733 31.6874 26.0475L33.3928 25.2077C34.9415 24.4409 37.0893 25.1438 36.9971 26.5862C36.9603 27.1156 36.6007 27.7181 35.7527 28.2933C33.7892 29.6444 32.3143 30.7307 31.0975 31.6253C25.9076 35.4412 25.2716 35.9068 15.9612 36.2628C15.1684 36.2902 14.3941 36.418 13.6658 36.6371C14.0622 36.6371 14.3664 36.6097 14.689 36.9292C14.8734 37.1118 14.984 37.3492 14.984 37.6231V42.0141C14.984 42.5527 14.5416 43 13.9885 43H1.99557C1.45169 42.9817 1 42.5436 1 41.9958ZM1.93104 37.6139V42.0049C1.93104 42.0415 1.96791 42.078 2.00478 42.078H13.9792C14.0161 42.078 14.053 42.0415 14.053 42.0049V37.6139C14.053 37.5774 14.0161 37.5409 13.9792 37.5409H1.99557C1.95869 37.5409 1.93104 37.5683 1.93104 37.6139ZM5.81191 29.3157C6.4664 28.6858 7.21308 28.1655 8.04272 27.7455C4.42918 25.3355 3.91296 20.2598 7.00106 17.1925C9.71121 14.5086 14.0991 14.5086 16.8092 17.1925C19.206 19.566 19.5194 23.2906 17.5651 26.0202C18.1828 26.011 18.8188 26.011 19.4733 26.0202C19.6024 25.655 19.842 25.3355 20.137 25.0981C19.0861 24.2674 19.0861 22.6881 20.137 21.8574C19.0861 21.0266 19.0861 19.4564 20.137 18.6166C19.1875 17.8589 19.3627 16.7817 19.3627 16.7725C19.1322 16.4622 18.8741 16.17 18.6068 15.887C18.2934 15.5675 17.9523 15.2663 17.5836 14.9924C16.8922 14.472 16.4129 13.8787 16.1363 13.1301H7.69242C7.41588 13.8787 6.92731 14.472 6.23595 14.9924C1.54387 18.5618 1.35029 25.4816 5.81191 29.3157ZM9.05672 27.28C11.0663 26.4857 13.4907 26.1388 16.3668 26.0384C18.5146 23.6923 18.4316 20.0772 16.164 17.8315C13.8133 15.5036 10.0062 15.5036 7.66477 17.8315C4.80712 20.6523 5.52614 25.3903 9.05672 27.28ZM20.4965 26.0293C21.3723 26.0475 22.2849 26.0841 23.2343 26.1206C24.5525 26.1754 26.5713 26.4675 26.811 27.8733H27.9909L30.8578 26.4583C30.738 25.938 30.2678 25.5546 29.7147 25.5546H21.4644C21.0588 25.5455 20.7178 25.7372 20.4965 26.0293ZM26.0367 11.5143V11.9981C26.0367 12.6006 25.1148 12.6006 25.1148 11.9981V11.5143C24.2299 11.3499 23.4648 10.6653 23.4648 9.76151C23.4648 9.159 24.3866 9.159 24.3866 9.76151C24.3866 10.5557 25.7048 10.9665 26.4423 10.364C26.6359 10.2088 26.7557 9.98973 26.7557 9.76151C26.7557 8.26436 23.4648 9.56067 23.4648 7.06847C23.4648 6.1647 24.2207 5.48003 25.1148 5.31571V4.83188C25.1148 4.22936 26.0367 4.22936 26.0367 4.83188V5.31571C26.9216 5.48003 27.6867 6.1647 27.6867 7.06847C27.6867 7.67098 26.7649 7.67098 26.7649 7.06847C26.7649 6.27425 25.4467 5.86345 24.7093 6.46596C24.5157 6.62115 24.3958 6.84024 24.3958 7.06847C24.3958 8.56561 27.6867 7.2693 27.6867 9.76151C27.6867 10.6653 26.9216 11.3408 26.0367 11.5143ZM30.2217 3.80943C27.6591 1.27159 23.4924 1.27159 20.9298 3.80943C18.3671 6.34728 18.3671 10.4736 20.9298 13.0114C23.4924 15.5493 27.6591 15.5493 30.2217 13.0114C32.7844 10.4736 32.7844 6.34728 30.2217 3.80943ZM29.6963 15.8323C26.9493 15.8323 24.193 15.8323 21.446 15.8323C20.4136 15.8323 19.8697 17.0738 20.6164 17.8132C20.8284 18.0232 21.1234 18.151 21.446 18.151H29.6963C30.7287 18.151 31.2726 16.9095 30.5259 16.17C30.3139 15.9601 30.0282 15.8323 29.6963 15.8323ZM29.6963 21.3918C30.7287 21.3918 31.2726 20.1502 30.5259 19.4108C30.3139 19.2008 30.0189 19.073 29.6963 19.073H21.446C20.4136 19.073 19.8697 20.3146 20.6164 21.054C20.8284 21.264 21.1234 21.3918 21.446 21.3918H29.6963ZM29.6963 22.3047H21.446C20.4136 22.3047 19.8697 23.5462 20.6164 24.2857C20.8284 24.4956 21.1234 24.6234 21.446 24.6234H29.6963C30.7287 24.6234 31.2726 23.3819 30.5259 22.6425C30.3139 22.4416 30.0282 22.3047 29.6963 22.3047ZM12.3753 25.162V25.655C12.3753 26.2575 11.4535 26.2575 11.4535 25.655V25.162C10.5593 24.9977 9.79418 24.313 9.79418 23.4002C9.79418 22.7976 10.716 22.7976 10.716 23.4002C10.716 24.2035 12.0434 24.6143 12.7901 24.0027C12.9837 23.8383 13.1035 23.6284 13.1035 23.4002C13.1035 21.8939 9.79418 23.1993 9.79418 20.6889C9.79418 19.776 10.5593 19.0913 11.4535 18.9178V18.434C11.4535 17.8315 12.3753 17.8315 12.3753 18.434V18.9178C13.2694 19.0913 14.0346 19.776 14.0346 20.6889C14.0346 21.2914 13.1127 21.2914 13.1127 20.6889C13.1127 19.8855 11.7853 19.4747 11.0386 20.0863C10.8451 20.2507 10.7252 20.4606 10.7252 20.6889C10.7252 22.1951 14.0346 20.8897 14.0346 23.4002C14.0253 24.3039 13.2602 24.9886 12.3753 25.162ZM7.7293 8.60213H16.0994L17.178 6.75808C17.5375 6.13731 17.3255 5.31571 16.6894 4.95968C16.0626 4.60365 15.2421 4.81362 14.8734 5.44351L14.4402 6.18296C14.2005 6.63028 13.5644 6.4477 13.5644 5.98212V4.63104C13.5644 3.18867 11.7945 2.44922 10.7529 3.48079C10.4579 3.77292 10.2735 4.18372 10.2735 4.63104V5.97299C10.2735 6.43857 9.6559 6.60289 9.41623 6.20122L8.97376 5.43439C8.37457 4.42107 6.84435 4.62191 6.54015 5.7539C6.44796 6.08254 6.48484 6.43857 6.6692 6.74895L7.7293 8.60213ZM16.6894 9.50589H7.13011C6.82591 9.50589 6.57702 9.75238 6.57702 10.0536V11.6695C6.57702 11.9707 6.82591 12.2172 7.13011 12.2172H16.6894C16.9936 12.2172 17.2425 11.9707 17.2425 11.6695V10.0536C17.2425 9.76151 16.9936 9.50589 16.6894 9.50589Z" stroke="white" stroke-width="0.4" mask="url(#path-1-outside-1_50_1971)"/>
</svg>
