<svg width="40" height="38" viewBox="0 0 40 38" fill="none" xmlns="http://www.w3.org/2000/svg">
<path d="M39.3762 36.2487H37.919V20.6968C37.9193 20.5754 37.8842 20.4566 37.8183 20.3548C37.7523 20.253 37.6582 20.1727 37.5476 20.1237L36.6639 19.7317V12.9896C36.6637 12.8241 36.5981 12.6655 36.4815 12.5484C36.365 12.4313 36.2069 12.3653 36.0419 12.3648H29.1412V3.73488C29.1409 3.6526 29.1245 3.57119 29.0928 3.49531C29.0611 3.41942 29.0147 3.35055 28.9565 3.29264C28.8982 3.23474 28.8291 3.18893 28.7532 3.15783C28.6772 3.12674 28.5959 3.11098 28.5139 3.11146H27.2144V1.12567C27.2144 1.04351 27.1983 0.962147 27.1669 0.886237C27.1356 0.810327 27.0896 0.741354 27.0317 0.683255C26.9738 0.625156 26.905 0.579069 26.8293 0.547626C26.7537 0.516183 26.6725 0.5 26.5906 0.5H10.015C9.84958 0.5 9.69093 0.565919 9.57395 0.683255C9.45697 0.800591 9.39126 0.959733 9.39126 1.12567V3.11146H8.08057C7.91526 3.11146 7.75672 3.17733 7.63982 3.29458C7.52293 3.41183 7.45726 3.57086 7.45726 3.73668V15.7916H2.70338C2.53807 15.7916 2.37953 15.8575 2.26264 15.9748C2.14574 16.092 2.08008 16.251 2.08008 16.4169V19.0283C2.08008 19.1942 2.14573 19.3533 2.26261 19.4706C2.37949 19.5879 2.53803 19.6539 2.70338 19.654H3.05379V36.2487H0.623754C0.458324 36.2487 0.29967 36.3146 0.182693 36.4319C0.0657166 36.5492 0 36.7084 0 36.8743C0 37.0403 0.0657166 37.1994 0.182693 37.3167C0.29967 37.4341 0.458324 37.5 0.623754 37.5H39.3762C39.5417 37.5 39.7003 37.4341 39.8173 37.3167C39.9343 37.1994 40 37.0403 40 36.8743C40 36.7084 39.9343 36.5492 39.8173 36.4319C39.7003 36.3146 39.5417 36.2487 39.3762 36.2487ZM35.4146 19.1798L34.2863 18.6795L24.5469 14.3583V13.6157H35.4146V19.1798ZM10.6347 1.75359H25.9664V3.11371H10.6383L10.6347 1.75359ZM8.70163 4.3646H27.8915V12.3653H23.9236C23.7581 12.3653 23.5995 12.4312 23.4825 12.5485C23.3655 12.6659 23.2998 12.825 23.2998 12.991V13.8059L22.9207 13.6373C22.8258 13.5952 22.7218 13.5775 22.6183 13.5859C22.5148 13.5942 22.4151 13.6284 22.3281 13.6852C22.2411 13.742 22.1696 13.8197 22.1201 13.9113C22.0706 14.0028 22.0447 14.1053 22.0447 14.2095V36.2487H18.9304V19.654H19.2804C19.4457 19.6539 19.6042 19.5879 19.7211 19.4706C19.838 19.3533 19.9037 19.1942 19.9037 19.0283V16.4169C19.9037 16.251 19.838 16.092 19.7211 15.9748C19.6042 15.8575 19.4457 15.7916 19.2804 15.7916H8.70522L8.70163 4.3646ZM3.32445 17.0448H18.6557V18.4049H3.32803L3.32445 17.0448ZM8.08057 36.2487H4.30175V19.654H17.6833V36.2487H8.08057ZM28.5139 36.2487H23.2922V15.1682L23.6663 15.3341L23.6713 15.3372L35.2748 20.4833L36.672 21.1031V36.2505L28.5139 36.2487ZM9.47371 21.0811H6.78511C6.61968 21.0811 6.46103 21.147 6.34405 21.2643C6.22708 21.3817 6.16136 21.5408 6.16136 21.7067V24.4036C6.16148 24.5695 6.22725 24.7285 6.34421 24.8457C6.46117 24.963 6.61976 25.0288 6.78511 25.0288H9.47371C9.5556 25.0288 9.63669 25.0126 9.71234 24.9812C9.78799 24.9497 9.85672 24.9037 9.91461 24.8455C9.97249 24.7874 10.0184 24.7185 10.0497 24.6426C10.081 24.5667 10.0971 24.4853 10.097 24.4032V21.7063C10.0969 21.5405 10.0312 21.3816 9.91432 21.2643C9.79745 21.1471 9.63898 21.0812 9.47371 21.0811ZM8.84995 23.7779H7.40842V22.3324H8.84906L8.84995 23.7779ZM15.2062 21.0811H12.5176C12.3522 21.0811 12.1936 21.147 12.0766 21.2643C11.9596 21.3817 11.8939 21.5408 11.8939 21.7067V24.4036C11.8941 24.5692 11.9598 24.728 12.0766 24.8451C12.1933 24.9622 12.3516 25.0281 12.5167 25.0284H15.2053C15.3707 25.0284 15.5292 24.9625 15.6461 24.8453C15.763 24.728 15.8286 24.569 15.8286 24.4032V21.7063C15.8285 21.5405 15.7628 21.3816 15.646 21.2643C15.5291 21.1471 15.3706 21.0812 15.2053 21.0811H15.2062ZM14.5825 23.7779H13.1441V22.3324H14.5825V23.7779ZM9.47415 25.9804H6.78556C6.62013 25.9804 6.46148 26.0463 6.3445 26.1636C6.22752 26.281 6.16181 26.4401 6.16181 26.606V29.3029C6.16181 29.4688 6.22752 29.628 6.3445 29.7453C6.46148 29.8627 6.62013 29.9286 6.78556 29.9286H9.47415C9.55629 29.9285 9.6376 29.9121 9.71341 29.8803C9.78922 29.8486 9.85804 29.8022 9.91591 29.7437C9.97378 29.6853 10.0196 29.6159 10.0506 29.5396C10.0817 29.4634 10.0975 29.3817 10.097 29.2993V26.6024C10.0968 26.4367 10.031 26.2779 9.91416 26.1608C9.79731 26.0436 9.6389 25.9778 9.47371 25.9777L9.47415 25.9804ZM8.8504 28.6772H7.40842V27.229H8.84906L8.8504 28.6772ZM15.2067 25.9804H12.5181C12.3527 25.9804 12.194 26.0463 12.077 26.1636C11.9601 26.281 11.8943 26.4401 11.8943 26.606V29.3029C11.8953 29.468 11.9612 29.626 12.0778 29.7425C12.1944 29.859 12.3522 29.9246 12.5167 29.925H15.2053C15.3707 29.9249 15.5292 29.8589 15.6461 29.7416C15.763 29.6242 15.8286 29.4652 15.8286 29.2993V26.6024C15.8284 26.4367 15.7626 26.2779 15.6458 26.1608C15.5289 26.0436 15.3705 25.9778 15.2053 25.9777L15.2067 25.9804ZM14.5829 28.6772H13.1441V27.229H14.5825L14.5829 28.6772ZM9.4746 30.8797H6.78601C6.62058 30.8797 6.46193 30.9456 6.34495 31.0629C6.22797 31.1803 6.16226 31.3394 6.16226 31.5053V34.2022C6.16391 34.367 6.23035 34.5246 6.34715 34.6405C6.46395 34.7565 6.62166 34.8216 6.78601 34.8216H9.4746C9.6398 34.8212 9.79811 34.7551 9.91479 34.6378C10.0315 34.5205 10.097 34.3616 10.097 34.1959V31.499C10.0967 31.3334 10.0308 31.1747 9.914 31.0577C9.79716 30.9406 9.63883 30.8748 9.47371 30.8747L9.4746 30.8797ZM8.85085 33.5765H7.40842V32.1247H8.84906L8.85085 33.5765ZM15.2071 30.8797H12.5185C12.3531 30.8797 12.1945 30.9456 12.0775 31.0629C11.9605 31.1803 11.8948 31.3394 11.8948 31.5053V34.2022C11.8964 34.3667 11.9626 34.524 12.079 34.6399C12.1955 34.7558 12.3527 34.8211 12.5167 34.8216H15.2053C15.3707 34.8214 15.5292 34.7555 15.6461 34.6382C15.763 34.5208 15.8286 34.3618 15.8286 34.1959V31.499C15.8283 31.3334 15.7625 31.1747 15.6456 31.0577C15.5288 30.9406 15.3705 30.8748 15.2053 30.8747L15.2071 30.8797ZM14.5834 33.5765H13.1441V32.1247H14.5825L14.5834 33.5765ZM14.2249 5.72966H11.2899C11.1245 5.72978 10.966 5.79575 10.8491 5.91307C10.7322 6.0304 10.6665 6.18947 10.6665 6.35533V9.29131C10.6665 9.45717 10.7322 9.61624 10.8491 9.73357C10.966 9.85089 11.1245 9.91686 11.2899 9.91698H14.2195C14.3017 9.91745 14.3832 9.90162 14.4593 9.87039C14.5354 9.83916 14.6046 9.79315 14.6629 9.735C14.7212 9.67686 14.7675 9.60772 14.799 9.53158C14.8306 9.45543 14.8469 9.37378 14.8469 9.29131V6.34949C14.8469 6.26702 14.8306 6.18536 14.799 6.10922C14.7675 6.03307 14.7212 5.96394 14.6629 5.90579C14.6046 5.84765 14.5354 5.80164 14.4593 5.77041C14.3832 5.73917 14.3017 5.72334 14.2195 5.72381L14.2249 5.72966ZM13.6016 8.67013H11.9167V6.97516H13.6016V8.67013ZM16.8382 9.92103H19.7697C19.8517 9.92062 19.9328 9.90399 20.0083 9.87211C20.0839 9.84023 20.1525 9.79372 20.2101 9.73523C20.2678 9.67675 20.3134 9.60743 20.3443 9.53126C20.3752 9.45509 20.3908 9.37355 20.3903 9.29131V6.34949C20.3903 6.18355 20.3246 6.02441 20.2076 5.90707C20.0906 5.78973 19.932 5.72381 19.7665 5.72381H16.8351C16.7532 5.72381 16.6721 5.74 16.5964 5.77144C16.5207 5.80289 16.4519 5.84897 16.394 5.90707C16.3361 5.96517 16.2901 6.03414 16.2588 6.11005C16.2275 6.18596 16.2113 6.26732 16.2113 6.34949V9.29131C16.2118 9.45694 16.2777 9.61562 16.3946 9.73256C16.5116 9.84951 16.67 9.91518 16.8351 9.91518L16.8382 9.92103ZM17.4615 6.981H19.1464V8.67013H17.4615V6.981ZM22.383 9.92103H25.3145C25.3964 9.92056 25.4775 9.90389 25.553 9.87198C25.6285 9.84008 25.697 9.79355 25.7546 9.73507C25.8122 9.67659 25.8578 9.6073 25.8886 9.53116C25.9195 9.45501 25.9352 9.37351 25.9346 9.29131V6.34949C25.9346 6.18363 25.869 6.02455 25.7521 5.90723C25.6352 5.78991 25.4767 5.72393 25.3113 5.72381H22.3799C22.2144 5.72381 22.0558 5.78973 21.9388 5.90707C21.8218 6.02441 21.7561 6.18355 21.7561 6.34949V9.29131C21.7566 9.45694 21.8225 9.61562 21.9394 9.73256C22.0563 9.84951 22.2147 9.91518 22.3799 9.91518L22.383 9.92103ZM23.0023 6.97516H24.6867V8.66429H23.0023V6.97516ZM26.2178 19.2949V34.1959C26.2201 34.2794 26.2056 34.3626 26.1752 34.4404C26.1449 34.5183 26.0993 34.5892 26.0412 34.6491C25.9831 34.709 25.9136 34.7566 25.8368 34.7891C25.7601 34.8216 25.6776 34.8383 25.5943 34.8383C25.511 34.8383 25.4285 34.8216 25.3517 34.7891C25.275 34.7566 25.2055 34.709 25.1474 34.6491C25.0892 34.5892 25.0437 34.5183 25.0133 34.4404C24.983 34.3626 24.9685 34.2794 24.9708 34.1959V19.2949C24.9751 19.1319 25.0427 18.977 25.1592 18.8633C25.2756 18.7496 25.4318 18.686 25.5943 18.686C25.7568 18.686 25.9129 18.7496 26.0294 18.8633C26.1459 18.977 26.2135 19.1319 26.2178 19.2949ZM29.1381 20.1938V34.1959C29.1381 34.3618 29.0724 34.521 28.9554 34.6383C28.8384 34.7556 28.6798 34.8216 28.5143 34.8216C28.3489 34.8216 28.1902 34.7556 28.0733 34.6383C27.9563 34.521 27.8906 34.3618 27.8906 34.1959V20.1925C27.8906 20.0265 27.9563 19.8674 28.0733 19.75C28.1902 19.6327 28.3489 19.5668 28.5143 19.5668C28.6798 19.5668 28.8384 19.6327 28.9554 19.75C29.0724 19.8674 29.1381 20.0265 29.1381 20.1925V20.1938ZM32.0646 21.1827V34.1959C32.0668 34.2794 32.0524 34.3626 32.022 34.4404C31.9917 34.5183 31.9461 34.5892 31.888 34.6491C31.8299 34.709 31.7604 34.7566 31.6836 34.7891C31.6069 34.8216 31.5244 34.8383 31.4411 34.8383C31.3578 34.8383 31.2753 34.8216 31.1985 34.7891C31.1218 34.7566 31.0523 34.709 30.9942 34.6491C30.936 34.5892 30.8905 34.5183 30.8601 34.4404C30.8298 34.3626 30.8153 34.2794 30.8176 34.1959V21.1827C30.8219 21.0197 30.8895 20.8648 31.006 20.7511C31.1224 20.6374 31.2786 20.5738 31.4411 20.5738C31.6036 20.5738 31.7597 20.6374 31.8762 20.7511C31.9927 20.8648 32.0603 21.0197 32.0646 21.1827ZM34.9911 22.0034V34.1959C34.9934 34.2794 34.9789 34.3626 34.9486 34.4404C34.9182 34.5183 34.8727 34.5892 34.8146 34.6491C34.7564 34.709 34.6869 34.7566 34.6102 34.7891C34.5334 34.8216 34.4509 34.8383 34.3676 34.8383C34.2843 34.8383 34.2018 34.8216 34.1251 34.7891C34.0483 34.7566 33.9788 34.709 33.9207 34.6491C33.8626 34.5892 33.817 34.5183 33.7867 34.4404C33.7563 34.3626 33.7419 34.2794 33.7441 34.1959V22.0034C33.7419 21.9199 33.7563 21.8367 33.7867 21.7589C33.817 21.681 33.8626 21.6101 33.9207 21.5502C33.9788 21.4903 34.0483 21.4427 34.1251 21.4102C34.2018 21.3777 34.2843 21.361 34.3676 21.361C34.4509 21.361 34.5334 21.3777 34.6102 21.4102C34.6869 21.4427 34.7564 21.4903 34.8146 21.5502C34.8727 21.6101 34.9182 21.681 34.9486 21.7589C34.9789 21.8367 34.9934 21.9199 34.9911 22.0034ZM14.2195 10.6397H11.2899C11.1245 10.6399 10.966 10.7058 10.8491 10.8232C10.7322 10.9405 10.6665 11.0996 10.6665 11.2654V14.2059C10.6665 14.3717 10.7322 14.5308 10.8491 14.6481C10.966 14.7655 11.1245 14.8314 11.2899 14.8316H14.2195C14.3018 14.832 14.3835 14.8162 14.4596 14.7848C14.5358 14.7535 14.6051 14.7074 14.6634 14.6491C14.7217 14.5908 14.7679 14.5215 14.7994 14.4452C14.8309 14.3689 14.847 14.2871 14.8469 14.2045V11.2641C14.8467 11.1817 14.8303 11.1002 14.7987 11.0242C14.767 10.9482 14.7207 10.8792 14.6624 10.8212C14.6041 10.7632 14.535 10.7173 14.459 10.6862C14.383 10.6551 14.3016 10.6393 14.2195 10.6397ZM13.5962 13.5802H11.9114V11.8893H13.5962V13.5802ZM20.3881 14.2059V11.2641C20.3877 11.0987 20.3221 10.9403 20.2057 10.8233C20.0892 10.7063 19.9313 10.6403 19.7665 10.6397H16.8351C16.7532 10.6397 16.6721 10.6559 16.5964 10.6874C16.5207 10.7188 16.4519 10.7649 16.394 10.823C16.3361 10.8811 16.2901 10.9501 16.2588 11.026C16.2275 11.1019 16.2113 11.1832 16.2113 11.2654V14.2059C16.2113 14.288 16.2275 14.3694 16.2588 14.4453C16.2901 14.5212 16.3361 14.5902 16.394 14.6483C16.4519 14.7064 16.5207 14.7525 16.5964 14.7839C16.6721 14.8154 16.7532 14.8316 16.8351 14.8316H19.7665C19.8486 14.8316 19.9298 14.8153 20.0056 14.7838C20.0813 14.7523 20.1501 14.7061 20.2081 14.6478C20.266 14.5896 20.3119 14.5205 20.3432 14.4444C20.3745 14.3683 20.3905 14.2868 20.3903 14.2045L20.3881 14.2059ZM19.141 13.5802H17.4561V11.8893H19.141V13.5802Z" fill="white"/>
</svg>
