<svg width="40" height="41" viewBox="0 0 40 41" fill="none" xmlns="http://www.w3.org/2000/svg">
<path d="M20.8256 7.5831V5.26869C21.07 5.37495 21.2804 5.53435 21.4185 5.74688C21.6119 6.04229 22.0072 6.12305 22.3005 5.93177C22.5959 5.73837 22.6788 5.34309 22.4854 5.04979C22.1156 4.48445 21.5099 4.08706 20.8255 3.92977V3.22841C20.8255 2.87562 20.5408 2.59082 20.1879 2.59082C19.8352 2.59082 19.5504 2.87561 19.5504 3.22841V3.92977C18.3794 4.19331 17.5059 5.16453 17.5059 6.32067C17.5059 7.47682 18.3794 8.44809 19.5504 8.7137V11.0281C19.3059 10.9218 19.0955 10.7603 18.9574 10.5499C18.764 10.2545 18.3687 10.1737 18.0754 10.365C17.7822 10.5584 17.6993 10.9537 17.8905 11.247C18.2603 11.8124 18.8661 12.2097 19.5504 12.367V13.0684C19.5504 13.4212 19.8352 13.706 20.188 13.706C20.5408 13.706 20.8256 13.4212 20.8256 13.0684V12.367C21.9966 12.1035 22.8679 11.1323 22.8679 9.97613C22.8701 8.81786 21.9966 7.84871 20.8256 7.5831ZM18.7811 6.3207C18.7811 5.85952 19.0956 5.46423 19.5504 5.26657V7.37695C19.0956 7.17718 18.7811 6.78185 18.7811 6.3207ZM20.8256 11.0303V8.922C21.2783 9.11964 21.5928 9.51492 21.5928 9.97613C21.5949 10.4373 21.2804 10.8326 20.8256 11.0303Z" fill="white"/>
<path d="M38.0808 0.00212526H20.0286C20.018 0.00212526 20.0074 0 19.9968 0C19.9861 0 19.9755 0.00212526 19.9649 0.00212526H1.91272C0.858593 0.00212526 0 0.860718 0 1.91485V14.7282C0 15.7823 0.858593 16.6409 1.91272 16.6409H19.3588V23.8008L17.6097 22.7892C17.8307 22.0156 17.7521 21.1612 17.3653 20.3239C16.7532 18.9999 15.4611 17.95 13.9925 17.5844C12.3434 17.1742 10.8153 17.4229 9.2851 18.3602C9.1002 18.4728 8.98756 18.6704 8.98119 18.8872C8.93231 20.6703 9.48062 22.1325 10.6559 23.3545C11.6038 24.3406 12.9703 24.9293 14.3135 24.9293C15.391 24.9293 16.3282 24.5553 16.9722 23.8943L19.361 25.2758V26.2725L12.2222 26.2704C11.8695 26.2704 11.5847 26.5552 11.5847 26.908V36.5293C11.5847 36.882 11.8694 37.1668 12.2222 37.1668H13.6525C13.5399 37.4261 13.4761 37.7109 13.4761 38.0106C13.4761 39.1795 14.4261 40.1295 15.595 40.1295H24.4024C25.5691 40.1295 26.5191 39.1795 26.5191 38.0106C26.5191 37.7109 26.4554 37.4261 26.3427 37.1668H27.773C28.1258 37.1668 28.4106 36.8821 28.4106 36.5293L28.4085 26.908C28.4085 26.5552 28.1237 26.2704 27.7709 26.2704H20.6344V25.2736L23.0232 23.8922C23.6671 24.5531 24.6043 24.9272 25.6819 24.9272C27.0229 24.9272 28.3895 24.3385 29.3373 23.3524C30.5147 22.1303 31.0631 20.6682 31.012 18.8851C31.0056 18.6683 30.8909 18.4707 30.7081 18.358C29.1758 17.4208 27.6477 17.1721 26.0007 17.5823C24.5343 17.9478 23.2421 18.9977 22.63 20.3218C22.2411 21.1634 22.1625 22.022 22.3835 22.7871L20.6344 23.8008V16.6409H38.0805C39.1346 16.6409 39.9932 15.7823 39.9932 14.7282V1.91485C39.9932 0.860715 39.137 0.00212526 38.0808 0.00212526ZM14.3138 23.6522C13.3128 23.6522 12.2884 23.2101 11.5764 22.4684C10.7157 21.5716 10.2906 20.5493 10.2566 19.2699C11.3873 18.6599 12.4818 18.5197 13.6868 18.8193C14.7877 19.0935 15.7547 19.8735 16.2095 20.8575C16.4114 21.291 16.49 21.7246 16.4518 22.1177L12.452 19.8033C12.1481 19.6269 11.7571 19.7311 11.5806 20.035C11.4042 20.3389 11.5084 20.7299 11.8144 20.9064L15.8099 23.2165C15.4168 23.4971 14.9003 23.6522 14.3138 23.6522ZM25.2441 38.0107C25.2441 38.4761 24.8658 38.8544 24.4024 38.8544H15.5935C15.128 38.8544 14.7497 38.4761 14.7497 38.0107C14.7497 37.5452 15.128 37.1669 15.5935 37.1669H24.4008C24.8662 37.1669 25.2441 37.5452 25.2441 38.0107ZM27.1334 35.8918H12.8604V27.5458H27.1334V35.8918ZM23.7862 20.8598C24.241 19.8779 25.2059 19.0958 26.3089 18.8216C26.7148 18.7196 27.1144 18.6686 27.499 18.6686C28.2535 18.6686 28.9909 18.8663 29.739 19.2701C29.705 20.5474 29.2821 21.5718 28.4192 22.4686C27.7073 23.2103 26.685 23.6524 25.6819 23.6524C25.0975 23.6524 24.5832 23.4972 24.19 23.2167L28.1833 20.9065C28.4872 20.7301 28.5914 20.3412 28.4171 20.0352C28.2407 19.7291 27.8497 19.6271 27.5457 19.8035L23.5481 22.1158C23.5077 21.7205 23.5864 21.2912 23.7862 20.8598ZM27.0421 8.32282C27.0421 12.1972 23.8967 15.3511 20.0247 15.3658H20.0056H19.995H19.9843H19.9652C16.093 15.3509 12.9478 12.197 12.9478 8.32282C12.9478 4.44846 16.0911 1.29673 19.9614 1.27987H20.0273C23.8995 1.29687 27.043 4.44862 27.043 8.32282H27.0421ZM26.9932 3.83639H36.1618V12.8091L26.9932 12.807C27.8263 11.5106 28.3173 9.97406 28.3173 8.32059C28.3173 6.66923 27.8284 5.13279 26.9932 3.83639ZM13.0003 12.8091H3.77242V3.83639H13.0003C12.1673 5.13279 11.6763 6.66934 11.6763 8.32282C11.6763 9.97417 12.1672 11.5127 13.0003 12.8091ZM1.27515 14.7282V1.9149C1.27515 1.56423 1.56206 1.27731 1.91275 1.27731H15.589C15.0109 1.64073 14.4796 2.07002 14.0078 2.56098H3.13516C2.78236 2.56098 2.49757 2.84577 2.49757 3.19857V13.4466C2.49757 13.7994 2.78235 14.0842 3.13516 14.0842H14.0078C14.4796 14.573 15.011 15.0023 15.589 15.3658H1.91275C1.55995 15.3658 1.27515 15.0789 1.27515 14.7282ZM38.7179 14.7282C38.7179 15.0789 38.431 15.3658 38.0803 15.3658H24.4041C24.9821 15.0024 25.5135 14.5731 25.9852 14.0843H36.7986C37.1514 14.0843 37.4362 13.7995 37.4362 13.4467V3.19863C37.4362 2.84583 37.1514 2.56104 36.7986 2.56104H25.9852C25.5134 2.0701 24.9821 1.6408 24.4041 1.27736H38.0803C38.4309 1.27736 38.7179 1.56427 38.7179 1.91496V14.7282Z" fill="white"/>
<path d="M18.6015 30.6749C18.3571 30.422 17.9533 30.4177 17.7005 30.6622C17.4476 30.9087 17.4433 31.3125 17.6898 31.5632L19.543 33.4654C19.6642 33.5886 19.8278 33.6588 20 33.6588C20.017 33.6588 20.0361 33.6588 20.0531 33.6566C20.2422 33.6396 20.4165 33.5397 20.5249 33.3825L22.7607 30.1436C22.9605 29.8545 22.8882 29.4571 22.597 29.2573C22.308 29.0576 21.9106 29.1298 21.7108 29.421L19.9171 32.0223L18.6015 30.6749Z" fill="white"/>
</svg>
