<svg width="40" height="40" viewBox="0 0 40 40" fill="none" xmlns="http://www.w3.org/2000/svg">
<path d="M6.21225 23.3747C7.50782 22.3809 8.84348 21.493 10.291 21.0102C12.0291 20.4315 13.8689 20.4431 15.879 21.5443H21.961C22.8059 21.5443 23.5722 21.8865 24.1265 22.4355C24.6808 22.9845 25.0264 23.7451 25.0264 24.5817C25.0264 25.4184 24.6808 26.1773 24.1265 26.728C23.5722 27.2769 22.8042 27.6192 21.961 27.6192H20.38L22.3117 28.3335L27.135 27.348L28.1902 23.4491C28.4072 22.6439 28.9398 21.999 29.6193 21.6104C30.2988 21.2202 31.1303 21.0863 31.9434 21.3029C32.7565 21.5178 33.4076 22.0453 33.8 22.7183C34.194 23.3912 34.3292 24.213 34.1122 25.0199L33.8534 25.9757L36.1424 25.5077C36.9571 25.2911 37.787 25.425 38.4664 25.8152L38.5215 25.85C39.176 26.2418 39.6836 26.8751 39.8956 27.6572C40.1143 28.4641 39.9791 29.2859 39.5867 29.9605L39.5517 30.0151C39.156 30.6633 38.5182 31.166 37.7268 31.3759L21.9058 35.1724C21.829 35.1905 21.7522 35.1988 21.6771 35.1955L14.9471 35.255L13.4344 35.7709L13.7099 36.2438C13.9436 36.6456 13.8034 37.1615 13.3977 37.393L9.04193 39.8865C8.63456 40.1196 8.11197 39.9824 7.87655 39.5789L0.113068 26.2566C-0.120675 25.8531 0.0195715 25.3372 0.426949 25.1057L4.78269 22.6156C5.19006 22.3841 5.71098 22.523 5.94473 22.9264L6.20853 23.3811L6.21225 23.3747ZM21.9662 13.0255H27.9097C28.3823 13.0255 28.7646 13.4042 28.7646 13.8721V18.583H31.7631V11.1669L18.1125 11.1685V18.5829H21.111V13.8721C21.111 13.4041 21.4937 13.0255 21.9662 13.0255ZM27.0549 14.7187H22.8192V18.5846H27.0549V14.7187ZM33.4729 11.167V19.4297C33.4729 19.8977 33.0906 20.2763 32.6181 20.2763H17.2578C16.7853 20.2763 16.403 19.8977 16.403 19.4297V11.1687H13.6115C13.139 11.1687 12.7567 10.7901 12.7567 10.3221C12.7567 10.0427 12.8936 9.79632 13.1023 9.64089L24.3851 0.199314C24.7106 -0.0735117 25.1848 -0.0619388 25.497 0.207582L36.8136 9.67709C37.1725 9.97803 37.2176 10.5121 36.9137 10.8676C36.7451 11.0644 36.5047 11.1669 36.2626 11.1669H33.4711L33.4729 11.167ZM24.938 1.95192L15.9457 9.47682H33.9303L24.938 1.95192ZM12.5666 34.2742L14.5166 33.6095C14.6018 33.5831 14.6936 33.5665 14.7871 33.5665L21.5992 33.5054L37.2881 29.7387C37.6337 29.6478 37.9142 29.4295 38.0895 29.1484L38.1112 29.1088C38.2849 28.8111 38.345 28.4457 38.2481 28.0885C38.1563 27.7463 37.9359 27.4685 37.6521 27.2949L37.612 27.2734C37.3115 27.1014 36.9425 27.0419 36.5819 27.1378C31.8603 28.0819 27.1421 29.0674 22.4256 30.0314C22.2704 30.0644 22.1051 30.0562 21.9448 29.9983L15.4268 27.5859C15.0661 27.4867 14.8024 27.1593 14.8024 26.7707C14.8024 26.3027 15.1847 25.9241 15.6572 25.9241H21.9598C22.3321 25.9241 22.671 25.772 22.9181 25.5289C23.1636 25.2859 23.3172 24.9485 23.3172 24.5798C23.3172 24.2111 23.1636 23.8738 22.9181 23.6307C22.6727 23.3876 22.3321 23.2355 21.9598 23.2355H15.6572C15.5103 23.2322 15.3617 23.1958 15.2264 23.1165C13.6287 22.1856 12.1845 22.1558 10.8305 22.6072C9.5533 23.0338 8.30445 23.8903 7.07231 24.8477L12.5654 34.2711L12.5666 34.2742ZM4.89839 24.4923L2.01504 26.1408L8.92712 37.9982L11.8105 36.3496L4.89839 24.4923ZM29.0052 26.966L31.9837 26.3575L32.4646 24.5833C32.5614 24.2261 32.5013 23.8624 32.3277 23.5631C32.1557 23.2621 31.8652 23.029 31.5046 22.9347C31.1439 22.8388 30.775 22.8984 30.4744 23.0703C30.1706 23.2406 29.9352 23.5283 29.84 23.8855L29.0069 26.9659L29.0052 26.966Z" fill="white"/>
</svg>
