<svg width="35" height="36" viewBox="0 0 35 36" fill="none" xmlns="http://www.w3.org/2000/svg">
<path d="M26.3597 2.39572C26.3597 1.40323 25.585 0.53418 24.5721 0.53418H10.4279C9.41801 0.53418 8.64029 1.40108 8.64029 2.39572V11.5539H2.53765C1.55593 11.5539 0.75 12.3598 0.75 13.3415V33.678C0.75 34.6597 1.55589 35.4659 2.53765 35.4659H9.30018H32.4624C33.4441 35.4659 34.25 34.6597 34.25 33.678V7.58785C34.25 6.60613 33.4441 5.8002 32.4624 5.8002H26.3597V2.39572ZM10.4279 1.85398H24.5721C24.8026 1.85398 25.0399 2.06418 25.0399 2.39572V34.1461H20.4503V29.2651C20.4503 29.0915 20.3797 28.9213 20.257 28.7985C20.1343 28.6758 19.964 28.6052 19.7904 28.6052H15.2096C15.036 28.6052 14.8657 28.6758 14.743 28.7985C14.6203 28.9213 14.5497 29.0915 14.5497 29.2651V34.1461H9.96008V2.39572C9.96008 2.06684 10.2022 1.85398 10.4279 1.85398ZM26.3597 34.1461V7.12H32.4624C32.7191 7.12 32.9302 7.33109 32.9302 7.58785V33.678C32.9302 33.9349 32.719 34.1461 32.4624 34.1461H26.3597ZM2.53765 12.8737H8.64029V34.1461H2.53765C2.28097 34.1461 2.0698 33.9349 2.0698 33.678V13.3415C2.0698 13.0848 2.2809 12.8737 2.53765 12.8737ZM15.8695 34.1461V29.925H19.1305V34.1461H15.8695Z" fill="white" stroke="white" stroke-width="0.5"/>
<path d="M21.1846 21.4161C21.3582 21.4161 21.5284 21.4867 21.6512 21.6094C21.7739 21.7322 21.8445 21.9024 21.8445 22.076V23.8271C21.8445 24.0007 21.7739 24.1709 21.6512 24.2937C21.5284 24.4164 21.3582 24.487 21.1846 24.487H19.4294C19.2558 24.487 19.0856 24.4164 18.9628 24.2937C18.8401 24.1709 18.7695 24.0007 18.7695 23.8271V22.076C18.7695 21.9024 18.8401 21.7322 18.9628 21.6094L21.1846 21.4161ZM21.1846 21.4161H19.4294C19.2558 21.4161 19.0856 21.4867 18.9628 21.6094L21.1846 21.4161ZM20.0893 23.1672V22.7359H20.5247V23.1672H20.0893Z" fill="white" stroke="white" stroke-width="0.5"/>
<path d="M21.6512 15.9994L21.6512 15.9994C21.5284 15.8766 21.3582 15.8061 21.1846 15.8061H19.4294H19.4294C19.2558 15.8061 19.0856 15.8766 18.9628 15.9994L18.9628 15.9994C18.8401 16.1221 18.7695 16.2924 18.7695 16.466V18.217C18.7695 18.3907 18.8401 18.5609 18.9628 18.6836L18.9628 18.6836C19.0856 18.8064 19.2558 18.8769 19.4294 18.8769H21.1846C21.3582 18.8769 21.5284 18.8064 21.6512 18.6836L21.6512 18.6836C21.7739 18.5609 21.8445 18.3907 21.8445 18.217V16.466C21.8445 16.2924 21.7739 16.1221 21.6512 15.9994ZM20.0893 17.5571V17.1259H20.5247V17.5571H20.0893Z" fill="white" stroke="white" stroke-width="0.5"/>
<path d="M21.6512 13.0736L21.6512 13.0736C21.5284 13.1964 21.3582 13.2669 21.1846 13.2669H21.1846H19.4294C19.2558 13.2669 19.0856 13.1964 18.9628 13.0736L18.9628 13.0736C18.8401 12.9509 18.7695 12.7807 18.7695 12.607V10.8519C18.7695 10.6783 18.8401 10.5081 18.9628 10.3853L21.6512 13.0736ZM21.6512 13.0736C21.7739 12.9509 21.8445 12.7807 21.8445 12.607V10.8519C21.8445 10.6783 21.7739 10.5081 21.6512 10.3853L21.6512 13.0736ZM19.4294 10.192H19.4294H21.1846C21.3582 10.192 21.5284 10.2625 21.6512 10.3853L19.4294 10.192ZM19.4294 10.192C19.2558 10.192 19.0856 10.2625 18.9628 10.3853L19.4294 10.192ZM20.0893 11.9471V11.5118H20.5247V11.9471H20.0893Z" fill="white" stroke="white" stroke-width="0.5"/>
<path d="M21.6512 7.46353L21.6512 7.46354C21.5284 7.58631 21.3582 7.65681 21.1846 7.65683H21.1846H19.4294C19.2558 7.65683 19.0856 7.5863 18.9628 7.46354L18.9628 7.46353C18.8401 7.34079 18.7695 7.17056 18.7695 6.99693V5.24181C18.7695 5.06819 18.8401 4.89795 18.9628 4.7752L21.6512 7.46353ZM21.6512 7.46353C21.7739 7.34079 21.8445 7.17056 21.8445 6.99693V5.24181C21.8445 5.06818 21.7739 4.89795 21.6512 4.7752L21.6512 7.46353ZM19.4294 4.58191H19.4294H21.1846C21.3582 4.58191 21.5284 4.65243 21.6512 4.7752L19.4294 4.58191ZM19.4294 4.58191C19.2558 4.58193 19.0856 4.65242 18.9628 4.7752L19.4294 4.58191ZM20.0893 6.33703V5.9017H20.5247V6.33703H20.0893Z" fill="white" stroke="white" stroke-width="0.5"/>
<path d="M15.5706 21.4161C15.7442 21.4161 15.9145 21.4867 16.0372 21.6094C16.16 21.7322 16.2305 21.9024 16.2305 22.076V23.8271C16.2305 24.0007 16.16 24.1709 16.0372 24.2937C15.9145 24.4164 15.7442 24.487 15.5706 24.487H13.8196C13.6459 24.487 13.4757 24.4164 13.3529 24.2937C13.2302 24.1709 13.1597 24.0007 13.1597 23.8271V22.076C13.1597 21.9024 13.2302 21.7322 13.353 21.6094L15.5706 21.4161ZM15.5706 21.4161H13.8196C13.6459 21.4161 13.4757 21.4867 13.353 21.6094L15.5706 21.4161ZM14.4795 23.1672V22.7359H14.9107V23.1672H14.4795Z" fill="white" stroke="white" stroke-width="0.5"/>
<path d="M16.0372 15.9994L16.0372 15.9994C15.9145 15.8766 15.7442 15.8061 15.5706 15.8061H13.8196H13.8195C13.6459 15.8061 13.4757 15.8766 13.3529 15.9994L13.3529 15.9994C13.2302 16.1221 13.1597 16.2924 13.1597 16.466V18.217C13.1597 18.3907 13.2302 18.5609 13.3529 18.6836L13.3529 18.6836C13.4757 18.8064 13.6459 18.8769 13.8196 18.8769H15.5706C15.7442 18.8769 15.9145 18.8064 16.0372 18.6836L16.0373 18.6836C16.1599 18.5609 16.2305 18.3907 16.2305 18.217V16.466C16.2305 16.2924 16.16 16.1221 16.0372 15.9994ZM14.4795 17.5571V17.1259H14.9107V17.5571H14.4795Z" fill="white" stroke="white" stroke-width="0.5"/>
<path d="M16.0372 13.0736L16.0372 13.0736C15.9145 13.1964 15.7442 13.2669 15.5706 13.2669H15.5706H13.8196C13.6459 13.2669 13.4757 13.1964 13.3529 13.0736L13.3529 13.0736C13.2302 12.9509 13.1597 12.7807 13.1597 12.607V10.8519C13.1597 10.6783 13.2302 10.5081 13.3529 10.3853L16.0372 13.0736ZM16.0372 13.0736C16.16 12.9509 16.2305 12.7807 16.2305 12.607V10.8519C16.2305 10.6783 16.16 10.5081 16.0372 10.3853L16.0372 13.0736ZM13.8195 10.192H13.8196H15.5706C15.7442 10.192 15.9145 10.2625 16.0372 10.3853L13.8195 10.192ZM13.8195 10.192C13.646 10.192 13.4757 10.2625 13.3529 10.3853L13.8195 10.192ZM14.4795 11.9471V11.5118H14.9107V11.9471H14.4795Z" fill="white" stroke="white" stroke-width="0.5"/>
<path d="M16.0372 7.46353L16.0372 7.46354C15.9145 7.58631 15.7442 7.65681 15.5706 7.65683H15.5706H13.8196C13.6459 7.65683 13.4757 7.5863 13.3529 7.46354L13.3529 7.46353C13.2302 7.34079 13.1597 7.17056 13.1597 6.99693V5.24181C13.1597 5.06818 13.2302 4.89795 13.3529 4.7752L16.0372 7.46353ZM16.0372 7.46353C16.16 7.34079 16.2305 7.17056 16.2305 6.99693V5.24181C16.2305 5.06818 16.16 4.89795 16.0372 4.7752L16.0372 7.46353ZM13.8195 4.58191H13.8196H15.5706C15.7442 4.58191 15.9145 4.65243 16.0372 4.7752L13.8195 4.58191ZM13.8195 4.58191C13.646 4.58193 13.4757 4.65242 13.3529 4.7752L13.8195 4.58191ZM14.4795 6.33703V5.9017H14.9107V6.33703H14.4795Z" fill="white" stroke="white" stroke-width="0.5"/>
<path d="M30.9891 27.7243C30.8664 27.6016 30.6961 27.531 30.5225 27.531H28.7673C28.5937 27.531 28.4234 27.6016 28.3007 27.7243C28.178 27.8471 28.1074 28.0173 28.1074 28.1909V29.9419C28.1074 30.1155 28.1779 30.2858 28.3007 30.4086C28.4235 30.5313 28.5937 30.6018 28.7673 30.6018H30.5225C30.6961 30.6018 30.8663 30.5313 30.9891 30.4086C31.1118 30.2858 31.1824 30.1155 31.1824 29.9419V28.1909C31.1824 28.0173 31.1118 27.8471 30.9891 27.7243ZM29.4272 29.282V28.8508H29.8626V29.282H29.4272Z" fill="white" stroke="white" stroke-width="0.5"/>
<path d="M30.5226 24.9914H30.5225H28.7673C28.5937 24.9914 28.4235 24.9209 28.3007 24.7981C28.178 24.6754 28.1074 24.5052 28.1074 24.3315V22.5764C28.1074 22.4028 28.178 22.2325 28.3007 22.1098L30.5226 24.9914ZM30.5226 24.9914C30.696 24.9914 30.8663 24.921 30.9891 24.7981C31.1118 24.6753 31.1824 24.5051 31.1824 24.3315V22.5764C31.1824 22.4028 31.1118 22.2325 30.9891 22.1098C30.8663 21.987 30.6961 21.9165 30.5225 21.9165M30.5226 24.9914L30.5225 21.9165M30.5225 21.9165H28.7673C28.5937 21.9165 28.4235 21.987 28.3007 22.1098L30.5225 21.9165ZM29.4272 23.6716V23.2363H29.8626V23.6716H29.4272Z" fill="white" stroke="white" stroke-width="0.5"/>
<path d="M28.7673 16.3065H28.7673H30.5225C30.6961 16.3065 30.8663 16.377 30.9891 16.4997L28.7673 16.3065ZM28.7673 16.3065C28.5937 16.3065 28.4235 16.377 28.3007 16.4997L28.7673 16.3065ZM31.1824 16.9664C31.1824 16.7927 31.1118 16.6225 30.9891 16.4998L28.3007 16.4998C28.178 16.6225 28.1074 16.7927 28.1074 16.9664V18.7215C28.1074 18.8951 28.178 19.0653 28.3007 19.1881C28.4234 19.3108 28.5937 19.3814 28.7673 19.3814H30.5225C30.6961 19.3814 30.8663 19.3108 30.9891 19.1881C31.1118 19.0653 31.1824 18.8951 31.1824 18.7215V16.9664ZM29.4272 18.0616V17.6262H29.8626V18.0616H29.4272Z" fill="white" stroke="white" stroke-width="0.5"/>
<path d="M30.9891 10.8896L30.9891 10.8896C31.1118 11.0124 31.1824 11.1826 31.1824 11.3562V13.1074L30.9891 10.8896ZM30.9891 10.8896C30.8663 10.7669 30.6961 10.6964 30.5225 10.6964H28.7673H28.7673C28.5937 10.6964 28.4235 10.7669 28.3007 10.8896L28.3007 10.8896M30.9891 10.8896L28.3007 10.8896M30.5225 13.7673H30.5225H28.7673C28.5937 13.7673 28.4234 13.6967 28.3007 13.574L30.5225 13.7673ZM30.5225 13.7673C30.6961 13.7673 30.8663 13.6968 30.9891 13.574L30.5225 13.7673ZM28.3007 10.8896C28.178 11.0124 28.1074 11.1826 28.1074 11.3562V13.1074C28.1074 13.2811 28.178 13.4513 28.3007 13.574L28.3007 10.8896ZM29.4272 12.4475V12.0161H29.8626V12.4475H29.4272Z" fill="white" stroke="white" stroke-width="0.5"/>
<path d="M4.01115 30.4782L4.01116 30.4782C4.13387 30.6009 4.3041 30.6715 4.47777 30.6715H6.23303C6.4067 30.6715 6.57693 30.6009 6.69965 30.4782C6.82239 30.3554 6.89293 30.1852 6.89293 30.0116V28.2605C6.89293 28.0869 6.82241 27.9167 6.69965 27.7939C6.57688 27.6711 6.40662 27.6006 6.23303 27.6006H4.47777C4.30418 27.6006 4.13393 27.6711 4.01116 27.7939L4.01115 27.7939C3.88839 27.9167 3.81787 28.0869 3.81787 28.2605V30.0116C3.81787 30.1852 3.88842 30.3554 4.01115 30.4782ZM5.13767 29.3517V28.9204H5.57314V29.3517H5.13767Z" fill="white" stroke="white" stroke-width="0.5"/>
<path d="M6.23313 25.0614H6.23303H4.47777C4.30414 25.0614 4.1339 24.9908 4.01115 24.868C4.01114 24.868 4.01112 24.868 4.01111 24.868L4.18793 24.6913L6.23313 25.0614ZM6.23313 25.0614C6.40662 25.0613 6.57685 24.9909 6.69965 24.868C6.82238 24.7453 6.89293 24.5751 6.89293 24.4015V22.6504C6.89293 22.4768 6.8224 22.3066 6.69965 22.1838M6.23313 25.0614L6.69965 22.1838M6.69965 22.1838L6.52287 22.3606L6.69965 22.1838ZM5.13767 23.7416V23.3103H5.57314V23.7416H5.13767Z" fill="white" stroke="white" stroke-width="0.5"/>
<path d="M4.01116 19.2577L4.01115 19.2577C3.88841 19.135 3.81787 18.9647 3.81787 18.7911V17.036C3.81787 16.8624 3.88841 16.6921 4.01115 16.5694C4.13392 16.4466 4.30416 16.3761 4.47774 16.3761H4.47777H6.23303C6.40665 16.3761 6.5769 16.4466 6.69965 16.5694L4.01116 19.2577ZM4.01116 19.2577C4.1339 19.3805 4.30414 19.451 4.47777 19.451H6.23303C6.40666 19.451 6.5769 19.3805 6.69965 19.2577C6.8224 19.135 6.89293 18.9647 6.89293 18.7911V17.036C6.89293 16.8624 6.8224 16.6921 6.69966 16.5694L4.01116 19.2577ZM5.13767 18.1312V17.6959H5.57314V18.1312H5.13767Z" fill="white" stroke="white" stroke-width="0.5"/>
</svg>
