<svg width="40" height="40" viewBox="0 0 40 40" fill="none" xmlns="http://www.w3.org/2000/svg">
<path d="M6.17597 35.7838L6.17595 35.7838L6.17568 35.7854C6.11195 36.1678 6.368 36.5561 6.81875 36.5561H10.3813C10.7692 36.5561 11.0886 36.1713 11.0243 35.7854L11.0243 35.7854L11.024 35.7838L10.2555 31.9409L11.1769 30.0405C13.392 31.051 14.9031 33.219 14.9031 35.7936V37.7624H2.29687V35.7936C2.29687 33.219 3.80798 31.051 6.02311 30.0405L6.94455 31.9409L6.17597 35.7838ZM4.39375 25.3436C4.39375 26.6928 5.02372 27.87 6.00309 28.6515C3.06016 29.6921 0.95 32.4791 0.95 35.7936V38.4061C0.95 38.5956 1.01338 38.7574 1.12793 38.872C1.24247 38.9865 1.40426 39.0499 1.59375 39.0499H15.4875C15.677 39.0499 15.8388 38.9865 15.9533 38.872C16.0679 38.7574 16.1313 38.5956 16.1313 38.4061V35.7941C16.1902 32.5373 14.0216 29.693 11.0782 28.6515C12.0575 27.87 12.6875 26.6928 12.6875 25.3436C12.6875 23.0598 10.8245 21.1968 8.54063 21.1968C6.25676 21.1968 4.39375 23.0598 4.39375 25.3436ZM7.65087 35.2686L8.1665 32.5186H9.03434L9.60726 35.2686H7.65087ZM7.24771 29.6523C7.69421 29.5443 8.09291 29.4905 8.6 29.4905C9.0506 29.4905 9.50133 29.5444 9.95226 29.6523L9.16285 31.2311H8.03715L7.24771 29.6523ZM5.74063 25.403C5.74063 23.8275 7.02449 22.5436 8.6 22.5436C10.1755 22.5436 11.4594 23.8275 11.4594 25.403C11.4594 26.9785 10.1755 28.2624 8.6 28.2624C7.02449 28.2624 5.74063 26.9785 5.74063 25.403Z" fill="white" stroke="white" stroke-width="0.1"/>
<path d="M29.0941 35.7838L29.0941 35.7838L29.0938 35.7854C29.0295 36.1713 29.3489 36.5561 29.7369 36.5561H33.2994C33.6874 36.5561 34.0068 36.1713 33.9425 35.7854L33.9425 35.7854L33.9422 35.7838L33.1736 31.9409L34.095 30.0405C36.3102 31.051 37.8213 33.219 37.8213 35.7936V37.7624H25.215V35.7936C25.215 33.219 26.7261 31.051 28.9413 30.0405L29.8627 31.9409L29.0941 35.7838ZM27.3713 25.3436C27.3713 26.6928 28.0013 27.87 28.9806 28.6515C26.0377 29.6921 23.9275 32.4791 23.9275 35.7936V38.4061C23.9275 38.5956 23.9909 38.7574 24.1055 38.872C24.22 38.9865 24.3818 39.0499 24.5713 39.0499H38.465C38.6545 39.0499 38.8163 38.9865 38.9309 38.872C39.0454 38.7574 39.1088 38.5956 39.1088 38.4061V35.7936C39.1088 32.5381 36.9988 29.6933 34.0557 28.6515C35.0351 27.87 35.665 26.6928 35.665 25.3436C35.665 23.0598 33.802 21.1968 31.5182 21.1968C29.2343 21.1968 27.3713 23.0598 27.3713 25.3436ZM30.569 35.2686L31.0847 32.5186H31.9525L32.5254 35.2686H30.569ZM30.2235 29.6527C30.6707 29.5445 31.0698 29.4905 31.5775 29.4905C32.0275 29.4905 32.4777 29.5443 32.928 29.6519L32.082 31.2311H30.9563L30.2235 29.6527ZM28.6588 25.403C28.6588 23.8275 29.9427 22.5436 31.5182 22.5436C33.0937 22.5436 34.3775 23.8275 34.3775 25.403C34.3775 26.9785 33.0937 28.2624 31.5182 28.2624C29.9427 28.2624 28.6588 26.9785 28.6588 25.403Z" fill="white" stroke="white" stroke-width="0.1"/>
<mask id="path-3-outside-1_50_1974" maskUnits="userSpaceOnUse" x="2.79004" y="0.00012207" width="34" height="19" fill="black">
<rect fill="white" x="2.79004" y="0.00012207" width="34" height="19"/>
<path d="M26.0557 15.0126C26.3525 15.1314 26.6494 15.0126 26.8275 14.7751L28.015 12.697C28.1932 12.4595 28.0744 12.1032 27.8369 11.9251L26.8869 11.2126C26.9463 10.9157 27.0057 10.6189 27.065 10.322H31.6963C32.3494 10.322 32.8838 10.8564 32.8838 11.5095V16.4376L31.9338 15.4876C31.6963 15.2501 31.34 15.2501 31.1025 15.4876C30.865 15.7251 30.865 16.0814 31.1025 16.3189L33.0025 18.2189C33.24 18.4564 33.5963 18.4564 33.8338 18.2189L35.7338 16.3189C35.9713 16.0814 35.9713 15.7251 35.7338 15.4876C35.4963 15.2501 35.14 15.2501 34.9025 15.4876L34.0119 16.3782V11.5095C34.0119 10.2032 32.9432 9.1345 31.6369 9.1345H27.065C27.065 8.6595 27.0057 8.1845 26.8869 7.76887L27.8369 7.05637C28.0744 6.87825 28.1338 6.522 28.015 6.2845L26.8275 4.20637C26.6494 3.96887 26.3525 3.85012 26.0557 3.96887L24.9275 4.44387C24.0963 3.61262 23.0869 3.01887 21.9588 2.722L21.84 1.5345C21.7807 1.23762 21.5432 1.00012 21.2463 1.00012H18.8713C18.5744 1.00012 18.3369 1.23762 18.2775 1.5345L18.1588 2.722C17.0307 3.01887 16.0213 3.61262 15.19 4.44387L14.0619 3.96887C13.765 3.85012 13.4682 3.96887 13.29 4.20637L12.1025 6.2845C11.9244 6.522 12.0432 6.87825 12.2807 7.05637L13.2307 7.76887C13.1119 8.24387 13.0525 8.6595 13.0525 9.1345H8.06504C6.75879 9.1345 5.69004 10.2032 5.69004 11.5095V16.3782L4.79941 15.4876C4.56191 15.2501 4.20566 15.2501 3.96816 15.4876C3.73066 15.7251 3.73066 16.0814 3.96816 16.3189L5.86816 18.2189C6.10566 18.4564 6.46191 18.4564 6.69941 18.2189L8.59941 16.3189C8.83691 16.0814 8.83691 15.7251 8.59941 15.4876C8.36191 15.2501 8.00566 15.2501 7.76816 15.4876L6.87754 16.4376V11.5689C6.87754 10.9157 7.41191 10.3814 8.06504 10.3814H13.1119C13.1713 10.6782 13.1713 10.9751 13.29 11.272L12.34 11.9845C12.1025 12.1626 12.0432 12.5189 12.1619 12.7564L13.3494 14.8345C13.5275 15.072 13.8244 15.1907 14.1213 15.072L15.2494 14.597C16.0807 15.4282 17.09 16.022 18.2182 16.3189L18.3369 17.5064C18.3963 17.8032 18.6338 18.0407 18.9307 18.0407H21.3057C21.6025 18.0407 21.84 17.8032 21.8994 17.5064L22.0182 16.3189C23.1463 16.022 24.1557 15.4282 24.9869 14.597L26.0557 15.0126ZM24.3932 13.4689C23.5619 14.3595 22.4932 15.0126 21.3057 15.2501C21.0682 15.3095 20.89 15.4876 20.8307 15.7845L20.7119 16.8532H19.4057L19.2869 15.7845C19.2275 15.547 19.0494 15.3095 18.8119 15.2501C17.6244 15.0126 16.5557 14.3595 15.7244 13.4689C15.5463 13.2907 15.3088 13.2314 15.0713 13.3501L14.0619 13.7657L13.4088 12.6376L14.2994 11.9845C14.4775 11.8064 14.5963 11.5689 14.5369 11.3314C14.1807 10.2032 14.1807 8.95637 14.5369 7.76887C14.5963 7.53137 14.5369 7.2345 14.2994 7.11575L13.4088 6.46262L14.0619 5.3345L15.0713 5.75012C15.3088 5.86887 15.5463 5.8095 15.7244 5.63137C16.5557 4.74075 17.6244 4.147 18.8119 3.85012C19.0494 3.79075 19.2275 3.61262 19.2869 3.31575L19.4057 2.18762H20.7119L20.8307 3.25637C20.89 3.49387 21.0682 3.73137 21.3057 3.79075C22.4932 4.02825 23.5619 4.68137 24.3932 5.572C24.5713 5.75012 24.8088 5.8095 25.0463 5.69075L26.0557 5.27512L26.7088 6.40325L25.8182 7.05637C25.64 7.2345 25.5213 7.472 25.5807 7.7095C25.9369 8.83762 25.9369 10.0845 25.5807 11.272C25.5213 11.5095 25.5807 11.8064 25.8182 11.9251L26.7088 12.5782L26.0557 13.7064L25.0463 13.2907C24.8088 13.2314 24.5713 13.2907 24.3932 13.4689Z"/>
</mask>
<path d="M26.0557 15.0126C26.3525 15.1314 26.6494 15.0126 26.8275 14.7751L28.015 12.697C28.1932 12.4595 28.0744 12.1032 27.8369 11.9251L26.8869 11.2126C26.9463 10.9157 27.0057 10.6189 27.065 10.322H31.6963C32.3494 10.322 32.8838 10.8564 32.8838 11.5095V16.4376L31.9338 15.4876C31.6963 15.2501 31.34 15.2501 31.1025 15.4876C30.865 15.7251 30.865 16.0814 31.1025 16.3189L33.0025 18.2189C33.24 18.4564 33.5963 18.4564 33.8338 18.2189L35.7338 16.3189C35.9713 16.0814 35.9713 15.7251 35.7338 15.4876C35.4963 15.2501 35.14 15.2501 34.9025 15.4876L34.0119 16.3782V11.5095C34.0119 10.2032 32.9432 9.1345 31.6369 9.1345H27.065C27.065 8.6595 27.0057 8.1845 26.8869 7.76887L27.8369 7.05637C28.0744 6.87825 28.1338 6.522 28.015 6.2845L26.8275 4.20637C26.6494 3.96887 26.3525 3.85012 26.0557 3.96887L24.9275 4.44387C24.0963 3.61262 23.0869 3.01887 21.9588 2.722L21.84 1.5345C21.7807 1.23762 21.5432 1.00012 21.2463 1.00012H18.8713C18.5744 1.00012 18.3369 1.23762 18.2775 1.5345L18.1588 2.722C17.0307 3.01887 16.0213 3.61262 15.19 4.44387L14.0619 3.96887C13.765 3.85012 13.4682 3.96887 13.29 4.20637L12.1025 6.2845C11.9244 6.522 12.0432 6.87825 12.2807 7.05637L13.2307 7.76887C13.1119 8.24387 13.0525 8.6595 13.0525 9.1345H8.06504C6.75879 9.1345 5.69004 10.2032 5.69004 11.5095V16.3782L4.79941 15.4876C4.56191 15.2501 4.20566 15.2501 3.96816 15.4876C3.73066 15.7251 3.73066 16.0814 3.96816 16.3189L5.86816 18.2189C6.10566 18.4564 6.46191 18.4564 6.69941 18.2189L8.59941 16.3189C8.83691 16.0814 8.83691 15.7251 8.59941 15.4876C8.36191 15.2501 8.00566 15.2501 7.76816 15.4876L6.87754 16.4376V11.5689C6.87754 10.9157 7.41191 10.3814 8.06504 10.3814H13.1119C13.1713 10.6782 13.1713 10.9751 13.29 11.272L12.34 11.9845C12.1025 12.1626 12.0432 12.5189 12.1619 12.7564L13.3494 14.8345C13.5275 15.072 13.8244 15.1907 14.1213 15.072L15.2494 14.597C16.0807 15.4282 17.09 16.022 18.2182 16.3189L18.3369 17.5064C18.3963 17.8032 18.6338 18.0407 18.9307 18.0407H21.3057C21.6025 18.0407 21.84 17.8032 21.8994 17.5064L22.0182 16.3189C23.1463 16.022 24.1557 15.4282 24.9869 14.597L26.0557 15.0126ZM24.3932 13.4689C23.5619 14.3595 22.4932 15.0126 21.3057 15.2501C21.0682 15.3095 20.89 15.4876 20.8307 15.7845L20.7119 16.8532H19.4057L19.2869 15.7845C19.2275 15.547 19.0494 15.3095 18.8119 15.2501C17.6244 15.0126 16.5557 14.3595 15.7244 13.4689C15.5463 13.2907 15.3088 13.2314 15.0713 13.3501L14.0619 13.7657L13.4088 12.6376L14.2994 11.9845C14.4775 11.8064 14.5963 11.5689 14.5369 11.3314C14.1807 10.2032 14.1807 8.95637 14.5369 7.76887C14.5963 7.53137 14.5369 7.2345 14.2994 7.11575L13.4088 6.46262L14.0619 5.3345L15.0713 5.75012C15.3088 5.86887 15.5463 5.8095 15.7244 5.63137C16.5557 4.74075 17.6244 4.147 18.8119 3.85012C19.0494 3.79075 19.2275 3.61262 19.2869 3.31575L19.4057 2.18762H20.7119L20.8307 3.25637C20.89 3.49387 21.0682 3.73137 21.3057 3.79075C22.4932 4.02825 23.5619 4.68137 24.3932 5.572C24.5713 5.75012 24.8088 5.8095 25.0463 5.69075L26.0557 5.27512L26.7088 6.40325L25.8182 7.05637C25.64 7.2345 25.5213 7.472 25.5807 7.7095C25.9369 8.83762 25.9369 10.0845 25.5807 11.272C25.5213 11.5095 25.5807 11.8064 25.8182 11.9251L26.7088 12.5782L26.0557 13.7064L25.0463 13.2907C24.8088 13.2314 24.5713 13.2907 24.3932 13.4689Z" fill="white"/>
<path d="M26.0557 15.0126C26.3525 15.1314 26.6494 15.0126 26.8275 14.7751L28.015 12.697C28.1932 12.4595 28.0744 12.1032 27.8369 11.9251L26.8869 11.2126C26.9463 10.9157 27.0057 10.6189 27.065 10.322H31.6963C32.3494 10.322 32.8838 10.8564 32.8838 11.5095V16.4376L31.9338 15.4876C31.6963 15.2501 31.34 15.2501 31.1025 15.4876C30.865 15.7251 30.865 16.0814 31.1025 16.3189L33.0025 18.2189C33.24 18.4564 33.5963 18.4564 33.8338 18.2189L35.7338 16.3189C35.9713 16.0814 35.9713 15.7251 35.7338 15.4876C35.4963 15.2501 35.14 15.2501 34.9025 15.4876L34.0119 16.3782V11.5095C34.0119 10.2032 32.9432 9.1345 31.6369 9.1345H27.065C27.065 8.6595 27.0057 8.1845 26.8869 7.76887L27.8369 7.05637C28.0744 6.87825 28.1338 6.522 28.015 6.2845L26.8275 4.20637C26.6494 3.96887 26.3525 3.85012 26.0557 3.96887L24.9275 4.44387C24.0963 3.61262 23.0869 3.01887 21.9588 2.722L21.84 1.5345C21.7807 1.23762 21.5432 1.00012 21.2463 1.00012H18.8713C18.5744 1.00012 18.3369 1.23762 18.2775 1.5345L18.1588 2.722C17.0307 3.01887 16.0213 3.61262 15.19 4.44387L14.0619 3.96887C13.765 3.85012 13.4682 3.96887 13.29 4.20637L12.1025 6.2845C11.9244 6.522 12.0432 6.87825 12.2807 7.05637L13.2307 7.76887C13.1119 8.24387 13.0525 8.6595 13.0525 9.1345H8.06504C6.75879 9.1345 5.69004 10.2032 5.69004 11.5095V16.3782L4.79941 15.4876C4.56191 15.2501 4.20566 15.2501 3.96816 15.4876C3.73066 15.7251 3.73066 16.0814 3.96816 16.3189L5.86816 18.2189C6.10566 18.4564 6.46191 18.4564 6.69941 18.2189L8.59941 16.3189C8.83691 16.0814 8.83691 15.7251 8.59941 15.4876C8.36191 15.2501 8.00566 15.2501 7.76816 15.4876L6.87754 16.4376V11.5689C6.87754 10.9157 7.41191 10.3814 8.06504 10.3814H13.1119C13.1713 10.6782 13.1713 10.9751 13.29 11.272L12.34 11.9845C12.1025 12.1626 12.0432 12.5189 12.1619 12.7564L13.3494 14.8345C13.5275 15.072 13.8244 15.1907 14.1213 15.072L15.2494 14.597C16.0807 15.4282 17.09 16.022 18.2182 16.3189L18.3369 17.5064C18.3963 17.8032 18.6338 18.0407 18.9307 18.0407H21.3057C21.6025 18.0407 21.84 17.8032 21.8994 17.5064L22.0182 16.3189C23.1463 16.022 24.1557 15.4282 24.9869 14.597L26.0557 15.0126ZM24.3932 13.4689C23.5619 14.3595 22.4932 15.0126 21.3057 15.2501C21.0682 15.3095 20.89 15.4876 20.8307 15.7845L20.7119 16.8532H19.4057L19.2869 15.7845C19.2275 15.547 19.0494 15.3095 18.8119 15.2501C17.6244 15.0126 16.5557 14.3595 15.7244 13.4689C15.5463 13.2907 15.3088 13.2314 15.0713 13.3501L14.0619 13.7657L13.4088 12.6376L14.2994 11.9845C14.4775 11.8064 14.5963 11.5689 14.5369 11.3314C14.1807 10.2032 14.1807 8.95637 14.5369 7.76887C14.5963 7.53137 14.5369 7.2345 14.2994 7.11575L13.4088 6.46262L14.0619 5.3345L15.0713 5.75012C15.3088 5.86887 15.5463 5.8095 15.7244 5.63137C16.5557 4.74075 17.6244 4.147 18.8119 3.85012C19.0494 3.79075 19.2275 3.61262 19.2869 3.31575L19.4057 2.18762H20.7119L20.8307 3.25637C20.89 3.49387 21.0682 3.73137 21.3057 3.79075C22.4932 4.02825 23.5619 4.68137 24.3932 5.572C24.5713 5.75012 24.8088 5.8095 25.0463 5.69075L26.0557 5.27512L26.7088 6.40325L25.8182 7.05637C25.64 7.2345 25.5213 7.472 25.5807 7.7095C25.9369 8.83762 25.9369 10.0845 25.5807 11.272C25.5213 11.5095 25.5807 11.8064 25.8182 11.9251L26.7088 12.5782L26.0557 13.7064L25.0463 13.2907C24.8088 13.2314 24.5713 13.2907 24.3932 13.4689Z" stroke="white" stroke-width="0.2" mask="url(#path-3-outside-1_50_1974)"/>
<path d="M20.0594 6.92848C20.5661 6.92848 20.9594 7.32172 20.9594 7.82848C20.9594 8.01797 21.0228 8.17976 21.1373 8.2943C21.2518 8.40885 21.4136 8.47223 21.6031 8.47223C21.7926 8.47223 21.9544 8.40885 22.0689 8.2943C22.1835 8.17976 22.2469 8.01797 22.2469 7.82848C22.2469 6.8674 21.5949 6.02739 20.7031 5.71461V5.3941C20.7031 5.20462 20.6397 5.04283 20.5252 4.92828C20.4107 4.81373 20.2489 4.75035 20.0594 4.75035C19.8699 4.75035 19.7081 4.81373 19.5936 4.92828C19.479 5.04283 19.4156 5.20462 19.4156 5.3941V5.71231C18.5215 5.96875 17.8719 6.81118 17.8719 7.82848C17.8719 9.04359 18.8443 10.016 20.0594 10.016C20.5661 10.016 20.9594 10.4092 20.9594 10.916C20.9594 11.4227 20.5661 11.816 20.0594 11.816C19.5526 11.816 19.1594 11.4227 19.1594 10.916C19.1594 10.7265 19.096 10.5647 18.9814 10.4502C18.8669 10.3356 18.7051 10.2722 18.5156 10.2722C18.3261 10.2722 18.1643 10.3356 18.0498 10.4502C17.9353 10.5647 17.8719 10.7265 17.8719 10.916C17.8719 11.8771 18.5238 12.7171 19.4156 13.0298V13.4097C19.4156 13.5992 19.479 13.761 19.5936 13.8756C19.7081 13.9901 19.8699 14.0535 20.0594 14.0535C20.2489 14.0535 20.4107 13.9901 20.5252 13.8756C20.6397 13.761 20.7031 13.5992 20.7031 13.4097V13.0321C21.5972 12.7757 22.2469 11.9333 22.2469 10.916C22.2469 9.70087 21.2745 8.72848 20.0594 8.72848C19.5526 8.72848 19.1594 8.33524 19.1594 7.82848C19.1594 7.32172 19.5526 6.92848 20.0594 6.92848Z" fill="white" stroke="white" stroke-width="0.1"/>
</svg>
