<svg width="36" height="36" viewBox="0 0 36 36" fill="none" xmlns="http://www.w3.org/2000/svg">
<path d="M20.2425 9.77455V9.72455H20.1925H19.0957H19.0457V9.77455C19.0457 10.8036 19.7449 11.6654 20.6909 11.9286V13.0649V13.1149H20.7409H21.8376H21.8876V13.0649V12.0181H23.4828H23.5328V11.9681V9.77455C23.5328 8.5372 22.5266 7.53101 21.2893 7.53101C20.712 7.53101 20.2425 7.06149 20.2425 6.48423V5.43746H21.2893C21.8665 5.43746 22.336 5.90697 22.336 6.48423V6.53423H22.386H23.4828H23.5328V6.48423C23.5328 5.45518 22.8336 4.59341 21.8876 4.33023V3.19391V3.14391H21.8376H20.7409H20.6909V3.19391V4.24068H19.0957H19.0457V4.29068V6.48423C19.0457 7.72159 20.0519 8.72778 21.2893 8.72778C21.8665 8.72778 22.336 9.1973 22.336 9.77455V10.8213H21.2893C20.712 10.8213 20.2425 10.3518 20.2425 9.77455Z" fill="white" stroke="white" stroke-width="0.1"/>
<path d="M30.5629 7.53065H30.6129H35H35.05V7.58065V35V35.05H35H1H0.95V35V14.1613V14.1113H1H5.3871H5.4371V14.1613V33.8532H7.53065V8.67742V8.62742H7.58065H11.9677H12.0177V8.67742V33.8532H13.0145V22.9355V22.8855H13.0645H13.9653L13.1396 19.1333L30.5629 7.53065ZM30.5629 7.53065V7.58065V33.8532M30.5629 7.53065V33.8532M30.5629 33.8532H28.4694V19.6452V19.5952H28.4194H24.0323H23.9823V19.6452V33.8532H22.9855V22.9355V22.8855H22.9355H21.8887V21.4836L25.3977 16.6149L25.3978 16.615L25.3996 16.6122C26.1226 15.4563 26.5805 14.1353 26.7463 12.7817C27.8178 11.5277 28.4694 9.90412 28.4694 8.12903C28.4694 4.17058 25.2488 0.95 21.2903 0.95C17.3319 0.95 14.1113 4.17058 14.1113 8.12903C14.1113 9.78679 14.6879 11.3803 15.7299 12.6584L14.141 14.7009L14.141 14.7009C13.4147 15.6354 13.0145 16.8005 13.0145 17.9841C13.0145 18.371 13.0566 18.7574 13.1396 19.1333L30.5629 33.8532ZM17.0286 19.5204L17.0285 19.5204C16.5618 19.0537 16.3048 18.4333 16.3048 17.773V17.1303C16.3048 16.4699 16.5618 15.8496 17.0286 15.3834L18.768 13.6445C18.9478 13.4647 19.0468 13.2251 19.0468 12.9707C19.0468 12.445 18.6195 12.0177 18.0943 12.0177H17.7442L15.0853 15.4357C15.0853 15.4357 15.0853 15.4357 15.0853 15.4357C14.5218 16.1607 14.2113 17.0657 14.2113 17.9841C14.2113 18.2848 14.2443 18.5844 14.3083 18.876L17.0286 19.5204ZM17.0286 19.5204L17.1893 19.6806L17.2039 19.6952H17.2246H18.2599H18.2836L18.2986 19.6768L21.8996 15.2765C23.1219 15.1733 24.2581 14.7658 25.23 14.1249C25.0263 14.7702 24.7542 15.3878 24.4058 15.9464L20.7014 21.084L20.6919 21.097V21.1132V22.8855H15.1908L14.3083 18.876L17.0286 19.5204ZM16.485 11.6874C15.7245 10.6612 15.3081 9.41771 15.3081 8.12903C15.3081 4.83068 17.992 2.14677 21.2903 2.14677C24.5887 2.14677 27.2726 4.83068 27.2726 8.12903C27.2726 11.4274 24.5887 14.1113 21.2903 14.1113C20.8495 14.1113 20.4154 14.0586 19.9905 13.9638C20.1508 13.6607 20.2435 13.3242 20.2435 12.9707C20.2435 11.7849 19.279 10.821 18.0943 10.821H17.1835H17.159L17.144 10.8403L16.485 11.6874ZM16.3548 26.2758H21.7887V33.8532H14.2113V26.2758H15.2581H15.3081V26.2258V25.129V25.079H15.2581H14.2113V24.0823H21.7887V25.079H16.3548H16.3048V25.129V26.2258V26.2758H16.3548ZM4.24032 33.8532H2.14677V15.3081H4.24032V33.8532ZM25.179 20.7919H27.2726V33.8532H25.179V20.7919ZM17.8747 16.2295L19.1336 14.9705C19.54 15.0989 19.9555 15.1908 20.3786 15.2447L17.7227 18.4907C17.5789 18.2808 17.5016 18.0331 17.5016 17.773V17.1303C17.5016 16.7898 17.634 16.4702 17.8747 16.2295ZM8.72742 9.82419H10.821V33.8532H8.72742V9.82419ZM33.8532 33.8532H31.7597V8.72742H33.8532V33.8532Z" fill="white" stroke="white" stroke-width="0.1"/>
<path d="M26.2771 7.58087V7.53087H26.2271H25.1304H25.0804V7.58087V8.67765V8.72765H25.1304H26.2271H26.2771V8.67765V7.58087Z" fill="white" stroke="white" stroke-width="0.1"/>
<path d="M17.5018 7.58087V7.53087H17.4518H16.355H16.305V7.58087V8.67765V8.72765H16.355H17.4518H17.5018V8.67765V7.58087Z" fill="white" stroke="white" stroke-width="0.1"/>
</svg>
