<svg width="24" height="24" viewBox="0 0 24 24" fill="none" xmlns="http://www.w3.org/2000/svg">
<mask id="path-1-outside-1_50_2785" maskUnits="userSpaceOnUse" x="0" y="0.280762" width="24" height="23" fill="black">
<rect fill="white" y="0.280762" width="24" height="23"/>
<path fill-rule="evenodd" clip-rule="evenodd" d="M22.3988 1.44098C22.6779 1.59819 22.8803 1.85484 22.9612 2.15448C23.0422 2.45412 22.9952 2.77221 22.8306 3.03876L11.2826 21.7081C11.1888 21.8593 11.0605 21.9884 10.9072 22.0857C10.7539 22.183 10.5796 22.246 10.3972 22.2699C10.2148 22.2938 10.0292 22.2781 9.85404 22.2239C9.67892 22.1698 9.51889 22.0785 9.38589 21.957L1.37708 14.6402C1.14285 14.426 1.00732 14.1318 1.00029 13.8223C0.993259 13.5127 1.11532 13.2131 1.33961 12.9895C1.5639 12.7659 1.87205 12.6365 2.19627 12.6297C2.5205 12.623 2.83423 12.7396 3.06846 12.9537L9.96109 19.2562L20.7237 1.85481C20.8883 1.58827 21.1571 1.39509 21.471 1.31777C21.7848 1.24045 22.118 1.28533 22.3971 1.44253"/>
</mask>
<path fill-rule="evenodd" clip-rule="evenodd" d="M22.3988 1.44098C22.6779 1.59819 22.8803 1.85484 22.9612 2.15448C23.0422 2.45412 22.9952 2.77221 22.8306 3.03876L11.2826 21.7081C11.1888 21.8593 11.0605 21.9884 10.9072 22.0857C10.7539 22.183 10.5796 22.246 10.3972 22.2699C10.2148 22.2938 10.0292 22.2781 9.85404 22.2239C9.67892 22.1698 9.51889 22.0785 9.38589 21.957L1.37708 14.6402C1.14285 14.426 1.00732 14.1318 1.00029 13.8223C0.993259 13.5127 1.11532 13.2131 1.33961 12.9895C1.5639 12.7659 1.87205 12.6365 2.19627 12.6297C2.5205 12.623 2.83423 12.7396 3.06846 12.9537L9.96109 19.2562L20.7237 1.85481C20.8883 1.58827 21.1571 1.39509 21.471 1.31777C21.7848 1.24045 22.118 1.28533 22.3971 1.44253" fill="#007376"/>
<path d="M22.8306 3.03876L23.681 3.56481L23.6814 3.56428L22.8306 3.03876ZM11.2826 21.7081L12.1326 22.2348L12.133 22.2341L11.2826 21.7081ZM9.38589 21.957L8.71139 22.6953L8.7114 22.6953L9.38589 21.957ZM1.37708 14.6402L0.702324 15.3782L0.702593 15.3785L1.37708 14.6402ZM3.06846 12.9537L3.74327 12.2157L3.74323 12.2157L3.06846 12.9537ZM9.96109 19.2562L9.28628 19.9942L10.1768 20.8085L10.8116 19.7822L9.96109 19.2562ZM20.7237 1.85481L21.5742 2.38083L21.5744 2.38037L20.7237 1.85481ZM21.9081 2.31231C21.962 2.34268 21.9873 2.38384 21.9959 2.41538L23.9266 1.89359C23.7732 1.32584 23.3939 0.853695 22.8894 0.56964L21.9081 2.31231ZM21.9959 2.41538C22.004 2.44548 22.0008 2.47924 21.9798 2.51324L23.6814 3.56428C23.9896 3.06518 24.0804 2.46277 23.9266 1.89359L21.9959 2.41538ZM21.9801 2.51271L10.4321 21.182L12.133 22.2341L23.681 3.56481L21.9801 2.51271ZM10.4325 21.1813C10.4199 21.2017 10.4001 21.2232 10.3714 21.2414L11.443 22.9301C11.721 22.7537 11.9578 22.517 12.1326 22.2348L10.4325 21.1813ZM10.3714 21.2414C10.3427 21.2596 10.3071 21.2731 10.2671 21.2784L10.5273 23.2614C10.8521 23.2188 11.1652 23.1064 11.443 22.9301L10.3714 21.2414ZM10.2671 21.2784C10.227 21.2836 10.1866 21.2801 10.1496 21.2686L9.55847 23.1793C9.8717 23.2762 10.2026 23.304 10.5273 23.2614L10.2671 21.2784ZM10.1496 21.2686C10.1127 21.2572 10.0827 21.2391 10.0604 21.2187L8.7114 22.6953C8.95513 22.9179 9.24514 23.0823 9.55847 23.1793L10.1496 21.2686ZM10.0604 21.2187L2.05158 13.9019L0.702593 15.3785L8.71139 22.6953L10.0604 21.2187ZM2.05184 13.9021C2.01333 13.8669 2.00069 13.8287 2.00003 13.7996L0.000545204 13.8449C0.0139395 14.4349 0.272375 14.9851 0.702325 15.3782L2.05184 13.9021ZM2.00003 13.7996C1.99937 13.7705 2.01013 13.7331 2.04568 13.6976L0.63353 12.2814C0.220506 12.6932 -0.0128523 13.2549 0.000545204 13.8449L2.00003 13.7996ZM2.04568 13.6976C2.08281 13.6606 2.1434 13.6311 2.21697 13.6295L2.17558 11.63C1.6007 11.6419 1.04499 11.8711 0.63353 12.2814L2.04568 13.6976ZM2.21697 13.6295C2.29059 13.628 2.35362 13.6551 2.39371 13.6918L3.74323 12.2157C3.31485 11.824 2.7504 11.6181 2.17558 11.63L2.21697 13.6295ZM2.39366 13.6917L9.28628 19.9942L10.6359 18.5182L3.74327 12.2157L2.39366 13.6917ZM10.8116 19.7822L21.5742 2.38083L19.8732 1.3288L9.11061 18.7302L10.8116 19.7822ZM21.5744 2.38037C21.5967 2.34439 21.6417 2.30561 21.7102 2.28874L21.2318 0.346804C20.6726 0.484566 20.18 0.832146 19.8729 1.32926L21.5744 2.38037ZM21.7102 2.28874C21.7793 2.2717 21.8512 2.28277 21.9065 2.31389L22.8878 0.571176C22.3847 0.287892 21.7903 0.209208 21.2318 0.346804L21.7102 2.28874Z" fill="#007376" mask="url(#path-1-outside-1_50_2785)"/>
</svg>
