<svg width="80" height="72" viewBox="0 0 80 72" fill="none" xmlns="http://www.w3.org/2000/svg">
<path fill-rule="evenodd" clip-rule="evenodd" d="M6.53989 47.9475L0 49.7031L5.4777 70.1392L12.0176 68.3835L6.53989 47.9475ZM56.401 16.2049C53.5569 13.3607 49.6241 11.5962 45.2788 11.5962C40.9336 11.5962 37.0096 13.3519 34.1566 16.2049C31.3125 19.0491 29.548 22.9818 29.548 27.3271C29.548 31.6724 31.3037 35.5963 34.1566 38.4493C37.0096 41.3022 40.9336 43.0579 45.2788 43.0579C49.6241 43.0579 53.5481 41.3022 56.401 38.4493C59.2452 35.6051 61.0097 31.6724 61.0097 27.3271C61.0097 22.9818 59.254 19.0578 56.401 16.2049ZM44.3132 15.8186C44.3132 15.2831 44.7521 14.8442 45.2876 14.8442C45.8231 14.8442 46.262 15.2831 46.262 15.8186V16.5209C47.5086 16.7228 48.6234 17.3197 49.4837 18.18C50.5546 19.251 51.2218 20.7345 51.2218 22.3673C51.2218 22.9028 50.7829 23.3417 50.2474 23.3417C49.7119 23.3417 49.273 22.9028 49.273 22.3673C49.273 21.27 48.8253 20.2693 48.1055 19.5494C47.3857 18.8296 46.3849 18.3819 45.2876 18.3819C44.1903 18.3819 43.1896 18.8296 42.4698 19.5494C41.7499 20.2693 41.3022 21.27 41.3022 22.3673C41.3022 25.3783 43.4091 25.8786 45.5071 26.379C48.3601 27.0549 51.213 27.7397 51.213 32.2781C51.213 33.9109 50.5459 35.3944 49.4749 36.4654C48.6234 37.3169 47.4998 37.9138 46.2532 38.1245V38.8267C46.2532 39.3622 45.8143 39.8011 45.2788 39.8011C44.7434 39.8011 44.3044 39.3622 44.3044 38.8267V38.1245C43.0579 37.9226 41.9431 37.3256 41.0828 36.4654C40.0118 35.3944 39.3447 33.9109 39.3447 32.2781C39.3447 31.7426 39.7836 31.3037 40.3191 31.3037C40.8545 31.3037 41.2935 31.7426 41.2935 32.2781C41.2935 33.3754 41.7412 34.3761 42.461 35.0959C43.1808 35.8158 44.1815 36.2635 45.2788 36.2635C46.3761 36.2635 47.3769 35.8158 48.0967 35.0959C48.8165 34.3761 49.2642 33.3754 49.2642 32.2781C49.2642 29.2671 47.1574 28.7667 45.0594 28.2664C42.2064 27.5904 39.3534 26.9057 39.3534 22.3673C39.3534 20.7345 40.0206 19.251 41.0916 18.18C41.9431 17.3285 43.0667 16.7316 44.3132 16.5209V15.8186ZM44.3132 0.974399C44.3132 0.438918 44.7521 0 45.2876 0C45.8231 0 46.262 0.438918 46.262 0.974399V6.14486C46.262 6.68034 45.8231 7.11926 45.2876 7.11926C44.7521 7.11926 44.3132 6.68034 44.3132 6.14486V0.974399ZM57.6212 4.02049C57.8846 3.55524 58.4815 3.39723 58.938 3.66058C59.4032 3.92393 59.5613 4.52086 59.2979 4.97734L56.7171 9.45431C56.4537 9.91956 55.8568 10.0776 55.4003 9.81422C54.9351 9.55087 54.777 8.95394 55.0404 8.49747L57.6212 4.02049ZM67.6198 13.308C68.0851 13.0359 68.6732 13.1939 68.9453 13.6591C69.2175 14.1244 69.0595 14.7126 68.5942 14.9847L64.1172 17.5655C63.652 17.8377 63.0638 17.6796 62.7917 17.2144C62.5196 16.7491 62.6776 16.161 63.1428 15.8889L67.6198 13.308ZM71.6403 26.3527C72.1758 26.3527 72.6147 26.7916 72.6147 27.3271C72.6147 27.8626 72.1758 28.3015 71.6403 28.3015H66.4698C65.9344 28.3015 65.4954 27.8626 65.4954 27.3271C65.4954 26.7916 65.9344 26.3527 66.4698 26.3527H71.6403ZM68.5942 39.6607C69.0595 39.924 69.2175 40.521 68.9541 40.9774C68.6908 41.4427 68.0938 41.6007 67.6374 41.3374L63.1604 38.7565C62.6951 38.4932 62.5371 37.8962 62.8005 37.4398C63.0638 36.9745 63.6608 36.8165 64.1172 37.0798L68.5942 39.6607ZM22.9467 41.3374C22.4814 41.6007 21.8933 41.4427 21.6299 40.9774C21.3666 40.5122 21.5246 39.924 21.9898 39.6607L26.4668 37.0798C26.932 36.8165 27.5202 36.9745 27.7836 37.4398C28.0469 37.905 27.8889 38.4932 27.4236 38.7565L22.9467 41.3374ZM18.9349 28.2927C18.3995 28.2927 17.9605 27.8538 17.9605 27.3183C17.9605 26.7828 18.3995 26.3439 18.9349 26.3439H24.1054C24.6409 26.3439 25.0798 26.7828 25.0798 27.3183C25.0798 27.8538 24.6409 28.2927 24.1054 28.2927H18.9349ZM21.981 14.9847C21.5158 14.7126 21.3578 14.1244 21.6299 13.6591C21.902 13.1939 22.4902 13.0359 22.9554 13.308L27.4324 15.8889C27.8977 16.161 28.0557 16.7491 27.7836 17.2144C27.5114 17.6796 26.9233 17.8377 26.458 17.5655L21.981 14.9847ZM31.2773 4.98612C31.014 4.52086 31.172 3.93271 31.6373 3.66936C32.1025 3.40601 32.6907 3.56402 32.954 4.02927L35.5349 8.50624C35.7982 8.9715 35.6402 9.55965 35.1749 9.823C34.7097 10.0864 34.1215 9.92834 33.8582 9.46309L31.2773 4.98612ZM31.5934 59.7017L50.5283 59.5525C50.581 59.5525 50.6424 59.5525 50.6951 59.5349C52.5034 59.2013 53.7939 58.3586 54.5137 57.2877C54.5488 57.235 54.5751 57.1911 54.6103 57.1384L70.9731 49.3257C71.6403 49.0097 72.2811 48.7814 72.9307 48.6497C73.5891 48.5181 74.265 48.4654 75.0024 48.4917C76.6352 48.5532 77.8115 48.8165 78.505 49.2116C78.7771 49.3696 78.9439 49.5276 79.0054 49.6856C79.0492 49.8085 79.0317 49.9753 78.9351 50.186C78.7157 50.66 78.189 51.2218 77.3462 51.8363L47.3418 70.543C46.2971 71.1926 45.2086 71.6052 44.0938 71.772C42.9701 71.9388 41.8114 71.8685 40.6263 71.5613L18.4346 65.7237C17.6796 65.5218 16.951 65.4603 16.2312 65.513C15.5114 65.5744 14.8003 65.7588 14.0981 66.0836L13.5099 66.3469L8.78715 48.7112C12.7813 46.6483 17.03 45.6475 21.0857 45.8758C25.0974 46.104 28.9423 47.5437 32.1991 50.3791C32.3571 50.5195 32.5678 50.6073 32.796 50.6161L47.9036 51.213C50.3615 51.6783 51.9329 52.6263 52.7141 53.6885C53.0477 54.1362 53.2233 54.6015 53.2408 55.0404C53.2672 55.453 53.153 55.8568 52.916 56.2167C52.4859 56.8575 51.6607 57.3754 50.4405 57.6212L31.6021 57.7705C31.0667 57.7705 30.6365 58.2094 30.6453 58.7449C30.6453 59.2804 31.0842 59.7105 31.6197 59.7017H31.5934Z" fill="#007376"/>
</svg>
