<svg width="74" height="71" viewBox="0 0 74 71" fill="none" xmlns="http://www.w3.org/2000/svg">
<path d="M32.6927 55.731C32.6927 56.8463 31.0278 56.8463 31.0278 55.731V52.5052C31.0278 51.3899 32.6927 51.3899 32.6927 52.5052V55.731ZM54.6224 31.6404C55.7323 31.6404 55.7323 33.3391 54.6224 33.3391H51.4607C50.3508 33.3391 50.3508 31.6404 51.4607 31.6404H54.6224ZM9.09812 33.3562C8.005 33.3562 8.005 31.6576 9.09812 31.6576H12.2598C13.3529 31.6576 13.3529 33.3562 12.2598 33.3562H9.09812ZM31.0278 9.28278C31.0278 8.15032 32.7095 8.15032 32.7095 9.28278V12.5086C32.7095 13.6411 31.0278 13.6411 31.0278 12.5086V9.28278ZM28.0511 28.6205C28.8415 27.814 29.8674 27.265 31.0278 27.0762V18.3082C31.0278 17.1929 32.6927 17.1929 32.6927 18.3082V27.0762C34.9966 27.4365 36.8129 29.2897 37.1661 31.6404H42.0431C43.153 31.6404 43.153 33.3562 42.0431 33.3562H37.1661C36.4934 37.7488 31.1623 39.5505 28.0511 36.3762C25.949 34.2485 25.949 30.7653 28.0511 28.6205ZM31.8518 28.7234C28.5725 28.7234 26.9244 32.79 29.2452 35.1579C31.5659 37.5258 35.5516 35.8442 35.5516 32.4983C35.5516 30.4221 33.9035 28.7234 31.8518 28.7234ZM69.5224 44.4064C63.5523 38.3151 53.8992 38.3151 47.9291 44.4064C41.959 50.4977 41.959 60.3638 47.9291 66.438C53.8992 72.5121 63.5523 72.5293 69.5224 66.438C75.4925 60.3467 75.4925 50.4805 69.5224 44.4064ZM41.774 55.834C41.5722 47.0831 47.7777 39.6534 56.1191 38.3322C58.1035 29.6672 55.5137 20.6932 49.4763 14.5333C39.7559 4.5985 23.9814 4.5985 14.2442 14.5333C4.52383 24.451 4.52383 40.5457 14.2442 50.4805C21.4588 57.8415 32.39 59.9863 41.774 55.834ZM58.7258 38.1263C60.2561 38.1263 61.736 38.3322 63.1319 38.7269C66.9326 18.6857 51.9316 0 31.8518 0C14.261 0 0 14.5505 0 32.4983C0 50.4462 14.261 64.9966 31.8518 64.9966C35.8543 64.9966 39.7223 64.2588 43.3884 62.8003C42.6485 61.1874 42.1272 59.4544 41.9085 57.6185C31.9864 61.7708 20.6011 59.3858 13.0502 51.6816C2.65712 41.0948 2.65712 23.9019 13.0502 13.315C23.4264 2.72821 40.2773 2.72821 50.6535 13.315C56.9431 19.7323 59.7516 29.0151 57.8681 38.1435C58.154 38.1263 58.4399 38.1263 58.7258 38.1263ZM60.7438 55.4222V45.453H56.7077V55.4222C56.7077 55.8854 56.3377 56.2801 55.8668 56.2801H54.0506L58.7258 64.5334L63.4009 56.2801H61.5847C61.1138 56.2801 60.7438 55.9026 60.7438 55.4222ZM62.4255 44.5951V54.5642H64.8472C65.5031 54.5642 65.8899 55.2849 65.5704 55.8511L59.4489 66.6782C59.1294 67.2273 58.3221 67.2787 57.969 66.6267L51.8643 55.8511C51.5448 55.2849 51.9484 54.5642 52.5875 54.5642H55.026V44.5951C55.026 44.1318 55.3959 43.7372 55.8668 43.7372H61.5847C62.0556 43.7372 62.4255 44.1147 62.4255 44.5951Z" fill="#007376"/>
</svg>
