<svg width="111" height="72" viewBox="0 0 111 72" fill="none" xmlns="http://www.w3.org/2000/svg">
<path d="M32.6523 38.5169C30.964 35.8141 31.2605 31.1539 29.9896 26.4937C28.6155 21.4556 23.0278 20.0815 19.669 19.6235C16.7576 19.2265 13.8727 20.2506 11.3159 22.9974C10.47 23.9063 9.8071 24.9744 9.37413 26.1381C7.80015 30.3684 8.05258 35.1978 6.07736 38.8466C5.51822 39.8796 5.15763 41.0141 5.09534 42.1871C4.83485 47.0926 10.0318 45.7873 15.2417 45.5468C11.8524 43.2568 10.3868 35.6539 10.3868 35.6539C13.4096 33.8218 16.5241 28.6921 16.5241 28.6921C16.5241 28.6921 18.2991 33.4835 22.4541 33.8356C22.4541 33.8356 20.4985 33.3594 19.6724 31.5416C23.628 34.0664 27.9743 33.8785 27.9743 33.8785C29.0735 40.897 23.669 45.0888 23.669 45.0888C23.669 45.0888 27.5016 46.9673 29.8832 46.0512C31.6717 45.3634 33.7077 43.9017 33.5974 41.3708C33.553 40.3523 33.1925 39.3816 32.6523 38.5169Z" fill="#007376"/>
<path d="M27.7313 56.4291L27.748 56.34C28.1469 54.2714 29.4549 52.5525 31.2471 51.7417L34.6629 50.1907L31.3491 48.6272C30.8753 48.405 30.326 48.3966 29.8439 48.602L22.7672 51.6209C20.8837 52.4244 18.7539 52.4244 16.8704 51.6209L9.79381 48.602C9.31164 48.3966 8.76658 48.405 8.2928 48.6272L3.8987 50.6984C2.47732 51.3693 1.49206 52.7194 1.29077 54.2791L0.0175175 64.1336C-0.127079 65.2529 0.638701 66.2878 1.75238 66.4705C7.46127 67.4072 16.1994 68.3561 26.2769 67.8305L27.7313 56.4291Z" fill="#007376"/>
<path d="M103.719 38.517C102.03 35.8143 102.327 31.154 101.056 26.4938C99.682 21.4557 94.0942 20.0817 90.7354 19.6236C87.824 19.2266 84.9391 20.2507 82.3823 22.9975C81.5364 23.9064 80.8735 24.9746 80.4405 26.1382C78.8666 30.3685 79.119 35.1979 77.1438 38.8467C76.5846 39.8797 76.224 41.0143 76.1617 42.1872C75.9013 47.0927 81.0982 45.7874 86.3081 45.547C82.9188 43.2569 81.4532 35.654 81.4532 35.654C84.476 33.8219 87.5905 28.6922 87.5905 28.6922C87.5905 28.6922 89.3655 33.4836 93.5205 33.8357C93.5205 33.8357 91.5649 33.3595 90.7389 31.5418C94.6944 34.0665 99.0407 33.8787 99.0407 33.8787C100.14 40.8971 94.7354 45.0889 94.7354 45.0889C94.7354 45.0889 98.568 46.9674 100.95 46.0514C102.738 45.3635 104.774 43.9019 104.664 41.3709C104.619 40.3524 104.259 39.3817 103.719 38.517Z" fill="#007376"/>
<path d="M110.702 64.2332L109.411 54.2792C109.21 52.7195 108.229 51.3694 106.803 50.6986L102.414 48.6273C101.94 48.4051 101.391 48.3967 100.908 48.6021L93.8318 51.621C91.9483 52.4245 89.8184 52.4245 87.935 51.621L80.8583 48.6021C80.3761 48.3967 79.8311 48.4051 79.3573 48.6273L76.0508 50.1859L79.4816 51.7437C81.2701 52.5582 82.5734 54.2762 82.9714 56.3401L82.9992 56.5182L84.4331 67.7635C91.475 68.1963 99.9679 68.0881 108.971 66.5724C110.082 66.3854 110.846 65.3502 110.702 64.2332Z" fill="#007376"/>
<path d="M58.6307 50.0707C59.1291 49.5482 58.7511 48.6945 58.0215 48.6945H52.8281C52.0796 48.6945 51.71 49.5862 52.2463 50.0981L53.5052 51.2997H53.5181L50.4258 60.6158L51.4047 71.4903H59.2421L60.3045 60.6158L57.4584 51.2997L58.6307 50.0707Z" fill="#007376"/>
<path d="M30.547 56.8806C30.547 56.8806 29.4176 65.7289 28.9174 69.6537C28.7929 70.6302 29.5697 71.4908 30.5735 71.4908H48.4523L47.3788 60.0328L49.5258 54.4428V46.5734L32.4215 54.3392C31.4704 54.7701 30.7695 55.7244 30.547 56.8806Z" fill="#007376"/>
<path d="M81.804 69.6537C81.3037 65.7289 80.1744 56.8806 80.1744 56.8806C79.9519 55.7244 79.2511 54.7701 78.3055 54.3392L61.2012 46.5734V54.0556L63.3372 60.1527L62.1913 71.4908H80.1479C81.1517 71.4908 81.9285 70.6302 81.804 69.6537Z" fill="#007376"/>
<path d="M48.7492 36.8771C48.4006 36.8771 48.0664 36.7386 47.82 36.4922C47.5733 36.2457 47.435 35.9114 47.435 35.5629C47.435 33.8288 46.6405 32.196 45.2554 31.0834C41.4264 28.0072 39.2255 23.4303 39.2168 18.5264C39.2017 9.81771 46.2681 2.5656 54.9691 2.35999C59.3536 2.25796 63.5012 3.886 66.6371 6.9487C69.7739 10.0123 71.5014 14.1138 71.5014 18.4977C71.5014 23.4144 69.2995 28.0025 65.4602 31.0854C64.0767 32.1965 63.2832 33.8284 63.2832 35.5628C63.2832 36.2885 62.6949 36.877 61.969 36.877L48.7492 36.8771ZM49.959 34.2486H60.7592C61.0844 32.2178 62.1579 30.3662 63.8143 29.0359C67.0291 26.4545 68.8729 22.6134 68.8729 18.4977C68.8729 14.8276 67.4267 11.3939 64.8005 8.82907C62.1754 6.26513 58.7072 4.90301 55.0312 4.98771C47.7479 5.15984 41.8327 11.2312 41.8453 18.5218C41.8525 22.6268 43.6955 26.4585 46.9018 29.0342C48.5593 30.3657 49.6335 32.218 49.959 34.2486Z" fill="#007376"/>
<path d="M49.2048 41.4202C49.3217 42.236 50.0205 42.8418 50.8447 42.8418H51.5537V43.7235C51.5537 44.4351 52.1306 45.012 52.8422 45.012H57.8727C58.5844 45.012 59.1613 44.4351 59.1613 43.7235V42.8418H59.8703C60.6945 42.8418 61.3933 42.236 61.5102 41.4202L61.9279 38.5068H48.7871L49.2048 41.4202Z" fill="#007376"/>
<path d="M41.3392 4.71201C41.0558 4.71201 40.7725 4.60384 40.5562 4.38753L38.0588 1.89057C37.6262 1.45831 37.6262 0.757101 38.0588 0.324462C38.4907 -0.108154 39.1923 -0.108154 39.6249 0.324462L42.1223 2.82143C42.5549 3.25371 42.5549 3.95492 42.1223 4.38753C41.9063 4.60384 41.6226 4.71201 41.3392 4.71201Z" fill="#007376"/>
<path d="M38.1848 8.8192C37.9969 8.8192 37.8066 8.77125 37.6321 8.67029L34.5734 6.90447C34.0438 6.59874 33.8621 5.92134 34.1682 5.39172C34.4739 4.86321 35.1517 4.68006 35.681 4.98651L38.7396 6.75232C39.2692 7.05805 39.4509 7.73548 39.1448 8.26508C38.9401 8.62018 38.5676 8.8192 38.1848 8.8192Z" fill="#007376"/>
<path d="M36.2034 13.6025C36.1085 13.6025 36.0119 13.5902 35.916 13.5643L32.5048 12.65C31.9139 12.4917 31.5631 11.8842 31.7217 11.2937C31.88 10.7028 32.4882 10.3524 33.078 10.5107L36.4893 11.425C37.0802 11.5832 37.4309 12.1907 37.2723 12.7812C37.1396 13.2762 36.6922 13.6025 36.2034 13.6025Z" fill="#007376"/>
<path d="M35.5278 18.7355H31.9962C31.3844 18.7355 30.8887 18.2398 30.8887 17.628C30.8887 17.0162 31.3844 16.5205 31.9962 16.5205H35.5278C36.1397 16.5205 36.6354 17.0162 36.6354 17.628C36.6354 18.2398 36.1397 18.7355 35.5278 18.7355Z" fill="#007376"/>
<path d="M78.7232 18.7355H75.1915C74.5797 18.7355 74.084 18.2398 74.084 17.628C74.084 17.0162 74.5797 16.5205 75.1915 16.5205H78.7232C79.335 16.5205 79.8307 17.0162 79.8307 17.628C79.8307 18.2398 79.335 18.7355 78.7232 18.7355Z" fill="#007376"/>
<path d="M74.5133 13.6025C74.0245 13.6025 73.577 13.2762 73.4444 12.7812C73.2858 12.1907 73.6365 11.5832 74.2274 11.425L77.6387 10.5107C78.2303 10.3524 78.8363 10.7028 78.995 11.2937C79.1536 11.8842 78.8028 12.4917 78.2119 12.65L74.8007 13.5643C74.7048 13.5902 74.6081 13.6025 74.5133 13.6025Z" fill="#007376"/>
<path d="M72.5365 8.81944C72.1536 8.81944 71.7816 8.62078 71.5764 8.26532C71.2703 7.73571 71.452 7.05829 71.9816 6.75256L75.0399 4.98675C75.571 4.6803 76.2473 4.86235 76.5527 5.39195C76.8588 5.92158 76.6771 6.59898 76.1475 6.90471L73.0892 8.67053C72.9147 8.77149 72.7243 8.81944 72.5365 8.81944Z" fill="#007376"/>
<path d="M69.3829 4.71201C69.0995 4.71201 68.8158 4.60384 68.5999 4.38753C68.1672 3.95492 68.1672 3.25371 68.5999 2.82143L71.0972 0.324462C71.5298 -0.108154 72.2314 -0.108154 72.6633 0.324462C73.0959 0.757101 73.0959 1.45831 72.6633 1.89057L70.166 4.38753C69.9497 4.60384 69.6663 4.71201 69.3829 4.71201Z" fill="#007376"/>
</svg>
