<svg width="71" height="71" viewBox="0 0 71 71" fill="none" xmlns="http://www.w3.org/2000/svg">
<path d="M17.1369 35.5C11.7372 35.5 7.34375 39.8934 7.34375 45.2931C7.34375 50.6928 11.7372 55.0862 17.1369 55.0862C20.1641 55.0862 23.0384 53.6552 24.8881 51.262C25.2859 49.3903 25.9776 47.6288 26.8994 46.0141C26.9165 45.7754 26.93 45.5355 26.93 45.2931C26.93 39.8934 22.5365 35.5 17.1369 35.5ZM11.0137 49.3413C10.2156 48.1331 9.79203 46.7339 9.79203 45.2931C9.79203 41.2424 13.0862 37.9483 17.1369 37.9483C18.5777 37.9483 19.9769 38.3718 21.1851 39.17L19.8324 41.2118C19.0269 40.6781 18.0954 40.3966 17.1369 40.3966C14.4364 40.3966 12.2403 42.5927 12.2403 45.2931C12.2403 46.2516 12.5219 47.1832 13.0556 47.9874L11.0137 49.3413ZM17.1369 52.6379C15.696 52.6379 14.2969 52.2144 13.0886 51.4162L14.4413 49.3744C15.2468 49.9081 16.1784 50.1897 17.1369 50.1897C19.8373 50.1897 22.0334 47.9936 22.0334 45.2931C22.0334 44.3346 21.7519 43.403 21.2181 42.5988L23.26 41.2461C24.0581 42.4531 24.4817 43.8523 24.4817 45.2931C24.4817 49.3438 21.1875 52.6379 17.1369 52.6379Z" fill="#007376"/>
<path d="M24.484 55.0533C22.3834 56.6299 19.8114 57.5346 17.1379 57.5346C10.388 57.5346 4.89655 52.0431 4.89655 45.2932C4.89655 38.5433 10.388 33.0518 17.1379 33.0518C23.0701 33.0518 28.0279 37.2959 29.1418 42.9061C29.76 42.2108 30.4174 41.551 31.1335 40.9573C30.8152 39.9241 30.4076 38.9265 29.8788 38.0059L29.4883 37.3241L31.12 35.0398L27.3925 31.3123L25.1083 32.9441L24.4264 32.5536C23.3602 31.9415 22.2059 31.4629 20.9927 31.1348L20.235 30.9292L19.7723 28.1553H14.5024L14.0396 30.9279L13.2819 31.1336C12.07 31.4629 10.9144 31.9403 9.84819 32.5524L9.16634 32.9429L6.8821 31.3111L3.1546 35.0386L4.78638 37.3228L4.39588 38.0047C3.78381 39.0709 3.30517 40.2253 2.9771 41.4384L2.77267 42.1961L0 42.6589V47.9288L2.77267 48.3915L2.97833 49.1492C3.30762 50.3611 3.78503 51.5167 4.3971 52.5829L4.7876 53.2648L3.15583 55.549L6.88333 59.2765L9.16757 57.6448L9.84941 58.0353C10.9156 58.6473 12.07 59.126 13.2831 59.454L14.0409 59.6597L14.5036 62.4311H19.7735L20.2362 59.6585L20.994 59.4528C22.2059 59.1235 23.3614 58.6461 24.4277 58.034L24.7178 57.8675C24.577 56.958 24.4828 56.0338 24.4828 55.0863C24.4828 55.0753 24.484 55.0643 24.484 55.0533Z" fill="#007376"/>
<path d="M42.8454 39.1719C34.0708 39.1719 26.9316 46.311 26.9316 55.0857C26.9316 63.8603 34.0708 70.9995 42.8454 70.9995C51.6201 70.9995 58.7592 63.8603 58.7592 55.0857C58.7592 46.311 51.6201 39.1719 42.8454 39.1719ZM42.8454 68.5512C35.421 68.5512 29.3799 62.5101 29.3799 55.0857C29.3799 51.9874 30.4608 48.9613 32.4219 46.5644L34.3156 48.1167C32.9715 49.7582 32.1416 51.7646 31.9053 53.8615H34.2765V56.3098H31.9004C32.4672 61.4083 36.5228 65.4639 41.6213 66.0307V63.6546H44.0696V66.0258C46.1677 65.7895 48.1729 64.9596 49.8145 63.6155L51.3667 65.5092C48.9698 67.4703 45.9437 68.5512 42.8454 68.5512ZM46.5178 53.8615V56.3098H41.6213V48.965H44.0696V53.8615H46.5178ZM53.269 63.6069L51.3752 62.0547C52.7193 60.4131 53.5493 58.4068 53.7856 56.3098H51.4144V53.8615H53.7905C53.2237 48.763 49.1681 44.7074 44.0696 44.1406V46.5167H41.6213V44.1455C39.5231 44.3818 37.518 45.2118 35.8764 46.5559L34.3242 44.6621C36.7211 42.7011 39.7471 41.6202 42.8454 41.6202C50.2698 41.6202 56.311 47.6613 56.311 55.0857C56.311 58.184 55.23 61.21 53.269 63.6069Z" fill="#007376"/>
<path d="M63.6552 0V2.44828H66.8208L59.9828 9.28631L56.3103 5.6139L50.5385 11.3857C50.0599 11.1556 49.5311 11.0172 48.9655 11.0172C46.9408 11.0172 45.2931 12.6649 45.2931 14.6897C45.2931 15.3225 45.4694 15.9101 45.7522 16.4304L39.3536 23.5402C38.9202 23.3602 38.4465 23.2586 37.9483 23.2586C37.925 23.2586 37.9042 23.2647 37.8809 23.2647L32.9587 10.1383C33.7568 9.46503 34.2759 8.46859 34.2759 7.34483C34.2759 5.3201 32.6282 3.67241 30.6034 3.67241C28.5787 3.67241 26.931 5.3201 26.931 7.34483C26.931 7.6325 26.9714 7.90916 27.0351 8.17724L19.3708 14.2428C18.7489 13.763 17.9814 13.4655 17.1379 13.4655C15.5441 13.4655 14.1976 14.4926 13.6908 15.9138H7.11959C6.61279 14.4926 5.26624 13.4655 3.67241 13.4655C1.64769 13.4655 0 15.1132 0 17.1379C0 19.1627 1.64769 20.8103 3.67241 20.8103C5.26624 20.8103 6.61279 19.7833 7.11959 18.3621H13.692C14.1988 19.7833 15.5453 20.8103 17.1392 20.8103C19.1639 20.8103 20.8116 19.1627 20.8116 17.1379C20.8116 16.8503 20.7712 16.5736 20.7075 16.3055L28.3718 10.2399C28.9925 10.7198 29.76 11.0172 30.6034 11.0172C30.6267 11.0172 30.6475 11.0111 30.6708 11.0111L35.593 24.1376C34.7949 24.8108 34.2759 25.8073 34.2759 26.931C34.2759 28.9558 35.9236 30.6034 37.9483 30.6034C39.973 30.6034 41.6207 28.9558 41.6207 26.931C41.6207 26.2982 41.4456 25.7106 41.1616 25.1903L47.5602 18.0805C47.9936 18.2605 48.4673 18.3621 48.9655 18.3621C50.9902 18.3621 52.6379 16.7144 52.6379 14.6897C52.6379 14.1241 52.4996 13.5953 52.2695 13.1166L56.3103 9.07576L59.9828 12.7482L68.5517 4.17921V7.34483H71V0H63.6552ZM3.67241 18.3621C2.99669 18.3621 2.44828 17.8137 2.44828 17.1379C2.44828 16.4622 2.99669 15.9138 3.67241 15.9138C4.34814 15.9138 4.89655 16.4622 4.89655 17.1379C4.89655 17.8137 4.34814 18.3621 3.67241 18.3621ZM17.1379 18.3621C16.4622 18.3621 15.9138 17.8137 15.9138 17.1379C15.9138 16.4622 16.4622 15.9138 17.1379 15.9138C17.8137 15.9138 18.3621 16.4622 18.3621 17.1379C18.3621 17.8137 17.8137 18.3621 17.1379 18.3621ZM29.3793 7.34483C29.3793 6.6691 29.9277 6.12069 30.6034 6.12069C31.2792 6.12069 31.8276 6.6691 31.8276 7.34483C31.8276 8.02055 31.2792 8.56897 30.6034 8.56897C29.9277 8.56897 29.3793 8.02055 29.3793 7.34483ZM37.9483 28.1552C37.2726 28.1552 36.7241 27.6068 36.7241 26.931C36.7241 26.2553 37.2726 25.7069 37.9483 25.7069C38.624 25.7069 39.1724 26.2553 39.1724 26.931C39.1724 27.6068 38.624 28.1552 37.9483 28.1552ZM48.9655 15.9138C48.2898 15.9138 47.7414 15.3654 47.7414 14.6897C47.7414 14.0139 48.2898 13.4655 48.9655 13.4655C49.6412 13.4655 50.1897 14.0139 50.1897 14.6897C50.1897 15.3654 49.6412 15.9138 48.9655 15.9138Z" fill="#007376"/>
<path d="M46.5176 26.9316V37.0932C48.2522 37.4458 49.895 38.048 51.4141 38.8523V26.9316H46.5176Z" fill="#007376"/>
<path d="M36.7246 33.0508V37.7906C38.2731 37.2422 39.9135 36.8982 41.6212 36.7856V33.0508H36.7246Z" fill="#007376"/>
<path d="M56.3105 42.6322C59.0808 45.6252 60.8594 49.5363 61.1483 53.8624H61.2071V20.8107H56.3105V42.6322Z" fill="#007376"/>
<path d="M71.0001 11.0176H66.1035V53.8624H71.0001V11.0176Z" fill="#007376"/>
</svg>
