<svg width="24" height="24" viewBox="0 0 24 24" fill="none" xmlns="http://www.w3.org/2000/svg">
<path d="M13.4981 1.41477L15.7321 1.41182H17.5182L19.6976 1.41773C20.4083 1.4266 20.7434 1.79279 20.703 2.51629L20.7045 4.60398L20.7074 5.78829C20.7074 5.84152 20.7311 5.87898 20.7784 5.90066C21.6567 6.29888 22.5295 6.70696 23.3969 7.12489C24.3994 7.60838 23.8434 8.37426 23.53 9.07805L21.8503 12.6901C21.5177 13.3969 20.703 14.7453 20.7015 15.489C20.7015 16.6265 20.7 17.7635 20.6971 18.9C20.6941 20.1952 19.396 19.9054 18.5606 19.898C18.5093 19.898 18.4729 19.9207 18.4512 19.966L18.2649 20.3608C17.8016 21.379 17.3314 22.3815 16.8544 23.3681C16.6385 23.8147 16.223 24.1518 15.7455 23.93C12.9688 22.6437 10.194 21.3509 7.42127 20.0518C7.20442 19.9502 6.97722 19.8995 6.73967 19.8995C5.47502 19.8985 4.14729 19.8995 2.75648 19.9024C2.33756 19.6215 2.15816 19.2026 2.21829 18.6457L2.20646 17.7157C2.20548 17.6615 2.18034 17.623 2.13106 17.6004L0.442564 16.8212C-0.141459 16.4353 -0.067532 15.974 0.207477 15.3811C0.826492 14.0454 1.44649 12.7118 2.06748 11.3801C2.16605 11.1692 2.21583 10.9479 2.21681 10.7163C2.21977 9.38854 2.21977 8.04208 2.21681 6.6769C2.21878 5.25454 2.21928 3.80951 2.21829 2.34182C2.21829 1.58776 2.72987 1.42512 3.40556 1.42217C4.48785 1.41724 5.56965 1.41625 6.65095 1.41921C6.67335 1.41923 6.69525 1.41265 6.71392 1.40029C6.73259 1.38793 6.74721 1.37034 6.75593 1.34972C7.11669 0.501035 7.3577 -0.346169 8.42816 0.144707C9.23741 0.514342 10.0442 0.888413 10.8485 1.26692C11.4902 1.56854 12.7677 1.41921 13.4981 1.41477ZM3.54602 6.40337L3.55193 15.8217C3.55193 15.8739 3.57806 15.9 3.6303 15.9L12.0447 15.9518L12.988 15.9355L19.2747 15.9193C19.3309 15.9193 19.359 15.8917 19.359 15.8365L19.3664 12.2687C19.3595 10.938 19.3728 9.62511 19.4063 8.32991C19.4093 8.20866 19.3945 8.10665 19.362 8.02385L19.3649 3.56457L19.3664 2.82678C19.3664 2.77651 19.3408 2.75137 19.2895 2.75137H18.5709L14.0821 2.74989L3.62143 2.74842C3.57115 2.74842 3.54602 2.77355 3.54602 2.82382V6.40337ZM20.7089 8.60048L20.7178 11.834C20.7178 11.9149 20.735 11.9188 20.7695 11.8459L22.1357 8.92132L22.4551 8.2338C22.4817 8.17564 22.4659 8.13326 22.4078 8.10665L20.7858 7.35407C20.7316 7.32943 20.7045 7.34668 20.7045 7.40582L20.7089 8.60048ZM16.7183 19.8699C16.6868 19.8551 16.6562 19.8512 16.6267 19.8581C16.5665 19.8729 16.5582 19.9029 16.6015 19.9483C16.6893 20.038 16.7908 20.0813 16.9061 20.0784C16.9296 20.0794 16.9526 20.071 16.9699 20.055C16.9873 20.0391 16.9975 20.0169 16.9985 19.9934C16.9995 19.9698 16.9911 19.9469 16.9751 19.9296C16.9592 19.9122 16.937 19.9019 16.9135 19.901L16.7863 19.8877C16.7627 19.8857 16.74 19.8798 16.7183 19.8699Z" fill="#F0F6FC" fill-opacity="0.6"/>
</svg>
