

<svg xmlns="http://www.w3.org/2000/svg" xmlns:xlink="http://www.w3.org/1999/xlink" class="ldi-vnv1es" width="50px" height="50px" viewBox="0 0 100 100" preserveAspectRatio="xMidYMid" style="background: none;"><!--?xml version="1.0" encoding="utf-8"?--><!--Generator: Adobe Illustrator 21.0.0, SVG Export Plug-In . SVG Version: 6.00 Build 0)--><svg xmlns="http://www.w3.org/2000/svg" xmlns:xlink="http://www.w3.org/1999/xlink" version="1.1" id="Layer_1" x="0px" y="0px" viewBox="0 0 100 100" style="transform-origin: 50px 50px 0px;" xml:space="preserve"><g style="transform-origin: 50px 50px 0px;"><g style="transform-origin: 50px 50px 0px; transform: scale(1);"><g style="transform-origin: 50px 50px 0px; animation-duration: 2s; animation-delay: 0.400047s; animation-direction: normal;" class=""><g><style type="text/css" class="ld ld-spin" style="transform-origin: 50px 50px 0px; animation-duration: 2s; animation-delay: 0.400047s; animation-direction: normal;">.st0{fill:#F4E6C8;} .st1{opacity:0.8;fill:#849B87;} .st2{fill:#D65A62;} .st3{fill:#E15C64;} .st4{fill:#F47E5F;} .st5{fill:#F7B26A;} .st6{fill:#FEE8A2;} .st7{fill:#ACBD81;} .st8{fill:#F5E169;} .st9{fill:#F0AF6B;} .st10{fill:#EA7C60;} .st11{fill:#A8B980;} .st12{fill:#829985;} .st13{fill:#798AAE;} .st14{fill:#8672A7;} .st15{fill:#CC5960;} .st16{fill:#E17A5F;} .st17{fill:#849B87;} .st18{opacity:0.8;fill:#E15C64;} .st19{opacity:0.8;fill:#F7B26A;} .st20{fill:#79A5B5;} .st21{opacity:0.8;fill:#79A5B4;} .st22{fill:#666766;}</style><g style="transform-origin: 50px 50px 0px;"><g><g style="transform-origin: 50px 50px 0px;"><g><g class="ld ld-spin" style="transform-origin: 50px 50px 0px; animation-duration: 2s; animation-delay: 0.684643s; animation-direction: normal;"><path class="st5" d="M50,92.5c-9,0-17.7-2.8-25-8.1l8.8-12.1c4.7,3.4,10.3,5.3,16.2,5.3s11.5-1.8,16.2-5.3L75,84.4 C67.7,89.7,59,92.5,50,92.5z" fill="#bd4030" style="fill: rgb(189, 64, 48);"/></g></g></g><g style="transform-origin: 50px 50px 0px;"><g><g class="ld ld-spin" style="transform-origin: 50px 50px 0px; animation-duration: 2s; animation-delay: 0.0271945s; animation-direction: normal;"><path class="st7" d="M75,84.4l-8.8-12.1c7.1-5.2,11.4-13.5,11.4-22.3c0-2.9-0.5-5.8-1.3-8.5l14.2-4.6c1.4,4.2,2.1,8.7,2.1,13.1 C92.5,63.5,86,76.4,75,84.4z" fill="#e0b83e" style="fill: rgb(224, 184, 62);"/></g></g></g><g style="transform-origin: 50px 50px 0px;"><g><g class="ld ld-spin" style="transform-origin: 50px 50px 0px; animation-duration: 2s; animation-delay: 0.106269s; animation-direction: normal;"><path class="st3" d="M23.8,41.5L9.6,36.9C15.3,19.3,31.5,7.5,50,7.5v14.9C38,22.4,27.5,30.1,23.8,41.5z" fill="#7f9626" style="fill: rgb(127, 150, 38);"/></g></g></g><g style="transform-origin: 50px 50px 0px;"><g><g class="ld ld-spin" style="transform-origin: 50px 50px 0px; animation-duration: 2s; animation-delay: 0.867304s; animation-direction: normal;"><path class="st4" d="M25,84.4C14,76.4,7.5,63.5,7.5,50c0-4.5,0.7-8.9,2.1-13.1l14.2,4.6c-0.9,2.8-1.3,5.6-1.3,8.5 c0,8.8,4.2,17.1,11.4,22.3L25,84.4z" fill="#76be9f" style="fill: rgb(118, 190, 159);"/></g></g></g><g style="transform-origin: 50px 50px 0px;"><g><g class="ld ld-spin" style="transform-origin: 50px 50px 0px; animation-duration: 2s; animation-delay: 0.909713s; animation-direction: normal;"><path class="st17" d="M76.2,41.5c-3.7-11.4-14.2-19-26.2-19V7.5c18.5,0,34.7,11.8,40.4,29.4L76.2,41.5z" fill="#9bcfde" style="fill: rgb(155, 207, 222);"/></g></g></g></g></g><g style="transform-origin: 50px 50px 0px;"><g><g style="transform-origin: 50px 50px 0px;"><g><g class="ld ld-spin" style="transform-origin: 50px 50px 0px; animation-duration: 2s; animation-delay: 0.269602s; animation-direction: normal;"><path class="st5" d="M69.1,76.3c-5.6,4.1-12.2,6.2-19.1,6.2l0-11.4c4.5,0,8.8-1.4,12.4-4s6.3-6.3,7.6-10.5L80.9,60 C78.8,66.6,74.7,72.2,69.1,76.3z" fill="#bd4030" style="fill: rgb(189, 64, 48);"/></g></g></g><g style="transform-origin: 50px 50px 0px;"><g><g class="ld ld-spin" style="transform-origin: 50px 50px 0px; animation-duration: 2s; animation-delay: 0.955596s; animation-direction: normal;"><path class="st7" d="M80.9,60L70,56.5c2.1-6.4,1-13.5-3-18.9c-1.3-1.8-2.9-3.4-4.7-4.7l6.7-9.2c2.8,2,5.2,4.4,7.2,7.2 C82.4,39.3,84.1,50.2,80.9,60z" fill="#e0b83e" style="fill: rgb(224, 184, 62);"/></g></g></g><g style="transform-origin: 50px 50px 0px;"><g><g class="ld ld-spin" style="transform-origin: 50px 50px 0px; animation-duration: 2s; animation-delay: 0.780783s; animation-direction: normal;"><path class="st3" d="M30,56.5L19.1,60c-4.4-13.4,0.4-28,11.8-36.3l6.7,9.2C30.2,38.3,27.1,47.8,30,56.5z" fill="#7f9626" style="fill: rgb(127, 150, 38);"/></g></g></g><g style="transform-origin: 50px 50px 0px;"><g><g class="ld ld-spin" style="transform-origin: 50px 50px 0px; animation-duration: 2s; animation-delay: 0.377089s; animation-direction: normal;"><path class="st4" d="M50,82.5c-10.4,0-20.2-5-26.3-13.4c-2-2.8-3.6-5.8-4.6-9.1L30,56.5c0.7,2.1,1.7,4.1,3,5.9 c3.9,5.4,10.3,8.7,17.1,8.7L50,82.5z" fill="#76be9f" style="fill: rgb(118, 190, 159);"/></g></g></g><g style="transform-origin: 50px 50px 0px;"><g><g class="ld ld-spin" style="transform-origin: 50px 50px 0px; animation-duration: 2s; animation-delay: 0.568121s; animation-direction: normal;"><path class="st17" d="M62.4,33C55,27.6,45,27.6,37.6,33l-6.7-9.2c11.4-8.3,26.8-8.3,38.2,0L62.4,33z" fill="#9bcfde" style="fill: rgb(155, 207, 222);"/></g></g></g></g></g><g style="transform-origin: 50px 50px 0px;"><g><g style="transform-origin: 50px 50px 0px;"><g><g class="ld ld-spin" style="transform-origin: 50px 50px 0px; animation-duration: 2s; animation-delay: 0.923101s; animation-direction: normal;"><path class="st5" d="M71.4,56.9c-1.5,4.6-4.3,8.4-8.2,11.2l-4.6-6.4c2.5-1.8,4.3-4.3,5.3-7.3s1-6.1,0-9l7.5-2.5 C72.9,47.6,72.9,52.4,71.4,56.9z" fill="#bd4030" style="fill: rgb(189, 64, 48);"/></g></g></g><g style="transform-origin: 50px 50px 0px;"><g><g class="ld ld-spin" style="transform-origin: 50px 50px 0px; animation-duration: 2s; animation-delay: 0.88741s; animation-direction: normal;"><path class="st7" d="M71.4,43l-7.5,2.5c-1.4-4.4-4.9-7.9-9.4-9.4c-1.5-0.5-3-0.7-4.5-0.7l0-7.9c2.4,0,4.7,0.4,7,1.1 C63.8,30.8,69.2,36.2,71.4,43z" fill="#e0b83e" style="fill: rgb(224, 184, 62);"/></g></g></g><g style="transform-origin: 50px 50px 0px;"><g><g class="ld ld-spin" style="transform-origin: 50px 50px 0px; animation-duration: 2s; animation-delay: 0.553331s; animation-direction: normal;"><path class="st3" d="M41.4,61.8l-4.6,6.4c-7.9-5.7-11.2-15.9-8.2-25.2l7.5,2.4C34.2,51.5,36.3,58.1,41.4,61.8z" fill="#7f9626" style="fill: rgb(127, 150, 38);"/></g></g></g><g style="transform-origin: 50px 50px 0px;"><g><g class="ld ld-spin" style="transform-origin: 50px 50px 0px; animation-duration: 2s; animation-delay: 0.740701s; animation-direction: normal;"><path class="st4" d="M63.2,68.2c-5.8,4.2-13.4,5.4-20.2,3.2c-2.2-0.7-4.4-1.8-6.3-3.2l4.6-6.4c1.2,0.9,2.6,1.6,4.1,2.1 c4.4,1.4,9.3,0.7,13.1-2.1L63.2,68.2z" fill="#76be9f" style="fill: rgb(118, 190, 159);"/></g></g></g><g style="transform-origin: 50px 50px 0px;"><g><g class="ld ld-spin" style="transform-origin: 50px 50px 0px; animation-duration: 2s; animation-delay: 0.584355s; animation-direction: normal;"><path class="st17" d="M50,35.4c-6.3,0-11.9,4-13.9,10.1L28.6,43c3-9.3,11.6-15.5,21.4-15.5L50,35.4z" fill="#9bcfde" style="fill: rgb(155, 207, 222);"/></g></g></g></g></g><g style="transform-origin: 50px 50px 0px;"><g><g style="transform-origin: 50px 50px 0px;"><g><g class="ld ld-spin" style="transform-origin: 50px 50px 0px; animation-duration: 2s; animation-delay: 1.07738s; animation-direction: normal;"><path class="st5" d="M64.3,45.4c1,3,1,6.2,0,9.3l-5-1.6c0.6-2,0.6-4,0-6c-0.6-2-1.9-3.6-3.5-4.9l3.1-4.3 C61.4,39.7,63.3,42.3,64.3,45.4z" fill="#bd4030" style="fill: rgb(189, 64, 48);"/></g></g></g><g style="transform-origin: 50px 50px 0px;"><g><g class="ld ld-spin" style="transform-origin: 50px 50px 0px; animation-duration: 2s; animation-delay: 1.05327s; animation-direction: normal;"><path class="st7" d="M58.8,37.9l-3.1,4.3c-2.5-1.8-5.8-2.3-8.7-1.4c-1,0.3-1.9,0.8-2.7,1.4l-3.1-4.3c1.3-0.9,2.7-1.6,4.2-2.1 C49.9,34.2,54.9,35,58.8,37.9z" fill="#e0b83e" style="fill: rgb(224, 184, 62);"/></g></g></g><g style="transform-origin: 50px 50px 0px;"><g><g class="ld ld-spin" style="transform-origin: 50px 50px 0px; animation-duration: 2s; animation-delay: 0.558983s; animation-direction: normal;"><path class="st3" d="M50,59.7l0,5.3c-6.5,0-12.2-4.2-14.3-10.4l5-1.6C42.1,57,45.8,59.7,50,59.7z" fill="#7f9626" style="fill: rgb(127, 150, 38);"/></g></g></g><g style="transform-origin: 50px 50px 0px;"><g><g class="ld ld-spin" style="transform-origin: 50px 50px 0px; animation-duration: 2s; animation-delay: 1.16293s; animation-direction: normal;"><path class="st4" d="M64.3,54.6c-1.5,4.6-5.1,8.1-9.6,9.6C53.1,64.7,51.6,65,50,65l0-5.3c1,0,2-0.2,3-0.5c2.9-1,5.3-3.3,6.2-6.2 L64.3,54.6z" fill="#76be9f" style="fill: rgb(118, 190, 159);"/></g></g></g><g style="transform-origin: 50px 50px 0px;"><g><g class="ld ld-spin" style="transform-origin: 50px 50px 0px; animation-duration: 2s; animation-delay: 0.0469986s; animation-direction: normal;"><path class="st17" d="M44.3,42.1c-3.4,2.5-4.8,6.9-3.5,10.9l-5,1.6c-2-6.2,0.2-12.9,5.4-16.8L44.3,42.1z" fill="#9bcfde" style="fill: rgb(155, 207, 222);"/></g></g></g></g></g><g style="transform-origin: 50px 50px 0px;"><g><g style="transform-origin: 50px 50px 0px;"><g><g class="ld ld-spin" style="transform-origin: 50px 50px 0px; animation-duration: 2s; animation-delay: 0.751914s; animation-direction: normal;"><path class="st5" d="M55.9,41.9c1.7,1.3,3,3,3.6,5L56.2,48c-0.4-1.3-1.2-2.4-2.4-3.2c-1.1-0.8-2.4-1.2-3.8-1.2l0-3.5 C52.1,40,54.2,40.7,55.9,41.9z" fill="#bd4030" style="fill: rgb(189, 64, 48);"/></g></g></g><g style="transform-origin: 50px 50px 0px;"><g><g class="ld ld-spin" style="transform-origin: 50px 50px 0px; animation-duration: 2s; animation-delay: 0.86674s; animation-direction: normal;"><path class="st7" d="M50,40l0,3.5c-2.1,0-4,1-5.2,2.7c-0.4,0.6-0.7,1.2-0.9,1.8l-3.3-1.1c0.3-1,0.8-1.9,1.4-2.8 C43.8,41.5,46.8,40,50,40z" fill="#e0b83e" style="fill: rgb(224, 184, 62);"/></g></g></g><g style="transform-origin: 50px 50px 0px;"><g><g class="ld ld-spin" style="transform-origin: 50px 50px 0px; animation-duration: 2s; animation-delay: 0.647164s; animation-direction: normal;"><path class="st3" d="M53.8,55.2l2.1,2.8c-3.5,2.6-8.2,2.6-11.8,0l2.1-2.8C48.5,56.9,51.5,56.9,53.8,55.2z" fill="#7f9626" style="fill: rgb(127, 150, 38);"/></g></g></g><g style="transform-origin: 50px 50px 0px;"><g><g class="ld ld-spin" style="transform-origin: 50px 50px 0px; animation-duration: 2s; animation-delay: 0.687676s; animation-direction: normal;"><path class="st4" d="M59.5,46.9c1,3,0.5,6.4-1.4,9c-0.6,0.9-1.4,1.6-2.2,2.2l-2.1-2.8c0.6-0.4,1-0.9,1.4-1.4 c1.2-1.7,1.6-3.8,0.9-5.8L59.5,46.9z" fill="#76be9f" style="fill: rgb(118, 190, 159);"/></g></g></g><g style="transform-origin: 50px 50px 0px;"><g><g class="ld ld-spin" style="transform-origin: 50px 50px 0px; animation-duration: 2s; animation-delay: 0.65416s; animation-direction: normal;"><path class="st17" d="M43.8,48c-0.9,2.7,0.1,5.6,2.4,7.2l-2.1,2.8c-3.5-2.6-5-7-3.6-11.2L43.8,48z" fill="#9bcfde" style="fill: rgb(155, 207, 222);"/></g></g></g></g></g><metadata xmlns:d="https://loading.io/stock/" class="ld ld-spin" style="transform-origin: 50px 50px 0px; animation-duration: 2s; animation-delay: 0.63887s; animation-direction: normal;">
<d:name class="ld ld-spin" style="transform-origin: 50px 50px 0px; animation-duration: 2s; animation-delay: 1.09031s; animation-direction: normal;">maze</d:name>
<d:tags class="ld ld-spin" style="transform-origin: 50px 50px 0px; animation-duration: 2s; animation-delay: 0.330602s; animation-direction: normal;">ring,pie,coxcomb,nightingale,sunburst,circle,round,colosseum,arena,maze,spinner</d:tags>
<d:license class="ld ld-spin" style="transform-origin: 50px 50px 0px; animation-duration: 2s; animation-delay: 0.199031s; animation-direction: normal;">rf</d:license>
<d:slug class="ld ld-spin" style="transform-origin: 50px 50px 0px; animation-duration: 2s; animation-delay: 0.577369s; animation-direction: normal;">vnv1es</d:slug>
</metadata></g></g></g></g><style type="text/css" class="ld ld-spin" style="transform-origin: 50px 50px 0px; animation-duration: 2s; animation-delay: 0.617632s; animation-direction: normal;">path,ellipse,circle,rect,polygon,polyline,line { stroke-width: 0; }@keyframes ld-spin {
  0% {
    -webkit-transform: rotate(0);
    transform: rotate(0);
    animation-timing-function: cubic-bezier(0.55, 0.055, 0.675, 0.19);
  }
  50% {
    -webkit-transform: rotate(180deg);
    transform: rotate(180deg);
    animation-timing-function: cubic-bezier(0.215, 0.61, 0.355, 1);
  }
  100% {
    -webkit-transform: rotate(360deg);
    transform: rotate(360deg);
  }
}
@-webkit-keyframes ld-spin {
  0% {
    -webkit-transform: rotate(0);
    transform: rotate(0);
    animation-timing-function: cubic-bezier(0.55, 0.055, 0.675, 0.19);
  }
  50% {
    -webkit-transform: rotate(180deg);
    transform: rotate(180deg);
    animation-timing-function: cubic-bezier(0.215, 0.61, 0.355, 1);
  }
  100% {
    -webkit-transform: rotate(360deg);
    transform: rotate(360deg);
  }
}
.ld.ld-spin {
  -webkit-animation: ld-spin 1s infinite;
  animation: ld-spin 1s infinite;
}
</style></svg></svg>