<svg xmlns="http://www.w3.org/2000/svg" xmlns:xlink="http://www.w3.org/1999/xlink" class="ldi-dw13zh" width="50px" height="50px" viewBox="0 0 100 100" preserveAspectRatio="xMidYMid" style="background: none;"><!--?xml version="1.0" encoding="utf-8"?--><!--Generator: Adobe Illustrator 21.0.0, SVG Export Plug-In . SVG Version: 6.00 Build 0)--><svg xmlns="http://www.w3.org/2000/svg" xmlns:xlink="http://www.w3.org/1999/xlink" version="1.1" id="Layer_1" x="0px" y="0px" viewBox="0 0 100 100" style="transform-origin: 50px 50px 0px;" xml:space="preserve"><g style="transform-origin: 50px 50px 0px;"><g style="transform-origin: 50px 50px 0px; transform: scale(1);"><g style="transform-origin: 50px 50px 0px; animation-duration: 2s; animation-delay: 0.400047s; animation-direction: normal;" class="ld ld-cycle"><g><style type="text/css" class="" style="transform-origin: 50px 50px 0px; animation-duration: 2s; animation-delay: 0.400047s; animation-direction: normal;">.st0{fill:#F4E6C8;} .st1{opacity:0.8;fill:#849B87;} .st2{fill:#D65A62;} .st3{fill:#E15C64;} .st4{fill:#F47E5F;} .st5{fill:#F7B26A;} .st6{fill:#FEE8A2;} .st7{fill:#ACBD81;} .st8{fill:#F5E169;} .st9{fill:#F0AF6B;} .st10{fill:#EA7C60;} .st11{fill:#A8B980;} .st12{fill:#829985;} .st13{fill:#798AAE;} .st14{fill:#8672A7;} .st15{fill:#CC5960;} .st16{fill:#E17A5F;} .st17{fill:#849B87;} .st18{opacity:0.8;fill:#E15C64;} .st19{opacity:0.8;fill:#F7B26A;} .st20{fill:#79A5B5;} .st21{opacity:0.8;fill:#79A5B4;} .st22{fill:#666766;}</style><g class="" style="transform-origin: 50px 50px 0px; animation-duration: 2s; animation-delay: 0.684643s; animation-direction: normal;"><path class="st3" d="M57.9,25.1c0,0.2,0,0.3,0,0.5c-2.3-6.1-7.8-10.6-14.5-11.4c-0.6-0.1-1.1-0.1-1.7-0.1c-0.1,0-0.2,0-0.4,0 c-3.2,0-6.2,0.9-8.8,2.3c-1.8-0.3-3.6-0.2-5.4,0.1c2.9-4.8,8.2-7.9,14.2-7.9c2,0,3.9,0.4,5.7,1c1.7,0.6,3.3,1.5,4.7,2.6 C55.5,15.2,57.9,19.9,57.9,25.1z" fill="#f05125" stroke="#fdb813" style="fill: rgb(240, 81, 37); stroke: rgb(253, 184, 19);"/></g><g class="" style="transform-origin: 50px 50px 0px; animation-duration: 2s; animation-delay: 0.0271945s; animation-direction: normal;"><path class="st5" d="M44.4,24.5c-2.6-4.5-7.1-7.4-11.9-8.1c-1.8-0.3-3.6-0.2-5.4,0.1c-1.9,0.3-3.7,1-5.4,2c-5.2,3-8.1,8.4-8.3,14 c1.4-1.2,3-2.1,4.6-2.8c1.5-2.6,3.7-4.8,6.4-6.4c0.1-0.1,0.2-0.1,0.3-0.2c0.5-0.3,1-0.5,1.5-0.7c6.2-2.7,13.3-1.5,18.3,2.6 C44.6,24.8,44.5,24.6,44.4,24.5z" fill="#7fbb42" style="fill: rgb(127, 187, 66);"/></g><g class="" style="transform-origin: 50px 50px 0px; animation-duration: 2s; animation-delay: 0.106269s; animation-direction: normal;"><path class="st4" d="M32.4,30.7c-4.5-2.6-9.8-2.8-14.4-1.1c-1.7,0.7-3.2,1.6-4.6,2.8c-1.4,1.2-2.7,2.7-3.7,4.4 C6.7,42,6.9,48.1,9.5,53c0.6-1.7,1.5-3.3,2.6-4.7c0-3,0.8-6,2.4-8.8c0.1-0.1,0.1-0.2,0.2-0.3c0.3-0.5,0.6-1,1-1.4 c4-5.4,10.7-8,17.1-6.9C32.7,30.9,32.6,30.8,32.4,30.7z" fill="#32a0da" style="fill: rgb(50, 160, 218);"/></g><g class="" style="transform-origin: 50px 50px 0px; animation-duration: 2s; animation-delay: 0.867304s; animation-direction: normal;"><path class="st3" d="M14.2,56.6c0.8-6.7,5.3-12.2,11.4-14.5c-0.2,0-0.3,0-0.5,0c-5.3,0-9.9,2.4-13,6.2c-1.1,1.4-2,3-2.6,4.7 c-0.6,1.8-1,3.7-1,5.7c0,6,3.2,11.2,7.9,14.2c-0.3-1.8-0.3-3.6-0.1-5.4c-1.5-2.6-2.3-5.6-2.3-8.8c0-0.1,0-0.3,0-0.4 C14.1,57.7,14.1,57.2,14.2,56.6z" fill="#f05125" stroke="#fdb813" style="fill: rgb(240, 81, 37); stroke: rgb(253, 184, 19);"/></g><g class="" style="transform-origin: 50px 50px 0px; animation-duration: 2s; animation-delay: 0.909713s; animation-direction: normal;"><path class="st5" d="M29.6,81.9c-2.6-1.5-4.8-3.7-6.4-6.4c-0.1-0.1-0.1-0.2-0.2-0.3c-0.3-0.5-0.5-1-0.7-1.5 c-2.7-6.2-1.5-13.3,2.6-18.3c-0.1,0.1-0.3,0.1-0.4,0.2c-4.5,2.6-7.4,7.1-8.1,11.9c-0.3,1.8-0.2,3.6,0.1,5.4c0.3,1.9,1,3.7,2,5.4 c3,5.2,8.4,8.1,14,8.3C31.2,85.2,30.3,83.6,29.6,81.9z" fill="#7fbb42" style="fill: rgb(127, 187, 66);"/></g><g class="" style="transform-origin: 50px 50px 0px; animation-duration: 2s; animation-delay: 0.269602s; animation-direction: normal;"><path class="st4" d="M48.3,87.8c-3,0-6-0.8-8.8-2.4c-0.1-0.1-0.2-0.1-0.3-0.2c-0.5-0.3-1-0.6-1.4-1c-5.4-4-8-10.7-6.9-17.1 c-0.1,0.1-0.2,0.3-0.3,0.4c-2.6,4.5-2.8,9.8-1.1,14.4c0.7,1.7,1.6,3.2,2.8,4.6c1.2,1.4,2.7,2.7,4.4,3.7c5.2,3,11.3,2.9,16.2,0.2 C51.3,89.9,49.7,89,48.3,87.8z" fill="#32a0da" style="fill: rgb(50, 160, 218);"/></g><g class="" style="transform-origin: 50px 50px 0px; animation-duration: 2s; animation-delay: 0.955596s; animation-direction: normal;"><path class="st3" d="M67.5,83.6c-2.6,1.5-5.6,2.3-8.8,2.3c-0.1,0-0.3,0-0.4,0c-0.6,0-1.1-0.1-1.7-0.1c-6.7-0.8-12.2-5.3-14.5-11.4 c0,0.2,0,0.3,0,0.5c0,5.3,2.4,9.9,6.2,13c1.4,1.1,3,2,4.7,2.6c1.8,0.6,3.7,1,5.7,1c6,0,11.2-3.2,14.2-7.9 C71,83.9,69.2,83.9,67.5,83.6z" fill="#f05125" stroke="#fdb813" style="fill: rgb(240, 81, 37); stroke: rgb(253, 184, 19);"/></g><g class="" style="transform-origin: 50px 50px 0px; animation-duration: 2s; animation-delay: 0.780783s; animation-direction: normal;"><path class="st5" d="M81.9,70.4c-1.5,2.6-3.7,4.8-6.4,6.4c-0.1,0.1-0.2,0.1-0.3,0.2c-0.5,0.3-1,0.5-1.5,0.7 c-6.2,2.7-13.3,1.5-18.3-2.6c0.1,0.1,0.1,0.3,0.2,0.4c2.6,4.5,7.1,7.4,11.9,8.1c1.8,0.3,3.6,0.2,5.4-0.1c1.9-0.3,3.7-1,5.4-2 c5.2-3,8.1-8.4,8.3-14C85.2,68.8,83.6,69.7,81.9,70.4z" fill="#7fbb42" style="fill: rgb(127, 187, 66);"/></g><g class="" style="transform-origin: 50px 50px 0px; animation-duration: 2s; animation-delay: 0.377089s; animation-direction: normal;"><path class="st4" d="M90.5,47c-0.6,1.7-1.5,3.3-2.6,4.7c0,3-0.8,6-2.4,8.8c-0.1,0.1-0.1,0.2-0.2,0.3c-0.3,0.5-0.6,1-1,1.4 c-4,5.4-10.7,8-17.1,6.9c0.1,0.1,0.3,0.2,0.4,0.3c4.5,2.6,9.8,2.8,14.4,1.1c1.7-0.7,3.2-1.6,4.6-2.8c1.4-1.2,2.7-2.7,3.7-4.4 C93.3,58,93.1,51.9,90.5,47z" fill="#32a0da" style="fill: rgb(50, 160, 218);"/></g><g class="" style="transform-origin: 50px 50px 0px; animation-duration: 2s; animation-delay: 0.568121s; animation-direction: normal;"><path class="st3" d="M83.5,27.2c0.3,1.8,0.3,3.6,0.1,5.4c1.5,2.6,2.3,5.6,2.3,8.8c0,0.1,0,0.3,0,0.4c0,0.6-0.1,1.1-0.1,1.7 c-0.8,6.7-5.3,12.2-11.4,14.5c0.2,0,0.3,0,0.5,0c5.3,0,9.9-2.4,13-6.2c1.1-1.4,2-3,2.6-4.7c0.6-1.8,1-3.7,1-5.7 C91.5,35.3,88.3,30.1,83.5,27.2z" fill="#f05125" stroke="#fdb813" style="fill: rgb(240, 81, 37); stroke: rgb(253, 184, 19);"/></g><g class="" style="transform-origin: 50px 50px 0px; animation-duration: 2s; animation-delay: 0.923101s; animation-direction: normal;"><path class="st4" d="M70.4,18.1c-0.7-1.7-1.6-3.2-2.8-4.6c-1.2-1.4-2.7-2.7-4.4-3.7C58,6.7,51.9,6.9,47,9.5c1.7,0.6,3.3,1.5,4.7,2.6 c3,0,6,0.8,8.8,2.4c0.1,0.1,0.2,0.1,0.3,0.2c0.5,0.3,1,0.6,1.4,1c5.4,4,8,10.7,6.9,17.1c0.1-0.1,0.2-0.3,0.3-0.4 C71.9,27.9,72.2,22.6,70.4,18.1z" fill="#32a0da" style="fill: rgb(50, 160, 218);"/></g><g class="" style="transform-origin: 50px 50px 0px; animation-duration: 2s; animation-delay: 0.88741s; animation-direction: normal;"><path class="st5" d="M83.5,27.2c-0.3-1.9-1-3.7-2-5.4c-3-5.2-8.4-8.1-14-8.3c1.2,1.4,2.1,3,2.8,4.6c2.6,1.5,4.8,3.7,6.4,6.4 c0.1,0.1,0.1,0.2,0.2,0.3c0.3,0.5,0.5,1,0.7,1.5c2.7,6.2,1.5,13.3-2.6,18.3c0.1-0.1,0.3-0.1,0.4-0.2c4.5-2.6,7.4-7.1,8.1-11.9 C83.9,30.8,83.9,29,83.5,27.2z" fill="#7fbb42" style="fill: rgb(127, 187, 66);"/></g><metadata xmlns:d="https://loading.io/stock/" class="" style="transform-origin: 50px 50px 0px; animation-duration: 2s; animation-delay: 0.553331s; animation-direction: normal;">
<d:name class="" style="transform-origin: 50px 50px 0px; animation-duration: 2s; animation-delay: 0.740701s; animation-direction: normal;">spiral</d:name>
<d:tags class="" style="transform-origin: 50px 50px 0px; animation-duration: 2s; animation-delay: 0.584355s; animation-direction: normal;">curve,air,smoke,explosion,vortex,spiral,spinner</d:tags>
<d:license class="" style="transform-origin: 50px 50px 0px; animation-duration: 2s; animation-delay: 1.07738s; animation-direction: normal;">rf</d:license>
<d:slug class="" style="transform-origin: 50px 50px 0px; animation-duration: 2s; animation-delay: 1.05327s; animation-direction: normal;">dw13zh</d:slug>
</metadata></g></g></g></g><style type="text/css" class="" style="transform-origin: 50px 50px 0px; animation-duration: 2s; animation-delay: 0.558983s; animation-direction: normal;">path,ellipse,circle,rect,polygon,polyline,line { stroke-width: 0; }@keyframes ld-cycle {
  0%, 50%, 100% {
    animation-timing-function: cubic-bezier(0.5, 0.5, 0.5, 0.5);
  }
  0% {
    -webkit-transform: rotate(0);
    transform: rotate(0);
  }
  50% {
    -webkit-transform: rotate(180deg);
    transform: rotate(180deg);
  }
  100% {
    -webkit-transform: rotate(360deg);
    transform: rotate(360deg);
  }
}
@-webkit-keyframes ld-cycle {
  0%, 50%, 100% {
    animation-timing-function: cubic-bezier(0.5, 0.5, 0.5, 0.5);
  }
  0% {
    -webkit-transform: rotate(0);
    transform: rotate(0);
  }
  50% {
    -webkit-transform: rotate(180deg);
    transform: rotate(180deg);
  }
  100% {
    -webkit-transform: rotate(360deg);
    transform: rotate(360deg);
  }
}
.ld.ld-cycle {
  -webkit-animation: ld-cycle 1s infinite linear;
  animation: ld-cycle 1s infinite linear;
}
</style></svg></svg>