<svg xmlns="http://www.w3.org/2000/svg" xmlns:xlink="http://www.w3.org/1999/xlink" class="ldi-qd7n3u" width="50px" height="50px" viewBox="0 0 100 100" preserveAspectRatio="xMidYMid" style="background: none;"><!--?xml version="1.0" encoding="utf-8"?--><!--Generator: Adobe Illustrator 21.0.0, SVG Export Plug-In . SVG Version: 6.00 Build 0)--><svg xmlns="http://www.w3.org/2000/svg" xmlns:xlink="http://www.w3.org/1999/xlink" version="1.1" id="Layer_1" x="0px" y="0px" viewBox="0 0 100 100" style="transform-origin: 50px 50px 0px;" xml:space="preserve"><g style="transform-origin: 50px 50px 0px;"><g style="transform-origin: 50px 50px 0px; transform: scale(1);"><g style="transform-origin: 50px 50px 0px; animation-duration: 2s; animation-delay: -2s; animation-direction: normal;" class=""><g><style type="text/css" class="ld ld-blink" style="transform-origin: 50px 50px 0px; animation-duration: 2s; animation-delay: -2s; animation-direction: normal;">.st0{fill:#F4E6C8;} .st1{opacity:0.8;fill:#849B87;} .st2{fill:#D65A62;} .st3{fill:#E15C64;} .st4{fill:#F47E5F;} .st5{fill:#F7B26A;} .st6{fill:#FEE8A2;} .st7{fill:#ACBD81;} .st8{fill:#F5E169;} .st9{fill:#F0AF6B;} .st10{fill:#EA7C60;} .st11{fill:#A8B980;} .st12{fill:#829985;} .st13{fill:#798AAE;} .st14{fill:#8672A7;} .st15{fill:#CC5960;} .st16{fill:#E17A5F;} .st17{fill:#849B87;} .st18{opacity:0.8;fill:#E15C64;} .st19{opacity:0.8;fill:#F7B26A;} .st20{fill:#79A5B5;} .st21{opacity:0.8;fill:#79A5B4;} .st22{fill:#666766;}</style><g class="ld ld-blink" style="transform-origin: 50px 50px 0px; animation-duration: 2s; animation-delay: -1.91667s; animation-direction: normal;"><path class="st9" d="M34.3,41L27.6,37c0.5-6.5,2.3-12.5,5-17.3l-3.8-6.5c-6.1,3.5-9.2,10.8-9,19.3c0.1,5.5,1.5,11.6,4.3,17.5h7.8 h2.3c0-0.5,0-0.9,0.1-1.3c0.2-2.4,0.9-4.6,2.1-6.6L34.3,41z" fill="#facd9e" stroke="#389798" style="fill: rgb(250, 205, 158); stroke: rgb(56, 151, 152);"/></g><g class="ld ld-blink" style="transform-origin: 50px 50px 0px; animation-duration: 2s; animation-delay: -1.83333s; animation-direction: normal;"><path class="st2" d="M35.7,56.7c-1-2-1.5-4.3-1.5-6.7h-2.3h-7.8c-2.8-5.9-4.3-12-4.3-17.5l-6.5-3.8c-3.5,6.1-2.5,13.9,1.9,21.2 c2.8,4.7,7.1,9.3,12.5,13l6.8-3.9l2-1.1C36.1,57.5,35.9,57.1,35.7,56.7z" fill="#459448" style="fill: rgb(69, 148, 72);"/></g><g class="ld ld-blink" style="transform-origin: 50px 50px 0px; animation-duration: 2s; animation-delay: -1.75s; animation-direction: normal;"><path class="st10" d="M41,63c-1.9-1.3-3.5-3.1-4.7-5.1l-2,1.1L27.6,63c-5.4-3.7-9.7-8.2-12.5-13H7.5c0,7,4.8,13.3,12.2,17.5 c4.8,2.7,10.8,4.5,17.3,5l3.9-6.8l1.1-2C41.7,63.5,41.3,63.2,41,63z" stroke="#389798" fill="#f19d3b" style="stroke: rgb(56, 151, 152); fill: rgb(241, 157, 59);"/></g><g class="ld ld-blink" style="transform-origin: 50px 50px 0px; animation-duration: 2s; animation-delay: -1.66667s; animation-direction: normal;"><path class="st9" d="M48.7,65.8c-2.4-0.2-4.6-0.9-6.6-2.1l-1.1,2L37,72.4c-6.5-0.5-12.5-2.3-17.3-5l-6.5,3.8 c3.5,6.1,10.8,9.2,19.3,9c5.5-0.1,11.6-1.5,17.5-4.3v-7.8v-2.3C49.5,65.8,49.1,65.8,48.7,65.8z" fill="#facd9e" stroke="#389798" style="fill: rgb(250, 205, 158); stroke: rgb(56, 151, 152);"/></g><g class="ld ld-blink" style="transform-origin: 50px 50px 0px; animation-duration: 2s; animation-delay: -1.58333s; animation-direction: normal;"><path class="st2" d="M59,65.7l-1.1-2c-0.4,0.2-0.8,0.4-1.2,0.6L59,65.7z" fill="#459448" style="fill: rgb(69, 148, 72);"/></g><g class="ld ld-blink" style="transform-origin: 50px 50px 0px; animation-duration: 2s; animation-delay: -1.5s; animation-direction: normal;"><path class="st2" d="M59,65.7l-2.3-1.3c-2,1-4.3,1.5-6.7,1.5v2.3v7.8c-5.9,2.8-12,4.3-17.5,4.3l-3.8,6.5c6.1,3.5,13.9,2.5,21.2-1.9 c4.7-2.8,9.3-7.1,13-12.5L59,65.7z" fill="#459448" style="fill: rgb(69, 148, 72);"/></g><g class="ld ld-blink" style="transform-origin: 50px 50px 0px; animation-duration: 2s; animation-delay: -1.41667s; animation-direction: normal;"><path class="st10" d="M65.7,59l-2-1.1c-0.2,0.4-0.5,0.8-0.7,1.1c-1.3,1.9-3.1,3.5-5.1,4.7l1.1,2l3.9,6.8c-3.7,5.4-8.2,9.7-13,12.5 v7.6c7,0,13.3-4.8,17.5-12.2c2.7-4.8,4.5-10.8,5-17.3L65.7,59z" stroke="#389798" fill="#f19d3b" style="stroke: rgb(56, 151, 152); fill: rgb(241, 157, 59);"/></g><g class="ld ld-blink" style="transform-origin: 50px 50px 0px; animation-duration: 2s; animation-delay: -1.33333s; animation-direction: normal;"><path class="st9" d="M75.9,50h-7.8h-2.3c0,0.5,0,0.9-0.1,1.3c-0.2,2.4-0.9,4.6-2.1,6.6l2,1.1l6.8,3.9c-0.5,6.5-2.3,12.5-5,17.3 l3.8,6.5c6.1-3.5,9.2-10.8,9-19.3C80.2,62,78.7,55.9,75.9,50z" fill="#facd9e" stroke="#389798" style="fill: rgb(250, 205, 158); stroke: rgb(56, 151, 152);"/></g><g class="ld ld-blink" style="transform-origin: 50px 50px 0px; animation-duration: 2s; animation-delay: -1.25s; animation-direction: normal;"><path class="st2" d="M84.9,50c-2.8-4.7-7.1-9.3-12.5-13L65.7,41l-2,1.1c0.2,0.4,0.4,0.8,0.6,1.2c1,2,1.5,4.3,1.5,6.7h2.3h7.8 c2.8,5.9,4.3,12,4.3,17.5l6.5,3.8C90.3,65.2,89.3,57.3,84.9,50z" fill="#459448" style="fill: rgb(69, 148, 72);"/></g><g class="ld ld-blink" style="transform-origin: 50px 50px 0px; animation-duration: 2s; animation-delay: -1.16667s; animation-direction: normal;"><path class="st10" d="M80.3,32.5c-4.8-2.7-10.8-4.5-17.3-5L59,34.3l-1.1,2c0.4,0.2,0.8,0.5,1.1,0.7c1.9,1.3,3.5,3.1,4.7,5.1l2-1.1 l6.8-3.9c5.4,3.7,9.7,8.2,12.5,13h7.6C92.5,43,87.7,36.7,80.3,32.5z" stroke="#389798" fill="#f19d3b" style="stroke: rgb(56, 151, 152); fill: rgb(241, 157, 59);"/></g><g class="ld ld-blink" style="transform-origin: 50px 50px 0px; animation-duration: 2s; animation-delay: -1.08333s; animation-direction: normal;"><path class="st10" d="M32.5,19.7c-2.7,4.8-4.5,10.8-5,17.3l6.8,3.9l2,1.1c0.2-0.4,0.5-0.8,0.7-1.1c1.3-1.9,3.1-3.5,5.1-4.7l-1.1-2 L37,27.6c3.7-5.4,8.2-9.7,13-12.5V7.5C43,7.5,36.7,12.3,32.5,19.7z" stroke="#389798" fill="#f19d3b" style="stroke: rgb(56, 151, 152); fill: rgb(241, 157, 59);"/></g><g class="ld ld-blink" style="transform-origin: 50px 50px 0px; animation-duration: 2s; animation-delay: -1s; animation-direction: normal;"><path class="st2" d="M50,15.1c-4.7,2.8-9.3,7.1-13,12.5l3.9,6.8l1.1,2c0.4-0.2,0.8-0.4,1.2-0.6c2-1,4.3-1.5,6.7-1.5v-2.3v-7.8 c5.9-2.8,12-4.3,17.5-4.3l3.8-6.5C65.2,9.7,57.3,10.7,50,15.1z" fill="#459448" style="fill: rgb(69, 148, 72);"/></g><g class="ld ld-blink" style="transform-origin: 50px 50px 0px; animation-duration: 2s; animation-delay: -0.916667s; animation-direction: normal;"><path class="st9" d="M67.5,19.7C62,19.8,55.9,21.3,50,24.1v7.8v2.3c0.5,0,0.9,0,1.3,0.1c2.4,0.2,4.6,0.9,6.6,2.1l1.1-2l3.9-6.8 c6.5,0.5,12.5,2.3,17.3,5l6.5-3.8C83.3,22.7,76,19.6,67.5,19.7z" fill="#facd9e" stroke="#389798" style="fill: rgb(250, 205, 158); stroke: rgb(56, 151, 152);"/></g><g class="ld ld-blink" style="transform-origin: 50px 50px 0px; animation-duration: 2s; animation-delay: -0.833333s; animation-direction: normal;"><circle class="st11" cx="50" cy="50" r="15.8" stroke="#389798" fill="#923f2b" style="stroke: rgb(56, 151, 152); fill: rgb(146, 63, 43);"/></g><metadata xmlns:d="https://loading.io/stock/" class="ld ld-blink" style="transform-origin: 50px 50px 0px; animation-duration: 2s; animation-delay: -0.75s; animation-direction: normal;">
<d:name class="ld ld-blink" style="transform-origin: 50px 50px 0px; animation-duration: 2s; animation-delay: -0.666667s; animation-direction: normal;">fan</d:name>
<d:tags class="ld ld-blink" style="transform-origin: 50px 50px 0px; animation-duration: 2s; animation-delay: -0.583333s; animation-direction: normal;">motor,turbine,flower,blossom,cosmos,fan,spinner</d:tags>
<d:license class="ld ld-blink" style="transform-origin: 50px 50px 0px; animation-duration: 2s; animation-delay: -0.5s; animation-direction: normal;">cc-by</d:license>
<d:slug class="ld ld-blink" style="transform-origin: 50px 50px 0px; animation-duration: 2s; animation-delay: -0.416667s; animation-direction: normal;">qd7n3u</d:slug>
</metadata></g></g></g></g><style type="text/css" class="ld ld-blink" style="transform-origin: 50px 50px 0px; animation-duration: 2s; animation-delay: -0.333333s; animation-direction: normal;">path,ellipse,circle,rect,polygon,polyline,line { stroke-width: 0; }@keyframes ld-blink {
  0% {
    opacity: 1;
  }
  49% {
    opacity: 1;
  }
  50% {
    opacity: 0;
  }
  100% {
    opacity: 0;
  }
}
@-webkit-keyframes ld-blink {
  0% {
    opacity: 1;
  }
  49% {
    opacity: 1;
  }
  50% {
    opacity: 0;
  }
  100% {
    opacity: 0;
  }
}
.ld.ld-blink {
  -webkit-animation: ld-blink 1s infinite linear;
  animation: ld-blink 1s infinite linear;
}
</style></svg></svg>