<svg class="ldi-9n0412" width="50px"  height="50px" xmlns="http://www.w3.org/2000/svg" xmlns:xlink="http://www.w3.org/1999/xlink" viewBox="0 0 100 100" preserveAspectRatio="xMidYMid"><!--?xml version="1.0" encoding="utf-8"?--><!--Generator: Adobe Illustrator 21.0.0, SVG Export Plug-In . SVG Version: 6.00 Build 0)--><svg version="1.1" id="Layer_1" xmlns="http://www.w3.org/2000/svg" xmlns:xlink="http://www.w3.org/1999/xlink" x="0px" y="0px" viewBox="0 0 100 100" style="transform-origin: 50px 50px 0px;" xml:space="preserve"><g style="transform-origin: 50px 50px 0px;"><g style="transform-origin: 50px 50px 0px; transform: scale(1);"><g style="transform-origin: 50px 50px 0px; animation-duration: 2s; animation-delay: 0.400047s; animation-direction: normal;" class="ld ld-spin"><g><style type="text/css" class="" style="transform-origin: 50px 50px 0px; animation-duration: 2s; animation-delay: 0.400047s; animation-direction: normal;">.st0{fill:#F4E6C8;} .st1{opacity:0.8;fill:#849B87;} .st2{fill:#D65A62;} .st3{fill:#E15C64;} .st4{fill:#F47E5F;} .st5{fill:#F7B26A;} .st6{fill:#FEE8A2;} .st7{fill:#ACBD81;} .st8{fill:#F5E169;} .st9{fill:#F0AF6B;} .st10{fill:#EA7C60;} .st11{fill:#A8B980;} .st12{fill:#829985;} .st13{fill:#798AAE;} .st14{fill:#8672A7;} .st15{fill:#CC5960;} .st16{fill:#E17A5F;} .st17{fill:#849B87;} .st18{opacity:0.8;fill:#E15C64;} .st19{opacity:0.8;fill:#F7B26A;} .st20{fill:#79A5B5;} .st21{opacity:0.8;fill:#79A5B4;} .st22{fill:#666766;}</style><g class="" style="transform-origin: 50px 50px 0px; animation-duration: 2s; animation-delay: 0.684643s; animation-direction: normal;"><path class="st2" d="M68,50c0,7.5-4.8,14.4-11.9,16.9C49,69.5,40.8,67.2,36,61.4c-4.7-5.8-5.3-14.2-1.5-20.6 c3.9-6.5,11.6-9.9,19-8.4C61.9,34,68,41.5,68,50z" fill="#bd4030" style="fill: rgb(189, 64, 48);"></path></g><g class="" style="transform-origin: 50px 50px 0px; animation-duration: 2s; animation-delay: 0.0271945s; animation-direction: normal;"><path class="st10" d="M39.9,24.1c3.4,0.9,6.8,2.1,10.1,3.5l0,0l0,0c0.3-0.1,0.5-0.2,0.8-0.3l0,0c4.2-1.7,8.5-3.2,13-4.1 c-1.9-5.2-5-11.5-10.3-13.9c-4.5-2-8.8,0.5-11.7,4c-2.4,2.9-4.1,6.4-5.4,9.9C37.5,23.4,38.7,23.7,39.9,24.1z" fill="#e0b83e" style="fill: rgb(224, 184, 62);"></path></g><g class="" style="transform-origin: 50px 50px 0px; animation-duration: 2s; animation-delay: 0.106269s; animation-direction: normal;"><path class="st11" d="M32.8,37.2c2.3-1.6,4.6-3.1,7-4.5l0,0c0,0,0.1,0,0.1,0l0,0l0,0l0,0c0,0,0,0,0,0l0,0l0,0l0,0 c2.4-1.4,5-2.7,7.5-3.9c-3.8-1.5-7.8-2.8-11.9-3.6c-0.1,0.3-0.2,0.6-0.3,0.9v0C34.2,29.6,33.4,33.4,32.8,37.2z" fill="#7f9626" style="fill: rgb(127, 150, 38);"></path></g><g class="" style="transform-origin: 50px 50px 0px; animation-duration: 2s; animation-delay: 0.867304s; animation-direction: normal;"><path class="st9" d="M22.1,46.1c2.6-2.7,5.5-5.1,8.5-7.3l0,0l0,0c0.1-1.1,0.3-2.2,0.5-3.2c0.1-0.8,0.1-1.9,0.5-2.6 c0.1-0.7,0.2-1.3,0.4-2l0,0c0.5-2.1,1-4.2,1.7-6.3c-5.4-0.9-12.4-1.4-17.2,2c-4.1,2.9-4,8-2.4,12.2c1.3,3.5,3.5,6.7,5.8,9.6 C20.6,47.7,21.4,46.9,22.1,46.1z" fill="#76be9f" style="fill: rgb(118, 190, 159);"></path></g><g class="" style="transform-origin: 50px 50px 0px; animation-duration: 2s; animation-delay: 0.909713s; animation-direction: normal;"><path class="st9" d="M56.2,27.4L56.2,27.4c-1.1,0.4-2.2,0.9-3.3,1.2l0,0c-0.1,0-0.2,0.1-0.3,0.1c2.5,1.2,4.9,2.5,7.3,3.8l0,0 l0.1,0.1l0,0l0,0l0,0l0,0l0,0c2.4,1.4,4.8,2.9,7.1,4.5c-0.6-4.1-1.5-8.1-2.8-12.1C61.6,25.7,58.8,26.3,56.2,27.4z" fill="#76be9f" style="fill: rgb(118, 190, 159);"></path></g><g class="" style="transform-origin: 50px 50px 0px; animation-duration: 2s; animation-delay: 0.269602s; animation-direction: normal;"><path class="st11" d="M67.8,30c0.7,2.9,1.2,5.8,1.6,8.8l0,0l0,0c3.8,2.9,7.5,6.1,10.7,9.7c3.6-4.4,7.8-10.5,6.8-16.5 c-0.8-4.8-5.4-7-9.7-7.6c-3.6-0.5-7.2-0.3-10.8,0.3C66.9,26.4,67.4,28.2,67.8,30z" fill="#7f9626" style="fill: rgb(127, 150, 38);"></path></g><g class="" style="transform-origin: 50px 50px 0px; animation-duration: 2s; animation-delay: 0.955596s; animation-direction: normal;"><path class="st10" d="M69.7,41.5c0.5,5.6,0.5,11.3,0,16.9c3.3-2.6,6.3-5.4,9.1-8.5C76,46.9,73,44.1,69.7,41.5z" fill="#e0b83e" style="fill: rgb(224, 184, 62);"></path></g><g class="" style="transform-origin: 50px 50px 0px; animation-duration: 2s; animation-delay: 0.780783s; animation-direction: normal;"><path class="st9" d="M77.9,53.9c-2.6,2.7-5.5,5.1-8.5,7.3l0,0l0,0c-0.3,2.6-0.7,5.3-1.3,7.8l0,0c-0.5,2.1-1,4.2-1.7,6.3 c5.3,0.9,11.9,1.3,16.7-1.7c4.3-2.7,4.5-7.7,3-12.1c-1.3-3.7-3.5-7-6-10C79.4,52.3,78.6,53.1,77.9,53.9z" fill="#76be9f" style="fill: rgb(118, 190, 159);"></path></g><g class="" style="transform-origin: 50px 50px 0px; animation-duration: 2s; animation-delay: 0.377089s; animation-direction: normal;"><path class="st10" d="M60.1,75.9c-3.4-0.9-6.8-2.1-10.1-3.5l0,0l0,0c-4.4,1.9-9,3.4-13.7,4.4c1.9,5.2,5,11.5,10.3,13.9 c4.5,2,8.8-0.5,11.7-4c2.4-2.9,4.1-6.4,5.4-9.9C62.5,76.6,61.3,76.3,60.1,75.9z" fill="#e0b83e" style="fill: rgb(224, 184, 62);"></path></g><g class="" style="transform-origin: 50px 50px 0px; animation-duration: 2s; animation-delay: 0.568121s; animation-direction: normal;"><path class="st11" d="M67.1,63.2c0-0.1,0-0.2,0-0.3c-2.3,1.6-4.6,3-7,4.4l0,0l-0.1,0.1l0,0c0,0-0.1,0-0.1,0l0,0c0,0,0,0,0,0l0,0 c-2.5,1.4-4.9,2.7-7.5,3.9c3.8,1.5,7.8,2.8,11.9,3.6c0.1-0.3,0.2-0.6,0.3-0.9v0C65.8,70.5,66.6,66.9,67.1,63.2z" fill="#7f9626" style="fill: rgb(127, 150, 38);"></path></g><g class="" style="transform-origin: 50px 50px 0px; animation-duration: 2s; animation-delay: 0.923101s; animation-direction: normal;"><path class="st11" d="M32.2,70c-0.7-2.9-1.2-5.8-1.6-8.8l0,0l0,0c-2.6-2-5.2-4.1-7.6-6.4l0,0c-1.1-1-2.1-2.1-3.1-3.2 C16.3,55.9,12.1,62,13.1,68c0.8,4.8,5.4,7,9.7,7.6c3.6,0.5,7.2,0.3,10.8-0.3C33.1,73.5,32.6,71.8,32.2,70z" fill="#7f9626" style="fill: rgb(127, 150, 38);"></path></g><g class="" style="transform-origin: 50px 50px 0px; animation-duration: 2s; animation-delay: 0.88741s; animation-direction: normal;"><path class="st10" d="M28.9,57.3L28.9,57.3c0.5,0.4,1,0.8,1.5,1.2c-0.5-5.6-0.5-11.3,0-16.9c-3.3,2.6-6.3,5.4-9.1,8.5 c1.2,1.3,2.4,2.5,3.6,3.7C26.1,55,27.6,56,28.9,57.3z" fill="#e0b83e" style="fill: rgb(224, 184, 62);"></path></g><g class="" style="transform-origin: 50px 50px 0px; animation-duration: 2s; animation-delay: 0.553331s; animation-direction: normal;"><path class="st9" d="M45,72.2c0.8-0.3,1.6-0.6,2.4-0.9c-2.5-1.2-5-2.4-7.3-3.8l0,0L40,67.4l0,0l0,0l0,0c0,0,0,0,0,0l0,0 c0,0-0.1,0-0.1-0.1l0,0c-0.9-0.5-1.8-1-2.7-1.6c0,0,0,0,0,0c0,0,0,0,0,0c0,0,0,0,0,0c-1.5-0.9-2.9-1.9-4.3-2.9 c0.6,4.1,1.5,8.1,2.8,12.1C38.8,74.3,42,73.3,45,72.2z" fill="#76be9f" style="fill: rgb(118, 190, 159);"></path></g><metadata xmlns:d="https://loading.io/stock/" class="" style="transform-origin: 50px 50px 0px; animation-duration: 2s; animation-delay: 0.740701s; animation-direction: normal;">
<d:name class="" style="transform-origin: 50px 50px 0px; animation-duration: 2s; animation-delay: 0.584355s; animation-direction: normal;">atom</d:name>
<d:tags class="" style="transform-origin: 50px 50px 0px; animation-duration: 2s; animation-delay: 1.07738s; animation-direction: normal;">nuclear,electron,core,science,experiment,radiation,atom,spinner</d:tags>
<d:license class="" style="transform-origin: 50px 50px 0px; animation-duration: 2s; animation-delay: 1.05327s; animation-direction: normal;">rf</d:license>
<d:slug class="" style="transform-origin: 50px 50px 0px; animation-duration: 2s; animation-delay: 0.558983s; animation-direction: normal;">9n0412</d:slug>
</metadata></g></g></g></g>
        <style type="text/css" class="" style="transform-origin: 50px 50px 0px; animation-duration: 2s; animation-delay: 1.16293s; animation-direction: normal;">
            path,ellipse,circle,rect,polygon,polyline,line { stroke-width: 0; }@keyframes ld-spin {
              0% {
                -webkit-transform: rotate(0);
                transform: rotate(0);
                animation-timing-function: cubic-bezier(0.55, 0.055, 0.675, 0.19);
              }
              50% {
                -webkit-transform: rotate(180deg);
                transform: rotate(180deg);
                animation-timing-function: cubic-bezier(0.215, 0.61, 0.355, 1);
              }
              100% {
                -webkit-transform: rotate(360deg);
                transform: rotate(360deg);
              }
            }
            @-webkit-keyframes ld-spin {
              0% {
                -webkit-transform: rotate(0);
                transform: rotate(0);
                animation-timing-function: cubic-bezier(0.55, 0.055, 0.675, 0.19);
              }
              50% {
                -webkit-transform: rotate(180deg);
                transform: rotate(180deg);
                animation-timing-function: cubic-bezier(0.215, 0.61, 0.355, 1);
              }
              100% {
                -webkit-transform: rotate(360deg);
                transform: rotate(360deg);
              }
            }
            .ld.ld-spin {
              -webkit-animation: ld-spin 1s infinite;
              animation: ld-spin 1s infinite;
            }
        </style>
    </svg>
</svg>

